<?xml version="1.0" encoding="UTF-8" standalone="no"?><!DOCTYPE svg PUBLIC "-//W3C//DTD SVG 1.1//EN" "http://www.w3.org/Graphics/SVG/1.1/DTD/svg11.dtd"><svg width="100%" height="100%" viewBox="0 0 1200 660" version="1.1" xmlns="http://www.w3.org/2000/svg" xmlns:xlink="http://www.w3.org/1999/xlink" xml:space="preserve" xmlns:serif="http://www.serif.com/" style="fill-rule:evenodd;clip-rule:evenodd;stroke-linejoin:round;stroke-miterlimit:2;"><g><g><g><g><g><rect x="199.977" y="434.484" width="3.312" height="27.154" style="fill:#0d0a05;fill-rule:nonzero;"/><path d="M208.78,461.638l0,-18.873l3.12,0l0,4.16l-0.192,-0c0.565,-1.464 1.463,-2.581 2.696,-3.351c1.232,-0.77 2.632,-1.155 4.198,-1.155c1.541,-0 2.818,0.269 3.832,0.808c1.015,0.54 1.779,1.368 2.292,2.485c0.514,1.117 0.77,2.522 0.77,4.217l0,11.709l-3.273,0l-0,-11.516c-0,-1.079 -0.148,-1.99 -0.443,-2.735c-0.296,-0.745 -0.764,-1.303 -1.406,-1.675c-0.642,-0.373 -1.477,-0.559 -2.504,-0.559c-1.155,0 -2.17,0.251 -3.043,0.751c-0.873,0.501 -1.553,1.188 -2.041,2.061c-0.488,0.873 -0.732,1.874 -0.732,3.004l0,10.669l-3.274,0Z" style="fill:#0d0a05;fill-rule:nonzero;"/><path d="M239.559,461.638l0,-2.465l9.398,-10.014c0.899,-0.976 1.618,-1.868 2.157,-2.677c0.539,-0.809 0.925,-1.598 1.156,-2.369c0.231,-0.77 0.346,-1.553 0.346,-2.349c0,-1.515 -0.468,-2.684 -1.406,-3.505c-0.937,-0.822 -2.291,-1.233 -4.063,-1.233c-1.31,0 -2.581,0.251 -3.813,0.751c-1.233,0.501 -2.388,1.291 -3.467,2.369l-1.271,-2.581c1.079,-1.052 2.395,-1.887 3.948,-2.503c1.554,-0.616 3.178,-0.924 4.873,-0.924c1.797,-0 3.331,0.295 4.602,0.885c1.271,0.591 2.241,1.438 2.908,2.542c0.668,1.105 1.002,2.427 1.002,3.968c-0,0.821 -0.097,1.617 -0.289,2.388c-0.193,0.77 -0.482,1.54 -0.867,2.311c-0.385,0.77 -0.879,1.56 -1.483,2.368c-0.603,0.809 -1.316,1.637 -2.137,2.485l-7.858,8.242l0,-0.539l13.751,-0l-0,2.85l-17.487,0Z" style="fill:#0d0a05;fill-rule:nonzero;"/><path d="M269.585,461.985c-2.08,-0 -3.832,-0.533 -5.258,-1.599c-1.425,-1.065 -2.497,-2.632 -3.216,-4.699c-0.719,-2.067 -1.078,-4.615 -1.078,-7.645c-0,-3.03 0.359,-5.579 1.078,-7.646c0.719,-2.067 1.791,-3.627 3.216,-4.679c1.426,-1.053 3.178,-1.579 5.258,-1.579c2.105,-0 3.864,0.526 5.277,1.579c1.412,1.052 2.477,2.606 3.196,4.66c0.719,2.054 1.079,4.596 1.079,7.626c-0,3.03 -0.36,5.585 -1.079,7.665c-0.719,2.08 -1.791,3.653 -3.216,4.718c-1.425,1.066 -3.177,1.599 -5.257,1.599Zm-0,-2.851c2.131,0 3.71,-0.905 4.737,-2.715c1.027,-1.81 1.541,-4.615 1.541,-8.416c0,-3.8 -0.507,-6.586 -1.521,-8.358c-1.015,-1.771 -2.6,-2.657 -4.757,-2.657c-2.131,-0 -3.71,0.892 -4.738,2.677c-1.027,1.784 -1.54,4.577 -1.54,8.377c-0,3.774 0.513,6.567 1.54,8.377c1.028,1.81 2.607,2.715 4.738,2.715Z" style="fill:#0d0a05;fill-rule:nonzero;"/><path d="M283.126,461.638l-0,-2.465l9.397,-10.014c0.899,-0.976 1.618,-1.868 2.157,-2.677c0.54,-0.809 0.925,-1.598 1.156,-2.369c0.231,-0.77 0.347,-1.553 0.347,-2.349c-0,-1.515 -0.469,-2.684 -1.406,-3.505c-0.938,-0.822 -2.292,-1.233 -4.064,-1.233c-1.309,0 -2.58,0.251 -3.813,0.751c-1.232,0.501 -2.388,1.291 -3.466,2.369l-1.271,-2.581c1.078,-1.052 2.394,-1.887 3.948,-2.503c1.553,-0.616 3.177,-0.924 4.872,-0.924c1.797,-0 3.331,0.295 4.603,0.885c1.271,0.591 2.24,1.438 2.907,2.542c0.668,1.105 1.002,2.427 1.002,3.968c-0,0.821 -0.096,1.617 -0.289,2.388c-0.193,0.77 -0.481,1.54 -0.867,2.311c-0.385,0.77 -0.879,1.56 -1.482,2.368c-0.604,0.809 -1.316,1.637 -2.138,2.485l-7.857,8.242l-0,-0.539l13.75,-0l-0,2.85l-17.486,0Z" style="fill:#0d0a05;fill-rule:nonzero;"/><path d="M313.151,461.985c-2.08,-0 -3.832,-0.533 -5.257,-1.599c-1.425,-1.065 -2.497,-2.632 -3.216,-4.699c-0.719,-2.067 -1.079,-4.615 -1.079,-7.645c0,-3.03 0.36,-5.579 1.079,-7.646c0.719,-2.067 1.791,-3.627 3.216,-4.679c1.425,-1.053 3.177,-1.579 5.257,-1.579c2.106,-0 3.865,0.526 5.277,1.579c1.412,1.052 2.478,2.606 3.197,4.66c0.719,2.054 1.078,4.596 1.078,7.626c0,3.03 -0.359,5.585 -1.078,7.665c-0.719,2.08 -1.791,3.653 -3.216,4.718c-1.426,1.066 -3.178,1.599 -5.258,1.599Zm0,-2.851c2.131,0 3.711,-0.905 4.738,-2.715c1.027,-1.81 1.54,-4.615 1.54,-8.416c0,-3.8 -0.507,-6.586 -1.521,-8.358c-1.014,-1.771 -2.6,-2.657 -4.757,-2.657c-2.131,-0 -3.71,0.892 -4.737,2.677c-1.027,1.784 -1.541,4.577 -1.541,8.377c0,3.774 0.514,6.567 1.541,8.377c1.027,1.81 2.606,2.715 4.737,2.715Z" style="fill:#0d0a05;fill-rule:nonzero;"/><path d="M327.77,466.607l-1.579,-1.233c0.462,-0.462 0.822,-0.937 1.079,-1.425c0.256,-0.488 0.436,-0.982 0.539,-1.483c0.103,-0.501 0.167,-0.982 0.192,-1.444l0.655,0.616l-2.696,0l0,-4.083l4.198,0l0,2.966c0,0.745 -0.077,1.47 -0.231,2.176c-0.154,0.706 -0.404,1.393 -0.751,2.061c-0.347,0.667 -0.815,1.284 -1.406,1.849Z" style="fill:#0d0a05;fill-rule:nonzero;"/><path d="M351.347,461.985c-2.26,-0 -3.955,-0.597 -5.084,-1.791c-1.13,-1.194 -1.695,-2.895 -1.695,-5.104l-0,-9.706l-3.775,0l0,-2.619l3.852,0l-0,-5.7l3.197,-0l-0,5.7l6.393,0l0,2.619l-6.393,0l-0,9.398c-0,1.464 0.314,2.561 0.943,3.293c0.629,0.732 1.637,1.098 3.024,1.098c0.462,-0 0.924,-0.051 1.386,-0.154c0.463,-0.103 0.886,-0.231 1.272,-0.385l0.577,2.542c-0.436,0.231 -0.995,0.424 -1.675,0.578c-0.681,0.154 -1.355,0.231 -2.022,0.231Z" style="fill:#0d0a05;fill-rule:nonzero;"/><path d="M357.03,461.638l0,-27.154l3.235,0l0,12.364l-0.269,-0c0.565,-1.412 1.457,-2.504 2.677,-3.274c1.219,-0.77 2.612,-1.155 4.179,-1.155c1.54,-0 2.818,0.276 3.832,0.828c1.014,0.552 1.778,1.386 2.292,2.503c0.513,1.117 0.77,2.51 0.77,4.179l0,11.709l-3.274,0l0,-11.516c0,-1.079 -0.147,-1.99 -0.443,-2.735c-0.295,-0.745 -0.764,-1.303 -1.406,-1.675c-0.641,-0.373 -1.476,-0.559 -2.503,-0.559c-1.156,0 -2.17,0.251 -3.043,0.751c-0.873,0.501 -1.553,1.188 -2.041,2.061c-0.488,0.873 -0.732,1.874 -0.732,3.004l-0,10.669l-3.274,0Z" style="fill:#0d0a05;fill-rule:nonzero;"/><path d="M378.659,461.638l0,-18.873l3.081,0l0,4.391l-0.154,-0c0.437,-1.464 1.214,-2.587 2.331,-3.37c1.117,-0.783 2.535,-1.239 4.256,-1.367l1.425,-0.116l0.308,2.927l-2.388,0.231c-1.772,0.154 -3.139,0.726 -4.102,1.714c-0.963,0.989 -1.444,2.279 -1.444,3.871l-0,10.592l-3.313,0Z" style="fill:#0d0a05;fill-rule:nonzero;"/><path d="M400.866,461.985c-2.054,-0 -3.826,-0.392 -5.315,-1.175c-1.49,-0.783 -2.632,-1.907 -3.428,-3.37c-0.796,-1.464 -1.194,-3.21 -1.194,-5.238c-0,-1.926 0.379,-3.621 1.136,-5.085c0.758,-1.463 1.83,-2.612 3.216,-3.447c1.387,-0.834 3.004,-1.251 4.853,-1.251c1.798,-0 3.319,0.385 4.564,1.155c1.246,0.77 2.202,1.855 2.87,3.255c0.667,1.399 1.001,3.074 1.001,5.026l0,1.155l-15.175,0l-0,-2.233l13.018,-0l-0.654,0.616c-0,-2.054 -0.476,-3.653 -1.426,-4.795c-0.95,-1.143 -2.336,-1.714 -4.159,-1.714c-1.258,-0 -2.343,0.288 -3.255,0.866c-0.911,0.578 -1.611,1.387 -2.099,2.427c-0.488,1.04 -0.732,2.266 -0.732,3.678l0,0.308c0,1.566 0.263,2.876 0.79,3.929c0.526,1.052 1.303,1.855 2.33,2.407c1.027,0.552 2.26,0.828 3.698,0.828c1.078,0 2.144,-0.16 3.196,-0.481c1.053,-0.321 2.055,-0.867 3.005,-1.637l1.117,2.311c-0.925,0.796 -2.048,1.405 -3.371,1.829c-1.322,0.424 -2.651,0.636 -3.986,0.636Z" style="fill:#0d0a05;fill-rule:nonzero;"/><path d="M421.108,461.985c-2.054,-0 -3.825,-0.392 -5.315,-1.175c-1.489,-0.783 -2.632,-1.907 -3.428,-3.37c-0.796,-1.464 -1.194,-3.21 -1.194,-5.238c0,-1.926 0.379,-3.621 1.137,-5.085c0.757,-1.463 1.829,-2.612 3.216,-3.447c1.386,-0.834 3.004,-1.251 4.853,-1.251c1.797,-0 3.318,0.385 4.564,1.155c1.245,0.77 2.202,1.855 2.869,3.255c0.668,1.399 1.002,3.074 1.002,5.026l-0,1.155l-15.176,0l0,-2.233l13.019,-0l-0.655,0.616c0,-2.054 -0.475,-3.653 -1.425,-4.795c-0.95,-1.143 -2.337,-1.714 -4.16,-1.714c-1.258,-0 -2.343,0.288 -3.254,0.866c-0.912,0.578 -1.612,1.387 -2.1,2.427c-0.487,1.04 -0.731,2.266 -0.731,3.678l-0,0.308c-0,1.566 0.263,2.876 0.789,3.929c0.527,1.052 1.303,1.855 2.33,2.407c1.028,0.552 2.26,0.828 3.698,0.828c1.078,0 2.144,-0.16 3.197,-0.481c1.053,-0.321 2.054,-0.867 3.004,-1.637l1.117,2.311c-0.924,0.796 -2.048,1.405 -3.37,1.829c-1.323,0.424 -2.651,0.636 -3.987,0.636Z" style="fill:#0d0a05;fill-rule:nonzero;"/><path d="M442.605,461.638l0,-16.331l-3.775,0l0,-2.542l4.661,0l-0.886,0.848l0,-1.349c0,-2.49 0.661,-4.384 1.984,-5.681c1.322,-1.296 3.293,-2.009 5.912,-2.137l1.733,-0.116l0.27,2.619l-2.042,0.116c-0.975,0.051 -1.804,0.25 -2.484,0.597c-0.68,0.346 -1.2,0.86 -1.56,1.54c-0.359,0.681 -0.539,1.573 -0.539,2.677l-0,1.348l-0.462,-0.462l6.162,0l0,2.542l-5.7,0l-0,16.331l-3.274,0Z" style="fill:#0d0a05;fill-rule:nonzero;"/><path d="M460.036,461.985c-1.31,-0 -2.484,-0.251 -3.524,-0.751c-1.04,-0.501 -1.862,-1.188 -2.465,-2.061c-0.604,-0.873 -0.906,-1.849 -0.906,-2.927c0,-1.412 0.379,-2.529 1.137,-3.351c0.757,-0.822 1.97,-1.406 3.639,-1.753c1.669,-0.346 3.878,-0.52 6.625,-0.52l2.234,0l0,2.196l-2.118,-0c-1.541,-0 -2.838,0.051 -3.89,0.154c-1.053,0.103 -1.9,0.276 -2.542,0.52c-0.642,0.244 -1.105,0.571 -1.387,0.982c-0.282,0.411 -0.424,0.937 -0.424,1.579c0,1.053 0.385,1.887 1.156,2.504c0.77,0.616 1.784,0.924 3.043,0.924c1.078,0 2.035,-0.25 2.869,-0.751c0.835,-0.501 1.502,-1.175 2.003,-2.022c0.501,-0.847 0.751,-1.797 0.751,-2.85l-0,-4.391c-0,-1.541 -0.372,-2.664 -1.117,-3.37c-0.745,-0.706 -1.9,-1.059 -3.466,-1.059c-1.105,-0 -2.202,0.16 -3.294,0.481c-1.091,0.321 -2.214,0.841 -3.37,1.56l-1.078,-2.388c0.719,-0.488 1.521,-0.899 2.407,-1.233c0.886,-0.333 1.804,-0.59 2.754,-0.77c0.95,-0.18 1.874,-0.269 2.773,-0.269c1.643,-0 3.024,0.256 4.141,0.77c1.117,0.513 1.97,1.309 2.561,2.388c0.59,1.078 0.886,2.465 0.886,4.16l-0,11.901l-2.966,0l0,-4.275l0.154,-0c-0.282,0.898 -0.725,1.694 -1.329,2.388c-0.603,0.693 -1.348,1.239 -2.234,1.637c-0.886,0.398 -1.893,0.597 -3.023,0.597Z" style="fill:#0d0a05;fill-rule:nonzero;"/><path d="M474.347,461.638l-0,-18.873l3.081,0l0,4.391l-0.154,-0c0.437,-1.464 1.213,-2.587 2.33,-3.37c1.117,-0.783 2.536,-1.239 4.256,-1.367l1.425,-0.116l0.309,2.927l-2.388,0.231c-1.772,0.154 -3.14,0.726 -4.102,1.714c-0.963,0.989 -1.445,2.279 -1.445,3.871l0,10.592l-3.312,0Z" style="fill:#0d0a05;fill-rule:nonzero;"/><path d="M488.042,461.638l-0,-18.873l3.119,0l0,4.16l-0.231,-0c0.334,-0.899 0.803,-1.688 1.406,-2.369c0.604,-0.68 1.329,-1.207 2.176,-1.579c0.848,-0.372 1.785,-0.558 2.812,-0.558c1.618,-0 2.94,0.398 3.967,1.194c1.027,0.796 1.695,1.912 2.003,3.35l-0.308,0c0.488,-1.335 1.309,-2.426 2.465,-3.273c1.155,-0.848 2.555,-1.271 4.198,-1.271c1.438,-0 2.632,0.276 3.582,0.828c0.95,0.552 1.669,1.38 2.157,2.484c0.488,1.104 0.732,2.503 0.732,4.198l-0,11.709l-3.236,0l0,-11.516c0,-1.669 -0.301,-2.915 -0.905,-3.736c-0.603,-0.822 -1.637,-1.233 -3.1,-1.233c-1.053,0 -1.971,0.251 -2.754,0.751c-0.783,0.501 -1.38,1.188 -1.791,2.061c-0.411,0.873 -0.616,1.9 -0.616,3.081l-0,10.592l-3.274,0l-0,-11.516c-0,-1.669 -0.315,-2.915 -0.944,-3.736c-0.629,-0.822 -1.637,-1.233 -3.023,-1.233c-1.053,0 -1.971,0.257 -2.754,0.77c-0.783,0.514 -1.38,1.214 -1.791,2.1c-0.411,0.885 -0.617,1.868 -0.617,2.946l0,10.669l-3.273,0Z" style="fill:#0d0a05;fill-rule:nonzero;"/><path d="M527.773,461.985c-1.001,-0 -1.983,-0.097 -2.946,-0.289c-0.963,-0.193 -1.855,-0.462 -2.677,-0.809c-0.822,-0.347 -1.528,-0.764 -2.119,-1.252l1.04,-2.349c0.642,0.488 1.336,0.892 2.08,1.213c0.745,0.321 1.515,0.552 2.311,0.693c0.796,0.141 1.579,0.212 2.35,0.212c1.515,0 2.677,-0.25 3.485,-0.751c0.809,-0.501 1.214,-1.2 1.214,-2.099c-0,-0.745 -0.251,-1.322 -0.751,-1.733c-0.501,-0.411 -1.304,-0.732 -2.408,-0.963l-3.736,-0.694c-1.669,-0.333 -2.927,-0.93 -3.774,-1.791c-0.848,-0.86 -1.271,-1.97 -1.271,-3.331c-0,-1.13 0.308,-2.119 0.924,-2.966c0.616,-0.847 1.502,-1.502 2.658,-1.964c1.155,-0.462 2.503,-0.693 4.044,-0.693c0.873,-0 1.746,0.089 2.619,0.269c0.873,0.18 1.688,0.443 2.446,0.79c0.757,0.346 1.393,0.776 1.906,1.29l-1.078,2.311c-0.514,-0.462 -1.098,-0.854 -1.753,-1.175c-0.654,-0.321 -1.341,-0.558 -2.06,-0.712c-0.719,-0.154 -1.425,-0.231 -2.119,-0.231c-1.438,-0 -2.555,0.269 -3.351,0.808c-0.796,0.54 -1.194,1.259 -1.194,2.157c0,0.745 0.238,1.329 0.713,1.753c0.475,0.423 1.226,0.738 2.253,0.943l3.659,0.732c1.798,0.36 3.139,0.944 4.025,1.753c0.886,0.809 1.329,1.906 1.329,3.293c-0,1.155 -0.327,2.15 -0.982,2.985c-0.655,0.834 -1.56,1.476 -2.716,1.926c-1.155,0.449 -2.529,0.674 -4.121,0.674Z" style="fill:#0d0a05;fill-rule:nonzero;"/><path d="M553.083,461.638l-6.779,-18.873l3.351,0l5.431,15.946l-0.578,-0l5.816,-15.946l2.773,0l5.739,15.946l-0.539,-0l5.469,-15.946l3.274,0l-6.856,18.873l-3.081,0l-5.97,-16.292l1.04,-0l-5.97,16.292l-3.12,0Z" style="fill:#0d0a05;fill-rule:nonzero;"/><path d="M588.424,461.985c-2.055,-0 -3.826,-0.392 -5.316,-1.175c-1.489,-0.783 -2.632,-1.907 -3.428,-3.37c-0.796,-1.464 -1.194,-3.21 -1.194,-5.238c0,-1.926 0.379,-3.621 1.137,-5.085c0.757,-1.463 1.829,-2.612 3.216,-3.447c1.386,-0.834 3.004,-1.251 4.853,-1.251c1.797,-0 3.319,0.385 4.564,1.155c1.245,0.77 2.202,1.855 2.869,3.255c0.668,1.399 1.002,3.074 1.002,5.026l-0,1.155l-15.175,0l-0,-2.233l13.018,-0l-0.655,0.616c0,-2.054 -0.475,-3.653 -1.425,-4.795c-0.95,-1.143 -2.337,-1.714 -4.16,-1.714c-1.258,-0 -2.343,0.288 -3.254,0.866c-0.912,0.578 -1.612,1.387 -2.099,2.427c-0.488,1.04 -0.732,2.266 -0.732,3.678l-0,0.308c-0,1.566 0.263,2.876 0.789,3.929c0.527,1.052 1.304,1.855 2.331,2.407c1.027,0.552 2.259,0.828 3.697,0.828c1.079,0 2.144,-0.16 3.197,-0.481c1.053,-0.321 2.054,-0.867 3.004,-1.637l1.117,2.311c-0.924,0.796 -2.048,1.405 -3.37,1.829c-1.322,0.424 -2.651,0.636 -3.986,0.636Z" style="fill:#0d0a05;fill-rule:nonzero;"/><path d="M599.846,461.638l-0,-18.873l3.081,0l0,4.391l-0.154,-0c0.437,-1.464 1.213,-2.587 2.33,-3.37c1.117,-0.783 2.536,-1.239 4.256,-1.367l1.425,-0.116l0.309,2.927l-2.388,0.231c-1.772,0.154 -3.139,0.726 -4.102,1.714c-0.963,0.989 -1.445,2.279 -1.445,3.871l0,10.592l-3.312,0Z" style="fill:#0d0a05;fill-rule:nonzero;"/><path d="M622.053,461.985c-2.054,-0 -3.826,-0.392 -5.315,-1.175c-1.49,-0.783 -2.632,-1.907 -3.428,-3.37c-0.796,-1.464 -1.194,-3.21 -1.194,-5.238c-0,-1.926 0.378,-3.621 1.136,-5.085c0.757,-1.463 1.829,-2.612 3.216,-3.447c1.386,-0.834 3.004,-1.251 4.853,-1.251c1.797,-0 3.319,0.385 4.564,1.155c1.245,0.77 2.202,1.855 2.87,3.255c0.667,1.399 1.001,3.074 1.001,5.026l-0,1.155l-15.175,0l-0,-2.233l13.018,-0l-0.655,0.616c0,-2.054 -0.475,-3.653 -1.425,-4.795c-0.95,-1.143 -2.336,-1.714 -4.16,-1.714c-1.258,-0 -2.343,0.288 -3.254,0.866c-0.912,0.578 -1.611,1.387 -2.099,2.427c-0.488,1.04 -0.732,2.266 -0.732,3.678l-0,0.308c-0,1.566 0.263,2.876 0.789,3.929c0.527,1.052 1.304,1.855 2.331,2.407c1.027,0.552 2.259,0.828 3.697,0.828c1.079,0 2.144,-0.16 3.197,-0.481c1.053,-0.321 2.054,-0.867 3.004,-1.637l1.117,2.311c-0.924,0.796 -2.047,1.405 -3.37,1.829c-1.322,0.424 -2.651,0.636 -3.986,0.636Z" style="fill:#0d0a05;fill-rule:nonzero;"/><path d="M650.713,461.985c-1.926,-0 -3.588,-0.411 -4.988,-1.233c-1.399,-0.822 -2.477,-1.971 -3.235,-3.447c-0.757,-1.476 -1.136,-3.203 -1.136,-5.18c-0,-2.003 0.379,-3.73 1.136,-5.181c0.758,-1.451 1.842,-2.568 3.255,-3.351c1.412,-0.783 3.068,-1.174 4.968,-1.174c1.233,-0 2.427,0.211 3.582,0.635c1.156,0.424 2.106,1.008 2.85,1.753l-1.117,2.426c-0.744,-0.693 -1.566,-1.213 -2.465,-1.56c-0.898,-0.347 -1.771,-0.52 -2.619,-0.52c-1.977,0 -3.517,0.604 -4.622,1.81c-1.104,1.207 -1.656,2.94 -1.656,5.2c0,2.208 0.552,3.942 1.656,5.2c1.105,1.258 2.645,1.887 4.622,1.887c0.822,0 1.682,-0.173 2.581,-0.52c0.899,-0.347 1.72,-0.854 2.465,-1.521l1.117,2.388c-0.745,0.744 -1.695,1.328 -2.85,1.752c-1.156,0.424 -2.337,0.636 -3.544,0.636Z" style="fill:#0d0a05;fill-rule:nonzero;"/><path d="M667.489,461.985c-1.874,-0 -3.498,-0.405 -4.872,-1.214c-1.374,-0.808 -2.433,-1.945 -3.178,-3.408c-0.744,-1.464 -1.117,-3.197 -1.117,-5.2c0,-1.977 0.373,-3.691 1.117,-5.142c0.745,-1.451 1.804,-2.58 3.178,-3.389c1.374,-0.809 2.998,-1.213 4.872,-1.213c1.875,-0 3.499,0.404 4.873,1.213c1.373,0.809 2.433,1.938 3.177,3.389c0.745,1.451 1.117,3.165 1.117,5.142c0,2.003 -0.372,3.736 -1.117,5.2c-0.744,1.463 -1.804,2.6 -3.177,3.408c-1.374,0.809 -2.998,1.214 -4.873,1.214Zm0,-2.696c1.823,-0 3.261,-0.63 4.314,-1.888c1.053,-1.258 1.579,-3.004 1.579,-5.238c0,-2.234 -0.526,-3.967 -1.579,-5.2c-1.053,-1.232 -2.491,-1.848 -4.314,-1.848c-1.823,-0 -3.261,0.616 -4.313,1.848c-1.053,1.233 -1.58,2.966 -1.58,5.2c0,2.234 0.533,3.98 1.599,5.238c1.065,1.258 2.497,1.888 4.294,1.888Z" style="fill:#0d0a05;fill-rule:nonzero;"/><path d="M680.529,461.638l0,-18.873l3.12,0l0,4.16l-0.192,-0c0.564,-1.464 1.463,-2.581 2.696,-3.351c1.232,-0.77 2.632,-1.155 4.198,-1.155c1.541,-0 2.818,0.269 3.832,0.808c1.014,0.54 1.778,1.368 2.292,2.485c0.513,1.117 0.77,2.522 0.77,4.217l0,11.709l-3.274,0l0,-11.516c0,-1.079 -0.147,-1.99 -0.443,-2.735c-0.295,-0.745 -0.763,-1.303 -1.405,-1.675c-0.642,-0.373 -1.477,-0.559 -2.504,-0.559c-1.155,0 -2.17,0.251 -3.043,0.751c-0.873,0.501 -1.553,1.188 -2.041,2.061c-0.488,0.873 -0.732,1.874 -0.732,3.004l0,10.669l-3.274,0Z" style="fill:#0d0a05;fill-rule:nonzero;"/><path d="M707.435,461.638l-8.011,-18.873l3.505,0l6.432,16.023l-0.578,-0l6.509,-16.023l3.351,0l-8.05,18.873l-3.158,0Z" style="fill:#0d0a05;fill-rule:nonzero;"/><path d="M729.603,461.985c-2.054,-0 -3.826,-0.392 -5.315,-1.175c-1.489,-0.783 -2.632,-1.907 -3.428,-3.37c-0.796,-1.464 -1.194,-3.21 -1.194,-5.238c0,-1.926 0.379,-3.621 1.136,-5.085c0.758,-1.463 1.83,-2.612 3.217,-3.447c1.386,-0.834 3.004,-1.251 4.853,-1.251c1.797,-0 3.318,0.385 4.564,1.155c1.245,0.77 2.202,1.855 2.869,3.255c0.668,1.399 1.002,3.074 1.002,5.026l-0,1.155l-15.176,0l0,-2.233l13.019,-0l-0.655,0.616c-0,-2.054 -0.475,-3.653 -1.425,-4.795c-0.95,-1.143 -2.337,-1.714 -4.16,-1.714c-1.258,-0 -2.343,0.288 -3.255,0.866c-0.911,0.578 -1.611,1.387 -2.099,2.427c-0.488,1.04 -0.731,2.266 -0.731,3.678l-0,0.308c-0,1.566 0.263,2.876 0.789,3.929c0.526,1.052 1.303,1.855 2.33,2.407c1.027,0.552 2.26,0.828 3.698,0.828c1.078,0 2.144,-0.16 3.197,-0.481c1.052,-0.321 2.054,-0.867 3.004,-1.637l1.117,2.311c-0.924,0.796 -2.048,1.405 -3.37,1.829c-1.323,0.424 -2.651,0.636 -3.987,0.636Z" style="fill:#0d0a05;fill-rule:nonzero;"/><path d="M741.026,461.638l-0,-18.873l3.081,0l-0,4.391l-0.154,-0c0.436,-1.464 1.213,-2.587 2.33,-3.37c1.117,-0.783 2.536,-1.239 4.256,-1.367l1.425,-0.116l0.308,2.927l-2.388,0.231c-1.771,0.154 -3.139,0.726 -4.102,1.714c-0.963,0.989 -1.444,2.279 -1.444,3.871l0,10.592l-3.312,0Z" style="fill:#0d0a05;fill-rule:nonzero;"/><path d="M763.425,461.985c-2.26,-0 -3.954,-0.597 -5.084,-1.791c-1.13,-1.194 -1.695,-2.895 -1.695,-5.104l0,-9.706l-3.774,0l-0,-2.619l3.851,0l0,-5.7l3.197,-0l0,5.7l6.394,0l-0,2.619l-6.394,0l0,9.398c0,1.464 0.315,2.561 0.944,3.293c0.629,0.732 1.637,1.098 3.023,1.098c0.462,-0 0.925,-0.051 1.387,-0.154c0.462,-0.103 0.886,-0.231 1.271,-0.385l0.578,2.542c-0.437,0.231 -0.995,0.424 -1.676,0.578c-0.68,0.154 -1.354,0.231 -2.022,0.231Z" style="fill:#0d0a05;fill-rule:nonzero;"/><path d="M777.736,461.985c-2.054,-0 -3.826,-0.392 -5.315,-1.175c-1.489,-0.783 -2.632,-1.907 -3.428,-3.37c-0.796,-1.464 -1.194,-3.21 -1.194,-5.238c-0,-1.926 0.379,-3.621 1.136,-5.085c0.758,-1.463 1.83,-2.612 3.216,-3.447c1.387,-0.834 3.004,-1.251 4.853,-1.251c1.798,-0 3.319,0.385 4.564,1.155c1.246,0.77 2.202,1.855 2.87,3.255c0.667,1.399 1.001,3.074 1.001,5.026l0,1.155l-15.175,0l-0,-2.233l13.018,-0l-0.654,0.616c-0,-2.054 -0.475,-3.653 -1.426,-4.795c-0.95,-1.143 -2.336,-1.714 -4.159,-1.714c-1.258,-0 -2.343,0.288 -3.255,0.866c-0.911,0.578 -1.611,1.387 -2.099,2.427c-0.488,1.04 -0.732,2.266 -0.732,3.678l0,0.308c0,1.566 0.263,2.876 0.79,3.929c0.526,1.052 1.303,1.855 2.33,2.407c1.027,0.552 2.26,0.828 3.698,0.828c1.078,0 2.144,-0.16 3.196,-0.481c1.053,-0.321 2.055,-0.867 3.005,-1.637l1.117,2.311c-0.925,0.796 -2.048,1.405 -3.371,1.829c-1.322,0.424 -2.651,0.636 -3.986,0.636Z" style="fill:#0d0a05;fill-rule:nonzero;"/><path d="M796.553,461.985c-1.72,-0 -3.222,-0.405 -4.506,-1.214c-1.284,-0.808 -2.272,-1.951 -2.966,-3.428c-0.693,-1.476 -1.04,-3.19 -1.04,-5.141c0,-2.003 0.347,-3.73 1.04,-5.181c0.694,-1.451 1.676,-2.58 2.947,-3.389c1.271,-0.809 2.767,-1.213 4.487,-1.213c1.669,-0 3.1,0.404 4.294,1.213c1.194,0.809 2.023,1.906 2.485,3.293l-0.231,-0l-0,-12.441l3.274,0l-0,27.154l-3.082,0l0,-4.314l0.154,0c-0.462,1.438 -1.303,2.574 -2.523,3.409c-1.219,0.834 -2.664,1.252 -4.333,1.252Zm0.655,-2.658c1.823,0 3.268,-0.629 4.333,-1.887c1.066,-1.258 1.599,-3.004 1.599,-5.238c-0,-2.26 -0.533,-4.012 -1.599,-5.258c-1.065,-1.245 -2.497,-1.868 -4.294,-1.868c-1.823,0 -3.268,0.623 -4.333,1.868c-1.066,1.246 -1.599,2.998 -1.599,5.258c0,2.234 0.533,3.98 1.599,5.238c1.065,1.258 2.497,1.887 4.294,1.887Z" style="fill:#0d0a05;fill-rule:nonzero;"/><path d="M828.141,461.985c-2.259,-0 -3.954,-0.597 -5.084,-1.791c-1.13,-1.194 -1.695,-2.895 -1.695,-5.104l0,-9.706l-3.774,0l-0,-2.619l3.851,0l0,-5.7l3.197,-0l0,5.7l6.394,0l-0,2.619l-6.394,0l0,9.398c0,1.464 0.315,2.561 0.944,3.293c0.629,0.732 1.637,1.098 3.023,1.098c0.463,-0 0.925,-0.051 1.387,-0.154c0.462,-0.103 0.886,-0.231 1.271,-0.385l0.578,2.542c-0.437,0.231 -0.995,0.424 -1.676,0.578c-0.68,0.154 -1.354,0.231 -2.022,0.231Z" style="fill:#0d0a05;fill-rule:nonzero;"/><path d="M841.682,461.985c-1.875,-0 -3.499,-0.405 -4.872,-1.214c-1.374,-0.808 -2.433,-1.945 -3.178,-3.408c-0.745,-1.464 -1.117,-3.197 -1.117,-5.2c0,-1.977 0.372,-3.691 1.117,-5.142c0.745,-1.451 1.804,-2.58 3.178,-3.389c1.373,-0.809 2.997,-1.213 4.872,-1.213c1.874,-0 3.498,0.404 4.872,1.213c1.374,0.809 2.433,1.938 3.178,3.389c0.744,1.451 1.117,3.165 1.117,5.142c-0,2.003 -0.373,3.736 -1.117,5.2c-0.745,1.463 -1.804,2.6 -3.178,3.408c-1.374,0.809 -2.998,1.214 -4.872,1.214Zm-0,-2.696c1.823,-0 3.261,-0.63 4.314,-1.888c1.052,-1.258 1.579,-3.004 1.579,-5.238c-0,-2.234 -0.527,-3.967 -1.579,-5.2c-1.053,-1.232 -2.491,-1.848 -4.314,-1.848c-1.823,-0 -3.261,0.616 -4.314,1.848c-1.053,1.233 -1.579,2.966 -1.579,5.2c-0,2.234 0.533,3.98 1.598,5.238c1.066,1.258 2.497,1.888 4.295,1.888Z" style="fill:#0d0a05;fill-rule:nonzero;"/><path d="M875.696,461.985c-1.926,-0 -3.659,-0.321 -5.2,-0.963c-1.54,-0.642 -2.856,-1.573 -3.947,-2.793c-1.092,-1.219 -1.926,-2.683 -2.504,-4.39c-0.578,-1.708 -0.867,-3.64 -0.867,-5.797c0,-2.157 0.289,-4.089 0.867,-5.797c0.578,-1.707 1.412,-3.165 2.504,-4.371c1.091,-1.207 2.407,-2.132 3.947,-2.774c1.541,-0.641 3.274,-0.962 5.2,-0.962c1.926,-0 3.659,0.321 5.2,0.962c1.54,0.642 2.863,1.567 3.967,2.774c1.104,1.206 1.945,2.664 2.523,4.371c0.578,1.708 0.866,3.627 0.866,5.758c0,2.157 -0.295,4.096 -0.885,5.816c-0.591,1.721 -1.432,3.191 -2.523,4.41c-1.092,1.22 -2.408,2.151 -3.948,2.793c-1.541,0.642 -3.274,0.963 -5.2,0.963Zm0,-2.966c1.926,-0 3.563,-0.424 4.911,-1.271c1.348,-0.847 2.382,-2.093 3.101,-3.736c0.718,-1.644 1.078,-3.633 1.078,-5.97c-0,-2.362 -0.353,-4.352 -1.059,-5.97c-0.706,-1.618 -1.74,-2.85 -3.101,-3.698c-1.361,-0.847 -3.004,-1.271 -4.93,-1.271c-1.9,0 -3.524,0.424 -4.872,1.271c-1.348,0.848 -2.382,2.087 -3.101,3.717c-0.719,1.631 -1.078,3.614 -1.078,5.951c-0,2.337 0.359,4.32 1.078,5.951c0.719,1.63 1.753,2.875 3.101,3.736c1.348,0.86 2.972,1.29 4.872,1.29Z" style="fill:#0d0a05;fill-rule:nonzero;"/><path d="M892.665,461.638l-0,-18.873l3.081,0l0,4.391l-0.154,-0c0.437,-1.464 1.213,-2.587 2.33,-3.37c1.117,-0.783 2.536,-1.239 4.256,-1.367l1.425,-0.116l0.308,2.927l-2.388,0.231c-1.771,0.154 -3.139,0.726 -4.101,1.714c-0.963,0.989 -1.445,2.279 -1.445,3.871l0,10.592l-3.312,0Z" style="fill:#0d0a05;fill-rule:nonzero;"/><path d="M914.332,468.918c-1.566,-0 -3.075,-0.219 -4.525,-0.655c-1.451,-0.437 -2.728,-1.066 -3.833,-1.888l1.079,-2.465c0.744,0.514 1.508,0.944 2.292,1.291c0.783,0.346 1.579,0.603 2.388,0.77c0.808,0.167 1.636,0.25 2.484,0.25c1.926,0 3.396,-0.5 4.41,-1.502c1.014,-1.001 1.521,-2.413 1.521,-4.236l0,-3.929l0.154,-0c-0.41,1.386 -1.232,2.497 -2.465,3.332c-1.232,0.834 -2.657,1.251 -4.275,1.251c-1.746,0 -3.267,-0.391 -4.564,-1.174c-1.297,-0.784 -2.298,-1.881 -3.004,-3.294c-0.706,-1.412 -1.06,-3.042 -1.06,-4.891c0,-1.875 0.354,-3.518 1.06,-4.93c0.706,-1.412 1.707,-2.504 3.004,-3.274c1.297,-0.77 2.818,-1.155 4.564,-1.155c1.643,-0 3.081,0.417 4.314,1.251c1.232,0.835 2.054,1.971 2.465,3.409l-0.193,-0l0,-4.314l3.159,0l-0,17.332c-0,1.875 -0.347,3.473 -1.04,4.796c-0.694,1.322 -1.708,2.323 -3.043,3.004c-1.335,0.68 -2.966,1.021 -4.892,1.021Zm-0.192,-10.438c1.823,-0 3.274,-0.61 4.352,-1.83c1.079,-1.219 1.618,-2.844 1.618,-4.872c-0,-2.054 -0.539,-3.685 -1.618,-4.892c-1.078,-1.206 -2.529,-1.81 -4.352,-1.81c-1.823,0 -3.268,0.604 -4.333,1.81c-1.066,1.207 -1.599,2.838 -1.599,4.892c0,2.028 0.533,3.653 1.599,4.872c1.065,1.22 2.51,1.83 4.333,1.83Z" style="fill:#0d0a05;fill-rule:nonzero;"/><path d="M934.421,461.985c-1.31,-0 -2.485,-0.251 -3.524,-0.751c-1.04,-0.501 -1.862,-1.188 -2.465,-2.061c-0.604,-0.873 -0.906,-1.849 -0.906,-2.927c0,-1.412 0.379,-2.529 1.137,-3.351c0.757,-0.822 1.97,-1.406 3.639,-1.753c1.669,-0.346 3.878,-0.52 6.625,-0.52l2.234,0l0,2.196l-2.118,-0c-1.541,-0 -2.838,0.051 -3.89,0.154c-1.053,0.103 -1.901,0.276 -2.542,0.52c-0.642,0.244 -1.105,0.571 -1.387,0.982c-0.283,0.411 -0.424,0.937 -0.424,1.579c0,1.053 0.385,1.887 1.156,2.504c0.77,0.616 1.784,0.924 3.043,0.924c1.078,0 2.034,-0.25 2.869,-0.751c0.834,-0.501 1.502,-1.175 2.003,-2.022c0.501,-0.847 0.751,-1.797 0.751,-2.85l-0,-4.391c-0,-1.541 -0.372,-2.664 -1.117,-3.37c-0.745,-0.706 -1.9,-1.059 -3.467,-1.059c-1.104,-0 -2.201,0.16 -3.293,0.481c-1.091,0.321 -2.214,0.841 -3.37,1.56l-1.078,-2.388c0.719,-0.488 1.521,-0.899 2.407,-1.233c0.886,-0.333 1.804,-0.59 2.754,-0.77c0.95,-0.18 1.874,-0.269 2.773,-0.269c1.643,-0 3.024,0.256 4.141,0.77c1.116,0.513 1.97,1.309 2.561,2.388c0.59,1.078 0.886,2.465 0.886,4.16l-0,11.901l-2.966,0l-0,-4.275l0.154,-0c-0.282,0.898 -0.725,1.694 -1.329,2.388c-0.603,0.693 -1.348,1.239 -2.234,1.637c-0.886,0.398 -1.893,0.597 -3.023,0.597Z" style="fill:#0d0a05;fill-rule:nonzero;"/><path d="M948.732,461.638l-0,-18.873l3.12,0l-0,4.16l-0.193,-0c0.565,-1.464 1.464,-2.581 2.696,-3.351c1.233,-0.77 2.632,-1.155 4.198,-1.155c1.541,-0 2.818,0.269 3.833,0.808c1.014,0.54 1.778,1.368 2.291,2.485c0.514,1.117 0.771,2.522 0.771,4.217l-0,11.709l-3.274,0l-0,-11.516c-0,-1.079 -0.148,-1.99 -0.443,-2.735c-0.295,-0.745 -0.764,-1.303 -1.406,-1.675c-0.642,-0.373 -1.476,-0.559 -2.503,-0.559c-1.156,0 -2.17,0.251 -3.043,0.751c-0.873,0.501 -1.554,1.188 -2.042,2.061c-0.487,0.873 -0.731,1.874 -0.731,3.004l-0,10.669l-3.274,0Z" style="fill:#0d0a05;fill-rule:nonzero;"/><path d="M969.976,438.143l-0,-3.659l4.005,0l0,3.659l-4.005,0Zm0.385,23.495l-0,-18.873l3.274,0l-0,18.873l-3.274,0Z" style="fill:#0d0a05;fill-rule:nonzero;"/><path d="M986.906,461.985c-1.926,-0 -3.589,-0.411 -4.988,-1.233c-1.399,-0.822 -2.478,-1.971 -3.235,-3.447c-0.758,-1.476 -1.137,-3.203 -1.137,-5.18c0,-2.003 0.379,-3.73 1.137,-5.181c0.757,-1.451 1.842,-2.568 3.254,-3.351c1.412,-0.783 3.069,-1.174 4.969,-1.174c1.232,-0 2.426,0.211 3.582,0.635c1.155,0.424 2.105,1.008 2.85,1.753l-1.117,2.426c-0.745,-0.693 -1.566,-1.213 -2.465,-1.56c-0.899,-0.347 -1.772,-0.52 -2.619,-0.52c-1.977,0 -3.518,0.604 -4.622,1.81c-1.104,1.207 -1.656,2.94 -1.656,5.2c-0,2.208 0.552,3.942 1.656,5.2c1.104,1.258 2.645,1.887 4.622,1.887c0.822,0 1.682,-0.173 2.58,-0.52c0.899,-0.347 1.721,-0.854 2.465,-1.521l1.117,2.388c-0.744,0.744 -1.694,1.328 -2.85,1.752c-1.155,0.424 -2.336,0.636 -3.543,0.636Z" style="fill:#0d0a05;fill-rule:nonzero;"/><path d="M997.635,466.607l-1.579,-1.233c0.462,-0.462 0.821,-0.937 1.078,-1.425c0.257,-0.488 0.437,-0.982 0.539,-1.483c0.103,-0.501 0.167,-0.982 0.193,-1.444l0.655,0.616l-2.696,0l-0,-4.083l4.198,0l-0,2.966c-0,0.745 -0.077,1.47 -0.231,2.176c-0.154,0.706 -0.405,1.393 -0.751,2.061c-0.347,0.667 -0.816,1.284 -1.406,1.849Z" style="fill:#0d0a05;fill-rule:nonzero;"/><path d="M222.858,500.154l-6.779,-18.873l3.351,0l5.431,15.946l-0.578,-0l5.816,-15.946l2.773,0l5.739,15.946l-0.539,-0l5.469,-15.946l3.274,0l-6.856,18.873l-3.081,0l-5.97,-16.292l1.04,-0l-5.97,16.292l-3.12,0Z" style="fill:#0d0a05;fill-rule:nonzero;"/><path d="M257.428,500.501c-1.874,-0 -3.498,-0.405 -4.872,-1.214c-1.374,-0.808 -2.433,-1.945 -3.177,-3.408c-0.745,-1.464 -1.117,-3.197 -1.117,-5.2c-0,-1.977 0.372,-3.691 1.117,-5.142c0.744,-1.451 1.803,-2.58 3.177,-3.389c1.374,-0.809 2.998,-1.213 4.872,-1.213c1.875,-0 3.499,0.404 4.873,1.213c1.373,0.809 2.433,1.938 3.177,3.389c0.745,1.451 1.117,3.165 1.117,5.142c0,2.003 -0.372,3.736 -1.117,5.2c-0.744,1.463 -1.804,2.6 -3.177,3.408c-1.374,0.809 -2.998,1.214 -4.873,1.214Zm0,-2.696c1.824,-0 3.261,-0.63 4.314,-1.888c1.053,-1.258 1.579,-3.004 1.579,-5.238c0,-2.234 -0.526,-3.967 -1.579,-5.2c-1.053,-1.232 -2.49,-1.848 -4.314,-1.848c-1.823,-0 -3.261,0.616 -4.313,1.848c-1.053,1.233 -1.579,2.966 -1.579,5.2c-0,2.234 0.532,3.98 1.598,5.238c1.066,1.258 2.497,1.888 4.294,1.888Z" style="fill:#0d0a05;fill-rule:nonzero;"/><path d="M270.468,500.154l0,-18.873l3.082,0l-0,4.391l-0.154,0c0.436,-1.464 1.213,-2.587 2.33,-3.37c1.117,-0.783 2.536,-1.239 4.256,-1.367l1.425,-0.116l0.308,2.927l-2.388,0.231c-1.772,0.154 -3.139,0.726 -4.102,1.714c-0.963,0.989 -1.444,2.279 -1.444,3.871l-0,10.592l-3.313,0Z" style="fill:#0d0a05;fill-rule:nonzero;"/><path d="M284.086,500.154l0,-27.154l3.274,0l0,16.678l0.116,-0l8.627,-8.397l4.083,0l-10.245,9.937l0.038,-1.617l11.093,10.553l-4.16,0l-9.436,-8.782l-0.116,0l0,8.782l-3.274,0Z" style="fill:#0d0a05;fill-rule:nonzero;"/><path d="M302.364,476.659l0,-3.659l4.006,0l0,3.659l-4.006,0Zm0.386,23.495l-0,-18.873l3.273,0l0,18.873l-3.273,0Z" style="fill:#0d0a05;fill-rule:nonzero;"/><path d="M311.052,500.154l0,-18.873l3.12,0l-0,4.16l-0.193,-0c0.565,-1.464 1.464,-2.581 2.696,-3.351c1.233,-0.77 2.632,-1.155 4.199,-1.155c1.54,-0 2.818,0.269 3.832,0.808c1.014,0.54 1.778,1.368 2.292,2.485c0.513,1.117 0.77,2.522 0.77,4.217l-0,11.709l-3.274,0l0,-11.516c0,-1.079 -0.148,-1.99 -0.443,-2.735c-0.295,-0.745 -0.764,-1.303 -1.406,-1.675c-0.642,-0.373 -1.476,-0.559 -2.503,-0.559c-1.156,0 -2.17,0.251 -3.043,0.751c-0.873,0.501 -1.553,1.188 -2.041,2.061c-0.488,0.873 -0.732,1.874 -0.732,3.004l-0,10.669l-3.274,0Z" style="fill:#0d0a05;fill-rule:nonzero;"/><path d="M340.962,507.434c-1.566,-0 -3.075,-0.219 -4.526,-0.655c-1.45,-0.437 -2.728,-1.066 -3.832,-1.887l1.078,-2.465c0.745,0.513 1.509,0.943 2.292,1.29c0.783,0.346 1.579,0.603 2.388,0.77c0.809,0.167 1.637,0.25 2.484,0.25c1.926,0 3.396,-0.5 4.411,-1.502c1.014,-1.001 1.521,-2.413 1.521,-4.236l-0,-3.929l0.154,-0c-0.411,1.387 -1.233,2.497 -2.465,3.332c-1.233,0.834 -2.658,1.251 -4.275,1.251c-1.746,0 -3.268,-0.391 -4.564,-1.174c-1.297,-0.784 -2.299,-1.881 -3.005,-3.293c-0.706,-1.413 -1.059,-3.043 -1.059,-4.892c0,-1.874 0.353,-3.518 1.059,-4.93c0.706,-1.412 1.708,-2.504 3.005,-3.274c1.296,-0.77 2.818,-1.155 4.564,-1.155c1.643,-0 3.081,0.417 4.314,1.251c1.232,0.835 2.054,1.971 2.465,3.409l-0.193,0l-0,-4.314l3.158,0l0,17.332c0,1.875 -0.346,3.473 -1.04,4.796c-0.693,1.322 -1.707,2.323 -3.042,3.004c-1.336,0.68 -2.966,1.021 -4.892,1.021Zm-0.193,-10.438c1.824,-0 3.274,-0.61 4.353,-1.83c1.078,-1.219 1.617,-2.844 1.617,-4.872c0,-2.054 -0.539,-3.685 -1.617,-4.892c-1.079,-1.206 -2.529,-1.81 -4.353,-1.81c-1.823,0 -3.267,0.604 -4.333,1.81c-1.065,1.207 -1.598,2.838 -1.598,4.892c-0,2.028 0.533,3.653 1.598,4.872c1.066,1.22 2.51,1.83 4.333,1.83Z" style="fill:#0d0a05;fill-rule:nonzero;"/><path d="M371.702,500.501c-2.259,-0 -3.954,-0.597 -5.084,-1.791c-1.129,-1.194 -1.694,-2.895 -1.694,-5.104l-0,-9.706l-3.775,0l0,-2.619l3.852,0l-0,-5.7l3.196,-0l0,5.7l6.394,0l0,2.619l-6.394,0l0,9.398c0,1.464 0.315,2.562 0.944,3.293c0.629,0.732 1.637,1.098 3.024,1.098c0.462,0 0.924,-0.051 1.386,-0.154c0.462,-0.103 0.886,-0.231 1.271,-0.385l0.578,2.542c-0.437,0.231 -0.995,0.424 -1.675,0.578c-0.681,0.154 -1.355,0.231 -2.023,0.231Z" style="fill:#0d0a05;fill-rule:nonzero;"/><path d="M385.243,500.501c-1.874,-0 -3.498,-0.405 -4.872,-1.214c-1.374,-0.808 -2.433,-1.945 -3.178,-3.408c-0.744,-1.464 -1.117,-3.197 -1.117,-5.2c0,-1.977 0.373,-3.691 1.117,-5.142c0.745,-1.451 1.804,-2.58 3.178,-3.389c1.374,-0.809 2.998,-1.213 4.872,-1.213c1.875,-0 3.499,0.404 4.872,1.213c1.374,0.809 2.433,1.938 3.178,3.389c0.745,1.451 1.117,3.165 1.117,5.142c-0,2.003 -0.372,3.736 -1.117,5.2c-0.745,1.463 -1.804,2.6 -3.178,3.408c-1.373,0.809 -2.997,1.214 -4.872,1.214Zm0,-2.696c1.823,-0 3.261,-0.63 4.314,-1.888c1.053,-1.258 1.579,-3.004 1.579,-5.238c0,-2.234 -0.526,-3.967 -1.579,-5.2c-1.053,-1.232 -2.491,-1.848 -4.314,-1.848c-1.823,-0 -3.261,0.616 -4.314,1.848c-1.052,1.233 -1.579,2.966 -1.579,5.2c0,2.234 0.533,3.98 1.599,5.238c1.065,1.258 2.497,1.888 4.294,1.888Z" style="fill:#0d0a05;fill-rule:nonzero;"/><path d="M407.279,500.154l-0,-27.154l3.235,0l0,12.364l-0.269,-0c0.565,-1.412 1.457,-2.504 2.677,-3.274c1.219,-0.77 2.612,-1.155 4.178,-1.155c1.541,-0 2.819,0.276 3.833,0.828c1.014,0.552 1.778,1.386 2.292,2.503c0.513,1.117 0.77,2.51 0.77,4.179l-0,11.709l-3.274,0l0,-11.516c0,-1.079 -0.148,-1.99 -0.443,-2.735c-0.295,-0.745 -0.764,-1.303 -1.406,-1.675c-0.642,-0.373 -1.476,-0.559 -2.503,-0.559c-1.156,0 -2.17,0.251 -3.043,0.751c-0.873,0.501 -1.554,1.188 -2.041,2.061c-0.488,0.873 -0.732,1.874 -0.732,3.004l-0,10.669l-3.274,0Z" style="fill:#0d0a05;fill-rule:nonzero;"/><path d="M428.523,476.659l-0,-3.659l4.005,0l0,3.659l-4.005,0Zm0.385,23.495l-0,-18.873l3.274,0l-0,18.873l-3.274,0Z" style="fill:#0d0a05;fill-rule:nonzero;"/><path d="M445.491,507.434c-1.566,-0 -3.074,-0.219 -4.525,-0.655c-1.451,-0.437 -2.728,-1.066 -3.833,-1.887l1.079,-2.465c0.745,0.513 1.508,0.943 2.292,1.29c0.783,0.346 1.579,0.603 2.388,0.77c0.808,0.167 1.637,0.25 2.484,0.25c1.926,0 3.396,-0.5 4.41,-1.502c1.014,-1.001 1.521,-2.413 1.521,-4.236l0,-3.929l0.154,-0c-0.41,1.387 -1.232,2.497 -2.465,3.332c-1.232,0.834 -2.657,1.251 -4.275,1.251c-1.746,0 -3.267,-0.391 -4.564,-1.174c-1.297,-0.784 -2.298,-1.881 -3.004,-3.293c-0.706,-1.413 -1.059,-3.043 -1.059,-4.892c-0,-1.874 0.353,-3.518 1.059,-4.93c0.706,-1.412 1.707,-2.504 3.004,-3.274c1.297,-0.77 2.818,-1.155 4.564,-1.155c1.643,-0 3.081,0.417 4.314,1.251c1.232,0.835 2.054,1.971 2.465,3.409l-0.193,0l0,-4.314l3.159,0l-0,17.332c-0,1.875 -0.347,3.473 -1.04,4.796c-0.694,1.322 -1.708,2.323 -3.043,3.004c-1.335,0.68 -2.966,1.021 -4.892,1.021Zm-0.192,-10.438c1.823,-0 3.274,-0.61 4.352,-1.83c1.079,-1.219 1.618,-2.844 1.618,-4.872c-0,-2.054 -0.539,-3.685 -1.618,-4.892c-1.078,-1.206 -2.529,-1.81 -4.352,-1.81c-1.823,0 -3.268,0.604 -4.333,1.81c-1.066,1.207 -1.599,2.838 -1.599,4.892c0,2.028 0.533,3.653 1.599,4.872c1.065,1.22 2.51,1.83 4.333,1.83Z" style="fill:#0d0a05;fill-rule:nonzero;"/><path d="M459.456,500.154l-0,-27.154l3.235,0l0,12.364l-0.269,-0c0.564,-1.412 1.457,-2.504 2.676,-3.274c1.22,-0.77 2.613,-1.155 4.179,-1.155c1.541,-0 2.818,0.276 3.833,0.828c1.014,0.552 1.778,1.386 2.291,2.503c0.514,1.117 0.771,2.51 0.771,4.179l-0,11.709l-3.274,0l-0,-11.516c-0,-1.079 -0.148,-1.99 -0.443,-2.735c-0.295,-0.745 -0.764,-1.303 -1.406,-1.675c-0.642,-0.373 -1.476,-0.559 -2.503,-0.559c-1.156,0 -2.17,0.251 -3.043,0.751c-0.873,0.501 -1.554,1.188 -2.042,2.061c-0.487,0.873 -0.731,1.874 -0.731,3.004l-0,10.669l-3.274,0Z" style="fill:#0d0a05;fill-rule:nonzero;"/><path d="M489.905,500.501c-2.054,-0 -3.826,-0.392 -5.315,-1.175c-1.489,-0.783 -2.632,-1.907 -3.428,-3.37c-0.796,-1.464 -1.194,-3.21 -1.194,-5.238c-0,-1.926 0.379,-3.621 1.136,-5.084c0.758,-1.464 1.83,-2.613 3.216,-3.448c1.387,-0.834 3.004,-1.251 4.853,-1.251c1.798,-0 3.319,0.385 4.564,1.155c1.246,0.77 2.202,1.855 2.87,3.255c0.667,1.399 1.001,3.075 1.001,5.026l0,1.155l-15.175,0l-0,-2.233l13.018,-0l-0.654,0.616c-0,-2.054 -0.475,-3.653 -1.426,-4.795c-0.95,-1.143 -2.336,-1.714 -4.159,-1.714c-1.258,-0 -2.343,0.288 -3.255,0.866c-0.911,0.578 -1.611,1.387 -2.099,2.427c-0.488,1.04 -0.732,2.266 -0.732,3.678l0,0.308c0,1.566 0.263,2.876 0.79,3.929c0.526,1.053 1.303,1.855 2.33,2.407c1.027,0.552 2.26,0.828 3.698,0.828c1.078,0 2.144,-0.16 3.196,-0.481c1.053,-0.321 2.055,-0.867 3.005,-1.637l1.117,2.311c-0.925,0.796 -2.048,1.406 -3.371,1.829c-1.322,0.424 -2.651,0.636 -3.986,0.636Z" style="fill:#0d0a05;fill-rule:nonzero;"/><path d="M501.327,500.154l0,-18.873l3.082,0l-0,4.391l-0.154,0c0.436,-1.464 1.213,-2.587 2.33,-3.37c1.117,-0.783 2.535,-1.239 4.256,-1.367l1.425,-0.116l0.308,2.927l-2.388,0.231c-1.772,0.154 -3.139,0.726 -4.102,1.714c-0.963,0.989 -1.444,2.279 -1.444,3.871l-0,10.592l-3.313,0Z" style="fill:#0d0a05;fill-rule:nonzero;"/><path d="M528.601,500.154l-6.779,-18.873l3.351,0l5.431,15.946l-0.578,-0l5.816,-15.946l2.773,0l5.739,15.946l-0.539,-0l5.469,-15.946l3.274,0l-6.856,18.873l-3.081,0l-5.97,-16.292l1.04,-0l-5.97,16.292l-3.12,0Z" style="fill:#0d0a05;fill-rule:nonzero;"/><path d="M563.942,500.501c-2.054,-0 -3.826,-0.392 -5.315,-1.175c-1.489,-0.783 -2.632,-1.907 -3.428,-3.37c-0.796,-1.464 -1.194,-3.21 -1.194,-5.238c-0,-1.926 0.379,-3.621 1.136,-5.084c0.758,-1.464 1.83,-2.613 3.216,-3.448c1.387,-0.834 3.005,-1.251 4.853,-1.251c1.798,-0 3.319,0.385 4.564,1.155c1.246,0.77 2.202,1.855 2.87,3.255c0.667,1.399 1.001,3.075 1.001,5.026l0,1.155l-15.175,0l-0,-2.233l13.018,-0l-0.654,0.616c-0,-2.054 -0.475,-3.653 -1.425,-4.795c-0.951,-1.143 -2.337,-1.714 -4.16,-1.714c-1.258,-0 -2.343,0.288 -3.255,0.866c-0.911,0.578 -1.611,1.387 -2.099,2.427c-0.488,1.04 -0.732,2.266 -0.732,3.678l0,0.308c0,1.566 0.263,2.876 0.79,3.929c0.526,1.053 1.303,1.855 2.33,2.407c1.027,0.552 2.26,0.828 3.698,0.828c1.078,0 2.144,-0.16 3.196,-0.481c1.053,-0.321 2.055,-0.867 3.005,-1.637l1.117,2.311c-0.925,0.796 -2.048,1.406 -3.371,1.829c-1.322,0.424 -2.651,0.636 -3.986,0.636Z" style="fill:#0d0a05;fill-rule:nonzero;"/><path d="M581.142,500.501c-1.875,-0 -3.306,-0.552 -4.295,-1.656c-0.988,-1.105 -1.483,-2.671 -1.483,-4.699l0,-21.146l3.274,0l0,20.876c0,0.822 0.122,1.528 0.366,2.118c0.244,0.591 0.597,1.027 1.059,1.31c0.463,0.282 1.027,0.424 1.695,0.424c0.334,-0 0.661,-0.013 0.982,-0.039c0.321,-0.026 0.649,-0.09 0.982,-0.193l-0.038,2.658c-0.411,0.103 -0.822,0.186 -1.233,0.25c-0.41,0.065 -0.847,0.097 -1.309,0.097Z" style="fill:#0d0a05;fill-rule:nonzero;"/><path d="M586.748,500.154l0,-16.331l-3.774,0l-0,-2.542l4.66,0l-0.886,0.848l0,-1.349c0,-2.49 0.661,-4.384 1.984,-5.681c1.322,-1.296 3.293,-2.009 5.912,-2.137l1.733,-0.116l0.27,2.619l-2.042,0.116c-0.975,0.051 -1.803,0.25 -2.484,0.597c-0.68,0.346 -1.2,0.86 -1.56,1.54c-0.359,0.681 -0.539,1.573 -0.539,2.677l0,1.348l-0.462,-0.462l6.162,0l0,2.542l-5.7,0l0,16.331l-3.274,0Z" style="fill:#0d0a05;fill-rule:nonzero;"/><path d="M604.179,500.501c-1.31,-0 -2.484,-0.251 -3.524,-0.751c-1.04,-0.501 -1.862,-1.188 -2.465,-2.061c-0.604,-0.873 -0.905,-1.849 -0.905,-2.927c-0,-1.412 0.378,-2.529 1.136,-3.351c0.757,-0.822 1.971,-1.406 3.64,-1.753c1.669,-0.346 3.877,-0.52 6.624,-0.52l2.234,0l0,2.196l-2.118,-0c-1.541,-0 -2.837,0.051 -3.89,0.154c-1.053,0.103 -1.9,0.276 -2.542,0.52c-0.642,0.244 -1.104,0.571 -1.387,0.982c-0.282,0.411 -0.424,0.937 -0.424,1.579c0,1.053 0.386,1.888 1.156,2.504c0.77,0.616 1.785,0.924 3.043,0.924c1.078,0 2.035,-0.25 2.869,-0.751c0.835,-0.501 1.502,-1.175 2.003,-2.022c0.501,-0.847 0.751,-1.797 0.751,-2.85l0,-4.391c0,-1.541 -0.372,-2.664 -1.117,-3.37c-0.745,-0.706 -1.9,-1.059 -3.466,-1.059c-1.104,-0 -2.202,0.16 -3.293,0.481c-1.092,0.321 -2.215,0.841 -3.371,1.56l-1.078,-2.388c0.719,-0.488 1.521,-0.899 2.407,-1.233c0.886,-0.333 1.804,-0.59 2.754,-0.77c0.95,-0.18 1.875,-0.269 2.773,-0.269c1.644,-0 3.024,0.256 4.141,0.77c1.117,0.513 1.97,1.309 2.561,2.388c0.591,1.078 0.886,2.465 0.886,4.16l-0,11.901l-2.966,0l0,-4.275l0.154,-0c-0.282,0.898 -0.725,1.694 -1.329,2.388c-0.603,0.693 -1.348,1.239 -2.233,1.637c-0.886,0.398 -1.894,0.597 -3.024,0.597Z" style="fill:#0d0a05;fill-rule:nonzero;"/><path d="M618.49,500.154l0,-18.873l3.081,0l0,4.391l-0.154,0c0.437,-1.464 1.213,-2.587 2.33,-3.37c1.117,-0.783 2.536,-1.239 4.256,-1.367l1.426,-0.116l0.308,2.927l-2.388,0.231c-1.772,0.154 -3.139,0.726 -4.102,1.714c-0.963,0.989 -1.445,2.279 -1.445,3.871l0,10.592l-3.312,0Z" style="fill:#0d0a05;fill-rule:nonzero;"/><path d="M640.697,500.501c-2.054,-0 -3.826,-0.392 -5.315,-1.175c-1.49,-0.783 -2.632,-1.907 -3.428,-3.37c-0.796,-1.464 -1.194,-3.21 -1.194,-5.238c-0,-1.926 0.378,-3.621 1.136,-5.084c0.757,-1.464 1.829,-2.613 3.216,-3.448c1.387,-0.834 3.004,-1.251 4.853,-1.251c1.797,-0 3.319,0.385 4.564,1.155c1.246,0.77 2.202,1.855 2.87,3.255c0.667,1.399 1.001,3.075 1.001,5.026l0,1.155l-15.175,0l-0,-2.233l13.018,-0l-0.655,0.616c0,-2.054 -0.475,-3.653 -1.425,-4.795c-0.95,-1.143 -2.336,-1.714 -4.159,-1.714c-1.259,-0 -2.344,0.288 -3.255,0.866c-0.912,0.578 -1.611,1.387 -2.099,2.427c-0.488,1.04 -0.732,2.266 -0.732,3.678l-0,0.308c-0,1.566 0.263,2.876 0.79,3.929c0.526,1.053 1.303,1.855 2.33,2.407c1.027,0.552 2.259,0.828 3.697,0.828c1.079,0 2.144,-0.16 3.197,-0.481c1.053,-0.321 2.054,-0.867 3.004,-1.637l1.117,2.311c-0.924,0.796 -2.047,1.406 -3.37,1.829c-1.322,0.424 -2.651,0.636 -3.986,0.636Z" style="fill:#0d0a05;fill-rule:nonzero;"/><path d="M667.778,500.501c-1.001,-0 -1.983,-0.097 -2.946,-0.289c-0.963,-0.193 -1.855,-0.462 -2.677,-0.809c-0.822,-0.347 -1.528,-0.764 -2.119,-1.252l1.04,-2.349c0.642,0.488 1.336,0.892 2.08,1.213c0.745,0.321 1.515,0.552 2.311,0.693c0.796,0.142 1.579,0.212 2.35,0.212c1.515,0 2.677,-0.25 3.485,-0.751c0.809,-0.501 1.214,-1.2 1.214,-2.099c-0,-0.745 -0.251,-1.322 -0.751,-1.733c-0.501,-0.411 -1.304,-0.732 -2.408,-0.963l-3.736,-0.693c-1.669,-0.334 -2.927,-0.931 -3.774,-1.791c-0.848,-0.861 -1.271,-1.971 -1.271,-3.332c-0,-1.13 0.308,-2.118 0.924,-2.966c0.616,-0.847 1.502,-1.502 2.658,-1.964c1.155,-0.462 2.503,-0.693 4.044,-0.693c0.873,-0 1.746,0.089 2.619,0.269c0.873,0.18 1.688,0.443 2.446,0.79c0.757,0.346 1.393,0.776 1.906,1.29l-1.078,2.311c-0.514,-0.462 -1.098,-0.854 -1.753,-1.175c-0.654,-0.321 -1.341,-0.558 -2.06,-0.712c-0.719,-0.154 -1.425,-0.231 -2.119,-0.231c-1.438,-0 -2.555,0.269 -3.351,0.808c-0.796,0.54 -1.194,1.259 -1.194,2.157c0,0.745 0.238,1.329 0.713,1.753c0.475,0.424 1.226,0.738 2.253,0.943l3.659,0.732c1.798,0.36 3.139,0.944 4.025,1.753c0.886,0.809 1.329,1.906 1.329,3.293c-0,1.155 -0.327,2.15 -0.982,2.985c-0.655,0.834 -1.56,1.476 -2.716,1.926c-1.155,0.449 -2.529,0.674 -4.121,0.674Z" style="fill:#0d0a05;fill-rule:nonzero;"/><path d="M687.019,500.501c-2.259,-0 -3.954,-0.597 -5.084,-1.791c-1.13,-1.194 -1.695,-2.895 -1.695,-5.104l0,-9.706l-3.774,0l-0,-2.619l3.851,0l0,-5.7l3.197,-0l0,5.7l6.394,0l-0,2.619l-6.394,0l0,9.398c0,1.464 0.315,2.562 0.944,3.293c0.629,0.732 1.637,1.098 3.023,1.098c0.463,0 0.925,-0.051 1.387,-0.154c0.462,-0.103 0.886,-0.231 1.271,-0.385l0.578,2.542c-0.437,0.231 -0.995,0.424 -1.676,0.578c-0.68,0.154 -1.354,0.231 -2.022,0.231Z" style="fill:#0d0a05;fill-rule:nonzero;"/><path d="M698.827,500.501c-1.31,-0 -2.485,-0.251 -3.524,-0.751c-1.04,-0.501 -1.862,-1.188 -2.466,-2.061c-0.603,-0.873 -0.905,-1.849 -0.905,-2.927c0,-1.412 0.379,-2.529 1.137,-3.351c0.757,-0.822 1.97,-1.406 3.639,-1.753c1.669,-0.346 3.878,-0.52 6.625,-0.52l2.234,0l0,2.196l-2.118,-0c-1.541,-0 -2.838,0.051 -3.89,0.154c-1.053,0.103 -1.901,0.276 -2.543,0.52c-0.641,0.244 -1.104,0.571 -1.386,0.982c-0.283,0.411 -0.424,0.937 -0.424,1.579c0,1.053 0.385,1.888 1.156,2.504c0.77,0.616 1.784,0.924 3.042,0.924c1.079,0 2.035,-0.25 2.87,-0.751c0.834,-0.501 1.502,-1.175 2.003,-2.022c0.5,-0.847 0.751,-1.797 0.751,-2.85l-0,-4.391c-0,-1.541 -0.373,-2.664 -1.117,-3.37c-0.745,-0.706 -1.9,-1.059 -3.467,-1.059c-1.104,-0 -2.201,0.16 -3.293,0.481c-1.091,0.321 -2.214,0.841 -3.37,1.56l-1.078,-2.388c0.719,-0.488 1.521,-0.899 2.407,-1.233c0.886,-0.333 1.804,-0.59 2.754,-0.77c0.95,-0.18 1.874,-0.269 2.773,-0.269c1.643,-0 3.023,0.256 4.14,0.77c1.117,0.513 1.971,1.309 2.562,2.388c0.59,1.078 0.886,2.465 0.886,4.16l-0,11.901l-2.966,0l-0,-4.275l0.154,-0c-0.282,0.898 -0.725,1.694 -1.329,2.388c-0.603,0.693 -1.348,1.239 -2.234,1.637c-0.886,0.398 -1.893,0.597 -3.023,0.597Z" style="fill:#0d0a05;fill-rule:nonzero;"/><path d="M713.138,500.154l-0,-18.873l3.12,0l-0,4.16l-0.193,-0c0.565,-1.464 1.464,-2.581 2.696,-3.351c1.233,-0.77 2.632,-1.155 4.198,-1.155c1.541,-0 2.818,0.269 3.833,0.808c1.014,0.54 1.778,1.368 2.291,2.485c0.514,1.117 0.771,2.522 0.771,4.217l-0,11.709l-3.274,0l-0,-11.516c-0,-1.079 -0.148,-1.99 -0.443,-2.735c-0.295,-0.745 -0.764,-1.303 -1.406,-1.675c-0.642,-0.373 -1.476,-0.559 -2.503,-0.559c-1.156,0 -2.17,0.251 -3.043,0.751c-0.873,0.501 -1.554,1.188 -2.042,2.061c-0.487,0.873 -0.731,1.874 -0.731,3.004l-0,10.669l-3.274,0Z" style="fill:#0d0a05;fill-rule:nonzero;"/><path d="M742.162,500.501c-1.721,-0 -3.223,-0.405 -4.506,-1.214c-1.284,-0.808 -2.273,-1.951 -2.966,-3.427c-0.694,-1.477 -1.04,-3.191 -1.04,-5.142c-0,-2.003 0.346,-3.73 1.04,-5.181c0.693,-1.451 1.675,-2.58 2.946,-3.389c1.271,-0.809 2.767,-1.213 4.487,-1.213c1.669,-0 3.101,0.404 4.295,1.213c1.194,0.809 2.022,1.906 2.484,3.293l-0.231,-0l0,-12.441l3.274,0l-0,27.154l-3.081,0l-0,-4.314l0.154,0c-0.462,1.438 -1.303,2.574 -2.523,3.409c-1.22,0.834 -2.664,1.252 -4.333,1.252Zm0.655,-2.658c1.823,0 3.267,-0.629 4.333,-1.887c1.065,-1.258 1.598,-3.004 1.598,-5.238c0,-2.26 -0.533,-4.012 -1.598,-5.258c-1.066,-1.245 -2.497,-1.868 -4.295,-1.868c-1.823,0 -3.267,0.623 -4.333,1.868c-1.065,1.246 -1.598,2.998 -1.598,5.258c-0,2.234 0.533,3.98 1.598,5.238c1.066,1.258 2.497,1.887 4.295,1.887Z" style="fill:#0d0a05;fill-rule:nonzero;"/><path d="M763.098,500.501c-1.31,-0 -2.485,-0.251 -3.525,-0.751c-1.04,-0.501 -1.861,-1.188 -2.465,-2.061c-0.603,-0.873 -0.905,-1.849 -0.905,-2.927c0,-1.412 0.379,-2.529 1.137,-3.351c0.757,-0.822 1.97,-1.406 3.639,-1.753c1.669,-0.346 3.878,-0.52 6.625,-0.52l2.234,0l-0,2.196l-2.118,-0c-1.541,-0 -2.838,0.051 -3.891,0.154c-1.052,0.103 -1.9,0.276 -2.542,0.52c-0.642,0.244 -1.104,0.571 -1.386,0.982c-0.283,0.411 -0.424,0.937 -0.424,1.579c0,1.053 0.385,1.888 1.156,2.504c0.77,0.616 1.784,0.924 3.042,0.924c1.079,0 2.035,-0.25 2.87,-0.751c0.834,-0.501 1.502,-1.175 2.003,-2.022c0.5,-0.847 0.751,-1.797 0.751,-2.85l-0,-4.391c-0,-1.541 -0.373,-2.664 -1.117,-3.37c-0.745,-0.706 -1.9,-1.059 -3.467,-1.059c-1.104,-0 -2.202,0.16 -3.293,0.481c-1.091,0.321 -2.214,0.841 -3.37,1.56l-1.078,-2.388c0.719,-0.488 1.521,-0.899 2.407,-1.233c0.886,-0.333 1.804,-0.59 2.754,-0.77c0.95,-0.18 1.874,-0.269 2.773,-0.269c1.643,-0 3.023,0.256 4.14,0.77c1.117,0.513 1.971,1.309 2.562,2.388c0.59,1.078 0.886,2.465 0.886,4.16l-0,11.901l-2.966,0l-0,-4.275l0.154,-0c-0.283,0.898 -0.725,1.694 -1.329,2.388c-0.603,0.693 -1.348,1.239 -2.234,1.637c-0.886,0.398 -1.894,0.597 -3.023,0.597Z" style="fill:#0d0a05;fill-rule:nonzero;"/><path d="M777.409,500.154l-0,-18.873l3.081,0l-0,4.391l-0.154,0c0.436,-1.464 1.213,-2.587 2.33,-3.37c1.117,-0.783 2.536,-1.239 4.256,-1.367l1.425,-0.116l0.308,2.927l-2.388,0.231c-1.771,0.154 -3.139,0.726 -4.102,1.714c-0.963,0.989 -1.444,2.279 -1.444,3.871l0,10.592l-3.312,0Z" style="fill:#0d0a05;fill-rule:nonzero;"/><path d="M798.19,500.501c-1.72,-0 -3.222,-0.405 -4.506,-1.214c-1.284,-0.808 -2.272,-1.951 -2.966,-3.427c-0.693,-1.477 -1.04,-3.191 -1.04,-5.142c0,-2.003 0.347,-3.73 1.04,-5.181c0.694,-1.451 1.676,-2.58 2.947,-3.389c1.271,-0.809 2.766,-1.213 4.487,-1.213c1.669,-0 3.1,0.404 4.294,1.213c1.194,0.809 2.022,1.906 2.485,3.293l-0.231,-0l-0,-12.441l3.273,0l0,27.154l-3.081,0l0,-4.314l0.154,0c-0.462,1.438 -1.303,2.574 -2.523,3.409c-1.219,0.834 -2.664,1.252 -4.333,1.252Zm0.655,-2.658c1.823,0 3.268,-0.629 4.333,-1.887c1.066,-1.258 1.599,-3.004 1.599,-5.238c-0,-2.26 -0.533,-4.012 -1.599,-5.258c-1.065,-1.245 -2.497,-1.868 -4.294,-1.868c-1.823,0 -3.268,0.623 -4.333,1.868c-1.066,1.246 -1.599,2.998 -1.599,5.258c0,2.234 0.533,3.98 1.599,5.238c1.065,1.258 2.497,1.887 4.294,1.887Z" style="fill:#0d0a05;fill-rule:nonzero;"/><path d="M819.665,500.501c-1.001,-0 -1.983,-0.097 -2.946,-0.289c-0.963,-0.193 -1.855,-0.462 -2.677,-0.809c-0.822,-0.347 -1.528,-0.764 -2.118,-1.252l1.04,-2.349c0.642,0.488 1.335,0.892 2.079,1.213c0.745,0.321 1.515,0.552 2.311,0.693c0.796,0.142 1.58,0.212 2.35,0.212c1.515,0 2.677,-0.25 3.486,-0.751c0.808,-0.501 1.213,-1.2 1.213,-2.099c-0,-0.745 -0.251,-1.322 -0.751,-1.733c-0.501,-0.411 -1.303,-0.732 -2.407,-0.963l-3.737,-0.693c-1.669,-0.334 -2.927,-0.931 -3.774,-1.791c-0.847,-0.861 -1.271,-1.971 -1.271,-3.332c-0,-1.13 0.308,-2.118 0.924,-2.966c0.617,-0.847 1.502,-1.502 2.658,-1.964c1.155,-0.462 2.503,-0.693 4.044,-0.693c0.873,-0 1.746,0.089 2.619,0.269c0.873,0.18 1.688,0.443 2.446,0.79c0.757,0.346 1.393,0.776 1.906,1.29l-1.078,2.311c-0.514,-0.462 -1.098,-0.854 -1.752,-1.175c-0.655,-0.321 -1.342,-0.558 -2.061,-0.712c-0.719,-0.154 -1.425,-0.231 -2.118,-0.231c-1.438,-0 -2.555,0.269 -3.351,0.808c-0.796,0.54 -1.194,1.259 -1.194,2.157c-0,0.745 0.237,1.329 0.712,1.753c0.475,0.424 1.226,0.738 2.253,0.943l3.659,0.732c1.798,0.36 3.139,0.944 4.025,1.753c0.886,0.809 1.329,1.906 1.329,3.293c0,1.155 -0.327,2.15 -0.982,2.985c-0.655,0.834 -1.56,1.476 -2.715,1.926c-1.156,0.449 -2.53,0.674 -4.122,0.674Z" style="fill:#0d0a05;fill-rule:nonzero;"/><path d="M841.393,500.154l0,-16.331l-3.775,0l0,-2.542l4.661,0l-0.886,0.848l0,-1.349c0,-2.49 0.661,-4.384 1.984,-5.681c1.322,-1.296 3.293,-2.009 5.912,-2.137l1.733,-0.116l0.27,2.619l-2.042,0.116c-0.975,0.051 -1.804,0.25 -2.484,0.597c-0.68,0.346 -1.2,0.86 -1.56,1.54c-0.359,0.681 -0.539,1.573 -0.539,2.677l-0,1.348l-0.462,-0.462l6.162,0l0,2.542l-5.7,0l-0,16.331l-3.274,0Z" style="fill:#0d0a05;fill-rule:nonzero;"/><path d="M860.403,500.501c-1.874,-0 -3.499,-0.405 -4.872,-1.214c-1.374,-0.808 -2.433,-1.945 -3.178,-3.408c-0.745,-1.464 -1.117,-3.197 -1.117,-5.2c0,-1.977 0.372,-3.691 1.117,-5.142c0.745,-1.451 1.804,-2.58 3.178,-3.389c1.373,-0.809 2.998,-1.213 4.872,-1.213c1.874,-0 3.499,0.404 4.872,1.213c1.374,0.809 2.433,1.938 3.178,3.389c0.744,1.451 1.117,3.165 1.117,5.142c-0,2.003 -0.373,3.736 -1.117,5.2c-0.745,1.463 -1.804,2.6 -3.178,3.408c-1.373,0.809 -2.998,1.214 -4.872,1.214Zm-0,-2.696c1.823,-0 3.261,-0.63 4.314,-1.888c1.053,-1.258 1.579,-3.004 1.579,-5.238c-0,-2.234 -0.526,-3.967 -1.579,-5.2c-1.053,-1.232 -2.491,-1.848 -4.314,-1.848c-1.823,-0 -3.261,0.616 -4.314,1.848c-1.053,1.233 -1.579,2.966 -1.579,5.2c0,2.234 0.533,3.98 1.598,5.238c1.066,1.258 2.498,1.888 4.295,1.888Z" style="fill:#0d0a05;fill-rule:nonzero;"/><path d="M873.443,500.154l-0,-18.873l3.081,0l0,4.391l-0.154,0c0.437,-1.464 1.213,-2.587 2.33,-3.37c1.117,-0.783 2.536,-1.239 4.256,-1.367l1.426,-0.116l0.308,2.927l-2.388,0.231c-1.772,0.154 -3.139,0.726 -4.102,1.714c-0.963,0.989 -1.445,2.279 -1.445,3.871l0,10.592l-3.312,0Z" style="fill:#0d0a05;fill-rule:nonzero;"/><path d="M896.056,500.154l0,-27.154l3.236,0l-0,12.364l-0.27,-0c0.565,-1.412 1.457,-2.504 2.677,-3.274c1.22,-0.77 2.613,-1.155 4.179,-1.155c1.541,-0 2.818,0.276 3.832,0.828c1.015,0.552 1.779,1.386 2.292,2.503c0.514,1.117 0.77,2.51 0.77,4.179l0,11.709l-3.273,0l-0,-11.516c-0,-1.079 -0.148,-1.99 -0.443,-2.735c-0.296,-0.745 -0.764,-1.303 -1.406,-1.675c-0.642,-0.373 -1.477,-0.559 -2.504,-0.559c-1.155,0 -2.169,0.251 -3.042,0.751c-0.874,0.501 -1.554,1.188 -2.042,2.061c-0.488,0.873 -0.732,1.874 -0.732,3.004l0,10.669l-3.274,0Z" style="fill:#0d0a05;fill-rule:nonzero;"/><path d="M926.506,500.501c-2.054,-0 -3.826,-0.392 -5.315,-1.175c-1.49,-0.783 -2.632,-1.907 -3.428,-3.37c-0.796,-1.464 -1.194,-3.21 -1.194,-5.238c-0,-1.926 0.378,-3.621 1.136,-5.084c0.757,-1.464 1.829,-2.613 3.216,-3.448c1.386,-0.834 3.004,-1.251 4.853,-1.251c1.797,-0 3.319,0.385 4.564,1.155c1.245,0.77 2.202,1.855 2.87,3.255c0.667,1.399 1.001,3.075 1.001,5.026l-0,1.155l-15.175,0l-0,-2.233l13.018,-0l-0.655,0.616c0,-2.054 -0.475,-3.653 -1.425,-4.795c-0.95,-1.143 -2.336,-1.714 -4.16,-1.714c-1.258,-0 -2.343,0.288 -3.254,0.866c-0.912,0.578 -1.611,1.387 -2.099,2.427c-0.488,1.04 -0.732,2.266 -0.732,3.678l-0,0.308c-0,1.566 0.263,2.876 0.789,3.929c0.527,1.053 1.304,1.855 2.331,2.407c1.027,0.552 2.259,0.828 3.697,0.828c1.079,0 2.144,-0.16 3.197,-0.481c1.053,-0.321 2.054,-0.867 3.004,-1.637l1.117,2.311c-0.924,0.796 -2.047,1.406 -3.37,1.829c-1.322,0.424 -2.651,0.636 -3.986,0.636Z" style="fill:#0d0a05;fill-rule:nonzero;"/><path d="M937.928,500.154l0,-18.873l3.12,0l-0,4.16l-0.193,-0c0.565,-1.464 1.464,-2.581 2.696,-3.351c1.233,-0.77 2.632,-1.155 4.199,-1.155c1.54,-0 2.818,0.269 3.832,0.808c1.014,0.54 1.778,1.368 2.292,2.485c0.513,1.117 0.77,2.522 0.77,4.217l0,11.709l-3.274,0l0,-11.516c0,-1.079 -0.148,-1.99 -0.443,-2.735c-0.295,-0.745 -0.764,-1.303 -1.406,-1.675c-0.642,-0.373 -1.476,-0.559 -2.503,-0.559c-1.156,0 -2.17,0.251 -3.043,0.751c-0.873,0.501 -1.553,1.188 -2.041,2.061c-0.488,0.873 -0.732,1.874 -0.732,3.004l-0,10.669l-3.274,0Z" style="fill:#0d0a05;fill-rule:nonzero;"/><path d="M966.22,500.501c-1.001,-0 -1.983,-0.097 -2.946,-0.289c-0.963,-0.193 -1.855,-0.462 -2.677,-0.809c-0.822,-0.347 -1.528,-0.764 -2.118,-1.252l1.04,-2.349c0.642,0.488 1.335,0.892 2.079,1.213c0.745,0.321 1.515,0.552 2.311,0.693c0.796,0.142 1.58,0.212 2.35,0.212c1.515,0 2.677,-0.25 3.486,-0.751c0.808,-0.501 1.213,-1.2 1.213,-2.099c-0,-0.745 -0.251,-1.322 -0.751,-1.733c-0.501,-0.411 -1.303,-0.732 -2.407,-0.963l-3.737,-0.693c-1.669,-0.334 -2.927,-0.931 -3.774,-1.791c-0.847,-0.861 -1.271,-1.971 -1.271,-3.332c-0,-1.13 0.308,-2.118 0.924,-2.966c0.617,-0.847 1.502,-1.502 2.658,-1.964c1.155,-0.462 2.503,-0.693 4.044,-0.693c0.873,-0 1.746,0.089 2.619,0.269c0.873,0.18 1.688,0.443 2.446,0.79c0.757,0.346 1.393,0.776 1.906,1.29l-1.078,2.311c-0.514,-0.462 -1.098,-0.854 -1.752,-1.175c-0.655,-0.321 -1.342,-0.558 -2.061,-0.712c-0.719,-0.154 -1.425,-0.231 -2.118,-0.231c-1.438,-0 -2.555,0.269 -3.351,0.808c-0.796,0.54 -1.194,1.259 -1.194,2.157c-0,0.745 0.237,1.329 0.712,1.753c0.475,0.424 1.226,0.738 2.253,0.943l3.659,0.732c1.798,0.36 3.139,0.944 4.025,1.753c0.886,0.809 1.329,1.906 1.329,3.293c0,1.155 -0.327,2.15 -0.982,2.985c-0.655,0.834 -1.56,1.476 -2.715,1.926c-1.156,0.449 -2.53,0.674 -4.122,0.674Z" style="fill:#0d0a05;fill-rule:nonzero;"/><rect x="977.103" y="496.071" width="4.198" height="4.083" style="fill:#0d0a05;fill-rule:nonzero;"/><path d="M284.866,202.61c-3.271,-0 -5.539,-1.057 -6.804,-3.172c-1.265,-2.114 -1.898,-5.431 -1.898,-9.949l0,-2.385l5.286,-0l0,2.195c0,2.133 0.082,3.827 0.244,5.083c0.163,1.256 0.497,2.151 1.003,2.684c0.507,0.533 1.275,0.8 2.305,0.8c1.048,-0 1.825,-0.303 2.331,-0.908c0.506,-0.606 0.845,-1.573 1.017,-2.901c0.171,-1.328 0.257,-3.059 0.257,-5.191c0,-2.404 -0.135,-4.306 -0.406,-5.707c-0.271,-1.401 -0.746,-2.399 -1.424,-2.995c-0.677,-0.597 -1.64,-0.895 -2.887,-0.895l-1.328,-0l-0,-4.473l1.274,-0c1.211,-0 2.16,-0.221 2.847,-0.664c0.686,-0.443 1.17,-1.279 1.45,-2.508c0.28,-1.229 0.42,-3 0.42,-5.313c0,-2.169 -0.14,-3.805 -0.42,-4.907c-0.28,-1.102 -0.682,-1.848 -1.206,-2.237c-0.525,-0.388 -1.157,-0.582 -1.898,-0.582c-0.759,-0 -1.392,0.226 -1.898,0.677c-0.506,0.452 -0.881,1.243 -1.125,2.372c-0.244,1.13 -0.366,2.716 -0.366,4.758l0,1.139l-5.367,-0l-0,-1.491c-0,-4.157 0.637,-7.229 1.911,-9.217c1.274,-1.988 3.547,-2.982 6.818,-2.982c3.271,-0 5.598,1.043 6.98,3.131c1.383,2.087 2.074,5.2 2.074,9.339c0,2.638 -0.375,4.911 -1.125,6.818c-0.75,1.906 -1.983,3.176 -3.7,3.809c1.193,0.542 2.15,1.405 2.873,2.589c0.723,1.183 1.247,2.579 1.573,4.188c0.325,1.608 0.488,3.343 0.488,5.205c-0,4.572 -0.701,7.997 -2.101,10.274c-1.401,2.277 -3.8,3.416 -7.198,3.416Z" style="fill:#0d0a05;fill-rule:nonzero;"/><path d="M308.527,202.068l-0,-47.712l14.367,-0l0,4.689l-8.783,0l0,15.073l8.241,0l0,4.744l-8.241,0l0,23.206l-5.584,-0Z" style="fill:#0d0a05;fill-rule:nonzero;"/><path d="M330.914,202.42c-2.458,0 -4.229,-0.953 -5.313,-2.86c-1.084,-1.906 -1.636,-4.55 -1.654,-7.929l0,-3.958c0,-1.789 0.308,-3.276 0.922,-4.46c0.615,-1.183 1.482,-2.173 2.603,-2.968c1.12,-0.795 2.439,-1.514 3.957,-2.155c1.519,-0.642 3.181,-1.324 4.989,-2.047l-0,-3.145c-0,-1.735 -0.055,-3.14 -0.163,-4.215c-0.109,-1.076 -0.384,-1.866 -0.827,-2.372c-0.443,-0.506 -1.152,-0.759 -2.128,-0.759c-0.958,-0 -1.676,0.253 -2.155,0.759c-0.479,0.506 -0.791,1.301 -0.935,2.385c-0.145,1.085 -0.217,2.494 -0.217,4.229l-0,1.41l-5.531,0l0,-1.166c0,-1.735 0.109,-3.348 0.326,-4.839c0.217,-1.491 0.632,-2.787 1.247,-3.89c0.614,-1.102 1.513,-1.965 2.697,-2.589c1.184,-0.623 2.743,-0.935 4.676,-0.935c1.844,0 3.33,0.294 4.46,0.881c1.129,0.587 1.997,1.45 2.602,2.589c0.606,1.139 1.017,2.544 1.234,4.215c0.217,1.672 0.325,3.601 0.325,5.788l0,27.679l-5.584,-0l-0,-3.524c-0.163,0.542 -0.479,1.116 -0.949,1.721c-0.47,0.605 -1.085,1.116 -1.844,1.532c-0.759,0.415 -1.671,0.623 -2.738,0.623Zm1.573,-4.5c0.976,0 1.816,-0.312 2.521,-0.935c0.705,-0.624 1.175,-1.243 1.41,-1.857l-0,-15.48c-1.392,0.615 -2.535,1.171 -3.43,1.668c-0.894,0.497 -1.59,1.016 -2.087,1.558c-0.497,0.543 -0.845,1.193 -1.044,1.952c-0.199,0.759 -0.298,1.717 -0.298,2.874l-0,3.768c-0,2.295 0.199,3.944 0.596,4.948c0.398,1.003 1.175,1.504 2.332,1.504Z" style="fill:#0d0a05;fill-rule:nonzero;"/><path d="M346.145,202.068l0,-40.664l5.585,-0l-0,4.527c0.47,-1.572 1.288,-2.801 2.453,-3.687c1.166,-0.885 2.652,-1.328 4.46,-1.328c0.036,0 0.058,0.239 0.068,0.718c0.009,0.479 0.013,1.026 0.013,1.641l0,2.358c-0.867,0 -1.735,0.104 -2.602,0.312c-0.868,0.208 -1.681,0.56 -2.44,1.057c-0.759,0.497 -1.41,1.17 -1.952,2.02l-0,33.046l-5.585,-0Z" style="fill:#0d0a05;fill-rule:nonzero;"/><path d="M360.265,202.068l-0,-40.664l5.557,-0l0,4.229c0.362,-1.283 1.089,-2.395 2.183,-3.334c1.093,-0.94 2.48,-1.41 4.161,-1.41c1.337,-0 2.503,0.325 3.497,0.976c0.994,0.65 1.744,1.699 2.25,3.145c0.669,-1.229 1.59,-2.223 2.765,-2.982c1.175,-0.76 2.548,-1.139 4.121,-1.139c2.15,-0 3.786,0.763 4.907,2.291c1.12,1.527 1.68,3.79 1.68,6.791l0,32.097l-5.557,-0l-0,-32.26c-0,-1.536 -0.298,-2.607 -0.895,-3.213c-0.596,-0.605 -1.382,-0.908 -2.358,-0.908c-1.392,0 -2.399,0.312 -3.023,0.936c-0.623,0.623 -0.935,1.739 -0.935,3.348l-0,32.097l-5.585,-0l0,-32.287c0,-1.446 -0.28,-2.49 -0.84,-3.131c-0.56,-0.642 -1.346,-0.963 -2.358,-0.963c-1.32,0 -2.318,0.425 -2.996,1.274c-0.678,0.85 -1.017,1.997 -1.017,3.443l0,31.664l-5.557,-0Z" style="fill:#0d0a05;fill-rule:nonzero;"/><path d="M403.527,202.61c-2.892,-0 -5.088,-0.908 -6.588,-2.724c-1.5,-1.817 -2.25,-4.83 -2.25,-9.041l0,-3.064l5.395,0l0,3.036c0,2.278 0.249,4.022 0.746,5.233c0.497,1.21 1.314,1.816 2.453,1.816c1.138,-0 1.974,-0.371 2.508,-1.112c0.533,-0.741 0.799,-2.069 0.799,-3.985c0,-0.958 -0.144,-1.911 -0.434,-2.86c-0.289,-0.948 -0.731,-1.888 -1.328,-2.819c-0.596,-0.931 -1.364,-1.839 -2.304,-2.725l-2.874,-2.738c-1.717,-1.644 -3.027,-3.393 -3.931,-5.245c-0.903,-1.853 -1.355,-3.818 -1.355,-5.896c-0,-3.29 0.777,-5.707 2.331,-7.252c1.555,-1.545 3.696,-2.318 6.425,-2.318c1.826,0 3.362,0.398 4.609,1.193c1.247,0.795 2.187,2.114 2.819,3.958c0.633,1.843 0.949,4.355 0.949,7.536l-0,1.952l-5.286,0l-0,-2.819c-0,-2.278 -0.222,-4.022 -0.664,-5.232c-0.443,-1.211 -1.234,-1.817 -2.373,-1.817c-1.102,0 -1.929,0.321 -2.48,0.963c-0.551,0.641 -0.854,1.811 -0.908,3.51c-0.018,0.868 0.095,1.744 0.339,2.63c0.244,0.885 0.646,1.762 1.206,2.629c0.56,0.868 1.283,1.717 2.169,2.549l2.928,2.738c1.897,1.753 3.329,3.637 4.296,5.652c0.967,2.015 1.451,4.143 1.451,6.384c-0,3.073 -0.701,5.485 -2.101,7.238c-1.401,1.753 -3.583,2.63 -6.547,2.63Z" style="fill:#0d0a05;fill-rule:nonzero;"/><path d="M425.913,202.068l0,-47.712l14.368,-0l-0,4.689l-8.783,0l-0,15.073l8.241,0l-0,4.744l-8.241,0l-0,23.206l-5.585,-0Z" style="fill:#0d0a05;fill-rule:nonzero;"/><path d="M443.069,202.068l-0,-40.664l5.584,-0l0,4.527c0.47,-1.572 1.288,-2.801 2.454,-3.687c1.165,-0.885 2.652,-1.328 4.459,-1.328c0.036,0 0.059,0.239 0.068,0.718c0.009,0.479 0.014,1.026 0.014,1.641l-0,2.358c-0.868,0 -1.735,0.104 -2.603,0.312c-0.867,0.208 -1.681,0.56 -2.44,1.057c-0.759,0.497 -1.409,1.17 -1.952,2.02l0,33.046l-5.584,-0Z" style="fill:#0d0a05;fill-rule:nonzero;"/><path d="M465.755,202.556c-1.916,-0 -3.47,-0.33 -4.663,-0.99c-1.193,-0.659 -2.11,-1.599 -2.751,-2.819c-0.642,-1.22 -1.08,-2.684 -1.315,-4.392c-0.235,-1.708 -0.353,-3.619 -0.353,-5.733l0,-14.395c0,-2.549 0.244,-4.826 0.732,-6.832c0.488,-2.006 1.387,-3.587 2.698,-4.744c1.31,-1.157 3.194,-1.735 5.652,-1.735c1.843,0 3.352,0.33 4.527,0.99c1.175,0.659 2.088,1.59 2.738,2.792c0.651,1.202 1.098,2.611 1.342,4.229c0.244,1.617 0.366,3.384 0.366,5.3l0,14.395c0,2.078 -0.108,3.967 -0.325,5.665c-0.217,1.699 -0.637,3.168 -1.261,4.406c-0.623,1.238 -1.527,2.191 -2.711,2.86c-1.184,0.668 -2.742,1.003 -4.676,1.003Zm-0,-4.636c0.976,0 1.703,-0.325 2.182,-0.976c0.479,-0.65 0.8,-1.559 0.963,-2.724c0.162,-1.166 0.244,-2.517 0.244,-4.053l-0,-17.052c-0,-1.518 -0.082,-2.842 -0.244,-3.971c-0.163,-1.13 -0.488,-2.011 -0.976,-2.643c-0.488,-0.633 -1.211,-0.949 -2.169,-0.949c-1.012,-0 -1.771,0.316 -2.277,0.949c-0.506,0.632 -0.836,1.513 -0.99,2.643c-0.153,1.129 -0.23,2.453 -0.23,3.971l-0,17.052c-0,1.536 0.077,2.887 0.23,4.053c0.154,1.165 0.484,2.074 0.99,2.724c0.506,0.651 1.265,0.976 2.277,0.976Z" style="fill:#0d0a05;fill-rule:nonzero;"/><path d="M478.79,202.068l0,-40.664l5.557,-0l0,4.229c0.362,-1.283 1.089,-2.395 2.183,-3.334c1.093,-0.94 2.48,-1.41 4.161,-1.41c1.337,-0 2.503,0.325 3.497,0.976c0.994,0.65 1.744,1.699 2.25,3.145c0.669,-1.229 1.591,-2.223 2.765,-2.982c1.175,-0.76 2.549,-1.139 4.121,-1.139c2.151,-0 3.786,0.763 4.907,2.291c1.12,1.527 1.68,3.79 1.68,6.791l0,32.097l-5.557,-0l0,-32.26c0,-1.536 -0.298,-2.607 -0.895,-3.213c-0.596,-0.605 -1.382,-0.908 -2.358,-0.908c-1.392,0 -2.399,0.312 -3.023,0.936c-0.623,0.623 -0.935,1.739 -0.935,3.348l0,32.097l-5.584,-0l-0,-32.287c-0,-1.446 -0.281,-2.49 -0.841,-3.131c-0.56,-0.642 -1.346,-0.963 -2.358,-0.963c-1.32,0 -2.318,0.425 -2.996,1.274c-0.678,0.85 -1.017,1.997 -1.017,3.443l0,31.664l-5.557,-0Z" style="fill:#0d0a05;fill-rule:nonzero;"/><path d="M525.819,202.068l-0,-47.712l14.367,-0l0,4.689l-8.783,0l0,15.073l8.241,0l0,4.744l-8.241,0l0,23.206l-5.584,-0Z" style="fill:#0d0a05;fill-rule:nonzero;"/><path d="M542.974,202.068l0,-40.664l5.585,-0l-0,4.527c0.47,-1.572 1.287,-2.801 2.453,-3.687c1.166,-0.885 2.652,-1.328 4.46,-1.328c0.036,0 0.058,0.239 0.067,0.718c0.009,0.479 0.014,1.026 0.014,1.641l-0,2.358c-0.868,0 -1.735,0.104 -2.602,0.312c-0.868,0.208 -1.681,0.56 -2.44,1.057c-0.759,0.497 -1.41,1.17 -1.952,2.02l-0,33.046l-5.585,-0Z" style="fill:#0d0a05;fill-rule:nonzero;"/><path d="M565.525,202.556c-1.952,-0 -3.52,-0.339 -4.704,-1.017c-1.183,-0.678 -2.083,-1.64 -2.697,-2.887c-0.614,-1.247 -1.026,-2.743 -1.233,-4.487c-0.208,-1.744 -0.312,-3.673 -0.312,-5.787l-0,-14.368c-0,-1.916 0.135,-3.674 0.406,-5.273c0.272,-1.599 0.741,-2.982 1.41,-4.148c0.669,-1.165 1.6,-2.069 2.792,-2.711c1.193,-0.641 2.711,-0.962 4.555,-0.962c1.861,0 3.361,0.325 4.5,0.976c1.138,0.651 2.001,1.568 2.589,2.752c0.587,1.183 0.98,2.593 1.179,4.229c0.199,1.635 0.298,3.429 0.298,5.381l0,7.672l-12.145,-0l0,8.105c0,2.567 0.176,4.523 0.529,5.869c0.352,1.347 1.315,2.02 2.887,2.02c1.03,0 1.767,-0.321 2.209,-0.962c0.443,-0.642 0.714,-1.546 0.814,-2.711c0.099,-1.166 0.149,-2.544 0.149,-4.134l-0,-3.281l5.449,0l-0,1.735c-0,2.115 -0.086,4.031 -0.258,5.748c-0.171,1.716 -0.537,3.189 -1.098,4.418c-0.56,1.229 -1.423,2.174 -2.589,2.833c-1.165,0.66 -2.742,0.99 -4.73,0.99Zm-3.389,-24.399l6.615,0l-0,-5.177c-0,-1.627 -0.054,-2.996 -0.163,-4.107c-0.108,-1.112 -0.37,-1.952 -0.786,-2.522c-0.416,-0.569 -1.102,-0.854 -2.06,-0.854c-1.067,0 -1.857,0.326 -2.372,0.976c-0.515,0.651 -0.85,1.55 -1.003,2.698c-0.154,1.147 -0.231,2.48 -0.231,3.998l0,4.988Z" style="fill:#0d0a05;fill-rule:nonzero;"/><path d="M586.232,202.556c-1.952,-0 -3.52,-0.339 -4.704,-1.017c-1.183,-0.678 -2.082,-1.64 -2.697,-2.887c-0.614,-1.247 -1.026,-2.743 -1.233,-4.487c-0.208,-1.744 -0.312,-3.673 -0.312,-5.787l-0,-14.368c-0,-1.916 0.135,-3.674 0.407,-5.273c0.271,-1.599 0.74,-2.982 1.409,-4.148c0.669,-1.165 1.6,-2.069 2.792,-2.711c1.193,-0.641 2.711,-0.962 4.555,-0.962c1.861,0 3.361,0.325 4.5,0.976c1.138,0.651 2.001,1.568 2.589,2.752c0.587,1.183 0.98,2.593 1.179,4.229c0.199,1.635 0.298,3.429 0.298,5.381l0,7.672l-12.145,-0l0,8.105c0,2.567 0.177,4.523 0.529,5.869c0.352,1.347 1.315,2.02 2.887,2.02c1.03,0 1.767,-0.321 2.21,-0.962c0.442,-0.642 0.713,-1.546 0.813,-2.711c0.099,-1.166 0.149,-2.544 0.149,-4.134l-0,-3.281l5.449,0l-0,1.735c-0,2.115 -0.086,4.031 -0.258,5.748c-0.171,1.716 -0.537,3.189 -1.098,4.418c-0.56,1.229 -1.423,2.174 -2.589,2.833c-1.165,0.66 -2.742,0.99 -4.73,0.99Zm-3.389,-24.399l6.615,0l-0,-5.177c-0,-1.627 -0.054,-2.996 -0.163,-4.107c-0.108,-1.112 -0.37,-1.952 -0.786,-2.522c-0.416,-0.569 -1.102,-0.854 -2.06,-0.854c-1.067,0 -1.857,0.326 -2.372,0.976c-0.515,0.651 -0.85,1.55 -1.003,2.698c-0.154,1.147 -0.231,2.48 -0.231,3.998l0,4.988Z" style="fill:#0d0a05;fill-rule:nonzero;"/><path d="M609.946,202.068l0,-47.712l10.004,-0c2.53,-0 4.4,0.447 5.611,1.342c1.211,0.894 2.002,2.241 2.372,4.039c0.371,1.798 0.556,4.062 0.556,6.791c0,2.946 -0.298,5.286 -0.894,7.021c-0.597,1.735 -1.754,2.855 -3.47,3.361c0.867,0.145 1.585,0.516 2.155,1.112c0.569,0.596 1.016,1.527 1.342,2.792c0.325,1.265 0.555,2.96 0.691,5.083c0.135,2.124 0.203,4.794 0.203,8.011l0,1.328c0,0.579 0.009,1.211 0.027,1.898c0.018,0.687 0.041,1.364 0.068,2.033c0.027,0.669 0.068,1.261 0.122,1.776c0.054,0.515 0.127,0.89 0.217,1.125l-5.585,-0c-0.072,-0.163 -0.135,-0.524 -0.189,-1.085c-0.054,-0.56 -0.1,-1.301 -0.136,-2.223c-0.036,-0.921 -0.063,-2.019 -0.081,-3.293c-0.018,-1.274 -0.027,-2.702 -0.027,-4.284l-0,-5.191c-0,-1.807 -0.077,-3.185 -0.231,-4.134c-0.153,-0.949 -0.515,-1.609 -1.084,-1.979c-0.569,-0.371 -1.478,-0.592 -2.725,-0.664l-3.334,-0.19l0,23.043l-5.612,-0Zm5.612,-27.164l3.578,0c1.031,0 1.821,-0.203 2.373,-0.61c0.551,-0.406 0.926,-1.219 1.125,-2.439c0.198,-1.22 0.298,-3.05 0.298,-5.49l-0,-0.325c-0,-2.024 -0.095,-3.556 -0.285,-4.595c-0.19,-1.04 -0.556,-1.74 -1.098,-2.101c-0.542,-0.362 -1.364,-0.542 -2.467,-0.542l-3.524,-0l0,16.102Z" style="fill:#0d0a05;fill-rule:nonzero;"/><path d="M638.353,202.42c-2.458,0 -4.23,-0.953 -5.314,-2.86c-1.084,-1.906 -1.635,-4.55 -1.654,-7.929l0,-3.958c0,-1.789 0.308,-3.276 0.922,-4.46c0.615,-1.183 1.482,-2.173 2.603,-2.968c1.12,-0.795 2.439,-1.514 3.958,-2.155c1.518,-0.642 3.18,-1.324 4.988,-2.047l-0,-3.145c-0,-1.735 -0.055,-3.14 -0.163,-4.215c-0.108,-1.076 -0.384,-1.866 -0.827,-2.372c-0.443,-0.506 -1.152,-0.759 -2.128,-0.759c-0.958,-0 -1.676,0.253 -2.155,0.759c-0.479,0.506 -0.791,1.301 -0.935,2.385c-0.145,1.085 -0.217,2.494 -0.217,4.229l-0,1.41l-5.53,0l-0,-1.166c-0,-1.735 0.108,-3.348 0.325,-4.839c0.217,-1.491 0.632,-2.787 1.247,-3.89c0.614,-1.102 1.513,-1.965 2.697,-2.589c1.184,-0.623 2.743,-0.935 4.677,-0.935c1.843,0 3.329,0.294 4.459,0.881c1.13,0.587 1.997,1.45 2.603,2.589c0.605,1.139 1.016,2.544 1.233,4.215c0.217,1.672 0.325,3.601 0.325,5.788l0,27.679l-5.584,-0l-0,-3.524c-0.163,0.542 -0.479,1.116 -0.949,1.721c-0.47,0.605 -1.084,1.116 -1.843,1.532c-0.759,0.415 -1.672,0.623 -2.738,0.623Zm1.572,-4.5c0.976,0 1.816,-0.312 2.521,-0.935c0.705,-0.624 1.175,-1.243 1.41,-1.857l-0,-15.48c-1.392,0.615 -2.535,1.171 -3.43,1.668c-0.894,0.497 -1.59,1.016 -2.087,1.558c-0.497,0.543 -0.845,1.193 -1.044,1.952c-0.199,0.759 -0.298,1.717 -0.298,2.874l0,3.768c0,2.295 0.199,3.944 0.596,4.948c0.398,1.003 1.175,1.504 2.332,1.504Z" style="fill:#0d0a05;fill-rule:nonzero;"/><path d="M653.475,202.068l0,-40.664l5.558,-0l-0,4.31c0.361,-1.265 1.134,-2.385 2.317,-3.361c1.184,-0.976 2.598,-1.464 4.243,-1.464c2.042,-0 3.633,0.723 4.771,2.169c1.139,1.445 1.708,3.641 1.708,6.587l0,32.423l-5.557,-0l-0,-32.396c-0,-1.446 -0.326,-2.494 -0.976,-3.144c-0.651,-0.651 -1.482,-0.976 -2.494,-0.976c-0.741,-0 -1.419,0.162 -2.034,0.488c-0.614,0.325 -1.097,0.831 -1.45,1.518c-0.352,0.687 -0.528,1.572 -0.528,2.656l-0,31.854l-5.558,-0Z" style="fill:#0d0a05;fill-rule:nonzero;"/><path d="M684.755,208.276c-1.862,0.054 -3.538,-0.154 -5.029,-0.624c-1.491,-0.47 -2.77,-1.129 -3.836,-1.979l2.006,-3.795c0.795,0.542 1.735,1.021 2.82,1.437c1.084,0.416 2.34,0.605 3.768,0.569c1.265,-0.036 2.245,-0.51 2.941,-1.423c0.696,-0.913 1.044,-2.137 1.044,-3.673l-0,-3.877c-0.524,1.337 -1.247,2.232 -2.169,2.684c-0.922,0.452 -1.97,0.678 -3.145,0.678c-1.897,-0 -3.366,-0.552 -4.405,-1.654c-1.039,-1.103 -1.762,-2.612 -2.169,-4.527c-0.406,-1.916 -0.61,-4.085 -0.61,-6.507l0,-11.657c0,-2.476 0.24,-4.698 0.719,-6.668c0.479,-1.97 1.278,-3.529 2.399,-4.677c1.12,-1.147 2.639,-1.703 4.554,-1.667c1.157,0.018 2.155,0.307 2.996,0.868c0.84,0.56 1.45,1.427 1.83,2.602l-0,-2.982l5.557,-0l0,36.869c0,1.156 -0.14,2.313 -0.42,3.469c-0.28,1.157 -0.759,2.219 -1.437,3.186c-0.678,0.967 -1.617,1.753 -2.819,2.358c-1.202,0.606 -2.734,0.936 -4.595,0.99Zm0.542,-14.422c0.723,-0 1.319,-0.217 1.789,-0.651c0.47,-0.434 0.818,-1.242 1.044,-2.426c0.226,-1.184 0.339,-2.887 0.339,-5.11l-0,-12.552c-0,-2.476 -0.222,-4.355 -0.664,-5.639c-0.443,-1.283 -1.369,-1.924 -2.779,-1.924c-1.03,-0 -1.794,0.32 -2.291,0.962c-0.497,0.642 -0.818,1.523 -0.962,2.643c-0.145,1.121 -0.217,2.422 -0.217,3.904l-0,12.66c-0,2.693 0.244,4.721 0.732,6.086c0.488,1.364 1.491,2.047 3.009,2.047Z" style="fill:#0d0a05;fill-rule:nonzero;"/><path d="M706.98,202.556c-1.952,-0 -3.52,-0.339 -4.703,-1.017c-1.184,-0.678 -2.083,-1.64 -2.698,-2.887c-0.614,-1.247 -1.025,-2.743 -1.233,-4.487c-0.208,-1.744 -0.312,-3.673 -0.312,-5.787l-0,-14.368c-0,-1.916 0.136,-3.674 0.407,-5.273c0.271,-1.599 0.741,-2.982 1.409,-4.148c0.669,-1.165 1.6,-2.069 2.793,-2.711c1.192,-0.641 2.71,-0.962 4.554,-0.962c1.861,0 3.361,0.325 4.5,0.976c1.139,0.651 2.002,1.568 2.589,2.752c0.587,1.183 0.98,2.593 1.179,4.229c0.199,1.635 0.298,3.429 0.298,5.381l0,7.672l-12.145,-0l0,8.105c0,2.567 0.177,4.523 0.529,5.869c0.353,1.347 1.315,2.02 2.887,2.02c1.03,0 1.767,-0.321 2.21,-0.962c0.442,-0.642 0.713,-1.546 0.813,-2.711c0.099,-1.166 0.149,-2.544 0.149,-4.134l-0,-3.281l5.449,0l-0,1.735c-0,2.115 -0.086,4.031 -0.258,5.748c-0.171,1.716 -0.537,3.189 -1.098,4.418c-0.56,1.229 -1.423,2.174 -2.588,2.833c-1.166,0.66 -2.743,0.99 -4.731,0.99Zm-3.389,-24.399l6.615,0l-0,-5.177c-0,-1.627 -0.054,-2.996 -0.163,-4.107c-0.108,-1.112 -0.37,-1.952 -0.786,-2.522c-0.416,-0.569 -1.102,-0.854 -2.06,-0.854c-1.066,0 -1.857,0.326 -2.372,0.976c-0.515,0.651 -0.85,1.55 -1.003,2.698c-0.154,1.147 -0.231,2.48 -0.231,3.998l0,4.988Z" style="fill:#0d0a05;fill-rule:nonzero;"/><path d="M732.701,202.068l-0,-43.05l-5.26,0l0,-4.662l15.751,-0l-0,4.662l-4.907,0l0,43.05l-5.584,-0Z" style="fill:#0d0a05;fill-rule:nonzero;"/><path d="M752.296,202.556c-1.916,-0 -3.47,-0.33 -4.663,-0.99c-1.192,-0.659 -2.11,-1.599 -2.751,-2.819c-0.642,-1.22 -1.08,-2.684 -1.315,-4.392c-0.235,-1.708 -0.352,-3.619 -0.352,-5.733l-0,-14.395c-0,-2.549 0.244,-4.826 0.732,-6.832c0.488,-2.006 1.387,-3.587 2.697,-4.744c1.31,-1.157 3.194,-1.735 5.652,-1.735c1.844,0 3.353,0.33 4.527,0.99c1.175,0.659 2.088,1.59 2.738,2.792c0.651,1.202 1.098,2.611 1.342,4.229c0.244,1.617 0.366,3.384 0.366,5.3l0,14.395c0,2.078 -0.108,3.967 -0.325,5.665c-0.217,1.699 -0.637,3.168 -1.261,4.406c-0.623,1.238 -1.527,2.191 -2.71,2.86c-1.184,0.668 -2.743,1.003 -4.677,1.003Zm0,-4.636c0.976,0 1.704,-0.325 2.183,-0.976c0.478,-0.65 0.799,-1.559 0.962,-2.724c0.163,-1.166 0.244,-2.517 0.244,-4.053l-0,-17.052c-0,-1.518 -0.081,-2.842 -0.244,-3.971c-0.163,-1.13 -0.488,-2.011 -0.976,-2.643c-0.488,-0.633 -1.211,-0.949 -2.169,-0.949c-1.012,-0 -1.771,0.316 -2.277,0.949c-0.506,0.632 -0.836,1.513 -0.989,2.643c-0.154,1.129 -0.231,2.453 -0.231,3.971l0,17.052c0,1.536 0.077,2.887 0.231,4.053c0.153,1.165 0.483,2.074 0.989,2.724c0.506,0.651 1.265,0.976 2.277,0.976Z" style="fill:#0d0a05;fill-rule:nonzero;"/><path d="M785.716,202.61c-2.386,-0 -4.27,-0.524 -5.652,-1.572c-1.383,-1.049 -2.368,-2.63 -2.955,-4.744c-0.588,-2.115 -0.881,-4.763 -0.881,-7.943l-0,-21.037c-0,-2.747 0.271,-5.133 0.813,-7.157c0.542,-2.024 1.509,-3.597 2.901,-4.717c1.391,-1.121 3.361,-1.681 5.909,-1.681c1.916,0 3.479,0.321 4.69,0.963c1.211,0.641 2.146,1.554 2.806,2.738c0.66,1.183 1.116,2.607 1.369,4.269c0.253,1.663 0.38,3.525 0.38,5.585l-0,21.037c-0,3.18 -0.285,5.828 -0.854,7.943c-0.57,2.114 -1.537,3.695 -2.901,4.744c-1.364,1.048 -3.24,1.572 -5.625,1.572Zm-0,-4.825c1.03,-0 1.816,-0.294 2.358,-0.881c0.543,-0.588 0.913,-1.568 1.112,-2.942c0.199,-1.373 0.298,-3.226 0.298,-5.557l0,-21.417c0,-2.855 -0.226,-4.97 -0.678,-6.343c-0.452,-1.374 -1.436,-2.06 -2.955,-2.06c-1.572,-0 -2.634,0.682 -3.185,2.046c-0.551,1.365 -0.827,3.475 -0.827,6.33l0,21.444c0,2.349 0.1,4.206 0.298,5.571c0.199,1.364 0.579,2.34 1.139,2.928c0.56,0.587 1.374,0.881 2.44,0.881Z" style="fill:#0d0a05;fill-rule:nonzero;"/><path d="M799.266,202.068l0,-40.664l5.585,-0l-0,4.527c0.469,-1.572 1.287,-2.801 2.453,-3.687c1.166,-0.885 2.652,-1.328 4.459,-1.328c0.037,0 0.059,0.239 0.068,0.718c0.009,0.479 0.014,1.026 0.014,1.641l-0,2.358c-0.868,0 -1.735,0.104 -2.603,0.312c-0.867,0.208 -1.68,0.56 -2.44,1.057c-0.759,0.497 -1.409,1.17 -1.951,2.02l-0,33.046l-5.585,-0Z" style="fill:#0d0a05;fill-rule:nonzero;"/><path d="M821.6,208.276c-1.862,0.054 -3.538,-0.154 -5.029,-0.624c-1.491,-0.47 -2.77,-1.129 -3.836,-1.979l2.006,-3.795c0.795,0.542 1.735,1.021 2.819,1.437c1.085,0.416 2.341,0.605 3.769,0.569c1.265,-0.036 2.245,-0.51 2.941,-1.423c0.696,-0.913 1.044,-2.137 1.044,-3.673l-0,-3.877c-0.524,1.337 -1.247,2.232 -2.169,2.684c-0.922,0.452 -1.97,0.678 -3.145,0.678c-1.897,-0 -3.366,-0.552 -4.405,-1.654c-1.039,-1.103 -1.762,-2.612 -2.169,-4.527c-0.406,-1.916 -0.61,-4.085 -0.61,-6.507l0,-11.657c0,-2.476 0.24,-4.698 0.719,-6.668c0.479,-1.97 1.278,-3.529 2.399,-4.677c1.12,-1.147 2.639,-1.703 4.554,-1.667c1.157,0.018 2.155,0.307 2.996,0.868c0.84,0.56 1.45,1.427 1.83,2.602l-0,-2.982l5.557,-0l0,36.869c0,1.156 -0.14,2.313 -0.42,3.469c-0.28,1.157 -0.759,2.219 -1.437,3.186c-0.678,0.967 -1.617,1.753 -2.819,2.358c-1.202,0.606 -2.734,0.936 -4.595,0.99Zm0.542,-14.422c0.723,-0 1.319,-0.217 1.789,-0.651c0.47,-0.434 0.818,-1.242 1.044,-2.426c0.226,-1.184 0.339,-2.887 0.339,-5.11l-0,-12.552c-0,-2.476 -0.222,-4.355 -0.664,-5.639c-0.443,-1.283 -1.369,-1.924 -2.779,-1.924c-1.03,-0 -1.794,0.32 -2.291,0.962c-0.497,0.642 -0.818,1.523 -0.962,2.643c-0.145,1.121 -0.217,2.422 -0.217,3.904l-0,12.66c-0,2.693 0.244,4.721 0.732,6.086c0.488,1.364 1.491,2.047 3.009,2.047Z" style="fill:#0d0a05;fill-rule:nonzero;"/><path d="M841.548,202.42c-2.458,0 -4.229,-0.953 -5.314,-2.86c-1.084,-1.906 -1.635,-4.55 -1.653,-7.929l-0,-3.958c-0,-1.789 0.307,-3.276 0.921,-4.46c0.615,-1.183 1.482,-2.173 2.603,-2.968c1.12,-0.795 2.44,-1.514 3.958,-2.155c1.518,-0.642 3.181,-1.324 4.988,-2.047l-0,-3.145c-0,-1.735 -0.054,-3.14 -0.163,-4.215c-0.108,-1.076 -0.384,-1.866 -0.827,-2.372c-0.442,-0.506 -1.152,-0.759 -2.128,-0.759c-0.957,-0 -1.676,0.253 -2.155,0.759c-0.479,0.506 -0.791,1.301 -0.935,2.385c-0.145,1.085 -0.217,2.494 -0.217,4.229l0,1.41l-5.53,0l-0,-1.166c-0,-1.735 0.108,-3.348 0.325,-4.839c0.217,-1.491 0.633,-2.787 1.247,-3.89c0.615,-1.102 1.514,-1.965 2.697,-2.589c1.184,-0.623 2.743,-0.935 4.677,-0.935c1.843,0 3.33,0.294 4.459,0.881c1.13,0.587 1.997,1.45 2.603,2.589c0.605,1.139 1.016,2.544 1.233,4.215c0.217,1.672 0.326,3.601 0.326,5.788l-0,27.679l-5.585,-0l0,-3.524c-0.163,0.542 -0.479,1.116 -0.949,1.721c-0.47,0.605 -1.084,1.116 -1.843,1.532c-0.759,0.415 -1.672,0.623 -2.738,0.623Zm1.572,-4.5c0.976,0 1.816,-0.312 2.521,-0.935c0.705,-0.624 1.175,-1.243 1.41,-1.857l-0,-15.48c-1.392,0.615 -2.535,1.171 -3.429,1.668c-0.895,0.497 -1.591,1.016 -2.088,1.558c-0.497,0.543 -0.845,1.193 -1.044,1.952c-0.198,0.759 -0.298,1.717 -0.298,2.874l0,3.768c0,2.295 0.199,3.944 0.597,4.948c0.397,1.003 1.174,1.504 2.331,1.504Z" style="fill:#0d0a05;fill-rule:nonzero;"/><path d="M856.67,202.068l0,-40.664l5.558,-0l-0,4.31c0.361,-1.265 1.134,-2.385 2.318,-3.361c1.183,-0.976 2.598,-1.464 4.242,-1.464c2.042,-0 3.633,0.723 4.771,2.169c1.139,1.445 1.708,3.641 1.708,6.587l0,32.423l-5.557,-0l-0,-32.396c-0,-1.446 -0.325,-2.494 -0.976,-3.144c-0.651,-0.651 -1.482,-0.976 -2.494,-0.976c-0.741,-0 -1.419,0.162 -2.033,0.488c-0.615,0.325 -1.098,0.831 -1.451,1.518c-0.352,0.687 -0.528,1.572 -0.528,2.656l-0,31.854l-5.558,-0Z" style="fill:#0d0a05;fill-rule:nonzero;"/><path d="M879.899,202.068l-0,-40.664l5.584,-0l0,40.664l-5.584,-0Zm-0,-44.405l-0,-5.097l5.584,0l0,5.097l-5.584,-0Z" style="fill:#0d0a05;fill-rule:nonzero;"/><path d="M898.789,202.556c-1.97,-0 -3.555,-0.335 -4.757,-1.003c-1.202,-0.669 -2.115,-1.631 -2.738,-2.887c-0.624,-1.256 -1.044,-2.757 -1.261,-4.501c-0.217,-1.744 -0.325,-3.682 -0.325,-5.814l-0,-13.609c-0,-2.711 0.226,-5.106 0.677,-7.184c0.452,-2.079 1.338,-3.705 2.657,-4.88c1.32,-1.175 3.28,-1.762 5.883,-1.762c1.807,0 3.267,0.298 4.378,0.895c1.112,0.596 1.961,1.454 2.548,2.575c0.588,1.121 0.985,2.458 1.193,4.012c0.208,1.554 0.312,3.28 0.312,5.178l-0,2.819l-5.476,0l-0,-3.578c-0,-1.554 -0.05,-2.86 -0.149,-3.917c-0.1,-1.058 -0.357,-1.857 -0.773,-2.399c-0.416,-0.543 -1.111,-0.814 -2.087,-0.814c-1.03,0 -1.799,0.294 -2.305,0.881c-0.506,0.588 -0.845,1.428 -1.016,2.521c-0.172,1.094 -0.258,2.391 -0.258,3.891l0,17.295c0,1.681 0.073,3.077 0.217,4.189c0.145,1.111 0.461,1.943 0.949,2.494c0.488,0.551 1.238,0.827 2.25,0.827c0.976,-0 1.685,-0.294 2.128,-0.881c0.443,-0.588 0.728,-1.437 0.854,-2.549c0.127,-1.111 0.19,-2.435 0.19,-3.971l-0,-3.931l5.476,-0l-0,2.629c-0,2.007 -0.1,3.832 -0.298,5.477c-0.199,1.644 -0.592,3.063 -1.18,4.256c-0.587,1.193 -1.45,2.114 -2.589,2.765c-1.138,0.65 -2.638,0.976 -4.5,0.976Z" style="fill:#0d0a05;fill-rule:nonzero;"/><rect x="223.592" y="345.816" width="13.368" height="15.427" style="fill:#305528;"/><rect x="223.592" y="313.391" width="13.368" height="15.427" style="fill:#305528;"/><path d="M455.73,389.679c-0,-0 -32.832,-7.768 -48.552,-9.553l-0,-18.881l18.439,0l-0,-15.429l-18.439,0l-0,-16.996l18.439,-0l-0,-15.427l-18.439,0l-0,-7.826c-3.373,-3.373 -5.265,-5.264 -8.636,-8.637l-2.718,-0c-3.371,3.373 -5.263,5.264 -8.636,8.637l0,73.482c-19.729,-0.901 -40.757,-1.386 -62.583,-1.386c-21.827,0 -42.855,0.485 -62.584,1.386l-0,-17.804l120.096,0l-0,-15.429l-120.096,0l-0,-16.996l120.096,-0l-0,-15.427l-120.096,0l-0,-7.826c-3.373,-3.373 -5.265,-5.264 -8.638,-8.637l-2.716,-0c-3.373,3.373 -5.263,5.264 -8.636,8.637l0,74.559c-21.372,2.389 -48.552,9.553 -48.552,9.553l262.251,-0Z" style="fill:#305528;"/><path d="M364.187,319.34c1.519,0.936 4.333,0.437 4.333,0.437l-3.65,2.415c-0.75,-0.547 -1.209,-1.085 -1.209,-1.085l0.235,-4.804c0.009,-0.002 0.016,-0.004 0.026,-0.007l0.05,-0.014c0.11,-0.034 0.22,-0.067 0.327,-0.1c0.019,-0.008 0.038,-0.012 0.06,-0.02c0.107,-0.033 0.215,-0.066 0.322,-0.1c0.017,-0.005 0.031,-0.009 0.046,-0.014c0.227,-0.072 0.449,-0.144 0.669,-0.218c0.014,-0.004 0.028,-0.009 0.043,-0.014c0.107,-0.033 0.21,-0.069 0.315,-0.103l0.053,-0.019c0.105,-0.036 0.207,-0.069 0.31,-0.105c0.014,-0.005 0.026,-0.009 0.041,-0.014c0.215,-0.074 0.43,-0.148 0.64,-0.225c0.012,-0.005 0.026,-0.009 0.038,-0.014c0.1,-0.036 0.201,-0.072 0.301,-0.108c0.017,-0.004 0.034,-0.012 0.048,-0.016c0.1,-0.039 0.201,-0.074 0.298,-0.11c0.012,-0.005 0.024,-0.01 0.034,-0.015c0.208,-0.076 0.411,-0.152 0.611,-0.231c0.012,-0.005 0.024,-0.01 0.036,-0.015c0.098,-0.035 0.194,-0.074 0.287,-0.112c0.017,-0.005 0.029,-0.009 0.043,-0.017c0.098,-0.038 0.191,-0.076 0.287,-0.114c0.009,-0.003 0.019,-0.007 0.028,-0.01c0.196,-0.081 0.392,-0.16 0.583,-0.241c0.012,-0.005 0.022,-0.01 0.031,-0.012c0.093,-0.041 0.184,-0.079 0.277,-0.117c0.012,-0.005 0.024,-0.012 0.036,-0.017c0.093,-0.038 0.184,-0.079 0.275,-0.119c0.007,-0.003 0.014,-0.005 0.021,-0.007c0.117,-0.053 0.232,-0.103 0.347,-0.156l-0.129,2.205c-1.367,3.674 -6.063,3.216 -6.063,3.216m23.74,-36.683c1.11,-1.739 1.93,-3.662 2.329,-5.683c0.079,-0.391 0.141,-0.8 0.048,-1.189c-0.094,-0.39 -0.373,-0.757 -0.765,-0.843c-0.222,-0.048 -0.468,0.033 -0.635,0.186c0.532,-1.206 0.843,-2.511 0.91,-3.827c0.033,-0.623 -0.007,-1.297 -0.394,-1.787c-0.387,-0.489 -1.235,-0.642 -1.618,-0.148c0.237,-0.841 0.409,-1.76 0.079,-2.57c-0.327,-0.81 -1.342,-1.388 -2.104,-0.963c0.267,-0.841 -0.132,-2.212 -0.996,-2.389c-0.59,-0.121 -1.302,0.332 -1.725,0.913l-0.002,-0c-4.348,-4.997 -7.819,7.692 -8.02,8.447c-0.007,0.023 -0.014,0.047 -0.021,0.071c-0.014,0.036 -0.026,0.072 -0.038,0.108c0.002,-0.005 0.004,-0.007 0.007,-0.01c-0.01,0.031 -0.019,0.062 -0.031,0.093c-0.007,0.022 -0.015,0.046 -0.022,0.067c-0.019,0.055 -0.038,0.113 -0.057,0.167c-0.007,0.022 -0.014,0.043 -0.022,0.065c-0.026,0.074 -0.052,0.146 -0.078,0.22c-0.003,0.007 -0.005,0.012 -0.008,0.019c-0.023,0.067 -0.05,0.131 -0.074,0.196c-0.009,0.021 -0.019,0.045 -0.026,0.067c-0.021,0.052 -0.04,0.102 -0.062,0.152c-0.01,0.022 -0.017,0.043 -0.026,0.065c-0.029,0.069 -0.058,0.136 -0.086,0.203c-0.007,0.014 -0.015,0.031 -0.019,0.048c-0.024,0.05 -0.048,0.103 -0.07,0.153c-0.012,0.026 -0.023,0.052 -0.035,0.076c-0.02,0.043 -0.041,0.086 -0.06,0.129c-0.012,0.024 -0.024,0.05 -0.036,0.074c-0.029,0.062 -0.057,0.122 -0.088,0.182c-0.012,0.024 -0.027,0.05 -0.039,0.076c-0.019,0.036 -0.038,0.074 -0.057,0.11c-0.017,0.031 -0.031,0.062 -0.048,0.091c-0.016,0.031 -0.033,0.062 -0.05,0.093c-0.017,0.031 -0.033,0.064 -0.052,0.096c-0.017,0.031 -0.036,0.064 -0.055,0.095c-0.031,0.057 -0.062,0.112 -0.094,0.165c-0.014,0.021 -0.026,0.043 -0.038,0.064c-0.024,0.039 -0.045,0.074 -0.067,0.113c-0.009,0.014 -0.021,0.031 -0.031,0.047c-0.081,0.132 -0.165,0.261 -0.251,0.387c-0.002,0.005 -0.004,0.012 -0.009,0.017c-1.352,2 -3.144,3.292 -5.052,4.02l0.004,0c-3.449,1.321 -7.281,0.801 -9.595,-0.709c0.002,0.002 0.007,0.002 0.009,0.002c-0.769,-0.501 -1.376,-1.11 -1.741,-1.801c-0.005,-0.007 -0.007,-0.012 -0.012,-0.019c-0.01,-0.021 -0.022,-0.043 -0.031,-0.064c-0.015,-0.027 -0.026,-0.055 -0.041,-0.082c-0.005,-0.012 -0.012,-0.026 -0.017,-0.038c-0.009,-0.021 -0.019,-0.043 -0.028,-0.064c-0.005,-0.012 -0.01,-0.022 -0.015,-0.034c-0.014,-0.033 -0.026,-0.064 -0.038,-0.098c-2.073,-5.489 -5.011,-12.149 -10.24,-15.381c-0.638,-0.394 -1.314,-0.714 -2,-0.927c1.156,-0.26 2.284,-0.683 2.984,-1.608c0.31,-0.406 0.516,-0.912 0.48,-1.423c-0.038,-0.511 -0.354,-1.016 -0.836,-1.19c-0.624,-0.227 -1.312,0.136 -1.787,0.602c-0.251,0.246 -0.48,0.533 -0.803,0.679c-0.32,0.145 -0.774,0.086 -0.924,-0.235c-0.225,-0.482 0.394,-1.053 0.179,-1.54c-0.141,-0.325 -0.614,-0.397 -0.912,-0.203c-0.297,0.191 -0.435,0.561 -0.464,0.914c-0.021,0.266 0.005,0.543 -0.098,0.789c-0.103,0.243 -0.408,0.435 -0.638,0.298c-0.344,-0.205 -0.114,-0.819 -0.413,-1.087c-0.277,-0.25 -0.745,0.063 -0.819,0.428c-0.077,0.368 0.069,0.741 0.095,1.116c0.029,0.372 -0.15,0.831 -0.523,0.867c-0.384,0.036 -0.733,-0.409 -1.096,-0.28c-0.356,0.127 -0.335,0.636 -0.21,0.994c0.124,0.356 0.255,0.815 -0.034,1.058c-0.224,0.187 -0.573,0.113 -0.831,0.253c-0.304,0.165 -0.375,0.612 -0.201,0.911c0.172,0.301 0.526,0.463 0.87,0.494c0.057,0.005 0.112,0.007 0.164,0.007c-0.845,0.139 -2.061,0.648 -2.883,2.332c0,-0 0.284,0.012 0.714,0.016l0.287,0c0.812,-0.002 1.954,-0.04 2.807,-0.217c-0.461,0.366 -0.893,0.929 -0.87,1.749c-0.076,0.539 0.01,1.192 0.366,1.975c1.447,3.175 4.216,2.43 3.96,-0.432c-0.004,-0.069 -0.014,-0.141 -0.023,-0.21c0.551,1.798 0.535,3.74 0.32,5.592c-0.01,0.079 -0.019,0.157 -0.031,0.239c-0,0.014 -0.003,0.028 -0.005,0.045c-0.01,0.074 -0.019,0.148 -0.031,0.225c-0.003,0.016 -0.005,0.035 -0.007,0.052c-0.012,0.074 -0.022,0.148 -0.034,0.22c-0.002,0.012 -0.005,0.024 -0.005,0.038c-0.009,0.053 -0.016,0.105 -0.026,0.158c-0.007,0.036 -0.012,0.071 -0.019,0.107c-0.01,0.065 -0.021,0.129 -0.033,0.194c-0.005,0.031 -0.012,0.062 -0.017,0.095c-0.01,0.043 -0.017,0.089 -0.024,0.132c-0.012,0.055 -0.022,0.11 -0.033,0.164c-0.005,0.027 -0.01,0.055 -0.017,0.084c-0.545,2.719 -1.531,5.301 -2.238,7.991c-4.207,16.052 8.977,20.954 8.977,20.954c2.833,8.141 9.251,10.807 12.17,11.619l-0.315,5.346c-1.369,3.672 -6.063,3.213 -6.063,3.213c1.52,0.939 4.334,0.437 4.334,0.437l-4.79,3.17c5.119,-0.547 7.398,-3.258 7.398,-3.258l2.437,3.839l-1.18,-5.64c1.409,0.747 3.205,0.067 3.205,0.067c-0.566,-0.12 -1.089,-0.347 -1.547,-0.61c3.836,-0.888 5.568,-2.95 5.568,-2.95l2.439,3.837l-1.183,-5.64c1.41,0.75 3.206,0.069 3.206,0.069c-1.973,-0.42 -3.447,-2.14 -3.447,-2.14l0.136,-2.805c0.177,-0.091 0.351,-0.181 0.523,-0.272c0.086,-0.045 0.17,-0.091 0.256,-0.136c-0,-0.003 -0,-0.003 0.002,-0.003c9.799,-5.327 11.091,-12.147 10.043,-17.505l0.002,-0.004c0.065,-0.208 0.167,-0.404 0.299,-0.579c2.921,-3.886 4.099,-8.286 4.522,-11.853" style="fill:#305528;"/><rect x="498.99" y="345.816" width="13.365" height="15.427" style="fill:#305528;"/><rect x="498.99" y="313.391" width="13.365" height="15.427" style="fill:#305528;"/><path d="M731.125,389.679c0,-0 -32.831,-7.768 -48.552,-9.553l0,-18.881l18.439,0l0,-15.429l-18.439,0l0,-16.996l18.439,-0l0,-15.427l-18.439,0l0,-7.826c-3.373,-3.373 -5.265,-5.264 -8.635,-8.637l-2.716,-0c-3.373,3.373 -5.265,5.264 -8.638,8.637l-0,73.482c-19.729,-0.901 -40.758,-1.386 -62.584,-1.386c-21.826,0 -42.855,0.485 -62.584,1.386l0,-17.804l120.096,0l0,-15.429l-120.096,0l0,-16.996l120.096,-0l0,-15.427l-120.096,0l0,-7.826c-3.373,-3.373 -5.265,-5.264 -8.637,-8.637l-2.717,-0c-3.373,3.373 -5.262,5.264 -8.635,8.637l0,74.559c-21.372,2.389 -48.552,9.553 -48.552,9.553l262.25,-0Z" style="fill:#305528;"/><path d="M639.583,319.34c1.519,0.936 4.333,0.437 4.333,0.437l-3.65,2.415c-0.748,-0.547 -1.209,-1.085 -1.209,-1.085l0.234,-4.804c0.01,-0.002 0.017,-0.004 0.029,-0.007c0.014,-0.005 0.031,-0.009 0.048,-0.014c0.109,-0.034 0.219,-0.067 0.327,-0.1c0.019,-0.008 0.04,-0.012 0.06,-0.02c0.107,-0.033 0.215,-0.066 0.322,-0.1c0.017,-0.005 0.031,-0.009 0.045,-0.014c0.227,-0.072 0.449,-0.144 0.669,-0.218c0.015,-0.004 0.029,-0.009 0.046,-0.014c0.105,-0.033 0.21,-0.069 0.313,-0.103c0.019,-0.007 0.035,-0.012 0.052,-0.019c0.105,-0.036 0.208,-0.069 0.313,-0.105c0.012,-0.005 0.026,-0.009 0.038,-0.014c0.215,-0.074 0.43,-0.148 0.64,-0.225c0.012,-0.005 0.027,-0.009 0.039,-0.014c0.102,-0.036 0.203,-0.072 0.301,-0.108c0.016,-0.004 0.033,-0.012 0.047,-0.016c0.101,-0.039 0.201,-0.074 0.299,-0.11c0.012,-0.005 0.024,-0.01 0.036,-0.015c0.205,-0.076 0.408,-0.152 0.609,-0.231c0.012,-0.005 0.024,-0.01 0.036,-0.015c0.098,-0.035 0.193,-0.074 0.289,-0.112c0.014,-0.005 0.029,-0.009 0.043,-0.017c0.095,-0.038 0.191,-0.076 0.284,-0.114c0.01,-0.003 0.019,-0.007 0.029,-0.01c0.198,-0.081 0.392,-0.16 0.585,-0.241c0.01,-0.005 0.019,-0.01 0.029,-0.012c0.093,-0.041 0.186,-0.079 0.277,-0.117c0.012,-0.005 0.024,-0.012 0.036,-0.017c0.093,-0.038 0.184,-0.079 0.274,-0.119c0.008,-0.003 0.015,-0.005 0.022,-0.007c0.117,-0.053 0.232,-0.103 0.346,-0.156l-0.129,2.205c-1.366,3.674 -6.062,3.216 -6.062,3.216m23.739,-36.683c1.111,-1.739 1.93,-3.662 2.329,-5.683c0.079,-0.391 0.141,-0.8 0.048,-1.189c-0.091,-0.39 -0.373,-0.757 -0.764,-0.843c-0.222,-0.048 -0.469,0.033 -0.636,0.186c0.533,-1.206 0.844,-2.511 0.91,-3.827c0.034,-0.623 -0.004,-1.297 -0.391,-1.787c-0.39,-0.489 -1.238,-0.642 -1.618,-0.148c0.235,-0.841 0.407,-1.76 0.077,-2.57c-0.327,-0.81 -1.343,-1.388 -2.105,-0.963c0.268,-0.841 -0.131,-2.212 -0.996,-2.389c-0.59,-0.121 -1.302,0.332 -1.724,0.913l-0.003,-0c-4.347,-4.997 -7.818,7.692 -8.019,8.447c-0.007,0.023 -0.014,0.047 -0.022,0.071c-0.014,0.036 -0.026,0.072 -0.038,0.108c0.003,-0.005 0.005,-0.007 0.007,-0.01c-0.009,0.031 -0.019,0.062 -0.031,0.093c-0.007,0.022 -0.014,0.046 -0.021,0.067c-0.019,0.055 -0.038,0.113 -0.057,0.167c-0.008,0.022 -0.015,0.043 -0.022,0.065c-0.026,0.074 -0.053,0.146 -0.079,0.22c-0.002,0.007 -0.005,0.012 -0.007,0.019c-0.024,0.067 -0.05,0.131 -0.074,0.196c-0.01,0.021 -0.019,0.045 -0.026,0.067c-0.022,0.052 -0.041,0.102 -0.062,0.152c-0.01,0.022 -0.017,0.043 -0.027,0.065c-0.028,0.069 -0.057,0.136 -0.086,0.203c-0.007,0.014 -0.014,0.031 -0.019,0.048c-0.024,0.05 -0.045,0.103 -0.069,0.153c-0.012,0.026 -0.024,0.052 -0.036,0.076c-0.019,0.043 -0.038,0.086 -0.06,0.129c-0.012,0.024 -0.023,0.05 -0.035,0.074c-0.029,0.062 -0.058,0.122 -0.089,0.182c-0.012,0.024 -0.026,0.05 -0.038,0.076c-0.019,0.036 -0.038,0.074 -0.057,0.11c-0.017,0.031 -0.031,0.062 -0.048,0.091c-0.017,0.031 -0.034,0.062 -0.05,0.093c-0.017,0.031 -0.034,0.064 -0.053,0.096c-0.017,0.031 -0.036,0.064 -0.055,0.095c-0.031,0.057 -0.062,0.112 -0.093,0.165c-0.014,0.021 -0.026,0.043 -0.038,0.064c-0.022,0.039 -0.046,0.074 -0.067,0.113c-0.01,0.014 -0.022,0.031 -0.031,0.047c-0.081,0.132 -0.165,0.261 -0.249,0.387c-0.004,0.005 -0.007,0.012 -0.011,0.017c-1.353,2 -3.144,3.292 -5.053,4.02l0.005,0c-3.449,1.321 -7.281,0.801 -9.596,-0.709c0.005,0.002 0.007,0.002 0.012,0.002c-0.771,-0.501 -1.378,-1.11 -1.744,-1.801c-0.004,-0.007 -0.007,-0.012 -0.009,-0.019c-0.012,-0.021 -0.024,-0.043 -0.034,-0.064c-0.014,-0.027 -0.026,-0.055 -0.04,-0.082c-0.005,-0.012 -0.012,-0.026 -0.017,-0.038c-0.009,-0.021 -0.019,-0.043 -0.029,-0.064c-0.004,-0.012 -0.009,-0.022 -0.014,-0.034c-0.012,-0.033 -0.026,-0.064 -0.038,-0.098c-2.074,-5.489 -5.012,-12.149 -10.241,-15.381c-0.635,-0.394 -1.314,-0.714 -1.999,-0.927c1.156,-0.26 2.283,-0.683 2.983,-1.608c0.311,-0.406 0.516,-0.912 0.48,-1.423c-0.038,-0.511 -0.353,-1.016 -0.836,-1.19c-0.623,-0.227 -1.311,0.136 -1.786,0.602c-0.251,0.246 -0.481,0.533 -0.803,0.679c-0.32,0.145 -0.774,0.086 -0.922,-0.235c-0.227,-0.482 0.392,-1.053 0.177,-1.54c-0.141,-0.325 -0.614,-0.397 -0.91,-0.203c-0.299,0.191 -0.438,0.561 -0.466,0.914c-0.022,0.266 0.004,0.543 -0.098,0.789c-0.103,0.243 -0.409,0.435 -0.638,0.298c-0.344,-0.205 -0.115,-0.819 -0.413,-1.087c-0.277,-0.25 -0.746,0.063 -0.82,0.428c-0.076,0.368 0.07,0.741 0.096,1.116c0.029,0.372 -0.148,0.831 -0.523,0.867c-0.385,0.036 -0.731,-0.409 -1.097,-0.28c-0.356,0.127 -0.332,0.636 -0.21,0.994c0.124,0.356 0.256,0.815 -0.033,1.058c-0.225,0.187 -0.574,0.113 -0.829,0.253c-0.306,0.165 -0.378,0.612 -0.203,0.911c0.172,0.301 0.525,0.463 0.869,0.494c0.058,0.005 0.112,0.007 0.165,0.007c-0.846,0.139 -2.062,0.648 -2.883,2.332c-0,-0 0.284,0.012 0.714,0.016l0.287,0c0.812,-0.002 1.954,-0.04 2.806,-0.217c-0.461,0.366 -0.893,0.929 -0.869,1.749c-0.076,0.539 0.01,1.192 0.365,1.975c1.448,3.175 4.217,2.43 3.961,-0.432c-0.005,-0.069 -0.014,-0.141 -0.024,-0.21c0.552,1.798 0.535,3.74 0.32,5.592c-0.009,0.079 -0.019,0.157 -0.028,0.239c-0.003,0.014 -0.005,0.028 -0.008,0.045c-0.009,0.074 -0.019,0.148 -0.031,0.225c-0.002,0.016 -0.004,0.035 -0.007,0.052c-0.009,0.074 -0.021,0.148 -0.033,0.22c-0.003,0.012 -0.005,0.024 -0.005,0.038c-0.01,0.053 -0.017,0.105 -0.026,0.158c-0.007,0.036 -0.012,0.071 -0.019,0.107c-0.01,0.065 -0.022,0.129 -0.034,0.194c-0.005,0.031 -0.012,0.062 -0.017,0.095c-0.007,0.043 -0.016,0.089 -0.023,0.132c-0.012,0.055 -0.022,0.11 -0.034,0.164c-0.005,0.027 -0.009,0.055 -0.017,0.084c-0.544,2.719 -1.531,5.301 -2.238,7.991c-4.207,16.052 8.977,20.954 8.977,20.954c2.833,8.141 9.252,10.807 12.171,11.619l-0.315,5.346c-1.369,3.672 -6.063,3.213 -6.063,3.213c1.519,0.939 4.333,0.437 4.333,0.437l-4.787,3.17c5.117,-0.547 7.396,-3.258 7.396,-3.258l2.436,3.839l-1.18,-5.64c1.41,0.747 3.206,0.067 3.206,0.067c-0.566,-0.12 -1.089,-0.347 -1.548,-0.61c3.836,-0.888 5.568,-2.95 5.568,-2.95l2.439,3.837l-1.182,-5.64c1.409,0.75 3.206,0.069 3.206,0.069c-1.974,-0.42 -3.447,-2.14 -3.447,-2.14l0.136,-2.805c0.176,-0.091 0.351,-0.181 0.523,-0.272c0.086,-0.045 0.169,-0.091 0.255,-0.136c0,-0.003 0.003,-0.003 0.003,-0.003c9.799,-5.327 11.091,-12.147 10.042,-17.505l0.003,-0.004c0.064,-0.208 0.167,-0.404 0.298,-0.579c2.922,-3.886 4.099,-8.286 4.522,-11.853" style="fill:#305528;"/><rect x="774.383" y="345.818" width="13.368" height="15.427" style="fill:#305528;"/><rect x="774.383" y="313.393" width="13.368" height="15.427" style="fill:#305528;"/><path d="M1006.52,389.679c-0,-0 -32.832,-7.768 -48.552,-9.553l-0,-18.881l18.439,0l-0,-15.429l-18.439,0l-0,-16.996l18.439,-0l-0,-15.429l-18.439,-0l-0,-7.824c-3.373,-3.373 -5.263,-5.264 -8.636,-8.637l-2.716,-0c-3.373,3.373 -5.265,5.264 -8.638,8.637l0,73.482c-19.729,-0.901 -40.757,-1.386 -62.584,-1.386c-21.826,0 -42.854,0.485 -62.583,1.386l-0,-17.804l120.096,0l-0,-15.429l-120.096,0l-0,-16.996l120.096,-0l-0,-15.429l-120.096,-0l-0,-7.824c-3.373,-3.373 -5.265,-5.264 -8.638,-8.637l-2.716,-0c-3.371,3.373 -5.263,5.264 -8.636,8.637l0,74.559c-21.372,2.389 -48.552,9.553 -48.552,9.553l262.251,-0Z" style="fill:#305528;"/><path d="M914.978,319.34c1.52,0.936 4.334,0.437 4.334,0.437l-3.65,2.415c-0.748,-0.547 -1.209,-1.085 -1.209,-1.085l0.234,-4.804c0.009,-0.002 0.017,-0.004 0.026,-0.007c0.017,-0.005 0.034,-0.009 0.05,-0.014c0.11,-0.034 0.22,-0.067 0.328,-0.1c0.019,-0.008 0.038,-0.012 0.059,-0.02c0.108,-0.033 0.215,-0.066 0.323,-0.1c0.017,-0.005 0.031,-0.009 0.045,-0.014c0.227,-0.072 0.449,-0.144 0.669,-0.218l0.045,-0.014c0.106,-0.033 0.208,-0.069 0.313,-0.105c0.017,-0.005 0.036,-0.01 0.053,-0.017c0.105,-0.036 0.208,-0.069 0.31,-0.105c0.015,-0.005 0.029,-0.009 0.041,-0.014c0.215,-0.074 0.43,-0.148 0.64,-0.225c0.012,-0.005 0.027,-0.009 0.038,-0.014c0.101,-0.036 0.201,-0.072 0.301,-0.108c0.017,-0.004 0.034,-0.012 0.048,-0.019c0.101,-0.036 0.201,-0.071 0.299,-0.107c0.012,-0.005 0.024,-0.01 0.036,-0.015c0.205,-0.076 0.408,-0.152 0.609,-0.231c0.012,-0.005 0.024,-0.01 0.036,-0.015c0.098,-0.035 0.193,-0.074 0.289,-0.112c0.014,-0.005 0.026,-0.009 0.04,-0.017c0.098,-0.038 0.191,-0.076 0.287,-0.114c0.01,-0.003 0.019,-0.007 0.029,-0.01c0.196,-0.081 0.391,-0.16 0.582,-0.241c0.012,-0.005 0.022,-0.01 0.032,-0.012c0.093,-0.041 0.186,-0.079 0.277,-0.117c0.012,-0.007 0.024,-0.012 0.035,-0.017c0.094,-0.038 0.184,-0.079 0.275,-0.119c0.007,-0.003 0.015,-0.005 0.022,-0.007c0.117,-0.053 0.231,-0.103 0.346,-0.156l-0.129,2.205c-1.366,3.674 -6.063,3.216 -6.063,3.216m23.74,-36.683c1.111,-1.739 1.93,-3.662 2.329,-5.683c0.079,-0.391 0.141,-0.8 0.048,-1.189c-0.093,-0.39 -0.373,-0.757 -0.765,-0.843c-0.222,-0.048 -0.468,0.033 -0.635,0.186c0.533,-1.206 0.843,-2.511 0.91,-3.827c0.034,-0.623 -0.007,-1.297 -0.394,-1.787c-0.387,-0.489 -1.235,-0.642 -1.617,-0.148c0.236,-0.841 0.408,-1.76 0.079,-2.57c-0.328,-0.81 -1.343,-1.388 -2.105,-0.963c0.268,-0.841 -0.131,-2.212 -0.996,-2.389c-0.59,-0.121 -1.302,0.332 -1.725,0.913l-0.002,-0c-4.348,-4.997 -7.819,7.689 -8.019,8.447c-0.007,0.023 -0.015,0.047 -0.022,0.071c-0.014,0.036 -0.026,0.07 -0.038,0.108c0.002,-0.003 0.005,-0.007 0.007,-0.01c-0.009,0.031 -0.019,0.062 -0.031,0.093l-0.021,0.067c-0.019,0.055 -0.039,0.113 -0.058,0.167c-0.007,0.022 -0.014,0.043 -0.021,0.065c-0.026,0.074 -0.053,0.146 -0.079,0.22c-0.002,0.007 -0.005,0.012 -0.007,0.019c-0.024,0.067 -0.05,0.131 -0.074,0.196c-0.01,0.021 -0.019,0.045 -0.026,0.067c-0.022,0.052 -0.041,0.102 -0.063,0.152c-0.009,0.022 -0.016,0.043 -0.026,0.065c-0.029,0.069 -0.057,0.136 -0.086,0.203c-0.007,0.014 -0.014,0.031 -0.019,0.048c-0.024,0.05 -0.048,0.103 -0.069,0.153c-0.012,0.026 -0.024,0.052 -0.036,0.076c-0.019,0.043 -0.041,0.086 -0.06,0.129c-0.012,0.024 -0.024,0.05 -0.036,0.074c-0.028,0.062 -0.057,0.122 -0.088,0.182c-0.012,0.024 -0.026,0.05 -0.038,0.076c-0.019,0.036 -0.038,0.074 -0.058,0.11c-0.016,0.031 -0.031,0.062 -0.047,0.091c-0.017,0.031 -0.034,0.062 -0.05,0.093c-0.017,0.031 -0.034,0.064 -0.053,0.096c-0.017,0.031 -0.036,0.064 -0.055,0.095c-0.031,0.057 -0.062,0.112 -0.093,0.165c-0.014,0.021 -0.026,0.043 -0.038,0.064c-0.022,0.039 -0.046,0.074 -0.067,0.113c-0.01,0.014 -0.022,0.031 -0.031,0.047c-0.082,0.132 -0.165,0.261 -0.249,0.387c-0.005,0.005 -0.007,0.01 -0.012,0.017c-1.352,2 -3.143,3.292 -5.052,4.02l0.005,0c-3.45,1.321 -7.281,0.801 -9.596,-0.709c0.002,0.002 0.007,0.002 0.012,0.002c-0.772,-0.501 -1.378,-1.11 -1.744,-1.801c-0.005,-0.007 -0.007,-0.012 -0.012,-0.019c-0.009,-0.021 -0.021,-0.043 -0.031,-0.064c-0.014,-0.027 -0.028,-0.055 -0.04,-0.082c-0.005,-0.012 -0.012,-0.026 -0.017,-0.038c-0.01,-0.021 -0.019,-0.043 -0.029,-0.064c-0.005,-0.012 -0.009,-0.022 -0.014,-0.034c-0.014,-0.033 -0.026,-0.064 -0.038,-0.098c-2.074,-5.489 -5.012,-12.149 -10.241,-15.381c-0.635,-0.394 -1.314,-0.714 -1.999,-0.927c1.156,-0.26 2.283,-0.683 2.983,-1.608c0.311,-0.406 0.516,-0.912 0.48,-1.423c-0.038,-0.511 -0.353,-1.016 -0.836,-1.19c-0.623,-0.227 -1.311,0.136 -1.787,0.602c-0.25,0.246 -0.48,0.533 -0.802,0.679c-0.32,0.145 -0.774,0.086 -0.925,-0.235c-0.224,-0.482 0.394,-1.053 0.179,-1.543c-0.141,-0.322 -0.613,-0.394 -0.912,-0.2c-0.296,0.191 -0.435,0.561 -0.464,0.914c-0.021,0.266 0.005,0.543 -0.097,0.789c-0.103,0.243 -0.409,0.435 -0.638,0.298c-0.344,-0.205 -0.115,-0.819 -0.414,-1.087c-0.277,-0.253 -0.745,0.063 -0.819,0.428c-0.076,0.368 0.069,0.741 0.096,1.116c0.028,0.372 -0.148,0.831 -0.523,0.867c-0.385,0.036 -0.734,-0.409 -1.097,-0.28c-0.356,0.127 -0.334,0.636 -0.21,0.994c0.124,0.356 0.255,0.815 -0.034,1.058c-0.224,0.187 -0.573,0.113 -0.828,0.253c-0.306,0.165 -0.378,0.612 -0.204,0.911c0.172,0.301 0.526,0.463 0.872,0.494c0.055,0.005 0.11,0.007 0.163,0.007c-0.846,0.136 -2.062,0.648 -2.883,2.332c-0,-0 0.284,0.012 0.714,0.016l0.286,0c0.813,-0.002 1.954,-0.04 2.807,-0.217c-0.461,0.366 -0.893,0.929 -0.869,1.749c-0.077,0.539 0.009,1.192 0.365,1.975c1.448,3.175 4.216,2.43 3.961,-0.432c-0.005,-0.069 -0.014,-0.141 -0.024,-0.21c0.552,1.798 0.535,3.74 0.32,5.592c-0.009,0.079 -0.019,0.157 -0.031,0.239c0,0.014 -0.002,0.028 -0.005,0.043c-0.009,0.076 -0.019,0.15 -0.031,0.227c-0.002,0.016 -0.005,0.035 -0.007,0.052c-0.012,0.074 -0.021,0.146 -0.033,0.22c-0.003,0.012 -0.005,0.024 -0.005,0.038c-0.01,0.053 -0.017,0.105 -0.026,0.158c-0.008,0.036 -0.012,0.071 -0.02,0.107c-0.009,0.065 -0.021,0.129 -0.033,0.194c-0.005,0.031 -0.012,0.062 -0.017,0.093c-0.009,0.045 -0.016,0.091 -0.026,0.134c-0.01,0.055 -0.019,0.11 -0.031,0.164c-0.005,0.027 -0.01,0.055 -0.017,0.084c-0.544,2.719 -1.531,5.301 -2.238,7.991c-4.207,16.052 8.977,20.954 8.977,20.954c2.833,8.141 9.252,10.807 12.171,11.619l-0.316,5.346c-1.368,3.672 -6.062,3.213 -6.062,3.213c1.519,0.939 4.333,0.437 4.333,0.437l-4.79,3.17c5.12,-0.547 7.399,-3.258 7.399,-3.258l2.436,3.839l-1.18,-5.64c1.409,0.747 3.206,0.067 3.206,0.067c-0.566,-0.12 -1.089,-0.347 -1.548,-0.61c3.836,-0.888 5.568,-2.95 5.568,-2.95l2.439,3.837l-1.182,-5.64c1.409,0.75 3.205,0.069 3.205,0.069c-1.973,-0.42 -3.447,-2.14 -3.447,-2.14l0.137,-2.805c0.176,-0.091 0.351,-0.181 0.523,-0.272c0.086,-0.045 0.169,-0.091 0.255,-0.136c0,-0.003 0,-0.003 0.003,-0.003c9.798,-5.327 11.091,-12.147 10.042,-17.505l0.003,-0.004c0.064,-0.208 0.167,-0.404 0.298,-0.579c2.922,-3.886 4.099,-8.286 4.522,-11.853" style="fill:#305528;"/></g></g></g></g></g></svg>