<?xml version="1.0" encoding="UTF-8" standalone="no"?><!DOCTYPE svg PUBLIC "-//W3C//DTD SVG 1.1//EN" "http://www.w3.org/Graphics/SVG/1.1/DTD/svg11.dtd"><svg width="100%" height="100%" viewBox="0 0 1500 900" version="1.1" xmlns="http://www.w3.org/2000/svg" xmlns:xlink="http://www.w3.org/1999/xlink" xml:space="preserve" xmlns:serif="http://www.serif.com/" style="fill-rule:evenodd;clip-rule:evenodd;stroke-linejoin:round;stroke-miterlimit:2;"><g><path d="M179.31,191.723c-0,24.426 -19.801,44.224 -44.224,44.224c-24.425,0 -44.223,-19.798 -44.223,-44.224c-0,-24.422 19.798,-68.183 44.223,-68.183c24.423,0 44.224,43.761 44.224,68.183" style="fill:#98c451;fill-rule:nonzero;"/><path d="M282.564,191.723c-0,24.426 -19.801,44.224 -44.224,44.224c-24.425,0 -44.226,-19.798 -44.226,-44.224c0,-24.422 19.801,-68.183 44.226,-68.183c24.423,0 44.224,43.761 44.224,68.183" style="fill:#98c451;fill-rule:nonzero;"/><path d="M385.818,191.723c-0,24.426 -19.801,44.224 -44.224,44.224c-24.425,0 -44.224,-19.798 -44.224,-44.224c0,-24.422 19.799,-68.183 44.224,-68.183c24.423,0 44.224,43.761 44.224,68.183" style="fill:#98c451;fill-rule:nonzero;"/><path d="M179.31,330.01c-0,24.425 -19.801,44.224 -44.224,44.224c-24.425,-0 -44.223,-19.799 -44.223,-44.224c-0,-24.425 19.798,-68.183 44.223,-68.183c24.423,-0 44.224,43.758 44.224,68.183" style="fill:#98c451;fill-rule:nonzero;"/><path d="M282.564,330.01c-0,24.425 -19.801,44.224 -44.224,44.224c-24.425,-0 -44.226,-19.799 -44.226,-44.224c0,-24.425 19.801,-68.183 44.226,-68.183c24.423,-0 44.224,43.758 44.224,68.183" style="fill:#98c451;fill-rule:nonzero;"/><path d="M385.818,330.01c-0,24.425 -19.801,44.224 -44.224,44.224c-24.425,-0 -44.224,-19.799 -44.224,-44.224c0,-24.425 19.799,-68.183 44.224,-68.183c24.423,-0 44.224,43.758 44.224,68.183" style="fill:#98c451;fill-rule:nonzero;"/><path d="M179.31,468.296c-0,24.426 -19.801,44.224 -44.224,44.224c-24.425,0 -44.223,-19.798 -44.223,-44.224c-0,-24.425 19.798,-68.183 44.223,-68.183c24.423,0 44.224,43.758 44.224,68.183" style="fill:#98c451;fill-rule:nonzero;"/><path d="M282.564,468.296c-0,24.426 -19.801,44.224 -44.224,44.224c-24.425,0 -44.226,-19.798 -44.226,-44.224c0,-24.425 19.801,-68.183 44.226,-68.183c24.423,0 44.224,43.758 44.224,68.183" style="fill:#98c451;fill-rule:nonzero;"/><path d="M385.818,468.296c-0,24.426 -19.801,44.224 -44.224,44.224c-24.425,0 -44.224,-19.798 -44.224,-44.224c0,-24.425 19.799,-68.183 44.224,-68.183c24.423,0 44.224,43.758 44.224,68.183" style="fill:#98c451;fill-rule:nonzero;"/><path d="M179.31,606.583c-0,24.423 -19.801,44.224 -44.224,44.224c-24.425,-0 -44.223,-19.801 -44.223,-44.224c-0,-24.425 19.798,-68.183 44.223,-68.183c24.423,-0 44.224,43.758 44.224,68.183" style="fill:#98c451;fill-rule:nonzero;"/><path d="M282.564,606.583c-0,24.423 -19.801,44.224 -44.224,44.224c-24.425,-0 -44.226,-19.801 -44.226,-44.224c0,-24.425 19.801,-68.183 44.226,-68.183c24.423,-0 44.224,43.758 44.224,68.183" style="fill:#98c451;fill-rule:nonzero;"/><path d="M385.818,606.583c-0,24.423 -19.801,44.224 -44.224,44.224c-24.425,-0 -44.224,-19.801 -44.224,-44.224c0,-24.425 19.799,-68.183 44.224,-68.183c24.423,-0 44.224,43.758 44.224,68.183" style="fill:#98c451;fill-rule:nonzero;"/><path d="M179.31,744.869c-0,24.426 -19.801,44.224 -44.224,44.224c-24.425,-0 -44.223,-19.798 -44.223,-44.224c-0,-24.425 19.798,-68.183 44.223,-68.183c24.423,0 44.224,43.758 44.224,68.183" style="fill:#98c451;fill-rule:nonzero;"/><path d="M282.564,744.869c-0,24.426 -19.801,44.224 -44.224,44.224c-24.425,-0 -44.226,-19.798 -44.226,-44.224c0,-24.425 19.801,-68.183 44.226,-68.183c24.423,0 44.224,43.758 44.224,68.183" style="fill:#98c451;fill-rule:nonzero;"/><path d="M385.818,744.869c-0,24.426 -19.801,44.224 -44.224,44.224c-24.425,-0 -44.224,-19.798 -44.224,-44.224c0,-24.425 19.799,-68.183 44.224,-68.183c24.423,0 44.224,43.758 44.224,68.183" style="fill:#98c451;fill-rule:nonzero;"/><path d="M520.417,468.296c-0,24.426 -19.801,44.224 -44.224,44.224c-24.425,0 -44.224,-19.798 -44.224,-44.224c0,-24.425 19.799,-68.183 44.224,-68.183c24.423,0 44.224,43.758 44.224,68.183" style="fill:#98c451;fill-rule:nonzero;"/><path d="M623.67,468.296c0,24.426 -19.8,44.224 -44.223,44.224c-24.426,0 -44.224,-19.798 -44.224,-44.224c0,-24.425 19.798,-68.183 44.224,-68.183c24.423,0 44.223,43.758 44.223,68.183" style="fill:#98c451;fill-rule:nonzero;"/><path d="M726.924,468.296c0,24.426 -19.801,44.224 -44.223,44.224c-24.426,0 -44.224,-19.798 -44.224,-44.224c-0,-24.425 19.798,-68.183 44.224,-68.183c24.422,0 44.223,43.758 44.223,68.183" style="fill:#98c451;fill-rule:nonzero;"/><path d="M520.417,606.583c-0,24.423 -19.801,44.224 -44.224,44.224c-24.425,-0 -44.224,-19.801 -44.224,-44.224c0,-24.425 19.799,-68.183 44.224,-68.183c24.423,-0 44.224,43.758 44.224,68.183" style="fill:#98c451;fill-rule:nonzero;"/><path d="M623.67,606.583c0,24.423 -19.8,44.224 -44.223,44.224c-24.426,-0 -44.224,-19.801 -44.224,-44.224c0,-24.425 19.798,-68.183 44.224,-68.183c24.423,-0 44.223,43.758 44.223,68.183" style="fill:#98c451;fill-rule:nonzero;"/><path d="M726.924,606.583c0,24.423 -19.801,44.224 -44.223,44.224c-24.426,-0 -44.224,-19.801 -44.224,-44.224c-0,-24.425 19.798,-68.183 44.224,-68.183c24.422,-0 44.223,43.758 44.223,68.183" style="fill:#98c451;fill-rule:nonzero;"/><path d="M520.417,744.869c-0,24.426 -19.801,44.224 -44.224,44.224c-24.425,-0 -44.224,-19.798 -44.224,-44.224c0,-24.425 19.799,-68.183 44.224,-68.183c24.423,0 44.224,43.758 44.224,68.183" style="fill:#98c451;fill-rule:nonzero;"/><path d="M623.67,744.869c0,24.426 -19.8,44.224 -44.223,44.224c-24.426,-0 -44.224,-19.798 -44.224,-44.224c0,-24.425 19.798,-68.183 44.224,-68.183c24.423,0 44.223,43.758 44.223,68.183" style="fill:#98c451;fill-rule:nonzero;"/><path d="M726.924,744.869c0,24.426 -19.801,44.224 -44.223,44.224c-24.426,-0 -44.224,-19.798 -44.224,-44.224c-0,-24.425 19.798,-68.183 44.224,-68.183c24.422,0 44.223,43.758 44.223,68.183" style="fill:#98c451;fill-rule:nonzero;"/><path d="M861.523,606.583c0,24.423 -19.801,44.224 -44.224,44.224c-24.425,-0 -44.223,-19.801 -44.223,-44.224c-0,-24.425 19.798,-68.183 44.223,-68.183c24.423,-0 44.224,43.758 44.224,68.183" style="fill:#98c451;fill-rule:nonzero;"/><path d="M964.777,606.583c-0,24.423 -19.801,44.224 -44.224,44.224c-24.425,-0 -44.223,-19.801 -44.223,-44.224c-0,-24.425 19.798,-68.183 44.223,-68.183c24.423,-0 44.224,43.758 44.224,68.183" style="fill:#98c451;fill-rule:nonzero;"/><path d="M1068.03,606.583c-0,24.423 -19.801,44.224 -44.224,44.224c-24.425,-0 -44.223,-19.801 -44.223,-44.224c-0,-24.425 19.798,-68.183 44.223,-68.183c24.423,-0 44.224,43.758 44.224,68.183" style="fill:#98c451;fill-rule:nonzero;"/><path d="M861.523,744.869c0,24.426 -19.801,44.224 -44.224,44.224c-24.425,-0 -44.223,-19.798 -44.223,-44.224c-0,-24.425 19.798,-68.183 44.223,-68.183c24.423,0 44.224,43.758 44.224,68.183" style="fill:#98c451;fill-rule:nonzero;"/><path d="M964.777,744.869c-0,24.426 -19.801,44.224 -44.224,44.224c-24.425,-0 -44.223,-19.798 -44.223,-44.224c-0,-24.425 19.798,-68.183 44.223,-68.183c24.423,0 44.224,43.758 44.224,68.183" style="fill:#98c451;fill-rule:nonzero;"/><path d="M1068.03,744.869c-0,24.426 -19.801,44.224 -44.224,44.224c-24.425,-0 -44.223,-19.798 -44.223,-44.224c-0,-24.425 19.798,-68.183 44.223,-68.183c24.423,0 44.224,43.758 44.224,68.183" style="fill:#98c451;fill-rule:nonzero;"/><path d="M1202.63,744.869c-0,24.426 -19.801,44.224 -44.224,44.224c-24.425,-0 -44.224,-19.798 -44.224,-44.224c0,-24.425 19.799,-68.183 44.224,-68.183c24.423,0 44.224,43.758 44.224,68.183" style="fill:#98c451;fill-rule:nonzero;"/><path d="M1305.88,744.869c-0,24.426 -19.801,44.224 -44.224,44.224c-24.425,-0 -44.224,-19.798 -44.224,-44.224c0,-24.425 19.799,-68.183 44.224,-68.183c24.423,0 44.224,43.758 44.224,68.183" style="fill:#98c451;fill-rule:nonzero;"/><path d="M1409.14,744.869c0,24.426 -19.8,44.224 -44.223,44.224c-24.426,-0 -44.224,-19.798 -44.224,-44.224c0,-24.425 19.798,-68.183 44.224,-68.183c24.423,0 44.223,43.758 44.223,68.183" style="fill:#98c451;fill-rule:nonzero;"/><g><path d="M197.462,838.906c-2.646,0 -4.919,-0.595 -6.82,-1.785c-1.901,-1.189 -3.365,-2.879 -4.392,-5.069c-1.028,-2.19 -1.541,-4.8 -1.541,-7.828c-0,-3.028 0.513,-5.631 1.541,-7.808c1.027,-2.176 2.491,-3.859 4.392,-5.049c1.901,-1.19 4.174,-1.785 6.82,-1.785c1.875,0 3.603,0.304 5.182,0.913c1.58,0.608 2.922,1.507 4.027,2.697l-1.272,2.799c-1.181,-1.136 -2.408,-1.961 -3.679,-2.475c-1.272,-0.513 -2.678,-0.77 -4.219,-0.77c-2.954,-0 -5.247,0.987 -6.878,2.961c-1.631,1.973 -2.447,4.813 -2.447,8.517c0,3.677 0.816,6.516 2.447,8.517c1.631,2.001 3.924,3.001 6.878,3.001c1.541,0 2.947,-0.256 4.219,-0.77c1.271,-0.514 2.498,-1.339 3.679,-2.474l1.272,2.798c-1.105,1.163 -2.447,2.055 -4.027,2.677c-1.579,0.622 -3.307,0.933 -5.182,0.933Z" style="fill:#0d0a05;fill-rule:nonzero;"/><path d="M218.786,838.906c-1.875,0 -3.5,-0.426 -4.874,-1.278c-1.375,-0.851 -2.434,-2.048 -3.179,-3.589c-0.745,-1.541 -1.117,-3.366 -1.117,-5.475c-0,-2.082 0.372,-3.887 1.117,-5.415c0.745,-1.528 1.804,-2.717 3.179,-3.569c1.374,-0.852 2.999,-1.278 4.874,-1.278c1.875,0 3.5,0.426 4.874,1.278c1.374,0.852 2.434,2.041 3.179,3.569c0.745,1.528 1.117,3.333 1.117,5.415c-0,2.109 -0.372,3.934 -1.117,5.475c-0.745,1.541 -1.805,2.738 -3.179,3.589c-1.374,0.852 -2.999,1.278 -4.874,1.278Zm-0,-2.839c1.824,-0 3.262,-0.663 4.315,-1.987c1.053,-1.325 1.58,-3.164 1.58,-5.516c-0,-2.353 -0.527,-4.178 -1.58,-5.476c-1.053,-1.298 -2.491,-1.947 -4.315,-1.947c-1.824,0 -3.262,0.649 -4.316,1.947c-1.053,1.298 -1.579,3.123 -1.579,5.476c-0,2.352 0.533,4.191 1.599,5.516c1.066,1.324 2.498,1.987 4.296,1.987Z" style="fill:#0d0a05;fill-rule:nonzero;"/><rect x="233.738" y="826.292" width="10.789" height="2.839" style="fill:#0d0a05;fill-rule:nonzero;"/><path d="M259.478,838.906c-1.875,0 -3.5,-0.426 -4.874,-1.278c-1.374,-0.851 -2.434,-2.048 -3.179,-3.589c-0.745,-1.541 -1.117,-3.366 -1.117,-5.475c-0,-2.082 0.372,-3.887 1.117,-5.415c0.745,-1.528 1.805,-2.717 3.179,-3.569c1.374,-0.852 2.999,-1.278 4.874,-1.278c1.875,0 3.5,0.426 4.874,1.278c1.375,0.852 2.434,2.041 3.179,3.569c0.745,1.528 1.117,3.333 1.117,5.415c0,2.109 -0.372,3.934 -1.117,5.475c-0.745,1.541 -1.804,2.738 -3.179,3.589c-1.374,0.852 -2.999,1.278 -4.874,1.278Zm0,-2.839c1.824,-0 3.262,-0.663 4.316,-1.987c1.053,-1.325 1.579,-3.164 1.579,-5.516c0,-2.353 -0.526,-4.178 -1.579,-5.476c-1.054,-1.298 -2.492,-1.947 -4.316,-1.947c-1.824,0 -3.262,0.649 -4.315,1.947c-1.053,1.298 -1.58,3.123 -1.58,5.476c0,2.352 0.533,4.191 1.599,5.516c1.066,1.324 2.498,1.987 4.296,1.987Z" style="fill:#0d0a05;fill-rule:nonzero;"/><path d="M274.207,845.842l0,-27.175l3.121,0l0,4.502l-0.193,0c0.488,-1.514 1.343,-2.704 2.563,-3.569c1.22,-0.865 2.665,-1.298 4.334,-1.298c1.721,0 3.218,0.426 4.489,1.278c1.272,0.852 2.261,2.041 2.967,3.569c0.706,1.528 1.06,3.346 1.06,5.455c-0,2.055 -0.347,3.86 -1.041,5.415c-0.693,1.554 -1.676,2.758 -2.947,3.609c-1.272,0.852 -2.781,1.278 -4.528,1.278c-1.644,0 -3.063,-0.433 -4.257,-1.298c-1.195,-0.865 -2.036,-2.014 -2.524,-3.447l0.231,-0l0,11.681l-3.275,-0Zm9.132,-9.734c1.824,-0 3.262,-0.663 4.315,-1.988c1.053,-1.325 1.58,-3.177 1.58,-5.556c-0,-2.38 -0.527,-4.218 -1.58,-5.516c-1.053,-1.298 -2.491,-1.947 -4.315,-1.947c-1.798,-0 -3.23,0.649 -4.296,1.947c-1.066,1.298 -1.599,3.136 -1.599,5.516c-0,2.379 0.533,4.231 1.599,5.556c1.066,1.325 2.498,1.988 4.296,1.988Z" style="fill:#0d0a05;fill-rule:nonzero;"/></g><path d="M539.839,838.541l0,-25.552l-9.825,0l0,-3.042l22.964,0l0,3.042l-9.825,0l0,25.552l-3.314,0Z" style="fill:#0d0a05;fill-rule:nonzero;"/><path d="M561.613,838.906c-2.055,0 -3.827,-0.412 -5.317,-1.237c-1.49,-0.825 -2.633,-2.008 -3.429,-3.549c-0.796,-1.541 -1.195,-3.38 -1.195,-5.516c0,-2.028 0.379,-3.812 1.137,-5.354c0.758,-1.541 1.83,-2.751 3.217,-3.63c1.387,-0.878 3.006,-1.318 4.855,-1.318c1.798,0 3.32,0.406 4.566,1.217c1.246,0.811 2.203,1.954 2.871,3.427c0.667,1.474 1.001,3.238 1.001,5.293l0,1.217l-15.181,-0l0,-2.352l13.024,-0l-0.655,0.648c-0,-2.163 -0.476,-3.846 -1.426,-5.049c-0.95,-1.203 -2.338,-1.805 -4.161,-1.805c-1.259,0 -2.344,0.304 -3.256,0.913c-0.912,0.608 -1.612,1.46 -2.1,2.555c-0.488,1.095 -0.732,2.386 -0.732,3.873l-0,0.325c-0,1.649 0.263,3.028 0.79,4.137c0.526,1.108 1.303,1.953 2.331,2.535c1.027,0.581 2.26,0.872 3.699,0.872c1.079,-0 2.145,-0.169 3.198,-0.507c1.053,-0.338 2.055,-0.913 3.005,-1.724l1.118,2.433c-0.925,0.839 -2.049,1.481 -3.372,1.927c-1.323,0.446 -2.652,0.669 -3.988,0.669Z" style="fill:#0d0a05;fill-rule:nonzero;"/><path d="M580.305,838.906c-1.002,0 -1.985,-0.101 -2.948,-0.304c-0.963,-0.203 -1.856,-0.487 -2.678,-0.852c-0.822,-0.365 -1.528,-0.804 -2.119,-1.318l1.04,-2.474c0.642,0.514 1.336,0.94 2.081,1.278c0.745,0.337 1.515,0.581 2.312,0.73c0.796,0.148 1.579,0.223 2.35,0.223c1.516,-0 2.678,-0.264 3.487,-0.791c0.809,-0.528 1.214,-1.264 1.214,-2.211c-0,-0.784 -0.251,-1.392 -0.752,-1.825c-0.5,-0.432 -1.303,-0.77 -2.408,-1.014l-3.737,-0.73c-1.67,-0.351 -2.928,-0.98 -3.776,-1.886c-0.848,-0.906 -1.272,-2.075 -1.272,-3.508c0,-1.19 0.309,-2.231 0.925,-3.123c0.617,-0.892 1.503,-1.582 2.659,-2.069c1.156,-0.486 2.504,-0.73 4.045,-0.73c0.874,0 1.747,0.095 2.62,0.284c0.874,0.19 1.689,0.467 2.447,0.832c0.758,0.365 1.394,0.818 1.907,1.358l-1.078,2.434c-0.514,-0.487 -1.099,-0.899 -1.754,-1.237c-0.655,-0.338 -1.342,-0.588 -2.061,-0.75c-0.719,-0.163 -1.426,-0.244 -2.119,-0.244c-1.439,0 -2.556,0.284 -3.352,0.852c-0.797,0.568 -1.195,1.325 -1.195,2.271c0,0.784 0.238,1.399 0.713,1.846c0.475,0.446 1.227,0.777 2.254,0.993l3.66,0.771c1.799,0.378 3.141,0.994 4.027,1.845c0.886,0.852 1.329,2.008 1.329,3.468c0,1.217 -0.327,2.265 -0.982,3.143c-0.655,0.879 -1.561,1.555 -2.717,2.028c-1.156,0.473 -2.53,0.71 -4.122,0.71Z" style="fill:#0d0a05;fill-rule:nonzero;"/><path d="M600.807,838.906c-1.927,0 -3.59,-0.433 -4.99,-1.298c-1.4,-0.865 -2.479,-2.075 -3.236,-3.63c-0.758,-1.555 -1.137,-3.373 -1.137,-5.455c-0,-2.109 0.379,-3.927 1.137,-5.455c0.757,-1.528 1.843,-2.704 3.255,-3.529c1.413,-0.824 3.07,-1.237 4.971,-1.237c1.233,0 2.427,0.223 3.583,0.67c1.156,0.446 2.106,1.061 2.851,1.845l-1.117,2.555c-0.745,-0.73 -1.567,-1.277 -2.466,-1.642c-0.899,-0.365 -1.772,-0.548 -2.62,-0.548c-1.978,-0 -3.519,0.635 -4.624,1.906c-1.104,1.271 -1.656,3.096 -1.656,5.476c-0,2.325 0.552,4.15 1.656,5.475c1.105,1.325 2.646,1.987 4.624,1.987c0.822,0 1.682,-0.182 2.582,-0.547c0.899,-0.365 1.721,-0.899 2.465,-1.602l1.118,2.514c-0.745,0.785 -1.695,1.4 -2.851,1.846c-1.156,0.446 -2.338,0.669 -3.545,0.669Z" style="fill:#0d0a05;fill-rule:nonzero;"/><path d="M618.168,838.906c-1.875,0 -3.5,-0.426 -4.874,-1.278c-1.375,-0.851 -2.434,-2.048 -3.179,-3.589c-0.745,-1.541 -1.117,-3.366 -1.117,-5.475c-0,-2.082 0.372,-3.887 1.117,-5.415c0.745,-1.528 1.804,-2.717 3.179,-3.569c1.374,-0.852 2.999,-1.278 4.874,-1.278c1.875,0 3.5,0.426 4.874,1.278c1.374,0.852 2.434,2.041 3.179,3.569c0.745,1.528 1.117,3.333 1.117,5.415c0,2.109 -0.372,3.934 -1.117,5.475c-0.745,1.541 -1.805,2.738 -3.179,3.589c-1.374,0.852 -2.999,1.278 -4.874,1.278Zm-0,-2.839c1.824,-0 3.262,-0.663 4.315,-1.987c1.053,-1.325 1.58,-3.164 1.58,-5.516c-0,-2.353 -0.527,-4.178 -1.58,-5.476c-1.053,-1.298 -2.491,-1.947 -4.315,-1.947c-1.824,0 -3.262,0.649 -4.316,1.947c-1.053,1.298 -1.579,3.123 -1.579,5.476c-0,2.352 0.533,4.191 1.599,5.516c1.066,1.324 2.498,1.987 4.296,1.987Z" style="fill:#0d0a05;fill-rule:nonzero;"/><g><path d="M865.99,838.541l11.945,-28.594l2.889,0l11.945,28.594l-3.429,0l-3.314,-8.152l1.618,1.014l-16.568,-0l1.619,-1.014l-3.314,8.152l-3.391,0Zm13.332,-24.578l-6.165,15.25l-0.925,-0.771l14.256,-0l-0.924,0.771l-6.127,-15.25l-0.115,-0Z" style="fill:#0d0a05;fill-rule:nonzero;"/><path d="M906.296,838.906c-1.439,0 -2.8,-0.128 -4.085,-0.385c-1.284,-0.257 -2.465,-0.629 -3.544,-1.116c-1.079,-0.486 -2.042,-1.095 -2.89,-1.825l1.194,-2.839c0.899,0.703 1.824,1.285 2.775,1.744c0.95,0.46 1.965,0.798 3.043,1.014c1.079,0.216 2.248,0.325 3.507,0.325c2.234,-0 3.917,-0.453 5.047,-1.359c1.13,-0.906 1.695,-2.116 1.695,-3.63c0,-0.811 -0.179,-1.494 -0.539,-2.048c-0.36,-0.555 -0.931,-1.021 -1.715,-1.4c-0.783,-0.378 -1.804,-0.689 -3.063,-0.932l-4.2,-0.893c-2.465,-0.54 -4.27,-1.44 -5.413,-2.697c-1.143,-1.257 -1.715,-2.9 -1.715,-4.928c0,-1.676 0.431,-3.143 1.291,-4.4c0.861,-1.258 2.062,-2.231 3.603,-2.92c1.541,-0.69 3.3,-1.035 5.278,-1.035c1.259,0 2.441,0.129 3.545,0.386c1.105,0.256 2.132,0.649 3.083,1.176c0.95,0.527 1.785,1.156 2.504,1.886l-1.194,2.798c-1.131,-1.108 -2.344,-1.913 -3.641,-2.413c-1.298,-0.5 -2.743,-0.75 -4.335,-0.75c-1.336,-0 -2.517,0.209 -3.545,0.628c-1.027,0.419 -1.83,1.021 -2.408,1.805c-0.578,0.784 -0.867,1.717 -0.867,2.799c-0,1.244 0.366,2.224 1.098,2.94c0.732,0.717 1.972,1.264 3.718,1.643l4.162,0.892c2.62,0.541 4.553,1.399 5.798,2.576c1.246,1.176 1.869,2.751 1.869,4.725c0,1.595 -0.404,3.015 -1.214,4.258c-0.809,1.244 -1.971,2.218 -3.487,2.921c-1.515,0.703 -3.3,1.054 -5.355,1.054Z" style="fill:#0d0a05;fill-rule:nonzero;"/><path d="M921.992,838.541l0,-28.594l9.363,0c2.929,0 5.414,0.548 7.456,1.643c2.042,1.095 3.59,2.704 4.643,4.826c1.053,2.123 1.58,4.725 1.58,7.808c-0,3.082 -0.533,5.685 -1.599,7.807c-1.066,2.123 -2.614,3.739 -4.643,4.847c-2.03,1.109 -4.508,1.663 -7.437,1.663l-9.363,0Zm3.314,-3.001l5.857,-0c3.442,-0 6.042,-0.94 7.802,-2.819c1.76,-1.879 2.639,-4.712 2.639,-8.497c0,-3.786 -0.879,-6.611 -2.639,-8.477c-1.76,-1.866 -4.36,-2.798 -7.802,-2.798l-5.857,-0l-0,22.591Z" style="fill:#0d0a05;fill-rule:nonzero;"/><path d="M948.338,838.541l11.944,-28.594l2.89,0l11.944,28.594l-3.429,0l-3.314,-8.152l1.619,1.014l-16.568,-0l1.618,-1.014l-3.314,8.152l-3.39,0Zm13.331,-24.578l-6.165,15.25l-0.924,-0.771l14.256,-0l-0.925,0.771l-6.126,-15.25l-0.116,-0Z" style="fill:#0d0a05;fill-rule:nonzero;"/></g><g><path d="M1170.15,838.906c-1.438,0 -2.8,-0.128 -4.084,-0.385c-1.285,-0.257 -2.466,-0.629 -3.545,-1.116c-1.079,-0.486 -2.042,-1.095 -2.89,-1.825l1.195,-2.839c0.899,0.703 1.823,1.285 2.774,1.744c0.95,0.46 1.965,0.798 3.044,1.014c1.079,0.216 2.247,0.325 3.506,0.325c2.235,-0 3.917,-0.453 5.047,-1.359c1.131,-0.906 1.696,-2.116 1.696,-3.63c-0,-0.811 -0.18,-1.494 -0.54,-2.048c-0.359,-0.555 -0.931,-1.021 -1.714,-1.4c-0.784,-0.378 -1.805,-0.689 -3.063,-0.932l-4.2,-0.893c-2.466,-0.54 -4.271,-1.44 -5.414,-2.697c-1.143,-1.257 -1.714,-2.9 -1.714,-4.928c-0,-1.676 0.43,-3.143 1.29,-4.4c0.861,-1.258 2.062,-2.231 3.603,-2.92c1.541,-0.69 3.301,-1.035 5.279,-1.035c1.258,0 2.44,0.129 3.544,0.386c1.105,0.256 2.133,0.649 3.083,1.176c0.95,0.527 1.785,1.156 2.504,1.886l-1.194,2.798c-1.13,-1.108 -2.344,-1.913 -3.641,-2.413c-1.297,-0.5 -2.742,-0.75 -4.335,-0.75c-1.336,-0 -2.517,0.209 -3.545,0.628c-1.027,0.419 -1.83,1.021 -2.408,1.805c-0.578,0.784 -0.867,1.717 -0.867,2.799c0,1.244 0.366,2.224 1.098,2.94c0.732,0.717 1.972,1.264 3.719,1.643l4.161,0.892c2.62,0.541 4.553,1.399 5.799,2.576c1.246,1.176 1.868,2.751 1.868,4.725c0,1.595 -0.404,3.015 -1.213,4.258c-0.809,1.244 -1.972,2.218 -3.487,2.921c-1.516,0.703 -3.301,1.054 -5.356,1.054Z" style="fill:#0d0a05;fill-rule:nonzero;"/><path d="M1191.15,838.906c-1.31,0 -2.485,-0.264 -3.525,-0.791c-1.041,-0.527 -1.863,-1.25 -2.466,-2.17c-0.604,-0.919 -0.906,-1.947 -0.906,-3.082c0,-1.487 0.379,-2.664 1.137,-3.529c0.758,-0.865 1.972,-1.48 3.641,-1.845c1.67,-0.365 3.879,-0.548 6.627,-0.548l2.235,0l0,2.312l-2.119,0c-1.541,0 -2.838,0.054 -3.892,0.162c-1.053,0.109 -1.9,0.291 -2.543,0.548c-0.642,0.257 -1.104,0.602 -1.387,1.034c-0.282,0.433 -0.424,0.987 -0.424,1.663c0,1.109 0.386,1.987 1.156,2.636c0.771,0.649 1.786,0.974 3.044,0.974c1.079,-0 2.036,-0.264 2.871,-0.791c0.835,-0.527 1.502,-1.237 2.003,-2.129c0.501,-0.893 0.752,-1.893 0.752,-3.002l-0,-4.623c-0,-1.623 -0.373,-2.806 -1.118,-3.549c-0.745,-0.744 -1.9,-1.116 -3.467,-1.116c-1.105,0 -2.203,0.169 -3.295,0.507c-1.091,0.338 -2.215,0.886 -3.371,1.643l-1.079,-2.515c0.719,-0.513 1.522,-0.946 2.408,-1.298c0.886,-0.351 1.805,-0.621 2.755,-0.811c0.95,-0.189 1.875,-0.284 2.774,-0.284c1.644,0 3.025,0.271 4.142,0.812c1.118,0.54 1.972,1.379 2.563,2.514c0.59,1.136 0.886,2.596 0.886,4.38l-0,12.533l-2.967,0l-0,-4.502l0.154,0c-0.283,0.946 -0.726,1.785 -1.329,2.515c-0.604,0.73 -1.349,1.304 -2.235,1.723c-0.886,0.419 -1.894,0.629 -3.025,0.629Z" style="fill:#0d0a05;fill-rule:nonzero;"/><path d="M1206.26,813.8l-0,-3.853l4.007,0l-0,3.853l-4.007,0Zm0.385,24.741l-0,-19.874l3.275,0l-0,19.874l-3.275,0Z" style="fill:#0d0a05;fill-rule:nonzero;"/><path d="M1216.12,838.541l-0,-19.874l3.121,0l-0,4.381l-0.193,-0c0.565,-1.542 1.464,-2.718 2.697,-3.529c1.233,-0.811 2.633,-1.217 4.2,-1.217c1.541,0 2.819,0.284 3.834,0.852c1.014,0.568 1.778,1.44 2.292,2.616c0.514,1.176 0.771,2.657 0.771,4.441l-0,12.33l-3.275,0l-0,-12.127c-0,-1.136 -0.148,-2.095 -0.443,-2.88c-0.296,-0.784 -0.765,-1.372 -1.407,-1.764c-0.642,-0.392 -1.477,-0.588 -2.504,-0.588c-1.156,-0 -2.171,0.264 -3.044,0.791c-0.873,0.527 -1.554,1.25 -2.042,2.17c-0.488,0.919 -0.732,1.974 -0.732,3.163l-0,11.235l-3.275,0Z" style="fill:#0d0a05;fill-rule:nonzero;"/><path d="M1245.6,838.906c-1.002,0 -1.985,-0.101 -2.948,-0.304c-0.963,-0.203 -1.856,-0.487 -2.678,-0.852c-0.822,-0.365 -1.528,-0.804 -2.119,-1.318l1.04,-2.474c0.643,0.514 1.336,0.94 2.081,1.278c0.745,0.337 1.516,0.581 2.312,0.73c0.796,0.148 1.58,0.223 2.35,0.223c1.516,-0 2.678,-0.264 3.487,-0.791c0.809,-0.528 1.214,-1.264 1.214,-2.211c-0,-0.784 -0.251,-1.392 -0.751,-1.825c-0.501,-0.432 -1.304,-0.77 -2.409,-1.014l-3.737,-0.73c-1.67,-0.351 -2.928,-0.98 -3.776,-1.886c-0.848,-0.906 -1.272,-2.075 -1.272,-3.508c0,-1.19 0.309,-2.231 0.925,-3.123c0.617,-0.892 1.503,-1.582 2.659,-2.069c1.156,-0.486 2.504,-0.73 4.045,-0.73c0.874,0 1.747,0.095 2.621,0.284c0.873,0.19 1.688,0.467 2.446,0.832c0.758,0.365 1.394,0.818 1.907,1.358l-1.078,2.434c-0.514,-0.487 -1.099,-0.899 -1.754,-1.237c-0.655,-0.338 -1.342,-0.588 -2.061,-0.75c-0.719,-0.163 -1.426,-0.244 -2.119,-0.244c-1.439,0 -2.556,0.284 -3.352,0.852c-0.797,0.568 -1.195,1.325 -1.195,2.271c0,0.784 0.238,1.399 0.713,1.846c0.475,0.446 1.227,0.777 2.254,0.993l3.661,0.771c1.798,0.378 3.14,0.994 4.026,1.845c0.886,0.852 1.329,2.008 1.329,3.468c0,1.217 -0.327,2.265 -0.982,3.143c-0.655,0.879 -1.561,1.555 -2.717,2.028c-1.156,0.473 -2.53,0.71 -4.122,0.71Z" style="fill:#0d0a05;fill-rule:nonzero;"/><path d="M1268.26,838.906c-1.67,0 -3.115,-0.439 -4.335,-1.318c-1.22,-0.879 -2.074,-2.075 -2.562,-3.59l0.192,0l0,4.543l-3.12,0l-0,-28.594l3.275,0l-0,13.101l-0.232,-0c0.488,-1.46 1.33,-2.616 2.524,-3.468c1.195,-0.852 2.627,-1.278 4.296,-1.278c1.721,0 3.218,0.426 4.489,1.278c1.272,0.852 2.254,2.041 2.948,3.569c0.693,1.528 1.04,3.346 1.04,5.455c-0,2.055 -0.353,3.86 -1.06,5.415c-0.706,1.554 -1.695,2.758 -2.966,3.609c-1.272,0.852 -2.768,1.278 -4.489,1.278Zm-0.694,-2.798c1.824,-0 3.262,-0.663 4.316,-1.988c1.053,-1.325 1.579,-3.163 1.579,-5.516c0,-2.379 -0.526,-4.225 -1.579,-5.536c-1.054,-1.311 -2.492,-1.967 -4.316,-1.967c-1.798,-0 -3.23,0.656 -4.296,1.967c-1.066,1.311 -1.599,3.157 -1.599,5.536c0,2.353 0.533,4.191 1.599,5.516c1.066,1.325 2.498,1.988 4.296,1.988Z" style="fill:#0d0a05;fill-rule:nonzero;"/><path d="M1288.72,838.906c-1.542,0 -2.832,-0.297 -3.873,-0.892c-1.04,-0.595 -1.817,-1.481 -2.331,-2.657c-0.513,-1.176 -0.77,-2.629 -0.77,-4.36l-0,-12.33l3.275,0l-0,12.208c-0,1.109 0.147,2.049 0.443,2.819c0.295,0.771 0.764,1.352 1.406,1.744c0.642,0.392 1.477,0.588 2.505,0.588c1.079,0 2.035,-0.27 2.87,-0.811c0.835,-0.541 1.49,-1.271 1.965,-2.19c0.475,-0.919 0.713,-1.96 0.713,-3.123l0,-11.235l3.275,0l0,19.874l-3.082,0l-0,-4.461l0.231,-0c-0.565,1.541 -1.419,2.731 -2.562,3.569c-1.143,0.838 -2.498,1.257 -4.065,1.257Z" style="fill:#0d0a05;fill-rule:nonzero;"/><path d="M1304.4,838.541l-0,-19.874l3.082,0l0,4.624l-0.154,0c0.437,-1.541 1.214,-2.724 2.331,-3.549c1.118,-0.825 2.537,-1.304 4.258,-1.44l1.425,-0.121l0.309,3.082l-2.389,0.243c-1.773,0.163 -3.14,0.764 -4.104,1.805c-0.963,1.041 -1.445,2.4 -1.445,4.076l0,11.154l-3.313,0Z" style="fill:#0d0a05;fill-rule:nonzero;"/><path d="M1322.69,845.842l3.545,-8.437l-0,1.988l-8.4,-20.726l3.545,0l6.434,16.913l-0.578,0l6.474,-16.913l3.429,0l-11.02,27.175l-3.429,-0Z" style="fill:#0d0a05;fill-rule:nonzero;"/><path d="M1340.8,821.182l-0.809,-11.235l3.815,0l-0.771,11.235l-2.235,-0Z" style="fill:#0d0a05;fill-rule:nonzero;"/><path d="M1355.94,838.906c-1.002,0 -1.984,-0.101 -2.947,-0.304c-0.964,-0.203 -1.856,-0.487 -2.678,-0.852c-0.822,-0.365 -1.529,-0.804 -2.119,-1.318l1.04,-2.474c0.642,0.514 1.336,0.94 2.081,1.278c0.744,0.337 1.515,0.581 2.311,0.73c0.797,0.148 1.58,0.223 2.351,0.223c1.515,-0 2.678,-0.264 3.487,-0.791c0.809,-0.528 1.213,-1.264 1.213,-2.211c0,-0.784 -0.25,-1.392 -0.751,-1.825c-0.501,-0.432 -1.304,-0.77 -2.408,-1.014l-3.738,-0.73c-1.669,-0.351 -2.928,-0.98 -3.776,-1.886c-0.847,-0.906 -1.271,-2.075 -1.271,-3.508c-0,-1.19 0.308,-2.231 0.925,-3.123c0.616,-0.892 1.502,-1.582 2.658,-2.069c1.156,-0.486 2.505,-0.73 4.046,-0.73c0.873,0 1.747,0.095 2.62,0.284c0.873,0.19 1.689,0.467 2.447,0.832c0.758,0.365 1.393,0.818 1.907,1.358l-1.079,2.434c-0.514,-0.487 -1.098,-0.899 -1.753,-1.237c-0.655,-0.338 -1.342,-0.588 -2.061,-0.75c-0.72,-0.163 -1.426,-0.244 -2.12,-0.244c-1.438,0 -2.555,0.284 -3.352,0.852c-0.796,0.568 -1.194,1.325 -1.194,2.271c-0,0.784 0.237,1.399 0.713,1.846c0.475,0.446 1.226,0.777 2.254,0.993l3.66,0.771c1.798,0.378 3.14,0.994 4.027,1.845c0.886,0.852 1.329,2.008 1.329,3.468c-0,1.217 -0.328,2.265 -0.983,3.143c-0.655,0.879 -1.56,1.555 -2.716,2.028c-1.156,0.473 -2.53,0.71 -4.123,0.71Z" style="fill:#0d0a05;fill-rule:nonzero;"/></g><path d="M1239.85,650.806l-0,-40.131c-0.433,0.505 -1.096,0.979 -1.989,1.421c-0.893,0.442 -1.827,0.794 -2.801,1.055c-0.974,0.262 -1.795,0.393 -2.462,0.393l-0,-4.438c0.956,-0.145 2.029,-0.456 3.22,-0.934c1.191,-0.478 2.305,-1.132 3.342,-1.962c1.037,-0.83 1.808,-1.84 2.314,-3.03l3.95,-0l0,47.626l-5.574,-0Z" style="fill:#0d0a05;fill-rule:nonzero;"/><path d="M1261.8,651.374c-2.598,0 -4.483,-0.532 -5.655,-1.596c-1.173,-1.065 -1.913,-2.598 -2.219,-4.601c-0.307,-2.002 -0.46,-4.41 -0.46,-7.225l-0,-22.758c-0,-2.742 0.166,-5.042 0.5,-6.9c0.334,-1.858 1.087,-3.261 2.26,-4.208c1.172,-0.947 3.03,-1.421 5.574,-1.421c2.544,0 4.384,0.474 5.52,1.421c1.137,0.947 1.845,2.35 2.125,4.208c0.279,1.858 0.419,4.158 0.419,6.9l0,22.758c0,2.111 -0.063,3.996 -0.189,5.656c-0.127,1.66 -0.433,3.067 -0.92,4.221c-0.487,1.155 -1.281,2.034 -2.382,2.639c-1.1,0.604 -2.624,0.906 -4.573,0.906Zm-0.054,-4.735c0.523,-0 0.965,-0.068 1.326,-0.203c0.361,-0.136 0.649,-0.469 0.866,-1.002c0.216,-0.532 0.374,-1.38 0.473,-2.543c0.1,-1.164 0.149,-2.765 0.149,-4.803l0,-23.191c0,-2.418 -0.103,-4.15 -0.311,-5.196c-0.207,-1.046 -0.519,-1.696 -0.933,-1.948c-0.415,-0.253 -0.939,-0.379 -1.57,-0.379c-0.613,-0 -1.141,0.122 -1.583,0.365c-0.442,0.244 -0.785,0.889 -1.028,1.935c-0.244,1.046 -0.366,2.778 -0.366,5.196l0,23.218c0,2.056 0.05,3.662 0.149,4.816c0.099,1.155 0.266,1.998 0.501,2.53c0.234,0.533 0.541,0.866 0.92,1.002c0.379,0.135 0.848,0.203 1.407,0.203Z" style="fill:#0d0a05;fill-rule:nonzero;"/><path d="M1275.71,650.806l0,-2.652c0,-1.822 0.149,-3.482 0.447,-4.979c0.298,-1.497 0.803,-3.058 1.515,-4.682c0.713,-1.623 1.683,-3.517 2.909,-5.682l4.384,-7.767c0.415,-0.721 0.749,-1.474 1.001,-2.259c0.253,-0.785 0.456,-1.592 0.609,-2.422c0.154,-0.83 0.257,-1.664 0.311,-2.503c0.054,-0.839 0.082,-1.673 0.082,-2.503c-0,-2.291 -0.091,-4.005 -0.271,-5.142c-0.18,-1.136 -0.483,-1.889 -0.907,-2.259c-0.424,-0.37 -1.005,-0.555 -1.745,-0.555c-0.758,0 -1.371,0.194 -1.84,0.582c-0.469,0.388 -0.812,1.181 -1.028,2.381c-0.217,1.2 -0.325,3.008 -0.325,5.426l-0,6.197l-5.466,-0l-0,-3.356c-0,-3.428 0.18,-6.328 0.541,-8.7c0.361,-2.372 1.182,-4.176 2.462,-5.412c1.281,-1.236 3.302,-1.854 6.062,-1.854c2.111,0 3.73,0.564 4.857,1.692c1.128,1.127 1.904,2.679 2.327,4.654c0.424,1.976 0.636,4.244 0.636,6.806c0,1.569 -0.099,3.031 -0.297,4.384c-0.199,1.353 -0.514,2.652 -0.947,3.896c-0.433,1.245 -1.011,2.517 -1.732,3.816l-4.33,7.793c-1.01,1.804 -1.781,3.275 -2.314,4.411c-0.532,1.137 -0.897,2.178 -1.096,3.126c-0.198,0.947 -0.297,2.07 -0.297,3.369l10.283,-0l-0,4.194l-15.831,-0Z" style="fill:#0d0a05;fill-rule:nonzero;"/><g><path d="M899.715,513.061c-3.266,-0 -5.53,-1.056 -6.793,-3.166c-1.262,-2.111 -1.894,-5.422 -1.894,-9.932l0,-2.381l5.277,0l0,2.192c0,2.129 0.081,3.82 0.244,5.074c0.162,1.254 0.496,2.147 1.001,2.679c0.505,0.532 1.272,0.798 2.3,0.798c1.046,0 1.822,-0.302 2.327,-0.906c0.505,-0.605 0.844,-1.57 1.015,-2.896c0.171,-1.326 0.257,-3.053 0.257,-5.182c-0,-2.399 -0.135,-4.298 -0.406,-5.696c-0.271,-1.398 -0.744,-2.395 -1.421,-2.99c-0.676,-0.596 -1.637,-0.893 -2.882,-0.893l-1.325,-0l-0,-4.465l1.271,-0c1.209,-0 2.156,-0.221 2.842,-0.663c0.685,-0.442 1.168,-1.277 1.447,-2.503c0.28,-1.227 0.42,-2.995 0.42,-5.304c-0,-2.165 -0.14,-3.798 -0.42,-4.898c-0.279,-1.101 -0.681,-1.845 -1.204,-2.233c-0.523,-0.388 -1.154,-0.581 -1.894,-0.581c-0.758,-0 -1.389,0.225 -1.894,0.676c-0.505,0.451 -0.88,1.24 -1.123,2.368c-0.244,1.127 -0.366,2.71 -0.366,4.749l0,1.136l-5.358,0l0,-1.488c0,-4.149 0.636,-7.216 1.908,-9.2c1.272,-1.985 3.541,-2.977 6.806,-2.977c3.265,-0 5.588,1.042 6.968,3.125c1.38,2.084 2.07,5.192 2.07,9.323c0,2.634 -0.374,4.902 -1.123,6.805c-0.749,1.904 -1.98,3.171 -3.694,3.802c1.191,0.542 2.147,1.403 2.869,2.585c0.721,1.181 1.245,2.575 1.569,4.181c0.325,1.605 0.487,3.337 0.487,5.195c0,4.564 -0.699,7.983 -2.097,10.256c-1.398,2.273 -3.793,3.41 -7.184,3.41Z" style="fill:#0d0a05;fill-rule:nonzero;"/><path d="M920.689,513.088c-2.598,-0 -4.483,-0.532 -5.656,-1.597c-1.173,-1.064 -1.912,-2.598 -2.219,-4.6c-0.307,-2.003 -0.46,-4.411 -0.46,-7.225l0,-22.758c0,-2.742 0.167,-5.042 0.501,-6.9c0.333,-1.859 1.087,-3.261 2.259,-4.208c1.173,-0.948 3.031,-1.421 5.575,-1.421c2.543,-0 4.383,0.473 5.52,1.421c1.137,0.947 1.845,2.349 2.124,4.208c0.28,1.858 0.42,4.158 0.42,6.9l-0,22.758c-0,2.11 -0.063,3.996 -0.19,5.655c-0.126,1.66 -0.433,3.067 -0.92,4.222c-0.487,1.154 -1.281,2.034 -2.381,2.638c-1.101,0.605 -2.625,0.907 -4.573,0.907Zm-0.054,-4.736c0.523,0 0.965,-0.067 1.326,-0.203c0.36,-0.135 0.649,-0.469 0.865,-1.001c0.217,-0.532 0.375,-1.38 0.474,-2.544c0.099,-1.163 0.149,-2.764 0.149,-4.803l-0,-23.191c-0,-2.417 -0.104,-4.149 -0.311,-5.195c-0.208,-1.047 -0.519,-1.696 -0.934,-1.949c-0.415,-0.252 -0.938,-0.379 -1.569,-0.379c-0.614,0 -1.142,0.122 -1.583,0.366c-0.442,0.243 -0.785,0.888 -1.029,1.935c-0.243,1.046 -0.365,2.778 -0.365,5.195l-0,23.218c-0,2.057 0.05,3.662 0.149,4.817c0.099,1.154 0.266,1.998 0.5,2.53c0.235,0.532 0.542,0.866 0.92,1.001c0.379,0.136 0.848,0.203 1.408,0.203Z" style="fill:#0d0a05;fill-rule:nonzero;"/><path d="M940.526,512.519l0,-40.13c-0.433,0.505 -1.096,0.979 -1.989,1.42c-0.893,0.442 -1.826,0.794 -2.801,1.056c-0.974,0.261 -1.795,0.392 -2.462,0.392l-0,-4.438c0.956,-0.144 2.029,-0.455 3.22,-0.933c1.191,-0.478 2.305,-1.132 3.342,-1.962c1.037,-0.83 1.809,-1.84 2.314,-3.031l3.951,0l-0,47.626l-5.575,0Z" style="fill:#0d0a05;fill-rule:nonzero;"/></g><g><path d="M559.176,377.191c-2.11,0 -3.77,-0.41 -4.979,-1.231c-1.209,-0.821 -2.065,-1.921 -2.571,-3.301c-0.505,-1.381 -0.757,-2.9 -0.757,-4.56l-0,-5.25l5.412,0l-0,5.277c-0,1.245 0.194,2.282 0.582,3.112c0.388,0.83 1.159,1.245 2.313,1.245c1.029,-0 1.768,-0.384 2.219,-1.15c0.451,-0.767 0.677,-1.935 0.677,-3.505l-0,-14.206c-0,-1.823 -0.194,-3.212 -0.582,-4.168c-0.388,-0.956 -1.141,-1.434 -2.26,-1.434c-0.902,0 -1.637,0.41 -2.205,1.231c-0.568,0.821 -0.852,2.097 -0.852,3.829l-4.817,-0.433l-0,-23.623l14.964,-0l0,5.033l-9.85,-0l0,11.122c0.307,-0.578 0.853,-1.038 1.637,-1.38c0.785,-0.343 1.62,-0.515 2.504,-0.515c1.569,0 2.859,0.433 3.869,1.299c1.01,0.866 1.759,2.404 2.246,4.614c0.487,2.21 0.731,5.336 0.731,9.377l-0,1.055c-0,2.886 -0.068,5.426 -0.203,7.617c-0.135,2.192 -0.46,4.028 -0.974,5.507c-0.514,1.48 -1.331,2.589 -2.449,3.329c-1.119,0.739 -2.67,1.109 -4.655,1.109Z" style="fill:#0d0a05;fill-rule:nonzero;"/><path d="M581.341,376.65l-0,-8.984l-11.257,-0l-0,-3.924l10.58,-34.718l5.764,-0l0,34.204l3.924,0l0,4.438l-3.924,-0l0,8.984l-5.087,-0Zm-6.657,-13.422l6.657,0l-0,-24.787l-6.657,24.787Z" style="fill:#0d0a05;fill-rule:nonzero;"/><path d="M600.475,377.191c-3.175,0 -5.484,-0.947 -6.928,-2.841c-1.443,-1.894 -2.191,-4.889 -2.246,-8.984l-0.027,-2.084c-0.018,-1.732 0.136,-3.414 0.46,-5.047c0.325,-1.632 0.799,-3.08 1.421,-4.343c0.622,-1.263 1.367,-2.183 2.233,-2.76c-1.372,-0.992 -2.341,-2.417 -2.909,-4.276c-0.569,-1.858 -0.853,-4.05 -0.853,-6.575c0,-4.131 0.65,-7.126 1.948,-8.984c1.299,-1.858 3.609,-2.788 6.928,-2.788c3.337,0 5.642,0.925 6.914,2.774c1.272,1.849 1.908,4.848 1.908,8.998c-0,2.561 -0.257,4.758 -0.772,6.589c-0.514,1.831 -1.474,3.225 -2.882,4.181c0.83,0.595 1.52,1.538 2.071,2.828c0.55,1.29 0.965,2.755 1.244,4.397c0.28,1.642 0.42,3.31 0.42,5.006l-0,1.894c-0,4.168 -0.69,7.212 -2.07,9.133c-1.38,1.922 -3.667,2.882 -6.86,2.882Zm0.027,-4.708c1.046,-0 1.804,-0.244 2.273,-0.731c0.469,-0.487 0.762,-1.299 0.879,-2.435c0.118,-1.137 0.176,-2.661 0.176,-4.574l0,-1.813c0,-3.301 -0.284,-5.732 -0.852,-7.292c-0.568,-1.561 -1.394,-2.341 -2.476,-2.341c-1.01,-0 -1.867,0.78 -2.571,2.341c-0.703,1.56 -1.055,4.018 -1.055,7.374l-0,1.867c-0,2.796 0.207,4.762 0.622,5.899c0.415,1.136 1.416,1.705 3.004,1.705Zm-0.054,-23.083c0.667,0 1.267,-0.239 1.799,-0.717c0.533,-0.478 0.952,-1.358 1.259,-2.638c0.306,-1.281 0.46,-3.13 0.46,-5.548c-0,-2.291 -0.131,-3.964 -0.393,-5.019c-0.261,-1.056 -0.649,-1.737 -1.163,-2.044c-0.514,-0.306 -1.168,-0.46 -1.962,-0.46c-0.758,0 -1.394,0.176 -1.908,0.528c-0.514,0.352 -0.902,1.069 -1.164,2.151c-0.261,1.083 -0.392,2.734 -0.392,4.952c0,2.382 0.144,4.208 0.433,5.48c0.289,1.272 0.69,2.142 1.204,2.612c0.514,0.469 1.123,0.703 1.827,0.703Z" style="fill:#0d0a05;fill-rule:nonzero;"/></g><path d="M224.942,102.84c-3.175,0 -5.484,-0.947 -6.928,-2.841c-1.443,-1.894 -2.192,-4.889 -2.246,-8.984l-0.027,-2.084c-0.018,-1.732 0.136,-3.414 0.46,-5.047c0.325,-1.632 0.799,-3.08 1.421,-4.343c0.622,-1.263 1.367,-2.183 2.232,-2.76c-1.371,-0.992 -2.34,-2.417 -2.909,-4.276c-0.568,-1.858 -0.852,-4.05 -0.852,-6.575c0,-4.131 0.649,-7.126 1.948,-8.984c1.299,-1.858 3.608,-2.788 6.928,-2.788c3.337,0 5.642,0.925 6.914,2.774c1.272,1.849 1.908,4.848 1.908,8.998c-0,2.561 -0.257,4.758 -0.772,6.589c-0.514,1.831 -1.474,3.225 -2.882,4.181c0.83,0.595 1.52,1.538 2.071,2.828c0.55,1.29 0.965,2.755 1.244,4.397c0.28,1.642 0.42,3.31 0.42,5.006l-0,1.894c-0,4.168 -0.69,7.212 -2.07,9.133c-1.38,1.922 -3.667,2.882 -6.86,2.882Zm0.027,-4.708c1.046,-0 1.804,-0.244 2.273,-0.731c0.469,-0.487 0.762,-1.299 0.879,-2.435c0.118,-1.137 0.176,-2.661 0.176,-4.574l0,-1.813c0,-3.301 -0.284,-5.732 -0.852,-7.292c-0.568,-1.561 -1.394,-2.341 -2.476,-2.341c-1.01,-0 -1.867,0.78 -2.571,2.341c-0.703,1.56 -1.055,4.018 -1.055,7.374l-0,1.867c-0,2.796 0.207,4.762 0.622,5.899c0.415,1.136 1.416,1.705 3.004,1.705Zm-0.054,-23.083c0.667,0 1.267,-0.239 1.799,-0.717c0.532,-0.478 0.952,-1.358 1.259,-2.638c0.306,-1.281 0.46,-3.13 0.46,-5.548c-0,-2.291 -0.131,-3.964 -0.393,-5.019c-0.261,-1.056 -0.649,-1.737 -1.163,-2.044c-0.515,-0.306 -1.168,-0.46 -1.962,-0.46c-0.758,0 -1.394,0.176 -1.908,0.528c-0.514,0.352 -0.902,1.069 -1.164,2.151c-0.261,1.083 -0.392,2.734 -0.392,4.952c0,2.382 0.144,4.208 0.433,5.48c0.289,1.272 0.69,2.143 1.204,2.612c0.514,0.469 1.123,0.703 1.827,0.703Z" style="fill:#0d0a05;fill-rule:nonzero;"/><path d="M245.753,102.84c-3.265,0 -5.529,-1.055 -6.792,-3.166c-1.263,-2.111 -1.894,-5.421 -1.894,-9.931l0,-2.381l5.277,-0l-0,2.192c-0,2.128 0.081,3.82 0.243,5.073c0.163,1.254 0.496,2.147 1.002,2.679c0.505,0.533 1.271,0.799 2.3,0.799c1.046,-0 1.822,-0.303 2.327,-0.907c0.505,-0.604 0.843,-1.569 1.015,-2.895c0.171,-1.326 0.257,-3.054 0.257,-5.182c-0,-2.4 -0.135,-4.299 -0.406,-5.697c-0.271,-1.398 -0.744,-2.395 -1.421,-2.99c-0.676,-0.595 -1.637,-0.893 -2.882,-0.893l-1.326,0l0,-4.465l1.272,0c1.209,0 2.156,-0.221 2.842,-0.663c0.685,-0.442 1.168,-1.276 1.447,-2.503c0.28,-1.227 0.42,-2.995 0.42,-5.304c-0,-2.165 -0.14,-3.797 -0.42,-4.898c-0.279,-1.1 -0.681,-1.844 -1.204,-2.232c-0.523,-0.388 -1.155,-0.582 -1.894,-0.582c-0.758,0 -1.389,0.226 -1.894,0.677c-0.506,0.451 -0.88,1.24 -1.123,2.367c-0.244,1.128 -0.366,2.711 -0.366,4.749l0,1.137l-5.358,-0l0,-1.488c0,-4.15 0.636,-7.216 1.908,-9.201c1.272,-1.984 3.54,-2.977 6.806,-2.977c3.265,0 5.588,1.042 6.968,3.126c1.38,2.084 2.07,5.191 2.07,9.322c-0,2.634 -0.374,4.903 -1.123,6.806c-0.749,1.903 -1.98,3.171 -3.694,3.802c1.191,0.541 2.147,1.403 2.869,2.584c0.721,1.182 1.244,2.575 1.569,4.181c0.325,1.606 0.487,3.338 0.487,5.196c0,4.564 -0.699,7.983 -2.097,10.256c-1.398,2.273 -3.793,3.409 -7.185,3.409Z" style="fill:#0d0a05;fill-rule:nonzero;"/><path d="M266.727,102.867c-2.597,0 -4.483,-0.532 -5.655,-1.596c-1.173,-1.065 -1.912,-2.598 -2.219,-4.601c-0.307,-2.002 -0.46,-4.41 -0.46,-7.225l-0,-22.758c-0,-2.742 0.167,-5.042 0.5,-6.9c0.334,-1.858 1.087,-3.261 2.26,-4.208c1.173,-0.947 3.031,-1.421 5.574,-1.421c2.544,0 4.384,0.474 5.521,1.421c1.136,0.947 1.844,2.35 2.124,4.208c0.28,1.858 0.419,4.158 0.419,6.9l0,22.758c0,2.111 -0.063,3.996 -0.189,5.656c-0.126,1.66 -0.433,3.067 -0.92,4.221c-0.487,1.155 -1.281,2.034 -2.381,2.639c-1.101,0.604 -2.625,0.906 -4.574,0.906Zm-0.054,-4.735c0.524,-0 0.966,-0.068 1.326,-0.203c0.361,-0.136 0.65,-0.469 0.866,-1.001c0.217,-0.533 0.375,-1.381 0.474,-2.544c0.099,-1.164 0.149,-2.765 0.149,-4.803l-0,-23.191c-0,-2.418 -0.104,-4.149 -0.312,-5.196c-0.207,-1.046 -0.518,-1.696 -0.933,-1.948c-0.415,-0.253 -0.938,-0.379 -1.57,-0.379c-0.613,-0 -1.141,0.122 -1.583,0.365c-0.442,0.244 -0.784,0.889 -1.028,1.935c-0.244,1.046 -0.365,2.778 -0.365,5.196l-0,23.218c-0,2.056 0.049,3.662 0.149,4.816c0.099,1.155 0.266,1.998 0.5,2.531c0.235,0.532 0.541,0.865 0.92,1.001c0.379,0.135 0.848,0.203 1.407,0.203Z" style="fill:#0d0a05;fill-rule:nonzero;"/><path d="M805.143,189.294l0,-27.153l9.359,-0c2.928,-0 5.412,0.52 7.453,1.559c2.042,1.04 3.589,2.568 4.642,4.584c1.052,2.016 1.579,4.487 1.579,7.414c-0,2.927 -0.533,5.399 -1.599,7.415c-1.065,2.015 -2.612,3.549 -4.641,4.602c-2.028,1.053 -4.506,1.579 -7.434,1.579l-9.359,0Zm3.312,-2.85l5.855,0c3.441,0 6.04,-0.892 7.799,-2.677c1.759,-1.784 2.639,-4.474 2.639,-8.069c-0,-3.595 -0.88,-6.278 -2.639,-8.05c-1.759,-1.771 -4.358,-2.657 -7.799,-2.657l-5.855,-0l0,21.453Z" style="fill:#0d0a05;fill-rule:nonzero;"/><path d="M832.241,165.8l0,-3.659l4.006,-0l0,3.659l-4.006,-0Zm0.386,23.494l-0,-18.872l3.273,-0l0,18.872l-3.273,0Z" style="fill:#0d0a05;fill-rule:nonzero;"/><path d="M847.592,189.641c-1.001,0 -1.983,-0.096 -2.946,-0.289c-0.963,-0.192 -1.855,-0.462 -2.677,-0.809c-0.822,-0.346 -1.528,-0.764 -2.118,-1.251l1.04,-2.35c0.641,0.488 1.335,0.892 2.079,1.213c0.745,0.321 1.515,0.552 2.311,0.694c0.796,0.141 1.58,0.211 2.35,0.211c1.515,0 2.677,-0.25 3.486,-0.751c0.808,-0.5 1.213,-1.2 1.213,-2.099c-0,-0.744 -0.251,-1.322 -0.751,-1.733c-0.501,-0.411 -1.303,-0.732 -2.407,-0.963l-3.737,-0.693c-1.669,-0.334 -2.927,-0.931 -3.774,-1.791c-0.847,-0.86 -1.271,-1.971 -1.271,-3.332c-0,-1.13 0.308,-2.118 0.924,-2.966c0.616,-0.847 1.502,-1.502 2.658,-1.964c1.155,-0.462 2.503,-0.693 4.044,-0.693c0.873,-0 1.746,0.09 2.619,0.269c0.873,0.18 1.688,0.443 2.446,0.79c0.757,0.347 1.393,0.777 1.906,1.29l-1.078,2.311c-0.514,-0.462 -1.098,-0.853 -1.752,-1.174c-0.655,-0.321 -1.342,-0.559 -2.061,-0.713c-0.719,-0.154 -1.425,-0.231 -2.118,-0.231c-1.438,-0 -2.555,0.27 -3.351,0.809c-0.796,0.539 -1.194,1.258 -1.194,2.157c-0,0.744 0.237,1.328 0.712,1.752c0.475,0.424 1.226,0.738 2.253,0.944l3.659,0.732c1.798,0.359 3.139,0.943 4.025,1.752c0.886,0.809 1.329,1.907 1.329,3.293c0,1.156 -0.327,2.151 -0.982,2.985c-0.655,0.835 -1.56,1.477 -2.715,1.926c-1.156,0.449 -2.53,0.674 -4.122,0.674Z" style="fill:#0d0a05;fill-rule:nonzero;"/><path d="M866.833,189.641c-2.259,0 -3.954,-0.597 -5.084,-1.791c-1.13,-1.194 -1.694,-2.895 -1.694,-5.103l-0,-9.706l-3.775,-0l0,-2.619l3.852,-0l-0,-5.701l3.196,0l0,5.701l6.394,-0l0,2.619l-6.394,-0l0,9.398c0,1.463 0.315,2.561 0.944,3.293c0.629,0.731 1.637,1.097 3.024,1.097c0.462,0 0.924,-0.051 1.386,-0.154c0.462,-0.102 0.886,-0.231 1.271,-0.385l0.578,2.542c-0.437,0.231 -0.995,0.424 -1.675,0.578c-0.681,0.154 -1.355,0.231 -2.023,0.231Z" style="fill:#0d0a05;fill-rule:nonzero;"/><path d="M872.517,189.294l-0,-18.872l3.081,-0l0,4.39l-0.154,0c0.437,-1.463 1.213,-2.587 2.33,-3.37c1.117,-0.783 2.536,-1.239 4.256,-1.367l1.425,-0.116l0.309,2.928l-2.388,0.231c-1.772,0.154 -3.14,0.725 -4.102,1.714c-0.963,0.988 -1.445,2.278 -1.445,3.87l0,10.592l-3.312,0Z" style="fill:#0d0a05;fill-rule:nonzero;"/><path d="M885.749,165.8l0,-3.659l4.006,-0l0,3.659l-4.006,-0Zm0.386,23.494l-0,-18.872l3.273,-0l0,18.872l-3.273,0Z" style="fill:#0d0a05;fill-rule:nonzero;"/><path d="M904.259,189.641c-1.669,0 -3.114,-0.417 -4.333,-1.252c-1.22,-0.834 -2.074,-1.97 -2.562,-3.408l0.193,-0l-0,4.313l-3.12,0l0,-27.153l3.274,-0l-0,12.44l-0.231,0c0.488,-1.386 1.329,-2.484 2.523,-3.293c1.194,-0.809 2.625,-1.213 4.294,-1.213c1.721,-0 3.216,0.404 4.487,1.213c1.271,0.809 2.253,1.939 2.947,3.39c0.693,1.45 1.04,3.177 1.04,5.18c-0,1.951 -0.353,3.665 -1.059,5.142c-0.707,1.476 -1.695,2.619 -2.966,3.428c-1.271,0.809 -2.767,1.213 -4.487,1.213Zm-0.694,-2.658c1.823,0 3.261,-0.629 4.314,-1.887c1.053,-1.258 1.579,-3.004 1.579,-5.238c0,-2.26 -0.526,-4.012 -1.579,-5.257c-1.053,-1.246 -2.491,-1.869 -4.314,-1.869c-1.797,0 -3.229,0.623 -4.294,1.869c-1.066,1.245 -1.599,2.997 -1.599,5.257c0,2.234 0.533,3.98 1.599,5.238c1.065,1.258 2.497,1.887 4.294,1.887Z" style="fill:#0d0a05;fill-rule:nonzero;"/><path d="M923.538,189.641c-1.54,0 -2.831,-0.282 -3.871,-0.847c-1.04,-0.565 -1.816,-1.406 -2.33,-2.523c-0.513,-1.117 -0.77,-2.497 -0.77,-4.141l-0,-11.708l3.274,-0l-0,11.593c-0,1.053 0.147,1.945 0.443,2.677c0.295,0.732 0.764,1.284 1.405,1.656c0.642,0.372 1.477,0.558 2.504,0.558c1.078,0 2.035,-0.256 2.869,-0.77c0.835,-0.513 1.49,-1.207 1.965,-2.08c0.475,-0.873 0.712,-1.861 0.712,-2.966l0,-10.668l3.274,-0l0,18.872l-3.081,0l-0,-4.236l0.231,-0c-0.565,1.463 -1.419,2.593 -2.561,3.389c-1.143,0.796 -2.497,1.194 -4.064,1.194Z" style="fill:#0d0a05;fill-rule:nonzero;"/><path d="M945.822,189.641c-2.26,0 -3.954,-0.597 -5.084,-1.791c-1.13,-1.194 -1.695,-2.895 -1.695,-5.103l0,-9.706l-3.774,-0l-0,-2.619l3.851,-0l0,-5.701l3.197,0l0,5.701l6.394,-0l-0,2.619l-6.394,-0l0,9.398c0,1.463 0.315,2.561 0.944,3.293c0.629,0.731 1.637,1.097 3.023,1.097c0.462,0 0.925,-0.051 1.387,-0.154c0.462,-0.102 0.886,-0.231 1.271,-0.385l0.578,2.542c-0.437,0.231 -0.995,0.424 -1.676,0.578c-0.68,0.154 -1.354,0.231 -2.022,0.231Z" style="fill:#0d0a05;fill-rule:nonzero;"/><path d="M951.12,165.8l0,-3.659l4.006,-0l0,3.659l-4.006,-0Zm0.385,23.494l0,-18.872l3.274,-0l0,18.872l-3.274,0Z" style="fill:#0d0a05;fill-rule:nonzero;"/><path d="M967.858,189.641c-1.875,0 -3.499,-0.404 -4.872,-1.213c-1.374,-0.809 -2.433,-1.945 -3.178,-3.409c-0.745,-1.464 -1.117,-3.197 -1.117,-5.2c0,-1.977 0.372,-3.691 1.117,-5.141c0.745,-1.451 1.804,-2.581 3.178,-3.39c1.373,-0.809 2.997,-1.213 4.872,-1.213c1.874,-0 3.498,0.404 4.872,1.213c1.374,0.809 2.433,1.939 3.178,3.39c0.744,1.45 1.117,3.164 1.117,5.141c-0,2.003 -0.373,3.736 -1.117,5.2c-0.745,1.464 -1.804,2.6 -3.178,3.409c-1.374,0.809 -2.998,1.213 -4.872,1.213Zm-0,-2.696c1.823,-0 3.261,-0.629 4.314,-1.887c1.052,-1.259 1.579,-3.005 1.579,-5.239c-0,-2.233 -0.527,-3.967 -1.579,-5.199c-1.053,-1.233 -2.491,-1.849 -4.314,-1.849c-1.823,0 -3.261,0.616 -4.314,1.849c-1.053,1.232 -1.579,2.966 -1.579,5.199c-0,2.234 0.533,3.98 1.598,5.239c1.066,1.258 2.497,1.887 4.295,1.887Z" style="fill:#0d0a05;fill-rule:nonzero;"/><path d="M980.898,189.294l-0,-18.872l3.12,-0l-0,4.159l-0.193,0c0.565,-1.463 1.464,-2.58 2.696,-3.351c1.233,-0.77 2.632,-1.155 4.198,-1.155c1.541,-0 2.819,0.269 3.833,0.809c1.014,0.539 1.778,1.367 2.291,2.484c0.514,1.117 0.771,2.523 0.771,4.218l-0,11.708l-3.274,0l-0,-11.516c-0,-1.078 -0.148,-1.99 -0.443,-2.735c-0.295,-0.744 -0.764,-1.303 -1.406,-1.675c-0.642,-0.372 -1.476,-0.558 -2.503,-0.558c-1.156,-0 -2.17,0.25 -3.043,0.751c-0.873,0.5 -1.554,1.187 -2.041,2.06c-0.488,0.873 -0.732,1.875 -0.732,3.004l-0,10.669l-3.274,0Z" style="fill:#0d0a05;fill-rule:nonzero;"/><path d="M1011.14,165.8l-0,-3.659l4.005,-0l0,3.659l-4.005,-0Zm0.385,23.494l-0,-18.872l3.274,-0l-0,18.872l-3.274,0Z" style="fill:#0d0a05;fill-rule:nonzero;"/><path d="M1019.83,189.294l0,-18.872l3.12,-0l0,4.159l-0.193,0c0.565,-1.463 1.464,-2.58 2.697,-3.351c1.232,-0.77 2.631,-1.155 4.198,-1.155c1.54,-0 2.818,0.269 3.832,0.809c1.014,0.539 1.778,1.367 2.292,2.484c0.513,1.117 0.77,2.523 0.77,4.218l0,11.708l-3.274,0l0,-11.516c0,-1.078 -0.147,-1.99 -0.443,-2.735c-0.295,-0.744 -0.764,-1.303 -1.405,-1.675c-0.642,-0.372 -1.477,-0.558 -2.504,-0.558c-1.155,-0 -2.17,0.25 -3.043,0.751c-0.873,0.5 -1.553,1.187 -2.041,2.06c-0.488,0.873 -0.732,1.875 -0.732,3.004l0,10.669l-3.274,0Z" style="fill:#0d0a05;fill-rule:nonzero;"/><path d="M755.461,237.07l0,-2.465l9.398,-10.014c0.899,-0.976 1.618,-1.868 2.157,-2.677c0.539,-0.809 0.924,-1.598 1.156,-2.369c0.231,-0.77 0.346,-1.553 0.346,-2.349c0,-1.515 -0.468,-2.683 -1.406,-3.505c-0.937,-0.822 -2.291,-1.233 -4.063,-1.233c-1.31,0 -2.581,0.251 -3.813,0.751c-1.233,0.501 -2.388,1.291 -3.467,2.369l-1.271,-2.58c1.079,-1.053 2.395,-1.888 3.948,-2.504c1.554,-0.616 3.178,-0.924 4.873,-0.924c1.797,-0 3.331,0.295 4.602,0.885c1.271,0.591 2.241,1.438 2.908,2.543c0.668,1.104 1.002,2.426 1.002,3.967c-0,0.821 -0.097,1.617 -0.289,2.388c-0.193,0.77 -0.482,1.54 -0.867,2.311c-0.385,0.77 -0.879,1.56 -1.483,2.368c-0.603,0.809 -1.316,1.637 -2.137,2.485l-7.858,8.242l0,-0.539l13.751,-0l-0,2.85l-17.487,0Z" style="fill:#0d0a05;fill-rule:nonzero;"/><path d="M788.359,244.003l3.543,-8.011l0,1.887l-8.396,-19.682l3.543,0l6.432,16.061l-0.578,0l6.471,-16.061l3.428,0l-11.016,25.806l-3.427,-0Z" style="fill:#0d0a05;fill-rule:nonzero;"/><path d="M813.724,237.417c-2.055,-0 -3.826,-0.392 -5.316,-1.175c-1.489,-0.783 -2.631,-1.907 -3.427,-3.37c-0.796,-1.464 -1.194,-3.21 -1.194,-5.238c-0,-1.926 0.378,-3.621 1.136,-5.084c0.757,-1.464 1.829,-2.613 3.216,-3.448c1.386,-0.834 3.004,-1.251 4.853,-1.251c1.797,-0 3.319,0.385 4.564,1.155c1.245,0.77 2.202,1.855 2.869,3.255c0.668,1.399 1.002,3.075 1.002,5.026l-0,1.155l-15.175,0l-0,-2.233l13.018,-0l-0.655,0.616c0,-2.054 -0.475,-3.653 -1.425,-4.795c-0.95,-1.143 -2.337,-1.714 -4.16,-1.714c-1.258,-0 -2.343,0.288 -3.254,0.866c-0.912,0.578 -1.611,1.387 -2.099,2.427c-0.488,1.04 -0.732,2.266 -0.732,3.678l-0,0.308c-0,1.566 0.263,2.876 0.789,3.929c0.527,1.053 1.304,1.855 2.331,2.407c1.027,0.552 2.259,0.828 3.697,0.828c1.079,0 2.144,-0.16 3.197,-0.481c1.053,-0.321 2.054,-0.867 3.004,-1.637l1.117,2.311c-0.924,0.796 -2.048,1.406 -3.37,1.829c-1.322,0.424 -2.651,0.636 -3.986,0.636Z" style="fill:#0d0a05;fill-rule:nonzero;"/><path d="M831.27,237.417c-1.31,-0 -2.484,-0.251 -3.524,-0.751c-1.04,-0.501 -1.862,-1.188 -2.465,-2.061c-0.604,-0.873 -0.905,-1.849 -0.905,-2.927c-0,-1.412 0.378,-2.529 1.136,-3.351c0.757,-0.822 1.971,-1.406 3.64,-1.753c1.669,-0.346 3.877,-0.52 6.624,-0.52l2.234,0l0,2.196l-2.118,-0c-1.541,-0 -2.837,0.051 -3.89,0.154c-1.053,0.103 -1.9,0.276 -2.542,0.52c-0.642,0.244 -1.104,0.571 -1.387,0.982c-0.282,0.411 -0.423,0.937 -0.423,1.579c-0,1.053 0.385,1.888 1.155,2.504c0.77,0.616 1.785,0.924 3.043,0.924c1.078,0 2.035,-0.25 2.869,-0.751c0.835,-0.501 1.502,-1.175 2.003,-2.022c0.501,-0.847 0.751,-1.797 0.751,-2.85l0,-4.391c0,-1.541 -0.372,-2.664 -1.117,-3.37c-0.745,-0.706 -1.9,-1.059 -3.466,-1.059c-1.104,-0 -2.202,0.16 -3.293,0.481c-1.092,0.321 -2.215,0.841 -3.371,1.56l-1.078,-2.388c0.719,-0.488 1.521,-0.899 2.407,-1.232c0.886,-0.334 1.804,-0.591 2.754,-0.771c0.95,-0.18 1.875,-0.269 2.773,-0.269c1.644,-0 3.024,0.256 4.141,0.77c1.117,0.513 1.97,1.309 2.561,2.388c0.591,1.078 0.886,2.465 0.886,4.16l-0,11.901l-2.966,0l0,-4.275l0.154,-0c-0.282,0.899 -0.725,1.695 -1.329,2.388c-0.603,0.693 -1.348,1.239 -2.233,1.637c-0.886,0.398 -1.894,0.597 -3.024,0.597Z" style="fill:#0d0a05;fill-rule:nonzero;"/><path d="M845.581,237.07l0,-18.873l3.081,0l0,4.391l-0.154,0c0.437,-1.464 1.214,-2.587 2.33,-3.37c1.117,-0.783 2.536,-1.239 4.256,-1.367l1.426,-0.116l0.308,2.927l-2.388,0.231c-1.772,0.154 -3.139,0.726 -4.102,1.714c-0.963,0.989 -1.445,2.279 -1.445,3.871l0,10.592l-3.312,0Z" style="fill:#0d0a05;fill-rule:nonzero;"/><path d="M865.669,237.417c-1.001,-0 -1.983,-0.097 -2.946,-0.289c-0.963,-0.193 -1.855,-0.462 -2.677,-0.809c-0.822,-0.347 -1.528,-0.764 -2.118,-1.252l1.04,-2.349c0.642,0.488 1.335,0.892 2.08,1.213c0.744,0.321 1.514,0.552 2.31,0.693c0.796,0.142 1.58,0.212 2.35,0.212c1.515,0 2.677,-0.25 3.486,-0.751c0.809,-0.501 1.213,-1.2 1.213,-2.099c-0,-0.745 -0.25,-1.322 -0.751,-1.733c-0.501,-0.411 -1.303,-0.732 -2.407,-0.963l-3.736,-0.693c-1.669,-0.334 -2.928,-0.931 -3.775,-1.791c-0.847,-0.861 -1.271,-1.971 -1.271,-3.332c-0,-1.13 0.308,-2.118 0.924,-2.966c0.617,-0.847 1.502,-1.502 2.658,-1.964c1.155,-0.462 2.503,-0.693 4.044,-0.693c0.873,-0 1.746,0.089 2.619,0.269c0.873,0.18 1.689,0.443 2.446,0.79c0.757,0.346 1.393,0.777 1.907,1.29l-1.079,2.311c-0.513,-0.462 -1.098,-0.854 -1.752,-1.175c-0.655,-0.321 -1.342,-0.558 -2.061,-0.712c-0.719,-0.154 -1.425,-0.231 -2.118,-0.231c-1.438,-0 -2.555,0.269 -3.351,0.808c-0.796,0.54 -1.194,1.259 -1.194,2.157c-0,0.745 0.237,1.329 0.712,1.753c0.475,0.424 1.226,0.738 2.253,0.943l3.659,0.732c1.798,0.36 3.14,0.944 4.025,1.753c0.886,0.809 1.329,1.906 1.329,3.293c0,1.155 -0.327,2.15 -0.982,2.985c-0.655,0.834 -1.56,1.476 -2.715,1.926c-1.156,0.449 -2.53,0.674 -4.122,0.674Z" style="fill:#0d0a05;fill-rule:nonzero;"/><path d="M887.397,237.07l0,-16.331l-3.774,0l-0,-2.542l4.66,0l-0.886,0.848l0,-1.348c0,-2.491 0.661,-4.385 1.984,-5.682c1.322,-1.296 3.293,-2.009 5.912,-2.137l1.733,-0.116l0.27,2.619l-2.042,0.116c-0.975,0.051 -1.803,0.25 -2.484,0.597c-0.68,0.346 -1.2,0.86 -1.56,1.54c-0.359,0.681 -0.539,1.573 -0.539,2.677l-0,1.348l-0.462,-0.462l6.162,0l0,2.542l-5.7,0l-0,16.331l-3.274,0Z" style="fill:#0d0a05;fill-rule:nonzero;"/><path d="M898.896,237.07l0,-18.873l3.082,0l-0,4.391l-0.154,0c0.436,-1.464 1.213,-2.587 2.33,-3.37c1.117,-0.783 2.536,-1.239 4.256,-1.367l1.425,-0.116l0.308,2.927l-2.388,0.231c-1.772,0.154 -3.139,0.726 -4.102,1.714c-0.963,0.989 -1.444,2.279 -1.444,3.871l-0,10.592l-3.313,0Z" style="fill:#0d0a05;fill-rule:nonzero;"/><path d="M920.333,237.417c-1.875,-0 -3.499,-0.405 -4.872,-1.214c-1.374,-0.808 -2.433,-1.945 -3.178,-3.408c-0.745,-1.464 -1.117,-3.197 -1.117,-5.2c0,-1.977 0.372,-3.691 1.117,-5.142c0.745,-1.451 1.804,-2.58 3.178,-3.389c1.373,-0.809 2.997,-1.213 4.872,-1.213c1.874,-0 3.498,0.404 4.872,1.213c1.374,0.809 2.433,1.938 3.178,3.389c0.744,1.451 1.117,3.165 1.117,5.142c-0,2.003 -0.373,3.736 -1.117,5.2c-0.745,1.463 -1.804,2.6 -3.178,3.408c-1.374,0.809 -2.998,1.214 -4.872,1.214Zm-0,-2.696c1.823,-0 3.261,-0.629 4.314,-1.888c1.052,-1.258 1.579,-3.004 1.579,-5.238c-0,-2.234 -0.527,-3.967 -1.579,-5.2c-1.053,-1.232 -2.491,-1.848 -4.314,-1.848c-1.823,-0 -3.261,0.616 -4.314,1.848c-1.053,1.233 -1.579,2.966 -1.579,5.2c-0,2.234 0.533,3.98 1.598,5.238c1.066,1.259 2.498,1.888 4.295,1.888Z" style="fill:#0d0a05;fill-rule:nonzero;"/><path d="M933.45,237.07l-0,-18.873l3.12,0l-0,4.16l-0.231,-0c0.333,-0.899 0.802,-1.688 1.405,-2.369c0.604,-0.68 1.329,-1.207 2.177,-1.579c0.847,-0.372 1.784,-0.558 2.811,-0.558c1.618,-0 2.94,0.398 3.967,1.194c1.028,0.796 1.695,1.913 2.003,3.35l-0.308,0c0.488,-1.335 1.31,-2.426 2.465,-3.273c1.156,-0.848 2.555,-1.271 4.198,-1.271c1.438,-0 2.632,0.276 3.582,0.828c0.951,0.552 1.669,1.38 2.157,2.484c0.488,1.104 0.732,2.503 0.732,4.198l0,11.709l-3.235,0l-0,-11.516c-0,-1.669 -0.302,-2.915 -0.905,-3.736c-0.604,-0.822 -1.637,-1.233 -3.101,-1.233c-1.053,0 -1.971,0.251 -2.754,0.751c-0.783,0.501 -1.38,1.188 -1.791,2.061c-0.411,0.873 -0.616,1.9 -0.616,3.081l-0,10.592l-3.274,0l0,-11.516c0,-1.669 -0.314,-2.915 -0.944,-3.736c-0.629,-0.822 -1.636,-1.233 -3.023,-1.233c-1.053,0 -1.971,0.257 -2.754,0.771c-0.783,0.513 -1.38,1.213 -1.791,2.099c-0.411,0.886 -0.616,1.868 -0.616,2.946l-0,10.669l-3.274,0Z" style="fill:#0d0a05;fill-rule:nonzero;"/><path d="M974.551,237.07l0,-2.118l11.709,-15.06l0.077,0.924l-11.632,0l0,-2.619l14.675,0l-0,2.119l-11.786,15.136l-0.077,-1.04l12.287,0l-0,2.658l-15.253,0Z" style="fill:#0d0a05;fill-rule:nonzero;"/><path d="M1001.53,237.417c-2.054,-0 -3.826,-0.392 -5.315,-1.175c-1.49,-0.783 -2.632,-1.907 -3.428,-3.37c-0.796,-1.464 -1.194,-3.21 -1.194,-5.238c-0,-1.926 0.379,-3.621 1.136,-5.084c0.758,-1.464 1.83,-2.613 3.216,-3.448c1.387,-0.834 3.004,-1.251 4.853,-1.251c1.798,-0 3.319,0.385 4.564,1.155c1.246,0.77 2.202,1.855 2.87,3.255c0.667,1.399 1.001,3.075 1.001,5.026l0,1.155l-15.175,0l-0,-2.233l13.018,-0l-0.655,0.616c0,-2.054 -0.475,-3.653 -1.425,-4.795c-0.95,-1.143 -2.336,-1.714 -4.159,-1.714c-1.259,-0 -2.343,0.288 -3.255,0.866c-0.911,0.578 -1.611,1.387 -2.099,2.427c-0.488,1.04 -0.732,2.266 -0.732,3.678l0,0.308c0,1.566 0.263,2.876 0.79,3.929c0.526,1.053 1.303,1.855 2.33,2.407c1.027,0.552 2.26,0.828 3.697,0.828c1.079,0 2.145,-0.16 3.197,-0.481c1.053,-0.321 2.054,-0.867 3.005,-1.637l1.117,2.311c-0.925,0.796 -2.048,1.406 -3.371,1.829c-1.322,0.424 -2.651,0.636 -3.986,0.636Z" style="fill:#0d0a05;fill-rule:nonzero;"/><path d="M1012.96,237.07l0,-18.873l3.082,0l-0,4.391l-0.155,0c0.437,-1.464 1.214,-2.587 2.331,-3.37c1.117,-0.783 2.535,-1.239 4.256,-1.367l1.425,-0.116l0.308,2.927l-2.388,0.231c-1.772,0.154 -3.139,0.726 -4.102,1.714c-0.963,0.989 -1.444,2.279 -1.444,3.871l-0,10.592l-3.313,0Z" style="fill:#0d0a05;fill-rule:nonzero;"/><path d="M1034.39,237.417c-1.875,-0 -3.499,-0.405 -4.873,-1.214c-1.373,-0.808 -2.432,-1.945 -3.177,-3.408c-0.745,-1.464 -1.117,-3.197 -1.117,-5.2c-0,-1.977 0.372,-3.691 1.117,-5.142c0.745,-1.451 1.804,-2.58 3.177,-3.389c1.374,-0.809 2.998,-1.213 4.873,-1.213c1.874,-0 3.498,0.404 4.872,1.213c1.374,0.809 2.433,1.938 3.178,3.389c0.744,1.451 1.117,3.165 1.117,5.142c-0,2.003 -0.373,3.736 -1.117,5.2c-0.745,1.463 -1.804,2.6 -3.178,3.408c-1.374,0.809 -2.998,1.214 -4.872,1.214Zm-0,-2.696c1.823,-0 3.261,-0.629 4.314,-1.888c1.052,-1.258 1.579,-3.004 1.579,-5.238c-0,-2.234 -0.527,-3.967 -1.579,-5.2c-1.053,-1.232 -2.491,-1.848 -4.314,-1.848c-1.823,-0 -3.261,0.616 -4.314,1.848c-1.053,1.233 -1.579,2.966 -1.579,5.2c-0,2.234 0.533,3.98 1.598,5.238c1.066,1.259 2.497,1.888 4.295,1.888Z" style="fill:#0d0a05;fill-rule:nonzero;"/><path d="M1064.21,237.417c-2.26,-0 -3.955,-0.597 -5.084,-1.791c-1.13,-1.194 -1.695,-2.895 -1.695,-5.104l-0,-9.706l-3.775,0l0,-2.619l3.852,0l-0,-5.7l3.197,-0l-0,5.7l6.393,0l0,2.619l-6.393,0l-0,9.398c-0,1.464 0.314,2.562 0.943,3.293c0.63,0.732 1.637,1.098 3.024,1.098c0.462,0 0.924,-0.051 1.387,-0.154c0.462,-0.103 0.885,-0.231 1.271,-0.385l0.577,2.542c-0.436,0.231 -0.995,0.424 -1.675,0.578c-0.681,0.154 -1.355,0.231 -2.022,0.231Z" style="fill:#0d0a05;fill-rule:nonzero;"/><path d="M1077.75,237.417c-1.874,-0 -3.498,-0.405 -4.872,-1.214c-1.374,-0.808 -2.433,-1.945 -3.177,-3.408c-0.745,-1.464 -1.117,-3.197 -1.117,-5.2c-0,-1.977 0.372,-3.691 1.117,-5.142c0.744,-1.451 1.803,-2.58 3.177,-3.389c1.374,-0.809 2.998,-1.213 4.872,-1.213c1.875,-0 3.499,0.404 4.873,1.213c1.373,0.809 2.433,1.938 3.177,3.389c0.745,1.451 1.117,3.165 1.117,5.142c0,2.003 -0.372,3.736 -1.117,5.2c-0.744,1.463 -1.804,2.6 -3.177,3.408c-1.374,0.809 -2.998,1.214 -4.873,1.214Zm0,-2.696c1.824,-0 3.261,-0.629 4.314,-1.888c1.053,-1.258 1.579,-3.004 1.579,-5.238c0,-2.234 -0.526,-3.967 -1.579,-5.2c-1.053,-1.232 -2.49,-1.848 -4.314,-1.848c-1.823,-0 -3.261,0.616 -4.313,1.848c-1.053,1.233 -1.579,2.966 -1.579,5.2c-0,2.234 0.532,3.98 1.598,5.238c1.066,1.259 2.497,1.888 4.294,1.888Z" style="fill:#0d0a05;fill-rule:nonzero;"/><path d="M820.36,308.734l0,-40.131c-0.433,0.505 -1.096,0.979 -1.989,1.421c-0.893,0.442 -1.826,0.793 -2.801,1.055c-0.974,0.262 -1.795,0.392 -2.462,0.392l-0,-4.438c0.956,-0.144 2.03,-0.455 3.22,-0.933c1.191,-0.478 2.305,-1.132 3.342,-1.962c1.037,-0.83 1.809,-1.84 2.314,-3.031l3.951,0l-0,47.627l-5.575,-0Z" style="fill:#0d0a05;fill-rule:nonzero;"/><path d="M835.527,318.042l1.975,-9.308l-3.355,-0l-0,-6.36l6.981,0l0,6.116l-2.733,9.552l-2.868,0Z" style="fill:#0d0a05;fill-rule:nonzero;"/><path d="M845.227,308.734c0.325,-4.33 0.834,-8.412 1.529,-12.245c0.694,-3.834 1.484,-7.406 2.368,-10.716c0.884,-3.311 1.75,-6.328 2.597,-9.052c0.993,-3.337 1.859,-5.962 2.598,-7.874c0.74,-1.913 1.119,-2.932 1.137,-3.058l-13.558,-0l0,-4.682l18.997,0l-0,4.032c-0.054,0.559 -0.528,2.016 -1.421,4.37c-0.893,2.355 -1.862,5.39 -2.909,9.106c-0.757,2.634 -1.502,5.543 -2.232,8.727c-0.731,3.184 -1.371,6.576 -1.922,10.175c-0.55,3.599 -0.951,7.338 -1.204,11.217l-5.98,-0Z" style="fill:#0d0a05;fill-rule:nonzero;"/><path d="M872.516,309.275c-3.175,-0 -5.484,-0.947 -6.927,-2.842c-1.443,-1.894 -2.192,-4.888 -2.246,-8.984l-0.027,-2.083c-0.018,-1.732 0.135,-3.414 0.46,-5.047c0.325,-1.633 0.798,-3.08 1.421,-4.343c0.622,-1.263 1.366,-2.183 2.232,-2.76c-1.371,-0.993 -2.341,-2.418 -2.909,-4.276c-0.568,-1.858 -0.852,-4.05 -0.852,-6.576c-0,-4.131 0.649,-7.126 1.948,-8.984c1.299,-1.858 3.608,-2.787 6.928,-2.787c3.337,0 5.642,0.925 6.913,2.774c1.272,1.849 1.908,4.848 1.908,8.997c0,2.562 -0.257,4.758 -0.771,6.59c-0.514,1.831 -1.475,3.224 -2.882,4.18c0.83,0.596 1.52,1.538 2.07,2.828c0.55,1.29 0.965,2.756 1.245,4.398c0.28,1.641 0.419,3.31 0.419,5.006l0,1.894c0,4.167 -0.69,7.212 -2.07,9.133c-1.38,1.921 -3.666,2.882 -6.86,2.882Zm0.028,-4.709c1.046,0 1.804,-0.243 2.273,-0.73c0.469,-0.487 0.762,-1.299 0.879,-2.436c0.117,-1.136 0.176,-2.661 0.176,-4.573l-0,-1.813c-0,-3.301 -0.284,-5.732 -0.852,-7.293c-0.569,-1.56 -1.394,-2.341 -2.476,-2.341c-1.011,0 -1.868,0.781 -2.571,2.341c-0.704,1.561 -1.056,4.019 -1.056,7.374l0,1.867c0,2.797 0.208,4.763 0.623,5.899c0.415,1.137 1.416,1.705 3.004,1.705Zm-0.055,-23.082c0.668,-0 1.268,-0.239 1.8,-0.717c0.532,-0.478 0.952,-1.358 1.258,-2.639c0.307,-1.281 0.46,-3.13 0.46,-5.547c0,-2.291 -0.131,-3.965 -0.392,-5.02c-0.262,-1.055 -0.65,-1.736 -1.164,-2.043c-0.514,-0.307 -1.168,-0.46 -1.962,-0.46c-0.757,0 -1.393,0.176 -1.907,0.528c-0.515,0.352 -0.902,1.069 -1.164,2.151c-0.262,1.082 -0.392,2.733 -0.392,4.952c-0,2.381 0.144,4.208 0.433,5.48c0.288,1.272 0.69,2.142 1.204,2.611c0.514,0.469 1.123,0.704 1.826,0.704Z" style="fill:#0d0a05;fill-rule:nonzero;"/><path d="M892.662,308.734l0,-40.131c-0.433,0.505 -1.096,0.979 -1.989,1.421c-0.893,0.442 -1.826,0.793 -2.801,1.055c-0.974,0.262 -1.795,0.392 -2.462,0.392l-0,-4.438c0.956,-0.144 2.029,-0.455 3.22,-0.933c1.191,-0.478 2.305,-1.132 3.342,-1.962c1.037,-0.83 1.809,-1.84 2.314,-3.031l3.951,0l-0,47.627l-5.575,-0Z" style="fill:#0d0a05;fill-rule:nonzero;"/><path d="M926.269,309.275c-1.93,-0 -3.5,-0.347 -4.708,-1.042c-1.209,-0.695 -2.138,-1.682 -2.787,-2.963c-0.65,-1.281 -1.096,-2.792 -1.34,-4.533c-0.243,-1.741 -0.365,-3.666 -0.365,-5.777l-0,-4.627l5.439,-0l-0,4.843c-0,3.338 0.239,5.724 0.717,7.158c0.478,1.434 1.511,2.151 3.098,2.151c1.101,0 1.908,-0.257 2.422,-0.771c0.514,-0.514 0.844,-1.34 0.988,-2.476c0.144,-1.137 0.217,-2.634 0.217,-4.492c-0,-2.129 -0.375,-3.96 -1.123,-5.493c-0.749,-1.534 -1.827,-3.004 -3.234,-4.411l-3.112,-3.112c-0.902,-0.92 -1.786,-1.926 -2.652,-3.017c-0.866,-1.092 -1.583,-2.332 -2.151,-3.721c-0.569,-1.389 -0.853,-2.977 -0.853,-4.763c0,-2.399 0.253,-4.474 0.758,-6.224c0.505,-1.75 1.425,-3.103 2.76,-4.059c1.335,-0.956 3.229,-1.434 5.683,-1.434c1.93,-0 3.477,0.334 4.641,1.001c1.163,0.668 2.038,1.619 2.624,2.855c0.587,1.236 0.975,2.702 1.164,4.397c0.19,1.696 0.284,3.572 0.284,5.629l0,2.814l-5.358,0l0,-3.193c0,-1.93 -0.076,-3.54 -0.23,-4.83c-0.153,-1.29 -0.464,-2.26 -0.933,-2.909c-0.469,-0.65 -1.2,-0.974 -2.192,-0.974c-0.902,-0 -1.637,0.221 -2.206,0.663c-0.568,0.442 -0.978,1.123 -1.231,2.043c-0.252,0.92 -0.379,2.101 -0.379,3.545c0,1.262 0.154,2.304 0.46,3.125c0.307,0.821 0.771,1.583 1.394,2.287c0.622,0.703 1.384,1.533 2.286,2.489l3.248,3.437c1.714,1.786 3.116,3.784 4.208,5.994c1.091,2.21 1.637,4.776 1.637,7.698c-0,2.634 -0.257,4.898 -0.771,6.793c-0.515,1.894 -1.43,3.351 -2.747,4.37c-1.317,1.019 -3.202,1.529 -5.656,1.529Z" style="fill:#0d0a05;fill-rule:nonzero;"/><path d="M946.225,308.977c-1.731,0 -3.039,-0.207 -3.923,-0.622c-0.884,-0.415 -1.48,-1.083 -1.786,-2.003c-0.307,-0.92 -0.46,-2.137 -0.46,-3.653l-0,-30.118l-3.708,-0l0,-4.113l3.708,-0l-0,-7.361l5.547,0l0,7.361l4.384,-0l-0,4.113l-4.384,-0l0,29.631c0,0.686 0.09,1.195 0.271,1.529c0.18,0.334 0.586,0.555 1.217,0.663c0.632,0.108 1.615,0.162 2.95,0.162l0,4.411l-3.816,0Z" style="fill:#0d0a05;fill-rule:nonzero;"/><path d="M961.825,309.221c-1.912,-0 -3.464,-0.33 -4.654,-0.988c-1.191,-0.658 -2.107,-1.597 -2.747,-2.814c-0.641,-1.218 -1.078,-2.679 -1.313,-4.384c-0.234,-1.705 -0.351,-3.613 -0.351,-5.723l-0,-14.369c-0,-2.544 0.243,-4.817 0.73,-6.82c0.487,-2.002 1.385,-3.581 2.693,-4.735c1.308,-1.155 3.188,-1.732 5.642,-1.732c1.84,-0 3.346,0.329 4.519,0.988c1.173,0.658 2.084,1.587 2.733,2.787c0.65,1.199 1.096,2.607 1.34,4.221c0.243,1.615 0.365,3.378 0.365,5.291l-0,14.369c-0,2.074 -0.108,3.959 -0.325,5.655c-0.216,1.696 -0.636,3.162 -1.258,4.398c-0.622,1.235 -1.525,2.187 -2.706,2.854c-1.182,0.668 -2.738,1.002 -4.668,1.002Zm-0,-4.628c0.974,0 1.7,-0.324 2.178,-0.974c0.478,-0.649 0.799,-1.556 0.961,-2.719c0.162,-1.164 0.243,-2.512 0.243,-4.046l0,-17.021c0,-1.515 -0.081,-2.837 -0.243,-3.964c-0.162,-1.128 -0.487,-2.007 -0.974,-2.639c-0.487,-0.631 -1.209,-0.947 -2.165,-0.947c-1.01,0 -1.768,0.316 -2.273,0.947c-0.505,0.632 -0.835,1.511 -0.988,2.639c-0.153,1.127 -0.23,2.449 -0.23,3.964l0,17.021c0,1.534 0.077,2.882 0.23,4.046c0.153,1.163 0.483,2.07 0.988,2.719c0.505,0.65 1.263,0.974 2.273,0.974Z" style="fill:#0d0a05;fill-rule:nonzero;"/><path d="M976.207,308.734l-0,-40.591l5.574,-0l0,4.519c0.469,-1.569 1.285,-2.796 2.449,-3.68c1.164,-0.884 2.647,-1.326 4.452,-1.326c0.036,-0 0.058,0.239 0.067,0.717c0.009,0.478 0.014,1.024 0.014,1.637l-0,2.354c-0.866,0 -1.732,0.104 -2.598,0.312c-0.866,0.207 -1.678,0.559 -2.436,1.055c-0.757,0.496 -1.407,1.168 -1.948,2.016l0,32.987l-5.574,-0Z" style="fill:#0d0a05;fill-rule:nonzero;"/><path d="M999.978,309.221c-1.948,-0 -3.513,-0.339 -4.695,-1.015c-1.181,-0.677 -2.079,-1.637 -2.692,-2.882c-0.614,-1.245 -1.024,-2.738 -1.231,-4.479c-0.208,-1.74 -0.312,-3.666 -0.312,-5.777l0,-14.342c0,-1.912 0.136,-3.667 0.406,-5.263c0.271,-1.597 0.74,-2.977 1.407,-4.14c0.668,-1.164 1.597,-2.066 2.788,-2.707c1.19,-0.64 2.706,-0.96 4.546,-0.96c1.858,-0 3.355,0.325 4.492,0.974c1.136,0.649 1.998,1.565 2.584,2.747c0.586,1.181 0.979,2.588 1.177,4.221c0.199,1.633 0.298,3.423 0.298,5.372l-0,7.658l-12.123,-0l-0,8.091c-0,2.561 0.176,4.514 0.528,5.858c0.351,1.344 1.312,2.016 2.881,2.016c1.029,0 1.764,-0.32 2.206,-0.96c0.442,-0.641 0.712,-1.543 0.812,-2.706c0.099,-1.164 0.149,-2.539 0.149,-4.127l-0,-3.274l5.439,-0l-0,1.732c-0,2.11 -0.086,4.022 -0.257,5.736c-0.172,1.714 -0.537,3.184 -1.096,4.411c-0.56,1.227 -1.421,2.17 -2.585,2.828c-1.163,0.658 -2.737,0.988 -4.722,0.988Zm-3.382,-24.355l6.603,0l-0,-5.168c-0,-1.624 -0.055,-2.99 -0.163,-4.1c-0.108,-1.109 -0.37,-1.948 -0.785,-2.517c-0.415,-0.568 -1.1,-0.852 -2.056,-0.852c-1.065,0 -1.854,0.325 -2.368,0.974c-0.514,0.65 -0.848,1.547 -1.001,2.693c-0.154,1.145 -0.23,2.476 -0.23,3.991l-0,4.979Z" style="fill:#0d0a05;fill-rule:nonzero;"/><path d="M1021.15,309.275c-2.886,-0 -5.078,-0.907 -6.575,-2.72c-1.498,-1.813 -2.246,-4.821 -2.246,-9.024l-0,-3.058l5.385,-0l-0,3.031c-0,2.273 0.248,4.013 0.744,5.222c0.496,1.209 1.312,1.813 2.449,1.813c1.136,0 1.971,-0.37 2.503,-1.109c0.532,-0.74 0.798,-2.066 0.798,-3.978c0,-0.956 -0.144,-1.908 -0.433,-2.855c-0.289,-0.947 -0.731,-1.885 -1.326,-2.814c-0.595,-0.929 -1.362,-1.836 -2.3,-2.72l-2.868,-2.733c-1.714,-1.642 -3.022,-3.387 -3.924,-5.236c-0.902,-1.849 -1.353,-3.811 -1.353,-5.886c-0,-3.283 0.776,-5.696 2.327,-7.238c1.551,-1.543 3.689,-2.314 6.413,-2.314c1.822,-0 3.356,0.397 4.601,1.191c1.244,0.793 2.182,2.11 2.814,3.95c0.631,1.84 0.947,4.348 0.947,7.523l0,1.948l-5.277,0l0,-2.814c0,-2.273 -0.221,-4.014 -0.663,-5.222c-0.442,-1.209 -1.231,-1.814 -2.368,-1.814c-1.1,0 -1.925,0.321 -2.476,0.961c-0.55,0.641 -0.852,1.809 -0.906,3.504c-0.018,0.866 0.095,1.741 0.338,2.625c0.244,0.884 0.645,1.759 1.204,2.625c0.56,0.866 1.281,1.714 2.165,2.544l2.923,2.733c1.894,1.75 3.324,3.631 4.289,5.642c0.965,2.012 1.448,4.136 1.448,6.373c-0,3.067 -0.7,5.475 -2.098,7.225c-1.398,1.75 -3.576,2.625 -6.535,2.625Z" style="fill:#0d0a05;fill-rule:nonzero;"/></g></svg>