<?xml version="1.0" encoding="UTF-8" standalone="no"?><!DOCTYPE svg PUBLIC "-//W3C//DTD SVG 1.1//EN" "http://www.w3.org/Graphics/SVG/1.1/DTD/svg11.dtd"><svg width="100%" height="100%" viewBox="0 0 1200 660" version="1.1" xmlns="http://www.w3.org/2000/svg" xmlns:xlink="http://www.w3.org/1999/xlink" xml:space="preserve" xmlns:serif="http://www.serif.com/" style="fill-rule:evenodd;clip-rule:evenodd;stroke-linejoin:round;stroke-miterlimit:2;"><g><g><g><g><path d="M539.262,202.637c-2.349,0 -4.215,-0.465 -5.598,-1.396c-1.382,-0.931 -2.372,-2.345 -2.968,-4.243c-0.597,-1.897 -0.895,-4.292 -0.895,-7.184l0,-35.458l5.612,-0l-0,35.323c-0,1.717 0.063,3.19 0.19,4.419c0.126,1.229 0.46,2.168 1.003,2.819c0.542,0.651 1.427,0.976 2.656,0.976c1.247,-0 2.133,-0.325 2.657,-0.976c0.524,-0.651 0.845,-1.586 0.962,-2.806c0.118,-1.22 0.177,-2.688 0.177,-4.405l-0,-35.35l5.584,-0l0,35.458c0,2.892 -0.289,5.287 -0.867,7.184c-0.579,1.898 -1.55,3.312 -2.915,4.243c-1.364,0.931 -3.23,1.396 -5.598,1.396Z" style="fill:#0d0a05;fill-rule:nonzero;"/><path d="M552.867,202.068l-0,-47.712l5.611,-0l0,22.744l8.486,-22.744l5.638,-0l-8.892,23.558l9.516,24.154l-5.856,-0l-8.837,-22.826l-0,22.826l-5.666,-0Z" style="fill:#0d0a05;fill-rule:nonzero;"/><path d="M585.744,202.068l0,-47.712l14.368,-0l0,4.689l-8.783,0l-0,15.073l8.241,0l-0,4.744l-8.241,0l-0,23.206l-5.585,-0Z" style="fill:#0d0a05;fill-rule:nonzero;"/><path d="M602.954,202.068l0,-40.664l5.585,-0l-0,40.664l-5.585,-0Zm0,-44.405l0,-5.097l5.585,0l-0,5.097l-5.585,-0Z" style="fill:#0d0a05;fill-rule:nonzero;"/><path d="M613.387,202.068l-0,-40.664l5.584,-0l0,4.527c0.47,-1.572 1.288,-2.801 2.454,-3.687c1.165,-0.885 2.652,-1.328 4.459,-1.328c0.036,0 0.059,0.239 0.068,0.718c0.009,0.479 0.014,1.026 0.014,1.641l-0,2.358c-0.868,0 -1.735,0.104 -2.603,0.312c-0.867,0.208 -1.681,0.56 -2.44,1.057c-0.759,0.497 -1.409,1.17 -1.952,2.02l0,33.046l-5.584,-0Z" style="fill:#0d0a05;fill-rule:nonzero;"/><path d="M635.178,202.61c-2.891,-0 -5.087,-0.908 -6.587,-2.724c-1.5,-1.817 -2.25,-4.83 -2.25,-9.041l-0,-3.064l5.394,0l0,3.036c0,2.278 0.249,4.022 0.746,5.233c0.497,1.21 1.315,1.816 2.453,1.816c1.139,-0 1.975,-0.371 2.508,-1.112c0.533,-0.741 0.8,-2.069 0.8,-3.985c-0,-0.958 -0.145,-1.911 -0.434,-2.86c-0.289,-0.948 -0.732,-1.888 -1.328,-2.819c-0.597,-0.931 -1.365,-1.839 -2.305,-2.725l-2.873,-2.738c-1.717,-1.644 -3.027,-3.393 -3.931,-5.245c-0.904,-1.853 -1.356,-3.818 -1.356,-5.896c0,-3.29 0.778,-5.707 2.332,-7.252c1.554,-1.545 3.696,-2.318 6.425,-2.318c1.825,0 3.361,0.398 4.608,1.193c1.247,0.795 2.187,2.114 2.82,3.958c0.632,1.843 0.948,4.355 0.948,7.536l0,1.952l-5.286,0l0,-2.819c0,-2.278 -0.221,-4.022 -0.664,-5.232c-0.443,-1.211 -1.233,-1.817 -2.372,-1.817c-1.103,0 -1.929,0.321 -2.481,0.963c-0.551,0.641 -0.854,1.811 -0.908,3.51c-0.018,0.868 0.095,1.744 0.339,2.63c0.244,0.885 0.646,1.762 1.207,2.629c0.56,0.868 1.283,1.717 2.168,2.549l2.928,2.738c1.898,1.753 3.33,3.637 4.297,5.652c0.967,2.015 1.45,4.143 1.45,6.384c0,3.073 -0.7,5.485 -2.101,7.238c-1.4,1.753 -3.583,2.63 -6.547,2.63Z" style="fill:#0d0a05;fill-rule:nonzero;"/><path d="M653.31,202.312c-1.735,-0 -3.045,-0.208 -3.931,-0.624c-0.885,-0.415 -1.482,-1.084 -1.789,-2.006c-0.307,-0.922 -0.461,-2.141 -0.461,-3.66l0,-30.172l-3.714,-0l0,-4.121l3.714,0l0,-7.373l5.558,-0l-0,7.373l4.391,0l0,4.121l-4.391,-0l-0,29.684c-0,0.687 0.09,1.198 0.271,1.532c0.18,0.335 0.587,0.556 1.22,0.664c0.632,0.109 1.617,0.163 2.954,0.163l0,4.419l-3.822,-0Z" style="fill:#0d0a05;fill-rule:nonzero;"/><path d="M666.779,202.61c-2.892,-0 -5.088,-0.908 -6.588,-2.724c-1.5,-1.817 -2.25,-4.83 -2.25,-9.041l0,-3.064l5.395,0l0,3.036c0,2.278 0.249,4.022 0.746,5.233c0.497,1.21 1.314,1.816 2.453,1.816c1.139,-0 1.974,-0.371 2.508,-1.112c0.533,-0.741 0.799,-2.069 0.799,-3.985c0,-0.958 -0.144,-1.911 -0.433,-2.86c-0.29,-0.948 -0.732,-1.888 -1.329,-2.819c-0.596,-0.931 -1.364,-1.839 -2.304,-2.725l-2.874,-2.738c-1.717,-1.644 -3.027,-3.393 -3.93,-5.245c-0.904,-1.853 -1.356,-3.818 -1.356,-5.896c0,-3.29 0.777,-5.707 2.331,-7.252c1.555,-1.545 3.696,-2.318 6.425,-2.318c1.826,0 3.362,0.398 4.609,1.193c1.247,0.795 2.187,2.114 2.819,3.958c0.633,1.843 0.949,4.355 0.949,7.536l0,1.952l-5.286,0l-0,-2.819c-0,-2.278 -0.222,-4.022 -0.664,-5.232c-0.443,-1.211 -1.234,-1.817 -2.372,-1.817c-1.103,0 -1.93,0.321 -2.481,0.963c-0.551,0.641 -0.854,1.811 -0.908,3.51c-0.018,0.868 0.095,1.744 0.339,2.63c0.244,0.885 0.646,1.762 1.206,2.629c0.56,0.868 1.283,1.717 2.169,2.549l2.928,2.738c1.897,1.753 3.33,3.637 4.296,5.652c0.967,2.015 1.451,4.143 1.451,6.384c-0,3.073 -0.701,5.485 -2.101,7.238c-1.401,1.753 -3.583,2.63 -6.547,2.63Z" style="fill:#0d0a05;fill-rule:nonzero;"/></g></g><path d="M576.817,382.995l-18.362,-86.384c-1.555,-7.312 -7.09,-12.436 -13.437,-12.436l-366.459,0c-6.347,0 -11.882,5.124 -13.437,12.436l-18.362,86.384l-6.71,-0l-0,20.13l6.71,-0l19.244,90.528c1.037,4.875 4.727,8.291 8.958,8.291l17.954,0c1.61,3.301 4.603,5.49 7.993,5.49l33.498,-0c3.389,-0 6.385,-2.189 7.993,-5.49l17.954,0c4.23,0 7.921,-3.416 8.958,-8.291l8.74,-41.118l23.343,-0l8.741,41.118c1.037,4.875 4.725,8.291 8.958,8.291l17.954,0c1.608,3.301 4.603,5.49 7.993,5.49l33.498,-0c3.389,-0 6.383,-2.189 7.99,-5.49l17.957,0c4.23,0 7.921,-3.416 8.958,-8.291l8.74,-41.118l23.341,-0l8.741,41.118c1.036,4.875 4.727,8.291 8.958,8.291l17.954,0c1.607,3.301 4.603,5.49 7.993,5.49l33.497,-0c3.39,-0 6.386,-2.189 7.993,-5.49l17.954,0c4.231,0 7.922,-3.416 8.958,-8.291l19.244,-90.528l6.711,-0l-0,-20.13l-6.711,-0Z" style="fill:#98c451;fill-rule:nonzero;"/><path d="M1053.24,382.995l-18.362,-86.384c-1.555,-7.312 -7.09,-12.436 -13.437,-12.436l-366.459,0c-6.347,0 -11.882,5.124 -13.434,12.436l-18.365,86.384l-6.711,-0l0,20.13l6.711,-0l19.244,90.528c1.036,4.875 4.727,8.291 8.958,8.291l17.954,0c1.61,3.301 4.603,5.49 7.993,5.49l33.497,-0c3.39,-0 6.386,-2.189 7.993,-5.49l17.954,0c4.231,0 7.922,-3.416 8.958,-8.291l8.741,-41.118l23.341,-0l8.743,41.118c1.034,4.875 4.725,8.291 8.958,8.291l17.954,0c1.607,3.301 4.603,5.49 7.993,5.49l33.498,-0c3.389,-0 6.382,-2.189 7.99,-5.49l17.957,0c4.23,0 7.921,-3.416 8.957,-8.291l8.741,-41.118l23.341,-0l8.74,41.118c1.037,4.875 4.728,8.291 8.958,8.291l17.954,0c1.608,3.301 4.604,5.49 7.993,5.49l33.498,-0c3.39,-0 6.385,-2.189 7.993,-5.49l17.954,0c4.231,0 7.921,-3.416 8.958,-8.291l19.244,-90.528l6.71,-0l0,-20.13l-6.71,-0Z" style="fill:#98c451;fill-rule:nonzero;"/><g><path d="M688.691,344.777l0,-29.93c-0.306,0.377 -0.776,0.73 -1.409,1.06c-0.632,0.329 -1.294,0.592 -1.984,0.787c-0.69,0.195 -1.272,0.293 -1.745,0.293l0,-3.31c0.678,-0.108 1.438,-0.34 2.282,-0.697c0.843,-0.356 1.633,-0.844 2.368,-1.463c0.734,-0.619 1.281,-1.372 1.639,-2.26l2.799,-0l0,35.52l-3.95,0Z" style="fill:#fff;fill-rule:nonzero;"/><path d="M705.698,345.181c-2.045,-0 -3.598,-0.676 -4.659,-2.029c-1.061,-1.352 -1.592,-3.595 -1.592,-6.73l0,-2.281l3.816,0l-0,2.261c-0,1.695 0.176,2.993 0.527,3.895c0.352,0.901 0.93,1.352 1.735,1.352c0.806,-0 1.397,-0.276 1.774,-0.828c0.377,-0.551 0.565,-1.54 0.565,-2.966c0,-0.713 -0.102,-1.423 -0.306,-2.13c-0.205,-0.706 -0.518,-1.406 -0.94,-2.098c-0.422,-0.693 -0.965,-1.369 -1.63,-2.029l-2.032,-2.038c-1.214,-1.224 -2.141,-2.526 -2.78,-3.905c-0.639,-1.379 -0.959,-2.843 -0.959,-4.39c0,-2.449 0.55,-4.248 1.649,-5.399c1.099,-1.15 2.614,-1.725 4.544,-1.725c1.291,-0 2.378,0.296 3.26,0.888c0.882,0.592 1.546,1.574 1.994,2.946c0.447,1.373 0.671,3.243 0.671,5.611l-0,1.453l-3.739,0l-0,-2.099c-0,-1.695 -0.157,-2.993 -0.47,-3.895c-0.313,-0.901 -0.872,-1.352 -1.677,-1.352c-0.78,-0 -1.365,0.239 -1.755,0.716c-0.39,0.478 -0.604,1.349 -0.642,2.614c-0.013,0.646 0.067,1.298 0.24,1.958c0.172,0.659 0.457,1.311 0.853,1.957c0.396,0.646 0.907,1.278 1.534,1.897l2.07,2.039c1.342,1.305 2.355,2.707 3.039,4.208c0.684,1.5 1.026,3.084 1.026,4.753c-0,2.287 -0.495,4.083 -1.486,5.388c-0.991,1.305 -2.534,1.958 -4.63,1.958Z" style="fill:#fff;fill-rule:nonzero;"/><path d="M720.768,344.959c-1.227,-0 -2.154,-0.155 -2.78,-0.464c-0.627,-0.31 -1.048,-0.808 -1.266,-1.494c-0.217,-0.686 -0.326,-1.594 -0.326,-2.724l0,-22.463l-2.626,-0l-0,-3.068l2.626,0l0,-5.489l3.931,-0l-0,5.489l3.106,0l-0,3.068l-3.106,-0l-0,22.099c-0,0.512 0.064,0.892 0.191,1.141c0.128,0.248 0.416,0.413 0.863,0.494c0.448,0.081 1.144,0.121 2.09,0.121l0,3.29l-2.703,-0Z" style="fill:#fff;fill-rule:nonzero;"/><path d="M736.605,344.777l-0,-35.52l6.097,-0c1.725,-0 3.061,0.269 4.007,0.807c0.946,0.538 1.61,1.393 1.994,2.563c0.383,1.171 0.581,2.711 0.594,4.622l0,0.767c0,1.978 -0.176,3.589 -0.527,4.833c-0.352,1.245 -1.026,2.143 -2.023,2.695c0.805,0.336 1.432,0.921 1.879,1.756c0.447,0.834 0.764,1.836 0.949,3.007c0.185,1.17 0.278,2.428 0.278,3.774l0,0.746c-0.026,2.315 -0.246,4.205 -0.661,5.672c-0.416,1.466 -1.103,2.546 -2.062,3.239c-0.958,0.693 -2.268,1.039 -3.93,1.039l-6.595,0Zm3.968,-3.37l2.435,-0c0.754,-0 1.336,-0.195 1.745,-0.586c0.409,-0.39 0.697,-1.073 0.863,-2.048c0.166,-0.975 0.249,-2.331 0.249,-4.067l0,-1.231c0,-2.193 -0.166,-3.77 -0.498,-4.732c-0.333,-0.962 -1.049,-1.443 -2.148,-1.443l-2.646,-0l0,14.107Zm0,-17.316l2.244,-0c0.536,-0 0.971,-0.064 1.303,-0.192c0.333,-0.128 0.591,-0.387 0.777,-0.777c0.185,-0.39 0.31,-0.969 0.374,-1.736c0.064,-0.767 0.096,-1.796 0.096,-3.088l-0,-0.989c-0,-1.345 -0.096,-2.347 -0.288,-3.007c-0.192,-0.659 -0.495,-1.096 -0.911,-1.311c-0.415,-0.216 -0.962,-0.323 -1.639,-0.323l-1.956,-0l0,11.423Z" style="fill:#fff;fill-rule:nonzero;"/><path d="M754.244,344.777l-0,-30.273l3.949,0l0,3.371c0.333,-1.171 0.911,-2.086 1.735,-2.745c0.825,-0.659 1.876,-0.989 3.154,-0.989c0.026,-0 0.042,0.178 0.048,0.535c0.007,0.356 0.01,0.763 0.01,1.221l-0,1.756c-0.614,-0 -1.227,0.077 -1.841,0.232c-0.613,0.154 -1.188,0.417 -1.725,0.787c-0.537,0.37 -0.997,0.871 -1.381,1.503l0,24.602l-3.949,0Z" style="fill:#fff;fill-rule:nonzero;"/><path d="M770.828,345.039c-1.738,0 -2.991,-0.709 -3.758,-2.129c-0.767,-1.419 -1.156,-3.387 -1.169,-5.903l-0,-2.947c-0,-1.332 0.217,-2.438 0.652,-3.319c0.434,-0.882 1.048,-1.618 1.84,-2.21c0.793,-0.592 1.726,-1.127 2.799,-1.605c1.074,-0.477 2.25,-0.985 3.528,-1.524l0,-2.341c0,-1.291 -0.038,-2.337 -0.115,-3.138c-0.076,-0.801 -0.271,-1.389 -0.585,-1.766c-0.313,-0.377 -0.814,-0.565 -1.505,-0.565c-0.677,-0 -1.185,0.188 -1.524,0.565c-0.339,0.377 -0.559,0.969 -0.661,1.776c-0.103,0.807 -0.154,1.857 -0.154,3.148l0,1.05l-3.911,-0l0,-0.868c0,-1.292 0.077,-2.492 0.23,-3.602c0.153,-1.11 0.447,-2.076 0.882,-2.896c0.435,-0.821 1.071,-1.464 1.908,-1.928c0.837,-0.464 1.939,-0.696 3.307,-0.696c1.304,-0 2.355,0.219 3.154,0.656c0.799,0.437 1.412,1.08 1.841,1.927c0.428,0.848 0.719,1.894 0.872,3.138c0.153,1.245 0.23,2.681 0.23,4.309l0,20.606l-3.95,0l0,-2.624c-0.115,0.404 -0.338,0.831 -0.671,1.282c-0.332,0.451 -0.767,0.831 -1.303,1.14c-0.537,0.31 -1.183,0.464 -1.937,0.464Zm1.112,-3.35c0.69,0 1.285,-0.232 1.783,-0.696c0.499,-0.464 0.831,-0.925 0.997,-1.382l0,-11.524c-0.984,0.457 -1.792,0.871 -2.425,1.241c-0.633,0.37 -1.125,0.757 -1.476,1.16c-0.352,0.404 -0.598,0.888 -0.739,1.453c-0.14,0.565 -0.21,1.279 -0.21,2.14l-0,2.805c-0,1.709 0.14,2.936 0.421,3.683c0.282,0.747 0.831,1.12 1.649,1.12Z" style="fill:#fff;fill-rule:nonzero;"/><path d="M783.77,344.777l-0,-30.273l3.93,0l0,3.209c0.256,-0.942 0.802,-1.776 1.64,-2.502c0.837,-0.727 1.837,-1.09 3,-1.09c1.445,-0 2.569,0.538 3.375,1.614c0.805,1.077 1.208,2.711 1.208,4.904l-0,24.138l-3.931,0l0,-24.117c0,-1.077 -0.23,-1.857 -0.69,-2.341c-0.46,-0.485 -1.048,-0.727 -1.764,-0.727c-0.524,-0 -1.003,0.121 -1.438,0.363c-0.435,0.242 -0.777,0.619 -1.026,1.13c-0.249,0.512 -0.374,1.171 -0.374,1.978l0,23.714l-3.93,0Z" style="fill:#fff;fill-rule:nonzero;"/><path d="M806.854,345.039c-1.419,0 -2.476,-0.437 -3.173,-1.311c-0.697,-0.875 -1.157,-2.062 -1.38,-3.562c-0.224,-1.501 -0.336,-3.193 -0.336,-5.076l-0,-11.443c-0,-1.803 0.157,-3.421 0.47,-4.854c0.313,-1.433 0.869,-2.567 1.668,-3.401c0.799,-0.834 1.914,-1.251 3.345,-1.251c0.755,-0 1.429,0.229 2.023,0.686c0.595,0.458 1.045,1.023 1.352,1.695l-0,-7.649l3.95,0l-0,35.904l-3.95,0l-0,-2.543c-0.384,0.996 -0.927,1.712 -1.63,2.15c-0.703,0.437 -1.483,0.655 -2.339,0.655Zm1.361,-3.37c0.601,0 1.096,-0.158 1.486,-0.474c0.39,-0.316 0.678,-0.905 0.863,-1.766c0.185,-0.861 0.278,-2.092 0.278,-3.693l0,-12.15c0,-1.964 -0.157,-3.451 -0.47,-4.46c-0.313,-1.009 -1,-1.514 -2.061,-1.514c-0.958,0.014 -1.598,0.508 -1.917,1.484c-0.32,0.975 -0.479,2.505 -0.479,4.591l-0,12.23c-0,1.171 0.054,2.187 0.163,3.048c0.108,0.861 0.329,1.527 0.661,1.998c0.332,0.471 0.824,0.706 1.476,0.706Z" style="fill:#fff;fill-rule:nonzero;"/><path d="M829.919,344.777l0,-30.273l3.95,0l-0,30.273l-3.95,0Zm0,-33.058l0,-3.794l3.95,-0l-0,3.794l-3.95,0Z" style="fill:#fff;fill-rule:nonzero;"/><path d="M839.467,344.777l0,-30.273l3.931,0l-0,3.209c0.255,-0.942 0.802,-1.776 1.639,-2.502c0.837,-0.727 1.837,-1.09 3.001,-1.09c1.444,-0 2.569,0.538 3.374,1.614c0.805,1.077 1.208,2.711 1.208,4.904l-0,24.138l-3.931,0l0,-24.117c0,-1.077 -0.23,-1.857 -0.69,-2.341c-0.46,-0.485 -1.048,-0.727 -1.764,-0.727c-0.524,-0 -1.003,0.121 -1.438,0.363c-0.434,0.242 -0.776,0.619 -1.025,1.13c-0.25,0.512 -0.374,1.171 -0.374,1.978l-0,23.714l-3.931,0Z" style="fill:#fff;fill-rule:nonzero;"/><path d="M872.579,344.959c-1.227,-0 -2.154,-0.155 -2.78,-0.464c-0.627,-0.31 -1.048,-0.808 -1.266,-1.494c-0.217,-0.686 -0.326,-1.594 -0.326,-2.724l0,-22.463l-2.626,-0l-0,-3.068l2.626,0l0,-5.489l3.931,-0l-0,5.489l3.106,0l-0,3.068l-3.106,-0l-0,22.099c-0,0.512 0.064,0.892 0.192,1.141c0.127,0.248 0.415,0.413 0.862,0.494c0.448,0.081 1.144,0.121 2.09,0.121l0,3.29l-2.703,-0Z" style="fill:#fff;fill-rule:nonzero;"/><path d="M878.963,344.777l0,-35.904l3.931,0l-0,8.84c0.256,-0.942 0.796,-1.776 1.62,-2.502c0.824,-0.727 1.812,-1.09 2.962,-1.09c1.445,-0 2.576,0.538 3.394,1.614c0.818,1.077 1.227,2.711 1.227,4.904l-0,24.138l-3.931,0l0,-23.794c0,-1.238 -0.214,-2.096 -0.642,-2.574c-0.428,-0.477 -1,-0.716 -1.716,-0.716c-0.524,-0 -1.01,0.131 -1.457,0.393c-0.447,0.263 -0.802,0.673 -1.064,1.232c-0.262,0.558 -0.393,1.281 -0.393,2.169l-0,23.29l-3.931,0Z" style="fill:#fff;fill-rule:nonzero;"/><path d="M903.466,345.14c-1.38,0 -2.489,-0.252 -3.326,-0.756c-0.837,-0.505 -1.473,-1.221 -1.908,-2.15c-0.434,-0.928 -0.725,-2.042 -0.872,-3.34c-0.147,-1.298 -0.221,-2.735 -0.221,-4.309l0,-10.696c0,-1.426 0.096,-2.735 0.288,-3.926c0.192,-1.19 0.524,-2.22 0.997,-3.087c0.473,-0.868 1.131,-1.541 1.975,-2.019c0.843,-0.477 1.917,-0.716 3.221,-0.716c1.316,-0 2.377,0.242 3.182,0.726c0.806,0.485 1.416,1.168 1.831,2.049c0.416,0.881 0.694,1.931 0.835,3.148c0.14,1.218 0.21,2.553 0.21,4.006l0,5.712l-8.589,-0l-0,6.034c-0,1.911 0.125,3.367 0.374,4.37c0.249,1.002 0.93,1.503 2.042,1.503c0.728,0 1.249,-0.239 1.562,-0.716c0.313,-0.478 0.505,-1.151 0.576,-2.018c0.07,-0.868 0.105,-1.894 0.105,-3.078l-0,-2.442l3.854,-0l-0,1.291c-0,1.575 -0.061,3.001 -0.182,4.279c-0.122,1.278 -0.381,2.375 -0.777,3.29c-0.396,0.915 -1.006,1.618 -1.831,2.109c-0.824,0.491 -1.94,0.736 -3.346,0.736Zm-2.396,-18.163l4.678,-0l-0,-3.855c-0,-1.211 -0.038,-2.23 -0.115,-3.058c-0.077,-0.827 -0.262,-1.453 -0.556,-1.877c-0.294,-0.423 -0.78,-0.635 -1.457,-0.635c-0.754,-0 -1.314,0.242 -1.678,0.726c-0.364,0.485 -0.601,1.154 -0.709,2.008c-0.109,0.855 -0.163,1.847 -0.163,2.977l-0,3.714Z" style="fill:#fff;fill-rule:nonzero;"/><path d="M930.308,345.201c-1.661,-0 -2.981,-0.347 -3.959,-1.039c-0.978,-0.693 -1.677,-1.746 -2.099,-3.159c-0.422,-1.413 -0.633,-3.195 -0.633,-5.348l0,-26.398l3.969,-0l-0,26.297c-0,1.278 0.045,2.375 0.134,3.29c0.09,0.915 0.326,1.614 0.71,2.099c0.383,0.484 1.009,0.726 1.878,0.726c0.882,0 1.509,-0.242 1.879,-0.726c0.371,-0.485 0.598,-1.181 0.681,-2.089c0.083,-0.908 0.125,-2.002 0.125,-3.28l-0,-26.317l3.949,-0l0,26.398c0,2.153 -0.204,3.935 -0.613,5.348c-0.409,1.413 -1.096,2.466 -2.061,3.159c-0.965,0.692 -2.285,1.039 -3.96,1.039Z" style="fill:#fff;fill-rule:nonzero;"/><path d="M942.177,344.777l-0,-35.52l3.968,-0l0,16.933l6.001,-16.933l3.988,-0l-6.288,17.538l6.729,17.982l-4.141,0l-6.25,-16.993l-0,16.993l-4.007,0Z" style="fill:#fff;fill-rule:nonzero;"/><path d="M974.138,344.959c-1.227,-0 -2.154,-0.155 -2.78,-0.464c-0.627,-0.31 -1.048,-0.808 -1.266,-1.494c-0.217,-0.686 -0.326,-1.594 -0.326,-2.724l0,-22.463l-2.626,-0l-0,-3.068l2.626,0l0,-5.489l3.931,-0l-0,5.489l3.106,0l-0,3.068l-3.106,-0l-0,22.099c-0,0.512 0.064,0.892 0.192,1.141c0.127,0.248 0.415,0.413 0.862,0.494c0.448,0.081 1.144,0.121 2.09,0.121l0,3.29l-2.703,-0Z" style="fill:#fff;fill-rule:nonzero;"/><path d="M986.543,345.14c-1.355,0 -2.455,-0.245 -3.298,-0.736c-0.844,-0.491 -1.492,-1.191 -1.946,-2.099c-0.454,-0.908 -0.764,-1.998 -0.93,-3.27c-0.166,-1.271 -0.249,-2.694 -0.249,-4.268l-0,-10.717c-0,-1.897 0.172,-3.592 0.517,-5.086c0.345,-1.493 0.981,-2.67 1.908,-3.531c0.927,-0.862 2.259,-1.292 3.998,-1.292c1.303,-0 2.371,0.245 3.202,0.737c0.83,0.491 1.476,1.184 1.936,2.078c0.46,0.895 0.776,1.944 0.949,3.149c0.173,1.204 0.259,2.519 0.259,3.945l-0,10.717c-0,1.547 -0.077,2.953 -0.23,4.218c-0.154,1.265 -0.451,2.358 -0.892,3.279c-0.441,0.922 -1.08,1.632 -1.917,2.13c-0.837,0.497 -1.94,0.746 -3.307,0.746Zm-0,-3.451c0.69,0 1.204,-0.242 1.543,-0.726c0.339,-0.485 0.566,-1.161 0.681,-2.029c0.115,-0.867 0.172,-1.873 0.172,-3.017l0,-12.694c0,-1.13 -0.057,-2.116 -0.172,-2.957c-0.115,-0.841 -0.345,-1.497 -0.691,-1.968c-0.345,-0.471 -0.856,-0.706 -1.533,-0.706c-0.716,-0 -1.253,0.235 -1.611,0.706c-0.358,0.471 -0.591,1.127 -0.7,1.968c-0.108,0.841 -0.163,1.827 -0.163,2.957l0,12.694c0,1.144 0.055,2.15 0.163,3.017c0.109,0.868 0.342,1.544 0.7,2.029c0.358,0.484 0.895,0.726 1.611,0.726Z" style="fill:#fff;fill-rule:nonzero;"/><path d="M645.948,397.33l0,-41.057l7.336,0c2.039,0 3.627,0.447 4.764,1.341c1.138,0.895 1.936,2.174 2.394,3.838c0.458,1.664 0.687,3.655 0.687,5.972l0.022,18.032c0,2.769 -0.262,5.028 -0.787,6.777c-0.524,1.75 -1.374,3.037 -2.548,3.861c-1.175,0.824 -2.737,1.236 -4.687,1.236l-7.181,0Zm4.565,-3.895l2.35,-0c0.827,-0 1.514,-0.191 2.061,-0.572c0.546,-0.381 0.956,-1.092 1.23,-2.134c0.273,-1.042 0.41,-2.551 0.41,-4.526l-0,-18.896c-0,-2.581 -0.289,-4.428 -0.865,-5.54c-0.576,-1.112 -1.521,-1.668 -2.836,-1.668l-2.35,-0l0,33.336Z" style="fill:#fff;fill-rule:nonzero;"/><path d="M667.201,397.33l0,-34.992l4.565,0l0,34.992l-4.565,0Zm0,-38.211l0,-4.386l4.565,0l0,4.386l-4.565,0Z" style="fill:#fff;fill-rule:nonzero;"/><path d="M684.509,397.797c-2.363,-0 -4.159,-0.782 -5.385,-2.345c-1.226,-1.563 -1.839,-4.156 -1.839,-7.779l-0,-2.636l4.41,-0l-0,2.612c-0,1.96 0.203,3.461 0.609,4.503c0.407,1.042 1.075,1.563 2.006,1.563c0.931,-0 1.614,-0.319 2.05,-0.957c0.436,-0.638 0.654,-1.781 0.654,-3.429c-0,-0.824 -0.119,-1.645 -0.355,-2.461c-0.236,-0.817 -0.598,-1.625 -1.086,-2.426c-0.487,-0.801 -1.115,-1.583 -1.884,-2.345l-2.349,-2.356c-1.403,-1.415 -2.474,-2.92 -3.213,-4.514c-0.739,-1.594 -1.108,-3.285 -1.108,-5.074c-0,-2.83 0.635,-4.91 1.906,-6.24c1.27,-1.33 3.021,-1.995 5.252,-1.995c1.492,0 2.748,0.343 3.767,1.027c1.02,0.684 1.788,1.82 2.305,3.406c0.517,1.586 0.776,3.748 0.776,6.485l-0,1.68l-4.322,-0l0,-2.427c0,-1.959 -0.181,-3.46 -0.543,-4.502c-0.362,-1.042 -1.008,-1.563 -1.939,-1.563c-0.901,0 -1.577,0.276 -2.027,0.828c-0.451,0.552 -0.699,1.559 -0.743,3.021c-0.015,0.747 0.078,1.501 0.277,2.263c0.2,0.762 0.528,1.516 0.986,2.263c0.458,0.746 1.049,1.477 1.773,2.193l2.394,2.356c1.551,1.508 2.722,3.13 3.512,4.864c0.791,1.734 1.186,3.565 1.186,5.494c-0,2.643 -0.573,4.72 -1.718,6.228c-1.145,1.509 -2.929,2.263 -5.352,2.263Z" style="fill:#fff;fill-rule:nonzero;"/><path d="M696.144,403.722l0,-41.384l4.543,0l0,2.916c0.444,-1.15 1.097,-1.975 1.962,-2.472c0.864,-0.498 1.747,-0.747 2.648,-0.747c1.596,0 2.8,0.494 3.612,1.481c0.813,0.988 1.356,2.329 1.629,4.025c0.274,1.695 0.41,3.615 0.41,5.762l0,12.667c0,2.208 -0.159,4.203 -0.476,5.983c-0.318,1.781 -0.931,3.192 -1.84,4.234c-0.908,1.042 -2.264,1.563 -4.066,1.563c-0.857,0 -1.629,-0.276 -2.316,-0.828c-0.687,-0.552 -1.208,-1.193 -1.563,-1.924l0,8.724l-4.543,0Zm7.535,-9.984c1.094,-0.016 1.817,-0.595 2.172,-1.738c0.355,-1.143 0.532,-2.936 0.532,-5.377l-0,-14.16c-0,-1.291 -0.052,-2.426 -0.155,-3.406c-0.104,-0.98 -0.34,-1.746 -0.709,-2.298c-0.37,-0.552 -0.953,-0.828 -1.751,-0.828c-0.635,-0 -1.182,0.155 -1.64,0.466c-0.458,0.312 -0.813,0.934 -1.064,1.867c-0.251,0.933 -0.377,2.332 -0.377,4.199l0,14.346c0,2.318 0.189,4.052 0.566,5.203c0.376,1.15 1.185,1.726 2.426,1.726Z" style="fill:#fff;fill-rule:nonzero;"/><rect x="716.954" y="355.83" width="4.543" height="41.5" style="fill:#fff;fill-rule:nonzero;"/><path d="M733.043,397.634c-2.009,-0 -3.457,-0.821 -4.343,-2.461c-0.887,-1.641 -1.337,-3.916 -1.352,-6.824l-0,-3.406c-0,-1.539 0.251,-2.819 0.753,-3.837c0.503,-1.019 1.212,-1.87 2.128,-2.555c0.916,-0.684 1.994,-1.302 3.235,-1.854c1.241,-0.552 2.601,-1.139 4.078,-1.761l0,-2.707c0,-1.493 -0.044,-2.702 -0.133,-3.627c-0.088,-0.925 -0.314,-1.606 -0.676,-2.041c-0.362,-0.436 -0.942,-0.653 -1.739,-0.653c-0.783,-0 -1.371,0.217 -1.762,0.653c-0.392,0.435 -0.647,1.12 -0.765,2.053c-0.118,0.933 -0.177,2.146 -0.177,3.639l-0,1.213l-4.521,-0l-0,-1.003c-0,-1.493 0.089,-2.881 0.266,-4.164c0.177,-1.283 0.517,-2.399 1.019,-3.348c0.503,-0.949 1.238,-1.691 2.205,-2.228c0.968,-0.536 2.242,-0.805 3.823,-0.805c1.507,0 2.722,0.253 3.646,0.759c0.923,0.505 1.632,1.248 2.127,2.227c0.495,0.98 0.831,2.189 1.009,3.628c0.177,1.439 0.266,3.099 0.266,4.98l-0,23.818l-4.566,0l0,-3.032c-0.133,0.466 -0.391,0.96 -0.775,1.481c-0.384,0.521 -0.887,0.96 -1.507,1.318c-0.621,0.358 -1.367,0.537 -2.239,0.537Zm1.286,-3.873c0.798,0 1.485,-0.268 2.061,-0.805c0.576,-0.536 0.96,-1.069 1.152,-1.598l0,-13.32c-1.137,0.529 -2.072,1.007 -2.803,1.435c-0.732,0.427 -1.3,0.875 -1.707,1.341c-0.406,0.467 -0.69,1.027 -0.853,1.68c-0.162,0.653 -0.244,1.477 -0.244,2.473l0,3.242c0,1.975 0.163,3.394 0.488,4.257c0.325,0.864 0.96,1.295 1.906,1.295Z" style="fill:#fff;fill-rule:nonzero;"/><path d="M747.138,403.186l0,-3.616l1.574,-0c0.65,-0 1.215,-0.035 1.695,-0.105c0.48,-0.07 0.772,-0.222 0.875,-0.455c0.178,-0.249 0.248,-0.642 0.211,-1.178c-0.037,-0.537 -0.1,-1.116 -0.188,-1.738l-5.43,-33.756l4.41,0l2.394,18.196l0.975,9.471l0.399,0l0.864,-9.471l2.172,-18.196l4.388,0l-5.518,35.669c-0.178,1.26 -0.399,2.27 -0.665,3.033c-0.266,0.762 -0.676,1.31 -1.23,1.644c-0.554,0.334 -1.378,0.502 -2.471,0.502l-4.455,-0Z" style="fill:#fff;fill-rule:nonzero;"/><path d="M783.616,397.82c-1.891,0 -3.398,-0.486 -4.521,-1.458c-1.123,-0.972 -1.928,-2.399 -2.415,-4.28c-0.488,-1.882 -0.732,-4.168 -0.732,-6.859l0,-17.099c0,-1.804 0.111,-3.457 0.333,-4.957c0.221,-1.501 0.617,-2.8 1.185,-3.896c0.569,-1.097 1.363,-1.944 2.383,-2.543c1.019,-0.599 2.327,-0.898 3.922,-0.898c1.522,-0 2.763,0.284 3.724,0.851c0.96,0.568 1.706,1.377 2.238,2.426c0.532,1.05 0.897,2.294 1.097,3.733c0.199,1.439 0.299,3.029 0.299,4.771l0,4.548l-4.499,0l0,-4.572c0,-2.55 -0.173,-4.459 -0.521,-5.727c-0.347,-1.267 -1.126,-1.901 -2.338,-1.901c-1.285,-0 -2.146,0.649 -2.581,1.948c-0.436,1.298 -0.654,3.184 -0.654,5.657l-0,17.776c-0,1.99 0.081,3.604 0.244,4.84c0.162,1.237 0.469,2.135 0.919,2.695c0.451,0.56 1.097,0.84 1.939,0.84c1.227,-0 2.032,-0.654 2.416,-1.96c0.384,-1.306 0.576,-3.453 0.576,-6.439l0,-4.549l4.543,0l0,4.503c0,2.737 -0.225,5.039 -0.676,6.905c-0.45,1.866 -1.222,3.274 -2.315,4.222c-1.094,0.949 -2.616,1.423 -4.566,1.423Z" style="fill:#fff;fill-rule:nonzero;"/><rect x="796.802" y="355.83" width="4.543" height="41.5" style="fill:#fff;fill-rule:nonzero;"/><path d="M807.994,397.33l0,-34.992l4.565,0l0,34.992l-4.565,0Zm0,-38.211l0,-4.386l4.565,0l0,4.386l-4.565,0Z" style="fill:#fff;fill-rule:nonzero;"/><path d="M819.03,397.33l0,-34.992l4.544,0l-0,3.64c0.295,-1.105 0.89,-2.061 1.784,-2.87c0.893,-0.808 2.027,-1.213 3.401,-1.213c1.094,0 2.047,0.28 2.859,0.84c0.813,0.56 1.426,1.462 1.84,2.706c0.546,-1.058 1.3,-1.913 2.26,-2.566c0.961,-0.653 2.083,-0.98 3.369,-0.98c1.758,0 3.095,0.657 4.011,1.971c0.916,1.315 1.374,3.262 1.374,5.844l0,27.62l-4.543,0l-0,-27.76c-0,-1.322 -0.244,-2.243 -0.731,-2.764c-0.488,-0.521 -1.131,-0.782 -1.928,-0.782c-1.138,0 -1.962,0.268 -2.472,0.805c-0.509,0.537 -0.764,1.497 -0.764,2.881l-0,27.62l-4.565,0l-0,-27.783c-0,-1.244 -0.229,-2.143 -0.687,-2.695c-0.458,-0.552 -1.101,-0.828 -1.928,-0.828c-1.079,0 -1.895,0.366 -2.449,1.097c-0.554,0.731 -0.831,1.718 -0.831,2.962l-0,27.247l-4.544,0Z" style="fill:#fff;fill-rule:nonzero;"/><path d="M855.752,397.634c-2.009,-0 -3.457,-0.821 -4.343,-2.461c-0.887,-1.641 -1.337,-3.916 -1.352,-6.824l-0,-3.406c-0,-1.539 0.251,-2.819 0.753,-3.837c0.503,-1.019 1.212,-1.87 2.128,-2.555c0.916,-0.684 1.994,-1.302 3.235,-1.854c1.241,-0.552 2.601,-1.139 4.078,-1.761l0,-2.707c0,-1.493 -0.044,-2.702 -0.133,-3.627c-0.088,-0.925 -0.314,-1.606 -0.676,-2.041c-0.362,-0.436 -0.942,-0.653 -1.739,-0.653c-0.784,-0 -1.371,0.217 -1.762,0.653c-0.392,0.435 -0.647,1.12 -0.765,2.053c-0.118,0.933 -0.177,2.146 -0.177,3.639l-0,1.213l-4.521,-0l-0,-1.003c-0,-1.493 0.088,-2.881 0.266,-4.164c0.177,-1.283 0.517,-2.399 1.019,-3.348c0.503,-0.949 1.238,-1.691 2.205,-2.228c0.968,-0.536 2.242,-0.805 3.823,-0.805c1.507,0 2.722,0.253 3.646,0.759c0.923,0.505 1.632,1.248 2.127,2.227c0.495,0.98 0.831,2.189 1.009,3.628c0.177,1.439 0.266,3.099 0.266,4.98l-0,23.818l-4.566,0l0,-3.032c-0.133,0.466 -0.391,0.96 -0.775,1.481c-0.384,0.521 -0.887,0.96 -1.507,1.318c-0.621,0.358 -1.367,0.537 -2.239,0.537Zm1.286,-3.873c0.798,0 1.485,-0.268 2.061,-0.805c0.576,-0.536 0.96,-1.069 1.152,-1.598l0,-13.32c-1.137,0.529 -2.072,1.007 -2.803,1.435c-0.732,0.427 -1.3,0.875 -1.707,1.341c-0.406,0.467 -0.69,1.027 -0.853,1.68c-0.163,0.653 -0.244,1.477 -0.244,2.473l0,3.242c0,1.975 0.163,3.394 0.488,4.257c0.325,0.864 0.96,1.295 1.906,1.295Z" style="fill:#fff;fill-rule:nonzero;"/><path d="M876.584,397.54c-1.418,0 -2.489,-0.179 -3.213,-0.536c-0.724,-0.358 -1.212,-0.933 -1.463,-1.727c-0.251,-0.793 -0.377,-1.842 -0.377,-3.149l0,-25.964l-3.036,0l0,-3.546l3.036,0l0,-6.345l4.544,0l-0,6.345l3.59,0l-0,3.546l-3.59,0l-0,25.544c-0,0.591 0.073,1.031 0.221,1.318c0.148,0.288 0.48,0.479 0.997,0.572c0.518,0.093 1.323,0.14 2.416,0.14l0,3.802l-3.125,0Z" style="fill:#fff;fill-rule:nonzero;"/><path d="M890.812,397.75c-1.596,0 -2.877,-0.291 -3.845,-0.875c-0.968,-0.583 -1.703,-1.411 -2.205,-2.484c-0.502,-1.073 -0.839,-2.36 -1.008,-3.861c-0.17,-1.501 -0.255,-3.161 -0.255,-4.98l-0,-12.364c-0,-1.649 0.11,-3.161 0.332,-4.537c0.222,-1.377 0.606,-2.566 1.153,-3.57c0.546,-1.003 1.307,-1.78 2.282,-2.332c0.975,-0.552 2.216,-0.829 3.723,-0.829c1.522,0 2.748,0.28 3.679,0.84c0.931,0.56 1.636,1.349 2.117,2.368c0.48,1.019 0.801,2.232 0.964,3.639c0.162,1.408 0.243,2.951 0.243,4.631l0,6.602l-9.928,-0l-0,6.975c-0,2.208 0.144,3.892 0.432,5.05c0.288,1.159 1.075,1.738 2.36,1.738c0.842,0 1.445,-0.276 1.807,-0.828c0.361,-0.552 0.583,-1.33 0.664,-2.333c0.082,-1.003 0.122,-2.189 0.122,-3.557l0,-2.823l4.455,0l-0,1.493c-0,1.82 -0.07,3.468 -0.211,4.946c-0.14,1.477 -0.439,2.744 -0.897,3.802c-0.458,1.058 -1.164,1.87 -2.117,2.438c-0.953,0.567 -2.242,0.851 -3.867,0.851Zm-2.77,-20.995l5.407,0l0,-4.456c0,-1.399 -0.044,-2.577 -0.133,-3.534c-0.088,-0.956 -0.303,-1.679 -0.642,-2.169c-0.34,-0.49 -0.902,-0.735 -1.685,-0.735c-0.871,-0 -1.518,0.28 -1.939,0.84c-0.421,0.56 -0.694,1.333 -0.82,2.321c-0.125,0.987 -0.188,2.134 -0.188,3.441l-0,4.292Z" style="fill:#fff;fill-rule:nonzero;"/><path d="M914.414,397.33l0,-41.057l7.845,0c1.552,0 2.811,0.272 3.779,0.817c0.968,0.544 1.71,1.329 2.227,2.356c0.517,1.026 0.868,2.263 1.053,3.709c0.185,1.446 0.277,3.071 0.277,4.875l-0,0.63c-0,2.753 -0.203,5.062 -0.61,6.929c-0.406,1.866 -1.137,3.269 -2.194,4.21c-1.056,0.941 -2.567,1.412 -4.532,1.412l-3.257,-0l-0,16.119l-4.588,0Zm4.588,-20.132l2.792,0c0.901,0 1.581,-0.268 2.039,-0.804c0.458,-0.537 0.772,-1.427 0.942,-2.672c0.17,-1.244 0.255,-2.931 0.255,-5.062l-0,-0.793c-0,-2.644 -0.192,-4.599 -0.577,-5.867c-0.384,-1.267 -1.233,-1.901 -2.548,-1.901l-2.903,-0l-0,17.099Z" style="fill:#fff;fill-rule:nonzero;"/><path d="M939.235,397.634c-2.009,-0 -3.457,-0.821 -4.344,-2.461c-0.886,-1.641 -1.337,-3.916 -1.351,-6.824l-0,-3.406c-0,-1.539 0.251,-2.819 0.753,-3.837c0.502,-1.019 1.212,-1.87 2.128,-2.555c0.916,-0.684 1.994,-1.302 3.235,-1.854c1.241,-0.552 2.601,-1.139 4.078,-1.761l-0,-2.707c-0,-1.493 -0.044,-2.702 -0.133,-3.627c-0.089,-0.925 -0.314,-1.606 -0.676,-2.041c-0.362,-0.436 -0.942,-0.653 -1.74,-0.653c-0.783,-0 -1.37,0.217 -1.761,0.653c-0.392,0.435 -0.647,1.12 -0.765,2.053c-0.118,0.933 -0.177,2.146 -0.177,3.639l-0,1.213l-4.521,-0l-0,-1.003c-0,-1.493 0.088,-2.881 0.266,-4.164c0.177,-1.283 0.517,-2.399 1.019,-3.348c0.502,-0.949 1.237,-1.691 2.205,-2.228c0.968,-0.536 2.242,-0.805 3.823,-0.805c1.507,0 2.722,0.253 3.646,0.759c0.923,0.505 1.632,1.248 2.127,2.227c0.495,0.98 0.831,2.189 1.009,3.628c0.177,1.439 0.265,3.099 0.265,4.98l0,23.818l-4.565,0l0,-3.032c-0.133,0.466 -0.391,0.96 -0.776,1.481c-0.384,0.521 -0.886,0.96 -1.506,1.318c-0.621,0.358 -1.367,0.537 -2.239,0.537Zm1.286,-3.873c0.797,0 1.484,-0.268 2.061,-0.805c0.576,-0.536 0.96,-1.069 1.152,-1.598l-0,-13.32c-1.138,0.529 -2.072,1.007 -2.803,1.435c-0.732,0.427 -1.301,0.875 -1.707,1.341c-0.406,0.467 -0.691,1.027 -0.853,1.68c-0.163,0.653 -0.244,1.477 -0.244,2.473l0,3.242c0,1.975 0.163,3.394 0.488,4.257c0.325,0.864 0.96,1.295 1.906,1.295Z" style="fill:#fff;fill-rule:nonzero;"/><path d="M954.283,397.33l-0,-34.992l4.565,0l0,3.896c0.384,-1.353 1.053,-2.41 2.006,-3.172c0.953,-0.762 2.168,-1.144 3.645,-1.144c0.03,0 0.048,0.207 0.056,0.619c0.007,0.412 0.011,0.882 0.011,1.411l-0,2.03c-0.709,-0 -1.418,0.089 -2.128,0.268c-0.709,0.179 -1.374,0.482 -1.994,0.91c-0.621,0.427 -1.153,1.007 -1.596,1.738l0,28.436l-4.565,0Z" style="fill:#fff;fill-rule:nonzero;"/><path d="M974.295,397.54c-1.418,0 -2.49,-0.179 -3.214,-0.536c-0.724,-0.358 -1.211,-0.933 -1.462,-1.727c-0.251,-0.793 -0.377,-1.842 -0.377,-3.149l0,-25.964l-3.036,0l-0,-3.546l3.036,0l0,-6.345l4.543,0l0,6.345l3.59,0l0,3.546l-3.59,0l0,25.544c0,0.591 0.074,1.031 0.222,1.318c0.148,0.288 0.48,0.479 0.997,0.572c0.517,0.093 1.322,0.14 2.416,0.14l-0,3.802l-3.125,0Z" style="fill:#fff;fill-rule:nonzero;"/><path d="M981.63,397.33l0,-34.992l4.544,0l-0,3.71c0.295,-1.089 0.927,-2.053 1.894,-2.893c0.968,-0.84 2.124,-1.26 3.469,-1.26c1.669,0 2.969,0.622 3.9,1.866c0.931,1.245 1.396,3.134 1.396,5.669l0,27.9l-4.543,0l0,-27.877c0,-1.244 -0.266,-2.146 -0.798,-2.706c-0.532,-0.559 -1.211,-0.839 -2.039,-0.839c-0.605,-0 -1.159,0.14 -1.662,0.419c-0.502,0.28 -0.897,0.716 -1.185,1.307c-0.288,0.591 -0.432,1.353 -0.432,2.286l-0,27.41l-4.544,0Z" style="fill:#fff;fill-rule:nonzero;"/><path d="M1009.98,397.75c-1.596,0 -2.877,-0.291 -3.845,-0.875c-0.968,-0.583 -1.703,-1.411 -2.205,-2.484c-0.502,-1.073 -0.838,-2.36 -1.008,-3.861c-0.17,-1.501 -0.255,-3.161 -0.255,-4.98l-0,-12.364c-0,-1.649 0.111,-3.161 0.332,-4.537c0.222,-1.377 0.606,-2.566 1.153,-3.57c0.546,-1.003 1.307,-1.78 2.282,-2.332c0.975,-0.552 2.216,-0.829 3.723,-0.829c1.522,0 2.748,0.28 3.679,0.84c0.931,0.56 1.636,1.349 2.117,2.368c0.48,1.019 0.801,2.232 0.964,3.639c0.162,1.408 0.243,2.951 0.243,4.631l0,6.602l-9.928,-0l0,6.975c0,2.208 0.144,3.892 0.432,5.05c0.288,1.159 1.075,1.738 2.36,1.738c0.843,0 1.445,-0.276 1.807,-0.828c0.362,-0.552 0.583,-1.33 0.664,-2.333c0.082,-1.003 0.122,-2.189 0.122,-3.557l0,-2.823l4.455,0l-0,1.493c-0,1.82 -0.07,3.468 -0.211,4.946c-0.14,1.477 -0.439,2.744 -0.897,3.802c-0.458,1.058 -1.164,1.87 -2.117,2.438c-0.953,0.567 -2.242,0.851 -3.867,0.851Zm-2.77,-20.995l5.407,0l0,-4.456c0,-1.399 -0.044,-2.577 -0.133,-3.534c-0.088,-0.956 -0.303,-1.679 -0.642,-2.169c-0.34,-0.49 -0.902,-0.735 -1.685,-0.735c-0.871,-0 -1.518,0.28 -1.939,0.84c-0.421,0.56 -0.694,1.333 -0.82,2.321c-0.125,0.987 -0.188,2.134 -0.188,3.441l-0,4.292Z" style="fill:#fff;fill-rule:nonzero;"/><path d="M1022.7,397.33l-0,-34.992l4.565,0l0,3.896c0.384,-1.353 1.053,-2.41 2.006,-3.172c0.953,-0.762 2.168,-1.144 3.645,-1.144c0.03,0 0.048,0.207 0.056,0.619c0.007,0.412 0.011,0.882 0.011,1.411l-0,2.03c-0.709,-0 -1.418,0.089 -2.128,0.268c-0.709,0.179 -1.374,0.482 -1.994,0.91c-0.621,0.427 -1.153,1.007 -1.596,1.738l0,28.436l-4.565,0Z" style="fill:#fff;fill-rule:nonzero;"/><rect x="809.778" y="406.814" width="3.93" height="35.904" style="fill:#fff;fill-rule:nonzero;"/><path d="M825.404,443.081c-1.355,-0 -2.454,-0.246 -3.298,-0.737c-0.843,-0.491 -1.492,-1.191 -1.946,-2.099c-0.454,-0.908 -0.764,-1.998 -0.93,-3.27c-0.166,-1.271 -0.249,-2.694 -0.249,-4.268l-0,-10.717c-0,-1.897 0.173,-3.592 0.518,-5.085c0.345,-1.494 0.981,-2.671 1.907,-3.532c0.927,-0.861 2.26,-1.292 3.998,-1.292c1.304,0 2.371,0.246 3.202,0.737c0.831,0.491 1.476,1.184 1.936,2.078c0.46,0.895 0.777,1.945 0.949,3.149c0.173,1.204 0.259,2.519 0.259,3.945l0,10.717c0,1.547 -0.077,2.953 -0.23,4.218c-0.153,1.265 -0.451,2.358 -0.891,3.28c-0.441,0.921 -1.081,1.631 -1.918,2.129c-0.837,0.498 -1.939,0.747 -3.307,0.747Zm-0,-3.452c0.69,0 1.205,-0.242 1.543,-0.726c0.339,-0.484 0.566,-1.161 0.681,-2.028c0.115,-0.868 0.172,-1.874 0.172,-3.018l0,-12.694c0,-1.13 -0.057,-2.116 -0.172,-2.957c-0.115,-0.841 -0.345,-1.497 -0.69,-1.967c-0.345,-0.471 -0.857,-0.707 -1.534,-0.707c-0.716,0 -1.253,0.236 -1.611,0.707c-0.358,0.47 -0.591,1.126 -0.699,1.967c-0.109,0.841 -0.163,1.827 -0.163,2.957l-0,12.694c-0,1.144 0.054,2.15 0.163,3.018c0.108,0.867 0.341,1.544 0.699,2.028c0.358,0.484 0.895,0.726 1.611,0.726Z" style="fill:#fff;fill-rule:nonzero;"/><path d="M842.679,447.339c-1.317,0.04 -2.502,-0.114 -3.557,-0.464c-1.054,-0.35 -1.959,-0.841 -2.713,-1.474l1.419,-2.825c0.562,0.404 1.227,0.76 1.994,1.07c0.767,0.309 1.655,0.45 2.665,0.423c0.895,-0.026 1.588,-0.38 2.08,-1.059c0.492,-0.68 0.738,-1.591 0.738,-2.735l0,-2.886c-0.37,0.996 -0.882,1.662 -1.533,1.998c-0.652,0.337 -1.394,0.505 -2.225,0.505c-1.342,-0 -2.38,-0.411 -3.115,-1.231c-0.735,-0.821 -1.246,-1.945 -1.534,-3.371c-0.288,-1.426 -0.431,-3.04 -0.431,-4.843l-0,-8.679c-0,-1.843 0.169,-3.498 0.508,-4.964c0.338,-1.467 0.904,-2.627 1.697,-3.482c0.792,-0.854 1.866,-1.268 3.221,-1.241c0.818,0.013 1.524,0.229 2.118,0.646c0.595,0.417 1.026,1.063 1.294,1.937l0,-2.22l3.931,0l-0,27.448c-0,0.861 -0.099,1.722 -0.297,2.583c-0.198,0.861 -0.537,1.652 -1.017,2.371c-0.479,0.72 -1.144,1.306 -1.994,1.756c-0.85,0.451 -1.933,0.697 -3.249,0.737Zm0.383,-10.737c0.511,0 0.933,-0.161 1.266,-0.484c0.332,-0.323 0.578,-0.925 0.738,-1.807c0.159,-0.881 0.239,-2.149 0.239,-3.804l0,-9.344c0,-1.843 -0.156,-3.243 -0.469,-4.198c-0.314,-0.955 -0.969,-1.433 -1.966,-1.433c-0.728,0 -1.268,0.239 -1.62,0.717c-0.351,0.477 -0.578,1.133 -0.68,1.967c-0.103,0.835 -0.154,1.803 -0.154,2.907l0,9.425c0,2.004 0.173,3.515 0.518,4.53c0.345,1.016 1.054,1.524 2.128,1.524Z" style="fill:#fff;fill-rule:nonzero;"/><path d="M860.74,443.081c-1.355,-0 -2.455,-0.246 -3.298,-0.737c-0.844,-0.491 -1.492,-1.191 -1.946,-2.099c-0.454,-0.908 -0.764,-1.998 -0.93,-3.27c-0.166,-1.271 -0.249,-2.694 -0.249,-4.268l-0,-10.717c-0,-1.897 0.172,-3.592 0.517,-5.085c0.345,-1.494 0.981,-2.671 1.908,-3.532c0.927,-0.861 2.259,-1.292 3.998,-1.292c1.303,0 2.371,0.246 3.201,0.737c0.831,0.491 1.477,1.184 1.937,2.078c0.46,0.895 0.776,1.945 0.949,3.149c0.173,1.204 0.259,2.519 0.259,3.945l-0,10.717c-0,1.547 -0.077,2.953 -0.23,4.218c-0.154,1.265 -0.451,2.358 -0.892,3.28c-0.441,0.921 -1.08,1.631 -1.917,2.129c-0.837,0.498 -1.94,0.747 -3.307,0.747Zm-0,-3.452c0.69,0 1.204,-0.242 1.543,-0.726c0.339,-0.484 0.566,-1.161 0.681,-2.028c0.115,-0.868 0.172,-1.874 0.172,-3.018l0,-12.694c0,-1.13 -0.057,-2.116 -0.172,-2.957c-0.115,-0.841 -0.345,-1.497 -0.691,-1.967c-0.345,-0.471 -0.856,-0.707 -1.533,-0.707c-0.716,0 -1.253,0.236 -1.611,0.707c-0.358,0.47 -0.591,1.126 -0.7,1.967c-0.108,0.841 -0.163,1.827 -0.163,2.957l0,12.694c0,1.144 0.055,2.15 0.163,3.018c0.109,0.867 0.342,1.544 0.7,2.028c0.358,0.484 0.895,0.726 1.611,0.726Z" style="fill:#fff;fill-rule:nonzero;"/></g><g><path d="M282.998,344.777l-0,-29.93c-0.307,0.377 -0.777,0.73 -1.41,1.06c-0.632,0.329 -1.294,0.592 -1.984,0.787c-0.69,0.195 -1.272,0.293 -1.745,0.293l0,-3.31c0.678,-0.108 1.438,-0.34 2.282,-0.697c0.843,-0.356 1.633,-0.844 2.368,-1.463c0.735,-0.619 1.281,-1.372 1.639,-2.26l2.799,-0l0,35.52l-3.949,0Z" style="fill:#fff;fill-rule:nonzero;"/><path d="M300.004,345.181c-2.045,-0 -3.598,-0.676 -4.659,-2.029c-1.061,-1.352 -1.591,-3.595 -1.591,-6.73l-0,-2.281l3.815,0l-0,2.261c-0,1.695 0.176,2.993 0.527,3.895c0.352,0.901 0.93,1.352 1.735,1.352c0.806,-0 1.397,-0.276 1.774,-0.828c0.377,-0.551 0.565,-1.54 0.565,-2.966c0,-0.713 -0.102,-1.423 -0.306,-2.13c-0.205,-0.706 -0.518,-1.406 -0.94,-2.098c-0.422,-0.693 -0.965,-1.369 -1.629,-2.029l-2.033,-2.038c-1.214,-1.224 -2.141,-2.526 -2.78,-3.905c-0.639,-1.379 -0.959,-2.843 -0.959,-4.39c0,-2.449 0.55,-4.248 1.649,-5.399c1.1,-1.15 2.614,-1.725 4.544,-1.725c1.291,-0 2.378,0.296 3.26,0.888c0.882,0.592 1.546,1.574 1.994,2.946c0.447,1.373 0.671,3.243 0.671,5.611l-0,1.453l-3.739,0l0,-2.099c0,-1.695 -0.157,-2.993 -0.47,-3.895c-0.313,-0.901 -0.872,-1.352 -1.677,-1.352c-0.78,-0 -1.365,0.239 -1.755,0.716c-0.39,0.478 -0.604,1.349 -0.642,2.614c-0.013,0.646 0.067,1.298 0.24,1.958c0.172,0.659 0.457,1.311 0.853,1.957c0.396,0.646 0.907,1.278 1.534,1.897l2.07,2.039c1.343,1.305 2.355,2.707 3.039,4.208c0.684,1.5 1.026,3.084 1.026,4.753c0,2.287 -0.495,4.083 -1.486,5.388c-0.99,1.305 -2.534,1.958 -4.63,1.958Z" style="fill:#fff;fill-rule:nonzero;"/><path d="M315.074,344.959c-1.227,-0 -2.154,-0.155 -2.78,-0.464c-0.627,-0.31 -1.048,-0.808 -1.266,-1.494c-0.217,-0.686 -0.326,-1.594 -0.326,-2.724l0,-22.463l-2.626,-0l-0,-3.068l2.626,0l0,-5.489l3.931,-0l-0,5.489l3.106,0l-0,3.068l-3.106,-0l-0,22.099c-0,0.512 0.064,0.892 0.192,1.141c0.127,0.248 0.415,0.413 0.862,0.494c0.448,0.081 1.144,0.121 2.09,0.121l0,3.29l-2.703,-0Z" style="fill:#fff;fill-rule:nonzero;"/><path d="M330.891,344.777l0,-30.273l3.931,0l-0,3.209c0.256,-0.942 0.802,-1.776 1.639,-2.502c0.837,-0.727 1.838,-1.09 3.001,-1.09c1.444,-0 2.569,0.538 3.374,1.614c0.805,1.077 1.208,2.711 1.208,4.904l0,24.138l-3.93,0l-0,-24.117c-0,-1.077 -0.23,-1.857 -0.691,-2.341c-0.46,-0.485 -1.048,-0.727 -1.764,-0.727c-0.524,-0 -1.003,0.121 -1.437,0.363c-0.435,0.242 -0.777,0.619 -1.026,1.13c-0.249,0.512 -0.374,1.171 -0.374,1.978l-0,23.714l-3.931,0Z" style="fill:#fff;fill-rule:nonzero;"/><path d="M353.803,345.039c-1.738,0 -2.991,-0.709 -3.758,-2.129c-0.767,-1.419 -1.157,-3.387 -1.169,-5.903l-0,-2.947c-0,-1.332 0.217,-2.438 0.652,-3.319c0.434,-0.882 1.048,-1.618 1.84,-2.21c0.793,-0.592 1.726,-1.127 2.799,-1.605c1.074,-0.477 2.25,-0.985 3.528,-1.524l0,-2.341c0,-1.291 -0.038,-2.337 -0.115,-3.138c-0.077,-0.801 -0.271,-1.389 -0.585,-1.766c-0.313,-0.377 -0.814,-0.565 -1.505,-0.565c-0.677,-0 -1.185,0.188 -1.524,0.565c-0.339,0.377 -0.559,0.969 -0.661,1.776c-0.103,0.807 -0.154,1.857 -0.154,3.148l0,1.05l-3.911,-0l-0,-0.868c-0,-1.292 0.077,-2.492 0.23,-3.602c0.153,-1.11 0.447,-2.076 0.882,-2.896c0.435,-0.821 1.07,-1.464 1.908,-1.928c0.837,-0.464 1.939,-0.696 3.307,-0.696c1.304,-0 2.355,0.219 3.154,0.656c0.799,0.437 1.412,1.08 1.841,1.927c0.428,0.848 0.719,1.894 0.872,3.138c0.153,1.245 0.23,2.681 0.23,4.309l-0,20.606l-3.95,0l0,-2.624c-0.115,0.404 -0.338,0.831 -0.671,1.282c-0.332,0.451 -0.767,0.831 -1.303,1.14c-0.537,0.31 -1.183,0.464 -1.937,0.464Zm1.112,-3.35c0.69,0 1.285,-0.232 1.783,-0.696c0.499,-0.464 0.831,-0.925 0.997,-1.382l0,-11.524c-0.984,0.457 -1.792,0.871 -2.425,1.241c-0.633,0.37 -1.125,0.757 -1.476,1.16c-0.352,0.404 -0.598,0.888 -0.739,1.453c-0.14,0.565 -0.211,1.279 -0.211,2.14l0,2.805c0,1.709 0.141,2.936 0.422,3.683c0.281,0.747 0.831,1.12 1.649,1.12Z" style="fill:#fff;fill-rule:nonzero;"/><path d="M371.826,344.959c-1.227,-0 -2.154,-0.155 -2.78,-0.464c-0.627,-0.31 -1.049,-0.808 -1.266,-1.494c-0.217,-0.686 -0.326,-1.594 -0.326,-2.724l0,-22.463l-2.626,-0l-0,-3.068l2.626,0l0,-5.489l3.931,-0l-0,5.489l3.106,0l-0,3.068l-3.106,-0l-0,22.099c-0,0.512 0.064,0.892 0.191,1.141c0.128,0.248 0.416,0.413 0.863,0.494c0.448,0.081 1.144,0.121 2.09,0.121l0,3.29l-2.703,-0Z" style="fill:#fff;fill-rule:nonzero;"/><path d="M378.287,344.777l-0,-30.273l3.95,0l-0,30.273l-3.95,0Zm-0,-33.058l-0,-3.794l3.95,-0l-0,3.794l-3.95,0Z" style="fill:#fff;fill-rule:nonzero;"/><path d="M393.894,345.14c-1.355,0 -2.454,-0.245 -3.298,-0.736c-0.844,-0.491 -1.492,-1.191 -1.946,-2.099c-0.454,-0.908 -0.764,-1.998 -0.93,-3.27c-0.166,-1.271 -0.249,-2.694 -0.249,-4.268l-0,-10.717c-0,-1.897 0.172,-3.592 0.517,-5.086c0.346,-1.493 0.981,-2.67 1.908,-3.531c0.927,-0.862 2.259,-1.292 3.998,-1.292c1.303,-0 2.371,0.245 3.202,0.737c0.83,0.491 1.476,1.184 1.936,2.078c0.46,0.895 0.776,1.944 0.949,3.149c0.173,1.204 0.259,2.519 0.259,3.945l-0,10.717c-0,1.547 -0.077,2.953 -0.23,4.218c-0.154,1.265 -0.451,2.358 -0.892,3.279c-0.441,0.922 -1.08,1.632 -1.917,2.13c-0.837,0.497 -1.94,0.746 -3.307,0.746Zm-0,-3.451c0.69,0 1.204,-0.242 1.543,-0.726c0.339,-0.485 0.566,-1.161 0.681,-2.029c0.115,-0.867 0.172,-1.873 0.172,-3.017l0,-12.694c0,-1.13 -0.057,-2.116 -0.172,-2.957c-0.115,-0.841 -0.345,-1.497 -0.691,-1.968c-0.345,-0.471 -0.856,-0.706 -1.533,-0.706c-0.716,-0 -1.253,0.235 -1.611,0.706c-0.358,0.471 -0.591,1.127 -0.7,1.968c-0.108,0.841 -0.163,1.827 -0.163,2.957l0,12.694c0,1.144 0.055,2.15 0.163,3.017c0.109,0.868 0.342,1.544 0.7,2.029c0.358,0.484 0.895,0.726 1.611,0.726Z" style="fill:#fff;fill-rule:nonzero;"/><path d="M405.359,344.777l0,-30.273l3.931,0l-0,3.209c0.255,-0.942 0.802,-1.776 1.639,-2.502c0.837,-0.727 1.837,-1.09 3,-1.09c1.445,-0 2.57,0.538 3.375,1.614c0.805,1.077 1.208,2.711 1.208,4.904l-0,24.138l-3.931,0l0,-24.117c0,-1.077 -0.23,-1.857 -0.69,-2.341c-0.46,-0.485 -1.048,-0.727 -1.764,-0.727c-0.524,-0 -1.003,0.121 -1.438,0.363c-0.434,0.242 -0.776,0.619 -1.026,1.13c-0.249,0.512 -0.373,1.171 -0.373,1.978l-0,23.714l-3.931,0Z" style="fill:#fff;fill-rule:nonzero;"/><path d="M428.271,345.039c-1.739,0 -2.991,-0.709 -3.758,-2.129c-0.767,-1.419 -1.157,-3.387 -1.17,-5.903l0,-2.947c0,-1.332 0.218,-2.438 0.652,-3.319c0.435,-0.882 1.048,-1.618 1.841,-2.21c0.792,-0.592 1.725,-1.127 2.799,-1.605c1.074,-0.477 2.25,-0.985 3.528,-1.524l-0,-2.341c-0,-1.291 -0.039,-2.337 -0.115,-3.138c-0.077,-0.801 -0.272,-1.389 -0.585,-1.766c-0.313,-0.377 -0.815,-0.565 -1.505,-0.565c-0.678,-0 -1.186,0.188 -1.524,0.565c-0.339,0.377 -0.56,0.969 -0.662,1.776c-0.102,0.807 -0.153,1.857 -0.153,3.148l-0,1.05l-3.911,-0l-0,-0.868c-0,-1.292 0.076,-2.492 0.23,-3.602c0.153,-1.11 0.447,-2.076 0.882,-2.896c0.434,-0.821 1.07,-1.464 1.907,-1.928c0.837,-0.464 1.94,-0.696 3.308,-0.696c1.303,-0 2.355,0.219 3.154,0.656c0.798,0.437 1.412,1.08 1.84,1.927c0.428,0.848 0.719,1.894 0.873,3.138c0.153,1.245 0.23,2.681 0.23,4.309l-0,20.606l-3.95,0l-0,-2.624c-0.115,0.404 -0.339,0.831 -0.671,1.282c-0.332,0.451 -0.767,0.831 -1.304,1.14c-0.537,0.31 -1.182,0.464 -1.936,0.464Zm1.112,-3.35c0.69,0 1.284,-0.232 1.783,-0.696c0.498,-0.464 0.831,-0.925 0.997,-1.382l-0,-11.524c-0.984,0.457 -1.793,0.871 -2.426,1.241c-0.632,0.37 -1.124,0.757 -1.476,1.16c-0.351,0.404 -0.597,0.888 -0.738,1.453c-0.141,0.565 -0.211,1.279 -0.211,2.14l0,2.805c0,1.709 0.141,2.936 0.422,3.683c0.281,0.747 0.831,1.12 1.649,1.12Z" style="fill:#fff;fill-rule:nonzero;"/><rect x="441.289" y="308.873" width="3.93" height="35.904" style="fill:#fff;fill-rule:nonzero;"/><path d="M220.087,397.797c-1.95,-0 -3.49,-0.451 -4.621,-1.353c-1.13,-0.902 -1.935,-2.263 -2.415,-4.083c-0.48,-1.819 -0.72,-4.097 -0.72,-6.835l-0,-18.102c-0,-2.364 0.221,-4.417 0.664,-6.159c0.444,-1.742 1.234,-3.095 2.372,-4.059c1.137,-0.964 2.748,-1.446 4.831,-1.446c1.566,-0 2.844,0.276 3.834,0.828c0.99,0.552 1.754,1.338 2.294,2.356c0.539,1.019 0.912,2.244 1.119,3.674c0.207,1.431 0.31,3.033 0.31,4.806l0,18.102c0,2.738 -0.233,5.016 -0.698,6.835c-0.465,1.82 -1.256,3.181 -2.371,4.083c-1.116,0.902 -2.649,1.353 -4.599,1.353Zm0,-4.152c0.842,-0 1.485,-0.253 1.928,-0.759c0.443,-0.505 0.746,-1.349 0.909,-2.531c0.162,-1.182 0.244,-2.776 0.244,-4.782l-0,-18.429c-0,-2.457 -0.185,-4.277 -0.554,-5.459c-0.37,-1.182 -1.175,-1.773 -2.416,-1.773c-1.285,0 -2.153,0.587 -2.604,1.762c-0.451,1.174 -0.676,2.989 -0.676,5.447l0,18.452c0,2.022 0.081,3.62 0.244,4.794c0.162,1.174 0.473,2.014 0.931,2.519c0.458,0.506 1.122,0.759 1.994,0.759Z" style="fill:#fff;fill-rule:nonzero;"/><path d="M233.761,397.33l-0,-34.992l4.565,0l0,3.896c0.384,-1.353 1.053,-2.41 2.006,-3.172c0.953,-0.762 2.168,-1.144 3.645,-1.144c0.03,0 0.048,0.207 0.056,0.619c0.007,0.412 0.011,0.882 0.011,1.411l-0,2.03c-0.709,-0 -1.418,0.089 -2.128,0.268c-0.709,0.179 -1.374,0.482 -1.994,0.91c-0.621,0.427 -1.153,1.007 -1.596,1.738l0,28.436l-4.565,0Z" style="fill:#fff;fill-rule:nonzero;"/><path d="M254.615,402.672c-1.522,0.047 -2.892,-0.132 -4.111,-0.536c-1.219,-0.404 -2.264,-0.972 -3.136,-1.703l1.64,-3.266c0.65,0.467 1.418,0.879 2.305,1.236c0.886,0.358 1.913,0.521 3.08,0.49c1.035,-0.031 1.836,-0.439 2.405,-1.224c0.569,-0.786 0.853,-1.839 0.853,-3.161l0,-3.336c-0.428,1.151 -1.019,1.92 -1.773,2.309c-0.753,0.389 -1.61,0.583 -2.571,0.583c-1.551,0 -2.751,-0.474 -3.601,-1.423c-0.849,-0.948 -1.44,-2.247 -1.773,-3.895c-0.332,-1.649 -0.498,-3.515 -0.498,-5.599l-0,-10.031c-0,-2.131 0.195,-4.044 0.587,-5.739c0.391,-1.695 1.045,-3.036 1.961,-4.024c0.916,-0.987 2.157,-1.466 3.723,-1.435c0.946,0.016 1.762,0.265 2.449,0.747c0.687,0.482 1.186,1.229 1.496,2.239l0,-2.566l4.543,0l0,31.726c0,0.996 -0.114,1.991 -0.343,2.986c-0.229,0.996 -0.621,1.909 -1.175,2.741c-0.554,0.832 -1.322,1.509 -2.305,2.03c-0.982,0.521 -2.234,0.805 -3.756,0.851Zm0.443,-12.41c0.591,-0 1.079,-0.187 1.463,-0.56c0.384,-0.373 0.668,-1.069 0.853,-2.088c0.185,-1.018 0.277,-2.484 0.277,-4.397l0,-10.801c0,-2.131 -0.181,-3.748 -0.543,-4.852c-0.362,-1.104 -1.119,-1.656 -2.271,-1.656c-0.843,-0 -1.467,0.276 -1.873,0.828c-0.406,0.552 -0.669,1.31 -0.787,2.274c-0.118,0.964 -0.177,2.084 -0.177,3.359l-0,10.895c-0,2.317 0.199,4.063 0.598,5.237c0.399,1.174 1.219,1.761 2.46,1.761Z" style="fill:#fff;fill-rule:nonzero;"/><path d="M273.519,397.634c-2.009,-0 -3.457,-0.821 -4.344,-2.461c-0.886,-1.641 -1.337,-3.916 -1.352,-6.824l0,-3.406c0,-1.539 0.251,-2.819 0.754,-3.837c0.502,-1.019 1.211,-1.87 2.127,-2.555c0.916,-0.684 1.995,-1.302 3.236,-1.854c1.241,-0.552 2.6,-1.139 4.078,-1.761l-0,-2.707c-0,-1.493 -0.045,-2.702 -0.133,-3.627c-0.089,-0.925 -0.314,-1.606 -0.676,-2.041c-0.362,-0.436 -0.942,-0.653 -1.74,-0.653c-0.783,-0 -1.37,0.217 -1.762,0.653c-0.391,0.435 -0.646,1.12 -0.764,2.053c-0.119,0.933 -0.178,2.146 -0.178,3.639l0,1.213l-4.521,-0l0,-1.003c0,-1.493 0.089,-2.881 0.266,-4.164c0.178,-1.283 0.517,-2.399 1.02,-3.348c0.502,-0.949 1.237,-1.691 2.205,-2.228c0.968,-0.536 2.242,-0.805 3.823,-0.805c1.507,0 2.722,0.253 3.645,0.759c0.924,0.505 1.633,1.248 2.128,2.227c0.495,0.98 0.831,2.189 1.008,3.628c0.177,1.439 0.266,3.099 0.266,4.98l0,23.818l-4.565,0l-0,-3.032c-0.133,0.466 -0.392,0.96 -0.776,1.481c-0.384,0.521 -0.886,0.96 -1.507,1.318c-0.62,0.358 -1.366,0.537 -2.238,0.537Zm1.285,-3.873c0.798,0 1.485,-0.268 2.061,-0.805c0.576,-0.536 0.961,-1.069 1.153,-1.598l-0,-13.32c-1.138,0.529 -2.072,1.007 -2.804,1.435c-0.731,0.427 -1.3,0.875 -1.706,1.341c-0.407,0.467 -0.691,1.027 -0.853,1.68c-0.163,0.653 -0.244,1.477 -0.244,2.473l-0,3.242c-0,1.975 0.162,3.394 0.487,4.257c0.325,0.864 0.961,1.295 1.906,1.295Z" style="fill:#fff;fill-rule:nonzero;"/><path d="M288.478,397.33l-0,-34.992l4.543,0l0,3.71c0.296,-1.089 0.927,-2.053 1.895,-2.893c0.968,-0.84 2.124,-1.26 3.468,-1.26c1.67,0 2.97,0.622 3.901,1.866c0.93,1.245 1.396,3.134 1.396,5.669l-0,27.9l-4.543,0l-0,-27.877c-0,-1.244 -0.266,-2.146 -0.798,-2.706c-0.532,-0.559 -1.212,-0.839 -2.039,-0.839c-0.606,-0 -1.16,0.14 -1.662,0.419c-0.502,0.28 -0.898,0.716 -1.186,1.307c-0.288,0.591 -0.432,1.353 -0.432,2.286l0,27.41l-4.543,0Z" style="fill:#fff;fill-rule:nonzero;"/><path d="M310.063,397.33l0,-34.992l4.566,0l-0,34.992l-4.566,0Zm0,-38.211l0,-4.386l4.566,0l-0,4.386l-4.566,0Z" style="fill:#fff;fill-rule:nonzero;"/><path d="M328.103,397.75c-1.61,0 -2.907,-0.287 -3.889,-0.863c-0.983,-0.575 -1.729,-1.403 -2.239,-2.484c-0.509,-1.081 -0.853,-2.372 -1.03,-3.873c-0.178,-1.501 -0.266,-3.168 -0.266,-5.004l-0,-11.71c-0,-2.333 0.184,-4.394 0.554,-6.182c0.369,-1.789 1.093,-3.188 2.172,-4.199c1.078,-1.011 2.681,-1.517 4.809,-1.517c1.477,0 2.67,0.257 3.579,0.77c0.908,0.514 1.603,1.252 2.083,2.216c0.48,0.965 0.805,2.116 0.975,3.453c0.17,1.337 0.255,2.823 0.255,4.456l0,2.426l-4.477,-0l0,-3.08c0,-1.337 -0.04,-2.461 -0.122,-3.37c-0.081,-0.91 -0.291,-1.598 -0.631,-2.065c-0.34,-0.467 -0.909,-0.7 -1.707,-0.7c-0.842,0 -1.47,0.253 -1.883,0.758c-0.414,0.506 -0.691,1.229 -0.831,2.17c-0.141,0.941 -0.211,2.057 -0.211,3.347l0,14.884c0,1.446 0.059,2.647 0.177,3.604c0.119,0.956 0.377,1.672 0.776,2.146c0.399,0.474 1.012,0.712 1.839,0.712c0.798,-0 1.378,-0.253 1.74,-0.759c0.362,-0.505 0.595,-1.236 0.698,-2.192c0.104,-0.957 0.155,-2.096 0.155,-3.418l0,-3.383l4.477,0l0,2.263c0,1.727 -0.081,3.297 -0.244,4.713c-0.162,1.415 -0.484,2.636 -0.964,3.662c-0.48,1.026 -1.185,1.82 -2.116,2.379c-0.931,0.56 -2.157,0.84 -3.679,0.84Z" style="fill:#fff;fill-rule:nonzero;"/><path d="M351.528,397.33l-0,-41.057l11.657,0l-0,4.013l-7.07,-0l0,14.043l6.693,-0l0,4.012l-6.693,0l0,14.977l7.158,-0l0,4.012l-11.745,0Z" style="fill:#fff;fill-rule:nonzero;"/><path d="M374.953,402.672c-1.522,0.047 -2.892,-0.132 -4.111,-0.536c-1.219,-0.404 -2.265,-0.972 -3.136,-1.703l1.64,-3.266c0.65,0.467 1.418,0.879 2.305,1.236c0.886,0.358 1.913,0.521 3.08,0.49c1.034,-0.031 1.836,-0.439 2.405,-1.224c0.568,-0.786 0.853,-1.839 0.853,-3.161l-0,-3.336c-0.429,1.151 -1.02,1.92 -1.773,2.309c-0.754,0.389 -1.611,0.583 -2.571,0.583c-1.551,0 -2.752,-0.474 -3.601,-1.423c-0.85,-0.948 -1.441,-2.247 -1.773,-3.895c-0.333,-1.649 -0.499,-3.515 -0.499,-5.599l0,-10.031c0,-2.131 0.196,-4.044 0.588,-5.739c0.391,-1.695 1.045,-3.036 1.961,-4.024c0.916,-0.987 2.157,-1.466 3.723,-1.435c0.946,0.016 1.762,0.265 2.449,0.747c0.687,0.482 1.185,1.229 1.496,2.239l-0,-2.566l4.543,0l-0,31.726c-0,0.996 -0.115,1.991 -0.344,2.986c-0.229,0.996 -0.62,1.909 -1.174,2.741c-0.554,0.832 -1.322,1.509 -2.305,2.03c-0.982,0.521 -2.235,0.805 -3.756,0.851Zm0.443,-12.41c0.591,-0 1.078,-0.187 1.463,-0.56c0.384,-0.373 0.668,-1.069 0.853,-2.088c0.184,-1.018 0.277,-2.484 0.277,-4.397l-0,-10.801c-0,-2.131 -0.181,-3.748 -0.543,-4.852c-0.362,-1.104 -1.119,-1.656 -2.272,-1.656c-0.842,-0 -1.466,0.276 -1.872,0.828c-0.407,0.552 -0.669,1.31 -0.787,2.274c-0.118,0.964 -0.177,2.084 -0.177,3.359l-0,10.895c-0,2.317 0.199,4.063 0.598,5.237c0.399,1.174 1.219,1.761 2.46,1.761Z" style="fill:#fff;fill-rule:nonzero;"/><path d="M395.541,402.672c-1.522,0.047 -2.892,-0.132 -4.111,-0.536c-1.219,-0.404 -2.264,-0.972 -3.136,-1.703l1.64,-3.266c0.65,0.467 1.418,0.879 2.305,1.236c0.886,0.358 1.913,0.521 3.08,0.49c1.034,-0.031 1.836,-0.439 2.405,-1.224c0.569,-0.786 0.853,-1.839 0.853,-3.161l-0,-3.336c-0.429,1.151 -1.02,1.92 -1.773,2.309c-0.754,0.389 -1.61,0.583 -2.571,0.583c-1.551,0 -2.751,-0.474 -3.601,-1.423c-0.85,-0.948 -1.441,-2.247 -1.773,-3.895c-0.332,-1.649 -0.499,-3.515 -0.499,-5.599l0,-10.031c0,-2.131 0.196,-4.044 0.588,-5.739c0.391,-1.695 1.045,-3.036 1.961,-4.024c0.916,-0.987 2.157,-1.466 3.723,-1.435c0.946,0.016 1.762,0.265 2.449,0.747c0.687,0.482 1.186,1.229 1.496,2.239l-0,-2.566l4.543,0l0,31.726c0,0.996 -0.114,1.991 -0.343,2.986c-0.229,0.996 -0.621,1.909 -1.175,2.741c-0.554,0.832 -1.322,1.509 -2.305,2.03c-0.982,0.521 -2.234,0.805 -3.756,0.851Zm0.443,-12.41c0.591,-0 1.079,-0.187 1.463,-0.56c0.384,-0.373 0.668,-1.069 0.853,-2.088c0.185,-1.018 0.277,-2.484 0.277,-4.397l-0,-10.801c-0,-2.131 -0.181,-3.748 -0.543,-4.852c-0.362,-1.104 -1.119,-1.656 -2.272,-1.656c-0.842,-0 -1.466,0.276 -1.872,0.828c-0.407,0.552 -0.669,1.31 -0.787,2.274c-0.118,0.964 -0.177,2.084 -0.177,3.359l-0,10.895c-0,2.317 0.199,4.063 0.598,5.237c0.399,1.174 1.219,1.761 2.46,1.761Z" style="fill:#fff;fill-rule:nonzero;"/><path d="M420.384,397.33l-0,-41.057l7.047,0c1.995,0 3.539,0.311 4.632,0.933c1.093,0.622 1.862,1.61 2.305,2.963c0.443,1.353 0.672,3.134 0.687,5.342l-0,0.886c-0,2.287 -0.203,4.149 -0.609,5.588c-0.407,1.438 -1.186,2.476 -2.339,3.114c0.931,0.389 1.655,1.065 2.172,2.029c0.517,0.965 0.883,2.123 1.097,3.476c0.215,1.353 0.322,2.807 0.322,4.363l-0,0.863c-0.03,2.675 -0.285,4.86 -0.765,6.555c-0.48,1.695 -1.274,2.943 -2.382,3.744c-1.108,0.801 -2.623,1.201 -4.543,1.201l-7.624,0Zm4.587,-3.895l2.815,-0c0.872,-0 1.544,-0.226 2.017,-0.677c0.472,-0.451 0.805,-1.24 0.997,-2.368c0.192,-1.127 0.288,-2.694 0.288,-4.7l0,-1.423c0,-2.535 -0.192,-4.359 -0.576,-5.471c-0.384,-1.112 -1.212,-1.668 -2.482,-1.668l-3.059,0l0,16.307Zm0,-20.016l2.593,0c0.621,0 1.123,-0.074 1.507,-0.221c0.384,-0.148 0.684,-0.448 0.898,-0.899c0.214,-0.451 0.358,-1.119 0.432,-2.006c0.074,-0.886 0.111,-2.076 0.111,-3.569l-0,-1.143c-0,-1.555 -0.111,-2.714 -0.333,-3.476c-0.221,-0.762 -0.572,-1.267 -1.052,-1.516c-0.48,-0.249 -1.112,-0.373 -1.895,-0.373l-2.261,-0l0,13.203Z" style="fill:#fff;fill-rule:nonzero;"/><path d="M440.773,397.33l-0,-34.992l4.565,0l-0,3.896c0.384,-1.353 1.053,-2.41 2.006,-3.172c0.953,-0.762 2.168,-1.144 3.645,-1.144c0.03,0 0.048,0.207 0.056,0.619c0.007,0.412 0.011,0.882 0.011,1.411l-0,2.03c-0.71,-0 -1.419,0.089 -2.128,0.268c-0.709,0.179 -1.374,0.482 -1.994,0.91c-0.621,0.427 -1.153,1.007 -1.596,1.738l-0,28.436l-4.565,0Z" style="fill:#fff;fill-rule:nonzero;"/><path d="M459.942,397.634c-2.009,-0 -3.457,-0.821 -4.343,-2.461c-0.887,-1.641 -1.337,-3.916 -1.352,-6.824l-0,-3.406c-0,-1.539 0.251,-2.819 0.753,-3.837c0.503,-1.019 1.212,-1.87 2.128,-2.555c0.916,-0.684 1.994,-1.302 3.236,-1.854c1.241,-0.552 2.6,-1.139 4.077,-1.761l0,-2.707c0,-1.493 -0.044,-2.702 -0.133,-3.627c-0.088,-0.925 -0.314,-1.606 -0.676,-2.041c-0.362,-0.436 -0.941,-0.653 -1.739,-0.653c-0.783,-0 -1.371,0.217 -1.762,0.653c-0.392,0.435 -0.647,1.12 -0.765,2.053c-0.118,0.933 -0.177,2.146 -0.177,3.639l-0,1.213l-4.521,-0l-0,-1.003c-0,-1.493 0.089,-2.881 0.266,-4.164c0.177,-1.283 0.517,-2.399 1.019,-3.348c0.503,-0.949 1.238,-1.691 2.205,-2.228c0.968,-0.536 2.242,-0.805 3.823,-0.805c1.507,0 2.723,0.253 3.646,0.759c0.923,0.505 1.632,1.248 2.127,2.227c0.495,0.98 0.832,2.189 1.009,3.628c0.177,1.439 0.266,3.099 0.266,4.98l-0,23.818l-4.566,0l0,-3.032c-0.133,0.466 -0.391,0.96 -0.775,1.481c-0.384,0.521 -0.887,0.96 -1.507,1.318c-0.621,0.358 -1.367,0.537 -2.239,0.537Zm1.286,-3.873c0.798,0 1.485,-0.268 2.061,-0.805c0.576,-0.536 0.96,-1.069 1.152,-1.598l0,-13.32c-1.137,0.529 -2.072,1.007 -2.803,1.435c-0.732,0.427 -1.3,0.875 -1.707,1.341c-0.406,0.467 -0.69,1.027 -0.853,1.68c-0.162,0.653 -0.244,1.477 -0.244,2.473l0,3.242c0,1.975 0.163,3.394 0.488,4.257c0.325,0.864 0.96,1.295 1.906,1.295Z" style="fill:#fff;fill-rule:nonzero;"/><path d="M474.902,397.33l-0,-34.992l4.543,0l-0,3.71c0.295,-1.089 0.927,-2.053 1.895,-2.893c0.967,-0.84 2.123,-1.26 3.468,-1.26c1.669,0 2.969,0.622 3.9,1.866c0.931,1.245 1.396,3.134 1.396,5.669l0,27.9l-4.543,0l0,-27.877c0,-1.244 -0.266,-2.146 -0.798,-2.706c-0.531,-0.559 -1.211,-0.839 -2.038,-0.839c-0.606,-0 -1.16,0.14 -1.662,0.419c-0.503,0.28 -0.898,0.716 -1.186,1.307c-0.288,0.591 -0.432,1.353 -0.432,2.286l-0,27.41l-4.543,0Z" style="fill:#fff;fill-rule:nonzero;"/><path d="M501.584,397.634c-1.64,-0 -2.862,-0.506 -3.668,-1.517c-0.805,-1.011 -1.337,-2.383 -1.595,-4.117c-0.259,-1.734 -0.388,-3.69 -0.388,-5.867l-0,-13.227c-0,-2.084 0.181,-3.954 0.543,-5.61c0.362,-1.657 1.005,-2.967 1.928,-3.931c0.923,-0.964 2.212,-1.447 3.867,-1.447c0.872,0 1.651,0.265 2.338,0.794c0.687,0.528 1.208,1.182 1.563,1.959l-0,-8.841l4.565,-0l-0,41.5l-4.565,0l-0,-2.939c-0.444,1.151 -1.072,1.979 -1.884,2.484c-0.813,0.506 -1.714,0.759 -2.704,0.759Zm1.574,-3.896c0.694,-0 1.267,-0.183 1.717,-0.548c0.451,-0.366 0.783,-1.046 0.997,-2.042c0.215,-0.995 0.322,-2.418 0.322,-4.269l-0,-14.043c-0,-2.271 -0.181,-3.989 -0.543,-5.155c-0.362,-1.167 -1.156,-1.75 -2.383,-1.75c-1.108,0.015 -1.846,0.587 -2.216,1.715c-0.369,1.127 -0.554,2.896 -0.554,5.307l0,14.136c0,1.353 0.063,2.528 0.189,3.523c0.125,0.995 0.38,1.765 0.764,2.309c0.384,0.545 0.953,0.817 1.707,0.817Z" style="fill:#fff;fill-rule:nonzero;"/><path d="M299.755,442.717l-0,-30.273l3.949,0l0,30.273l-3.949,0Zm-0,-33.058l-0,-3.794l3.949,-0l0,3.794l-3.949,0Z" style="fill:#fff;fill-rule:nonzero;"/><path d="M309.303,442.717l-0,-30.273l3.93,0l0,3.209c0.256,-0.942 0.802,-1.776 1.639,-2.502c0.838,-0.727 1.838,-1.09 3.001,-1.09c1.444,-0 2.569,0.538 3.374,1.614c0.806,1.077 1.208,2.712 1.208,4.905l0,24.137l-3.93,0l-0,-24.117c-0,-1.077 -0.23,-1.857 -0.69,-2.341c-0.46,-0.485 -1.048,-0.727 -1.764,-0.727c-0.524,0 -1.004,0.121 -1.438,0.363c-0.435,0.243 -0.777,0.619 -1.026,1.131c-0.249,0.511 -0.374,1.17 -0.374,1.977l0,23.714l-3.93,0Z" style="fill:#fff;fill-rule:nonzero;"/><path d="M342.414,442.899c-1.227,-0 -2.153,-0.155 -2.78,-0.464c-0.626,-0.31 -1.048,-0.808 -1.265,-1.494c-0.217,-0.686 -0.326,-1.594 -0.326,-2.724l-0,-22.463l-2.627,0l0,-3.067l2.627,-0l-0,-5.49l3.93,0l0,5.49l3.106,-0l0,3.067l-3.106,0l0,22.099c0,0.512 0.064,0.892 0.192,1.141c0.128,0.249 0.416,0.413 0.863,0.494c0.447,0.081 1.144,0.121 2.09,0.121l-0,3.29l-2.704,-0Z" style="fill:#fff;fill-rule:nonzero;"/><path d="M348.799,442.717l-0,-35.903l3.93,-0l0,8.839c0.256,-0.942 0.796,-1.776 1.621,-2.502c0.824,-0.727 1.811,-1.09 2.962,-1.09c1.444,-0 2.575,0.538 3.393,1.614c0.818,1.077 1.227,2.712 1.227,4.905l0,24.137l-3.93,0l-0,-23.794c-0,-1.238 -0.214,-2.096 -0.642,-2.573c-0.429,-0.478 -1.001,-0.717 -1.716,-0.717c-0.524,0 -1.01,0.131 -1.457,0.394c-0.448,0.262 -0.803,0.672 -1.065,1.231c-0.262,0.558 -0.393,1.281 -0.393,2.169l0,23.29l-3.93,0Z" style="fill:#fff;fill-rule:nonzero;"/><path d="M373.302,443.081c-1.381,-0 -2.489,-0.253 -3.327,-0.757c-0.837,-0.505 -1.473,-1.221 -1.907,-2.15c-0.435,-0.928 -0.726,-2.041 -0.873,-3.34c-0.147,-1.298 -0.22,-2.734 -0.22,-4.309l-0,-10.696c-0,-1.426 0.096,-2.735 0.287,-3.925c0.192,-1.191 0.525,-2.22 0.997,-3.088c0.473,-0.868 1.132,-1.541 1.975,-2.018c0.844,-0.478 1.918,-0.717 3.221,-0.717c1.317,0 2.378,0.242 3.183,0.727c0.805,0.484 1.416,1.167 1.831,2.048c0.415,0.881 0.693,1.931 0.834,3.148c0.141,1.218 0.211,2.553 0.211,4.007l-0,5.711l-8.589,0l-0,6.034c-0,1.911 0.124,3.367 0.373,4.37c0.25,1.002 0.93,1.503 2.042,1.503c0.729,0 1.25,-0.238 1.563,-0.716c0.313,-0.478 0.505,-1.15 0.575,-2.018c0.07,-0.868 0.106,-1.894 0.106,-3.078l-0,-2.442l3.853,0l0,1.292c0,1.574 -0.06,3 -0.182,4.278c-0.121,1.278 -0.38,2.375 -0.776,3.29c-0.397,0.915 -1.007,1.618 -1.831,2.109c-0.825,0.491 -1.94,0.737 -3.346,0.737Zm-2.397,-18.164l4.679,-0l-0,-3.855c-0,-1.211 -0.039,-2.23 -0.116,-3.058c-0.076,-0.827 -0.262,-1.453 -0.556,-1.876c-0.294,-0.424 -0.779,-0.636 -1.457,-0.636c-0.754,-0 -1.313,0.242 -1.677,0.726c-0.365,0.485 -0.601,1.154 -0.71,2.008c-0.108,0.855 -0.163,1.847 -0.163,2.977l0,3.714Z" style="fill:#fff;fill-rule:nonzero;"/><path d="M400.144,443.141c-1.662,0 -2.981,-0.346 -3.959,-1.039c-0.978,-0.693 -1.678,-1.746 -2.1,-3.159c-0.421,-1.412 -0.632,-3.195 -0.632,-5.348l-0,-26.398l3.968,0l0,26.297c0,1.278 0.045,2.375 0.135,3.29c0.089,0.915 0.326,1.614 0.709,2.099c0.384,0.484 1.01,0.726 1.879,0.726c0.882,0 1.508,-0.242 1.879,-0.726c0.371,-0.485 0.598,-1.181 0.681,-2.089c0.083,-0.908 0.124,-2.002 0.124,-3.28l0,-26.317l3.95,0l-0,26.398c-0,2.153 -0.205,3.936 -0.614,5.348c-0.409,1.413 -1.096,2.466 -2.061,3.159c-0.965,0.693 -2.285,1.039 -3.959,1.039Z" style="fill:#fff;fill-rule:nonzero;"/><path d="M412.012,442.717l0,-35.52l3.969,0l-0,16.933l6.001,-16.933l3.988,0l-6.289,17.538l6.73,17.982l-4.141,0l-6.251,-16.993l0,16.993l-4.007,0Z" style="fill:#fff;fill-rule:nonzero;"/></g></g></g></svg>