<?xml version="1.0" encoding="UTF-8" standalone="no"?>
<!DOCTYPE svg PUBLIC "-//W3C//DTD SVG 1.1//EN" "http://www.w3.org/Graphics/SVG/1.1/DTD/svg11.dtd">
<svg width="100%" height="100%" viewBox="0 0 851 851" version="1.1" xmlns="http://www.w3.org/2000/svg" xmlns:xlink="http://www.w3.org/1999/xlink" xml:space="preserve" xmlns:serif="http://www.serif.com/" style="fill-rule:evenodd;clip-rule:evenodd;stroke-linejoin:round;stroke-miterlimit:2;">
    <g id="Behance" transform="matrix(1.99004,0,0,1.99004,-6565,-251)">
        <path d="M3512.59,553.452C3394.58,553.452 3298.92,457.792 3298.92,339.79C3298.92,221.788 3394.58,126.128 3512.59,126.128C3630.59,126.128 3726.25,221.788 3726.25,339.79C3726.25,457.792 3630.59,553.452 3512.59,553.452ZM3627.71,279.226L3627.71,259.086L3555.12,259.086L3555.12,279.226L3627.71,279.226ZM3512.19,348.735C3506.73,340.763 3498.48,335.169 3487.43,331.952C3495.4,328.176 3501.56,323.141 3505.61,317.127C3509.67,311.113 3511.77,303.561 3511.77,294.47C3511.77,286.079 3510.37,279.086 3507.57,273.352C3504.91,267.617 3501,263.142 3495.96,259.645C3490.93,256.289 3484.91,253.771 3477.78,252.233C3470.79,250.694 3462.96,249.995 3454.43,249.995L3369.81,249.995L3369.81,429.573L3456.94,429.573C3464.91,429.713 3472.75,428.594 3480.44,426.636C3488.13,424.538 3494.84,421.461 3500.86,417.266C3506.87,413.07 3511.49,407.755 3515.12,401.042C3518.62,394.469 3520.3,386.637 3520.3,377.546C3520.3,366.357 3517.64,356.707 3512.19,348.735ZM3480.86,375.308C3480.86,379.923 3480.02,383.84 3478.48,386.777C3476.8,389.853 3474.7,392.231 3472.05,394.049C3469.39,395.727 3466.31,396.986 3462.68,397.825C3459.04,398.525 3455.4,398.944 3451.63,398.944L3409.39,398.944L3409.39,349.574L3452.47,349.574C3461,349.574 3467.85,351.532 3473.03,355.588C3478.2,359.504 3480.86,366.078 3480.86,375.308ZM3409.39,322.721L3409.39,280.624L3446.31,280.624C3449.81,280.624 3453.17,281.044 3456.52,281.603C3459.88,282.163 3462.68,283.142 3465.19,284.68C3467.71,286.218 3469.81,288.316 3471.21,290.974C3472.75,293.631 3473.59,297.127 3473.59,301.323C3473.59,308.876 3471.35,314.33 3466.73,317.687C3462.26,321.043 3456.38,322.721 3449.39,322.721L3409.39,322.721ZM3621.41,386.077C3620.16,390.133 3617.08,393.909 3611.76,397.546C3606.59,401.182 3600.44,403 3593.16,403C3583.09,403 3575.4,400.343 3570.09,395.168C3564.63,389.993 3561.7,381.602 3561.28,369.994L3655.12,369.994C3655.82,359.924 3654.98,350.274 3652.6,341.043C3650.23,331.812 3646.45,323.7 3641.14,316.428C3635.82,309.155 3629.11,303.421 3620.86,299.225C3612.6,294.89 3602.95,292.792 3591.91,292.792C3582.12,292.792 3573.02,294.47 3564.91,298.106C3556.8,301.603 3549.81,306.358 3543.93,312.512C3538.06,318.666 3533.44,325.938 3530.37,334.33C3527.15,342.721 3525.47,351.672 3525.47,361.462C3525.47,371.532 3527.01,380.763 3530.23,389.154C3533.31,397.546 3537.64,404.678 3543.37,410.692C3549.11,416.846 3556.1,421.461 3564.21,424.678C3572.47,428.035 3581.7,429.573 3591.91,429.573C3606.73,429.573 3619.32,426.217 3629.67,419.503C3640.02,412.79 3647.85,401.741 3652.88,386.077L3621.41,386.077ZM3561.28,347.337C3561.42,344.819 3561.98,342.022 3562.95,338.805C3563.79,335.588 3565.47,332.512 3567.71,329.714C3569.95,326.917 3573.02,324.54 3576.8,322.582C3580.44,320.624 3585.19,319.645 3590.93,319.645C3599.6,319.645 3606.17,322.022 3610.51,326.777C3614.7,331.393 3617.64,338.246 3619.46,347.337L3561.28,347.337Z" style="fill:white;"/>
    </g>
</svg>
