<?xml version="1.0" encoding="UTF-8" standalone="no"?>
<!DOCTYPE svg PUBLIC "-//W3C//DTD SVG 1.1//EN" "http://www.w3.org/Graphics/SVG/1.1/DTD/svg11.dtd">
<svg width="100%" height="100%" viewBox="0 0 851 851" version="1.1" xmlns="http://www.w3.org/2000/svg" xmlns:xlink="http://www.w3.org/1999/xlink" xml:space="preserve" xmlns:serif="http://www.serif.com/" style="fill-rule:evenodd;clip-rule:evenodd;stroke-linejoin:round;stroke-miterlimit:2;">
    <g id="Email" transform="matrix(1.99006,0,0,1.99006,-8665.79,-1235.83)">
        <path d="M4568.2,1048.34C4450.2,1048.34 4354.54,952.684 4354.54,834.682C4354.54,716.679 4450.2,621.02 4568.2,621.02C4686.2,621.02 4781.86,716.679 4781.86,834.682C4781.86,952.684 4686.2,1048.34 4568.2,1048.34ZM4606.6,800.136L4606.6,722.905L4529.25,722.905L4529.25,800.136L4489.19,800.136L4567.78,901.48L4646.36,800.136L4606.6,800.136ZM4464.97,946.723L4670.58,946.723L4670.58,897.653L4649.01,897.653L4649.01,926.521L4486.54,926.521L4486.54,897.653L4464.97,897.653L4464.97,946.723Z" style="fill:rgb(31,54,81);"/>
    </g>
</svg>
