<?xml version="1.0" encoding="UTF-8" standalone="no"?>
<!DOCTYPE svg PUBLIC "-//W3C//DTD SVG 1.1//EN" "http://www.w3.org/Graphics/SVG/1.1/DTD/svg11.dtd">
<svg width="100%" height="100%" viewBox="0 0 851 851" version="1.1" xmlns="http://www.w3.org/2000/svg" xmlns:xlink="http://www.w3.org/1999/xlink" xml:space="preserve" xmlns:serif="http://www.serif.com/" style="fill-rule:evenodd;clip-rule:evenodd;stroke-linejoin:round;stroke-miterlimit:2;">
    <g id="Email" transform="matrix(1.99006,0,0,1.99006,-8665.79,-1235.83)">
        <path d="M4568.2,1048.34C4450.2,1048.34 4354.54,952.684 4354.54,834.682C4354.54,716.679 4450.2,621.02 4568.2,621.02C4686.2,621.02 4781.86,716.679 4781.86,834.682C4781.86,952.684 4686.2,1048.34 4568.2,1048.34ZM4706.81,909.112L4628.85,845.083L4575.52,888.757C4574.02,889.979 4572.18,890.62 4570.29,890.62C4569.68,890.62 4569.07,890.547 4568.47,890.415C4567.02,890.085 4565.71,889.37 4564.65,888.38L4537.43,866.004L4511.78,844.908L4433.8,908.875C4436.85,916.669 4442.84,922.74 4450.49,926.018C4450.82,926.108 4451.15,925.932 4451.49,925.932L4689.07,925.932C4689.39,925.932 4689.72,926.108 4690.06,926.026C4697.61,922.756 4703.69,916.807 4706.81,909.112ZM4497.43,834.277L4429.59,778.844L4429.59,889.701L4497.43,834.277ZM4705.86,780.041L4639.45,834.392L4705.86,888.9L4705.86,780.041ZM4706.64,759.288C4703.61,751.998 4698,745.656 4691.1,743.315L4449.43,743.315C4442.46,745.656 4436.81,752.113 4433.8,759.511L4512.14,823.907L4517.01,827.886C4517.12,827.977 4517.23,828.075 4517.34,828.174L4517.35,828.19L4548.15,853.485L4570.25,871.611L4623.08,828.24C4623.33,828.001 4623.59,827.768 4623.86,827.57L4706.64,759.288Z" style="fill:rgb(0,171,191);"/>
    </g>
</svg>
