<?xml version="1.0" encoding="UTF-8" standalone="no"?>
<!DOCTYPE svg PUBLIC "-//W3C//DTD SVG 1.1//EN" "http://www.w3.org/Graphics/SVG/1.1/DTD/svg11.dtd">
<svg width="100%" height="100%" viewBox="0 0 851 851" version="1.1" xmlns="http://www.w3.org/2000/svg" xmlns:xlink="http://www.w3.org/1999/xlink" xml:space="preserve" xmlns:serif="http://www.serif.com/" style="fill-rule:evenodd;clip-rule:evenodd;stroke-linejoin:round;stroke-miterlimit:2;">
    <g id="Behance" transform="matrix(1.99004,0,0,1.99004,-6565,-251)">
        <path d="M3512.59,553.452C3394.58,553.452 3298.92,457.792 3298.92,339.79C3298.92,221.788 3394.58,126.128 3512.59,126.128C3630.59,126.128 3726.25,221.788 3726.25,339.79C3726.25,457.792 3630.59,553.452 3512.59,553.452ZM3566.64,476.503C3566.64,467.803 3554.98,472.777 3554.98,468.193C3554.98,462.466 3555.26,443.845 3555.26,420.642C3555.26,404.313 3549.86,394.002 3543.61,388.56C3581.99,384.261 3622.09,369.654 3622.09,303.194C3622.09,284.288 3615.55,268.82 3604.45,256.79C3606.16,252.494 3612.14,234.73 3602.75,210.955C3602.75,210.955 3588.25,206.371 3555.55,228.715C3541.9,224.993 3527.12,222.985 3512.61,222.985C3498.11,223.001 3483.67,224.928 3469.68,228.715C3436.98,206.371 3422.48,210.955 3422.48,210.955C3413.09,234.73 3419.06,252.494 3420.77,256.79C3409.96,268.82 3403.14,284.288 3403.14,303.194C3403.14,369.654 3443.23,384.549 3481.34,388.56C3476.5,392.856 3471.95,400.59 3470.53,411.762C3460.58,416.347 3435.84,423.792 3420.49,397.44C3420.49,397.44 3411.39,380.826 3394.04,379.68C3394.04,379.68 3377.26,379.68 3392.9,390.279C3392.9,390.279 3404.28,395.433 3411.95,415.485C3411.95,415.485 3421.9,446.425 3469.68,436.111C3469.68,450.436 3469.96,464.185 3469.96,468.196C3469.96,472.777 3458.3,467.796 3458.3,476.5C3458.3,495.556 3566.64,495.366 3566.64,476.503Z" style="fill:rgb(31,54,81);"/>
    </g>
</svg>
