<?xml version="1.0" encoding="UTF-8" standalone="no"?>
<!DOCTYPE svg PUBLIC "-//W3C//DTD SVG 1.1//EN" "http://www.w3.org/Graphics/SVG/1.1/DTD/svg11.dtd">
<svg width="100%" height="100%" viewBox="0 0 851 851" version="1.1" xmlns="http://www.w3.org/2000/svg" xmlns:xlink="http://www.w3.org/1999/xlink" xml:space="preserve" xmlns:serif="http://www.serif.com/" style="fill-rule:evenodd;clip-rule:evenodd;stroke-linejoin:round;stroke-miterlimit:2;">
    <g id="Instagram" transform="matrix(1.99004,0,0,1.99004,-262.839,-251)">
        <path d="M345.742,553.452C227.74,553.452 132.08,457.792 132.08,339.79C132.08,221.788 227.74,126.128 345.742,126.128C463.743,126.128 559.404,221.788 559.404,339.79C559.404,457.792 463.743,553.452 345.742,553.452ZM480.114,271.745C478.276,253.769 471.385,237.862 458.018,225.122C443.964,211.71 426.77,205.786 407.925,204.787C375.817,203.037 299.573,201.94 272.802,206.311C242.214,211.3 222.159,229.151 213.704,259.372C207.197,282.617 208.501,389.75 212.303,412.728C217.487,444.145 236.056,464.289 267.195,472.306C288.744,477.868 394.649,477.144 418.417,473.288C449.859,468.203 470.083,449.734 478.254,418.653C484.496,394.791 482.3,293.268 480.114,271.745ZM454.983,408.256C451.33,432.123 435.494,446.903 411.502,449.528C389.468,451.947 291.055,453.284 270.616,447.571C251.066,442.107 239.883,428.667 236.63,408.984C233.53,390.186 232.75,296.26 236.576,271.12C240.175,247.459 256.005,232.697 279.86,230.029C304.063,227.314 391.15,227.007 414.338,230.558C438.15,234.21 452.911,250.08 455.528,274.109C457.969,296.526 458.674,384.161 454.983,408.256ZM345.757,269.763C307.071,269.746 275.694,301.093 275.677,339.782C275.66,378.468 307.01,409.845 345.697,409.862C384.383,409.879 415.759,378.529 415.776,339.842C415.793,301.154 384.445,269.779 345.757,269.763ZM345.287,385.065C320.27,384.842 300.17,364.381 300.392,339.363C300.613,314.346 321.075,294.247 346.091,294.468C371.109,294.69 391.21,315.15 390.987,340.169C390.764,365.184 370.305,385.285 345.287,385.065ZM434.938,267.104C434.961,258.046 427.634,250.686 418.577,250.664C409.518,250.644 402.157,257.968 402.138,267.027C402.116,276.085 409.442,283.445 418.499,283.467C427.558,283.487 434.917,276.162 434.938,267.104Z" style="fill:rgb(52,183,118);"/>
    </g>
</svg>
