<?xml version="1.0" encoding="UTF-8" standalone="no"?>
<!DOCTYPE svg PUBLIC "-//W3C//DTD SVG 1.1//EN" "http://www.w3.org/Graphics/SVG/1.1/DTD/svg11.dtd">
<svg width="100%" height="100%" viewBox="0 0 851 851" version="1.1" xmlns="http://www.w3.org/2000/svg" xmlns:xlink="http://www.w3.org/1999/xlink" xml:space="preserve" xmlns:serif="http://www.serif.com/" style="fill-rule:evenodd;clip-rule:evenodd;stroke-linejoin:round;stroke-miterlimit:2;">
    <g id="LinkedIn" transform="matrix(1.99004,0,0,1.99004,-6565,-251)">
        <path d="M3512.59,553.452C3394.58,553.452 3298.92,457.792 3298.92,339.79C3298.92,221.788 3394.58,126.128 3512.59,126.128C3630.59,126.128 3726.25,221.788 3726.25,339.79C3726.25,457.792 3630.59,553.452 3512.59,553.452ZM3414.59,212.17C3374.32,212.352 3374.36,273.439 3414.58,273.631C3454.75,273.437 3454.79,212.365 3414.59,212.17ZM3640.76,380.55L3640.77,380.019L3640.76,380.027C3640.42,333.483 3630.76,290.958 3576.1,292.679C3550.28,292.679 3533,306.804 3525.91,320.224L3525.21,320.224L3525.21,296.9L3474.37,296.9L3474.37,467.41L3527.35,467.41L3527.35,383.068C3527.35,360.834 3531.55,339.295 3559.14,339.295C3586.3,339.295 3586.69,364.722 3586.69,384.513L3586.69,467.41L3639.65,467.41C3639.75,455.742 3640.72,390.782 3640.76,380.55ZM3388.04,467.41L3441.12,467.41L3441.12,296.9L3388.04,296.9L3388.04,467.41Z" style="fill:rgb(31,54,81);"/>
    </g>
</svg>
