<?xml version="1.0" encoding="UTF-8" standalone="no"?>
<!DOCTYPE svg PUBLIC "-//W3C//DTD SVG 1.1//EN" "http://www.w3.org/Graphics/SVG/1.1/DTD/svg11.dtd">
<svg width="100%" height="100%" viewBox="0 0 851 851" version="1.1" xmlns="http://www.w3.org/2000/svg" xmlns:xlink="http://www.w3.org/1999/xlink" xml:space="preserve" xmlns:serif="http://www.serif.com/" style="fill-rule:evenodd;clip-rule:evenodd;stroke-linejoin:round;stroke-miterlimit:2;">
    <g transform="matrix(1.99143,0,0,1.99143,-3416.31,-1236.7)">
        <g id="Email">
            <path d="M1929.16,1048.34C1811.16,1048.34 1715.5,952.684 1715.5,834.682C1715.5,716.679 1811.16,621.02 1929.16,621.02C2047.17,621.02 2142.83,716.679 2142.83,834.682C2142.83,952.684 2047.17,1048.34 1929.16,1048.34ZM2030.57,785.95C2030.65,784.256 2030.69,782.55 2030.69,780.837C2030.69,724.762 1985.24,679.308 1929.16,679.308C1873.09,679.308 1827.63,724.762 1827.63,780.837C1827.63,782.55 1827.68,784.256 1827.76,785.95C1824.44,843.925 1859.71,920.865 1929.16,990.055C1998.61,920.865 2033.89,843.925 2030.57,785.95ZM1929.16,833.609C1900.02,833.609 1876.39,809.982 1876.39,780.837C1876.39,751.689 1900.02,728.064 1929.16,728.064C1958.31,728.064 1981.94,751.689 1981.94,780.837C1981.94,809.982 1958.31,833.609 1929.16,833.609Z" style="fill:rgb(31,54,81);"/>
        </g>
    </g>
</svg>
