<?xml version="1.0" encoding="UTF-8" standalone="no"?>
<!DOCTYPE svg PUBLIC "-//W3C//DTD SVG 1.1//EN" "http://www.w3.org/Graphics/SVG/1.1/DTD/svg11.dtd">
<svg width="100%" height="100%" viewBox="0 0 851 851" version="1.1" xmlns="http://www.w3.org/2000/svg" xmlns:xlink="http://www.w3.org/1999/xlink" xml:space="preserve" xmlns:serif="http://www.serif.com/" style="fill-rule:evenodd;clip-rule:evenodd;stroke-linejoin:round;stroke-miterlimit:2;">
    <g id="Email" transform="matrix(2.46008,0,0,2.46008,-379.507,-1641.45)">
        <path d="M327.107,1012.93C231.652,1012.93 154.269,935.549 154.269,840.092C154.269,744.635 231.652,667.252 327.107,667.252C422.562,667.252 499.946,744.635 499.946,840.092C499.946,935.549 422.562,1012.93 327.107,1012.93ZM438.57,799.704C436.028,774.768 414.963,755.303 389.347,755.303L265.11,755.303C237.786,755.303 215.624,777.455 215.624,804.789L215.624,864.579C215.624,890.107 234.962,911.114 259.793,913.773L251.632,936.216C249.546,941.931 255.863,946.996 260.627,943.425L299.788,914.054L389.347,914.054C416.671,914.054 438.832,891.902 438.832,864.579L438.832,804.789C438.832,803.071 438.745,801.383 438.57,799.704ZM270.087,853.197C259.879,853.197 251.574,844.892 251.574,834.684C251.574,824.47 259.879,816.161 270.087,816.161C280.301,816.161 288.611,824.47 288.611,834.684C288.611,844.892 280.301,853.197 270.087,853.197ZM327.228,853.197C323.953,853.197 320.726,852.323 317.898,850.669C312.24,847.379 308.715,841.25 308.715,834.684C308.715,824.47 317.02,816.161 327.228,816.161C327.918,816.161 328.61,816.202 329.345,816.285C338.693,817.354 345.742,825.263 345.742,834.684C345.742,844.892 337.437,853.197 327.228,853.197ZM384.369,853.197C374.155,853.197 365.846,844.892 365.846,834.684C365.846,824.47 374.155,816.161 384.369,816.161C394.578,816.161 402.883,824.47 402.883,834.684C402.883,844.892 394.578,853.197 384.369,853.197Z" style="fill:rgb(31,54,81);"/>
    </g>
</svg>
