<?xml version="1.0" encoding="UTF-8" standalone="no"?>
<!DOCTYPE svg PUBLIC "-//W3C//DTD SVG 1.1//EN" "http://www.w3.org/Graphics/SVG/1.1/DTD/svg11.dtd">
<svg width="100%" height="100%" viewBox="0 0 851 851" version="1.1" xmlns="http://www.w3.org/2000/svg" xmlns:xlink="http://www.w3.org/1999/xlink" xml:space="preserve" xmlns:serif="http://www.serif.com/" style="fill-rule:evenodd;clip-rule:evenodd;stroke-linejoin:round;stroke-miterlimit:2;">
    <g transform="matrix(1.99148,0,0,1.99148,-4467.51,-1236.75)">
        <g id="Email">
            <path d="M2456.97,1048.34C2338.97,1048.34 2243.31,952.684 2243.31,834.682C2243.31,716.679 2338.97,621.02 2456.97,621.02C2574.97,621.02 2670.63,716.679 2670.63,834.682C2670.63,952.684 2574.97,1048.34 2456.97,1048.34ZM2444.93,765.376C2439.67,765.376 2435.4,769.652 2435.4,774.908C2435.4,780.162 2439.67,784.437 2444.93,784.437C2461.9,784.437 2477.86,791.049 2489.87,803.054C2501.88,815.062 2508.49,831.024 2508.49,847.999C2508.49,853.254 2512.76,857.531 2518.02,857.531C2520.57,857.531 2522.96,856.539 2524.74,854.754C2526.55,852.956 2527.55,850.557 2527.55,847.999C2527.55,825.93 2518.96,805.182 2503.35,789.577C2487.75,773.971 2467,765.376 2444.93,765.376ZM2524.22,940.534C2534.31,930.904 2533.37,914.999 2522.31,908.086L2489.15,887.354C2488.13,886.721 2487.08,886.152 2485.99,885.683C2483.09,884.446 2479.3,883.414 2475.07,883.942C2468.82,884.721 2465.67,888.39 2462.71,890.013C2450.19,896.877 2421.51,877.917 2405.5,853.807C2396.03,839.55 2385.36,815.003 2393.74,805.019C2396,802.321 2400.18,800.059 2402.22,794.171C2403.64,790.092 2403.39,786.109 2402.73,782.949C2402.5,781.85 2402.18,780.775 2401.79,779.722L2388.32,742.973C2383.84,730.722 2368.47,726.53 2356.96,734.419C2356.88,734.474 2356.82,734.516 2356.47,734.762C2332.83,751.536 2328.82,764.919 2328.75,765.886C2328.75,765.946 2328.74,766.016 2328.74,766.016L2328.74,766.041C2328.66,767.633 2328.75,769.229 2328.98,770.806C2332.37,793.351 2342.45,838.425 2376.85,882.685C2414.68,931.357 2461.14,952.312 2482.76,960.39C2484.29,960.959 2485.86,961.39 2487.46,961.638C2487.47,961.639 2487.48,961.641 2487.49,961.642C2487.49,961.642 2487.56,961.652 2487.62,961.66C2488.58,961.79 2502.51,960.623 2523.78,940.946C2524.09,940.657 2524.15,940.601 2524.22,940.534ZM2544.79,748.142C2518.71,722.06 2484.03,707.695 2447.15,707.695C2441.89,707.695 2437.62,711.967 2437.62,717.219C2437.62,722.467 2441.89,726.737 2447.15,726.737C2478.94,726.737 2508.83,739.12 2531.32,761.605C2553.81,784.096 2566.19,813.991 2566.19,845.781C2566.19,851.033 2570.46,855.305 2575.71,855.305C2578.25,855.305 2580.64,854.315 2582.43,852.524C2584.24,850.729 2585.23,848.335 2585.23,845.781C2585.23,808.898 2570.87,774.222 2544.79,748.142Z" style="fill:rgb(31,54,81);"/>
        </g>
    </g>
</svg>
