<?xml version="1.0" encoding="UTF-8" standalone="no"?>
<!DOCTYPE svg PUBLIC "-//W3C//DTD SVG 1.1//EN" "http://www.w3.org/Graphics/SVG/1.1/DTD/svg11.dtd">
<svg width="100%" height="100%" viewBox="0 0 1838 497" version="1.1" xmlns="http://www.w3.org/2000/svg" xmlns:xlink="http://www.w3.org/1999/xlink" xml:space="preserve" xmlns:serif="http://www.serif.com/" style="fill-rule:evenodd;clip-rule:evenodd;stroke-linejoin:round;stroke-miterlimit:2;">
    <g transform="matrix(7.97604,0,0,7.79579,-12146.3,-13655.7)">
        <g transform="matrix(0.736994,0,0,0.736994,1076.08,680.516)">
            <path d="M782.575,1507.35L781.718,1507.35L781.718,1498.93L782.575,1498.93C784.61,1498.93 785.396,1500.82 785.396,1503.14C785.396,1505.47 784.61,1507.35 782.575,1507.35ZM781.718,1485.7L782.466,1485.7C783.418,1485.7 784.27,1486.64 784.362,1487.92C784.469,1489.39 783.613,1490.64 782.548,1490.64L781.718,1490.64L781.718,1485.7ZM788.014,1494.76C790.016,1492.65 790.623,1490.92 790.623,1488.17C790.623,1484.13 787.348,1480.85 783.308,1480.85L775.591,1480.85L775.591,1512.2L783.308,1512.2C788.285,1512.2 791.162,1508.16 791.162,1503.19C791.162,1497.39 788.014,1494.76 788.014,1494.76Z" style="fill:rgb(52,183,118);fill-rule:nonzero;"/>
        </g>
        <g transform="matrix(0.736994,0,0,0.736994,1076.08,680.516)">
            <path d="M890.819,1485.84L897.122,1485.84L897.122,1489.19C897.385,1488.11 897.842,1487.23 898.491,1486.56C899.139,1485.88 900.003,1485.55 901.083,1485.55C902.86,1485.55 904.174,1486.09 905.027,1487.19C905.879,1488.28 906.306,1489.83 906.306,1491.85L906.306,1512.2L900.11,1512.2L900.11,1492.5C900.11,1491.92 899.996,1491.43 899.769,1491.02C899.541,1490.61 899.187,1490.41 898.706,1490.41C898.059,1490.41 897.632,1490.7 897.428,1491.29C897.224,1491.88 897.122,1492.67 897.122,1493.65L897.122,1512.2L890.819,1512.2L890.819,1485.84Z" style="fill:rgb(52,183,118);fill-rule:nonzero;"/>
        </g>
        <g transform="matrix(0.736994,0,0,0.736994,1076.08,680.516)">
            <path d="M749.085,1485.84L755.388,1485.84L755.388,1489.19C755.651,1488.11 756.108,1487.23 756.756,1486.56C757.405,1485.88 758.268,1485.55 759.349,1485.55C761.125,1485.55 762.44,1486.09 763.292,1487.19C764.145,1488.28 764.572,1489.83 764.572,1491.85L764.572,1512.2L758.376,1512.2L758.376,1492.5C758.376,1491.92 758.262,1491.43 758.034,1491.02C757.806,1490.61 757.452,1490.41 756.972,1490.41C756.324,1490.41 755.897,1490.7 755.693,1491.29C755.489,1491.88 755.388,1492.67 755.388,1493.65L755.388,1512.2L749.085,1512.2L749.085,1485.84Z" style="fill:rgb(52,183,118);fill-rule:nonzero;"/>
        </g>
        <g transform="matrix(0.736994,0,0,0.736994,1076.08,680.516)">
            <path d="M723.163,1503.85L723.163,1489.15C723.163,1487.6 721.902,1486.34 720.348,1486.34L720.348,1506.66C721.902,1506.66 723.163,1505.4 723.163,1503.85ZM721.42,1512.2L714.043,1512.2L714.043,1480.85L721.42,1480.85C725.865,1480.85 729.467,1484.46 729.467,1488.9L729.467,1504.15C729.467,1508.6 725.865,1512.2 721.42,1512.2Z" style="fill:rgb(52,183,118);fill-rule:nonzero;"/>
        </g>
        <g transform="matrix(0.736994,0,0,0.736994,1076.08,680.516)">
            <path d="M801.772,1496.46L801.772,1493.08C801.772,1491.18 801.304,1490.23 800.369,1490.23C799.311,1490.23 798.784,1491.18 798.784,1493.08L798.784,1496.46L801.772,1496.46ZM794.282,1510.25C793.106,1508.77 792.517,1506.54 792.517,1503.59L792.517,1493C792.517,1490.58 793.213,1488.73 794.607,1487.46C795.999,1486.18 797.943,1485.55 800.44,1485.55C805.506,1485.55 808.039,1488.03 808.039,1493L808.039,1494.91C808.039,1496.83 808.016,1498.39 807.968,1499.59L798.819,1499.59L798.819,1504.71C798.819,1505.62 798.916,1506.34 799.108,1506.85C799.3,1507.37 799.708,1507.62 800.333,1507.62C800.812,1507.62 801.154,1507.48 801.359,1507.19C801.562,1506.9 801.684,1506.58 801.719,1506.2C801.755,1505.83 801.772,1505.28 801.772,1504.56L801.772,1502.01L808.039,1502.01L808.039,1503.52C808.039,1506.59 807.445,1508.86 806.257,1510.31C805.069,1511.76 803.021,1512.49 800.116,1512.49C797.403,1512.49 795.458,1511.74 794.282,1510.25Z" style="fill:rgb(52,183,118);fill-rule:nonzero;"/>
        </g>
        <g transform="matrix(0.736994,0,0,0.736994,1076.08,680.516)">
            <path d="M818.61,1506.99C818.813,1506.6 818.916,1506.11 818.916,1505.54L818.916,1498.19C817.979,1498.55 817.289,1499.01 816.845,1499.56C816.401,1500.11 816.179,1500.88 816.179,1501.86L816.179,1505.25C816.179,1506.81 816.647,1507.59 817.584,1507.59C818.063,1507.59 818.406,1507.39 818.61,1506.99ZM810.902,1510.45C810.146,1509.1 809.768,1507.16 809.768,1504.64C809.768,1502.57 810.039,1500.99 810.578,1499.88C811.119,1498.78 811.869,1497.97 812.829,1497.45C813.789,1496.93 815.254,1496.37 817.223,1495.74L818.952,1495.16L818.952,1492.46C818.952,1491.77 818.813,1491.23 818.538,1490.86C818.261,1490.49 817.932,1490.3 817.547,1490.3C817.211,1490.3 816.918,1490.46 816.665,1490.77C816.413,1491.08 816.287,1491.5 816.287,1492.03L816.287,1493.62L810.165,1493.62L810.165,1492.75C810.165,1490.16 810.771,1488.31 811.983,1487.21C813.196,1486.1 815.17,1485.55 817.908,1485.55C820.092,1485.55 821.869,1486.12 823.237,1487.26C824.607,1488.4 825.29,1490.01 825.29,1492.1L825.29,1512.2L819.025,1512.2L819.025,1509.07C818.712,1510.15 818.213,1510.99 817.53,1511.59C816.845,1512.19 816.035,1512.49 815.099,1512.49C813.057,1512.49 811.659,1511.81 810.902,1510.45Z" style="fill:rgb(52,183,118);fill-rule:nonzero;"/>
        </g>
        <g transform="matrix(0.736994,0,0,0.736994,1076.08,680.516)">
            <path d="M845.675,1485.84L851.832,1485.84L851.832,1488.9C852.12,1487.77 852.612,1486.93 853.31,1486.38C854.006,1485.82 854.99,1485.55 856.263,1485.55C857.294,1485.55 858.19,1485.78 858.946,1486.25C859.702,1486.72 860.235,1487.36 860.548,1488.18C861.076,1487.27 861.665,1486.6 862.313,1486.18C862.96,1485.76 863.862,1485.55 865.014,1485.55C867.078,1485.55 868.513,1486.18 869.317,1487.44C870.121,1488.7 870.524,1490.53 870.524,1492.93L870.452,1512.2L864.113,1512.2L864.113,1492.82C864.113,1491.12 863.682,1490.27 862.816,1490.27C862.217,1490.27 861.785,1490.56 861.521,1491.15C861.255,1491.74 861.124,1492.44 861.124,1493.26L861.124,1512.2L854.822,1512.2L854.822,1492.82C854.822,1492.08 854.743,1491.48 854.588,1491.02C854.431,1490.57 854.101,1490.34 853.598,1490.34C852.949,1490.34 852.492,1490.66 852.228,1491.29C851.964,1491.93 851.832,1492.69 851.832,1493.58L851.832,1512.2L845.675,1512.2L845.675,1485.84Z" style="fill:rgb(52,183,118);fill-rule:nonzero;"/>
        </g>
        <g transform="matrix(0.736994,0,0,0.736994,1076.08,680.516)">
            <path d="M909.826,1511.44C909.202,1510.75 908.89,1509.63 908.89,1508.09L908.89,1481.26L915.012,1481.26L915.012,1486.84L918.878,1486.84L918.878,1491.63L915.012,1491.63L915.012,1506.44C915.012,1506.89 915.048,1507.23 915.121,1507.45C915.192,1507.66 915.383,1507.77 915.696,1507.77C917.11,1507.77 918.878,1507.42 918.878,1507.42L918.878,1511.75C918.878,1511.75 915.687,1512.49 913.248,1512.49C911.59,1512.49 910.45,1512.14 909.826,1511.44Z" style="fill:rgb(52,183,118);fill-rule:nonzero;"/>
        </g>
        <g transform="matrix(0.736994,0,0,0.736994,1076.08,680.516)">
            <path d="M833.883,1485.84L833.883,1505.22C833.883,1506.03 834.533,1506.69 835.342,1506.7C836.166,1506.71 836.839,1506.04 836.839,1505.22L836.839,1485.84L843.091,1485.84L843.091,1504.76C843.091,1509.03 839.63,1512.49 835.361,1512.49C831.092,1512.49 827.631,1509.03 827.631,1504.76L827.631,1485.84L833.883,1485.84Z" style="fill:rgb(52,183,118);fill-rule:nonzero;"/>
        </g>
        <g transform="matrix(0.736994,0,0,0.736994,1076.08,680.516)">
            <path d="M739.992,1506.99C740.195,1506.6 740.298,1506.11 740.298,1505.54L740.298,1498.19C739.361,1498.55 738.672,1499.01 738.227,1499.56C737.783,1500.11 737.561,1500.88 737.561,1501.86L737.561,1505.25C737.561,1506.81 738.029,1507.59 738.966,1507.59C739.445,1507.59 739.788,1507.39 739.992,1506.99ZM732.285,1510.45C731.528,1509.1 731.15,1507.16 731.15,1504.64C731.15,1502.57 731.421,1500.99 731.96,1499.88C732.501,1498.78 733.251,1497.97 734.211,1497.45C735.171,1496.93 736.636,1496.37 738.605,1495.74L740.334,1495.16L740.334,1492.46C740.334,1491.77 740.195,1491.23 739.92,1490.86C739.643,1490.49 739.314,1490.3 738.929,1490.3C738.593,1490.3 738.3,1490.46 738.047,1490.77C737.795,1491.08 737.669,1491.5 737.669,1492.03L737.669,1493.62L731.547,1493.62L731.547,1492.75C731.547,1490.16 732.153,1488.31 733.365,1487.21C734.578,1486.1 736.552,1485.55 739.29,1485.55C741.475,1485.55 743.251,1486.12 744.619,1487.26C745.989,1488.4 746.672,1490.01 746.672,1492.1L746.672,1512.2L740.407,1512.2L740.407,1509.07C740.094,1510.15 739.595,1510.99 738.912,1511.59C738.227,1512.19 737.417,1512.49 736.481,1512.49C734.439,1512.49 733.041,1511.81 732.285,1510.45Z" style="fill:rgb(52,183,118);fill-rule:nonzero;"/>
        </g>
        <g transform="matrix(0.736994,0,0,0.736994,1076.08,680.516)">
            <path d="M879.165,1492.8L879.165,1505.22C879.165,1506.03 879.815,1506.69 880.624,1506.7C881.448,1506.71 882.122,1506.04 882.122,1505.22L882.122,1492.8C882.122,1491.98 881.46,1491.32 880.643,1491.32C879.827,1491.32 879.165,1491.98 879.165,1492.8ZM872.914,1504.76L872.914,1493.28C872.914,1489.01 876.374,1485.55 880.643,1485.55C884.912,1485.55 888.373,1489.01 888.373,1493.28L888.373,1504.76C888.373,1509.03 884.912,1512.49 880.643,1512.49C876.374,1512.49 872.914,1509.03 872.914,1504.76Z" style="fill:rgb(52,183,118);fill-rule:nonzero;"/>
        </g>
        <g transform="matrix(0.321618,0,0,0.321618,1406,1338.11)">
            <path d="M472.603,1334.56L435.877,1334.56L435.877,1432.85L473.787,1432.85C499.827,1432.85 521.137,1412.59 522.822,1386.98C524.717,1358.19 501.458,1334.56 472.603,1334.56ZM579.418,1384.93C575.772,1386 571.334,1388.51 569.093,1400.97L569.074,1400.97C561.406,1448.03 520.591,1483.95 471.371,1483.95C422.149,1483.95 381.335,1448.03 373.668,1400.97L373.648,1400.97C371.407,1388.51 366.969,1386 363.323,1384.93C366.969,1383.87 371.407,1381.35 373.648,1368.89L373.668,1368.89C381.335,1321.84 422.149,1285.92 471.371,1285.92C520.591,1285.92 561.406,1321.84 569.074,1368.89L569.093,1368.89C571.334,1381.35 575.772,1383.87 579.418,1384.93ZM483.72,1383.71C489.335,1386.64 493.174,1392.51 493.174,1399.28C493.174,1408.99 485.305,1416.86 475.598,1416.86L457.833,1416.86L457.833,1350.55L475.598,1350.55C485.305,1350.55 493.174,1358.42 493.174,1368.13C493.174,1374.9 489.335,1380.77 483.72,1383.71Z" style="fill:rgb(52,183,118);fill-rule:nonzero;"/>
        </g>
    </g>
</svg>
