<?xml version="1.0" encoding="UTF-8" standalone="no"?>
<!DOCTYPE svg PUBLIC "-//W3C//DTD SVG 1.1//EN" "http://www.w3.org/Graphics/SVG/1.1/DTD/svg11.dtd">
<svg width="100%" height="100%" viewBox="0 0 555 497" version="1.1" xmlns="http://www.w3.org/2000/svg" xmlns:xlink="http://www.w3.org/1999/xlink" xml:space="preserve" xmlns:serif="http://www.serif.com/" style="fill-rule:evenodd;clip-rule:evenodd;stroke-linejoin:round;stroke-miterlimit:2;">
    <g transform="matrix(2.56508,0,0,2.50727,-931.951,-3224.08)">
        <g>
            <path d="M472.603,1334.56L435.877,1334.56L435.877,1432.85L473.787,1432.85C499.827,1432.85 521.137,1412.59 522.822,1386.98C524.717,1358.19 501.458,1334.56 472.603,1334.56ZM579.418,1384.93C575.772,1386 571.334,1388.51 569.093,1400.97L569.074,1400.97C561.406,1448.03 520.591,1483.95 471.371,1483.95C422.149,1483.95 381.335,1448.03 373.668,1400.97L373.648,1400.97C371.407,1388.51 366.969,1386 363.323,1384.93C366.969,1383.87 371.407,1381.35 373.648,1368.89L373.668,1368.89C381.335,1321.84 422.149,1285.92 471.371,1285.92C520.591,1285.92 561.406,1321.84 569.074,1368.89L569.093,1368.89C571.334,1381.35 575.772,1383.87 579.418,1384.93ZM483.72,1383.71C489.335,1386.64 493.174,1392.51 493.174,1399.28C493.174,1408.99 485.305,1416.86 475.598,1416.86L457.833,1416.86L457.833,1350.55L475.598,1350.55C485.305,1350.55 493.174,1358.42 493.174,1368.13C493.174,1374.9 489.335,1380.77 483.72,1383.71Z" style="fill-rule:nonzero;"/>
        </g>
    </g>
</svg>
