<?xml version="1.0" encoding="UTF-8" standalone="no"?><!DOCTYPE svg PUBLIC "-//W3C//DTD SVG 1.1//EN" "http://www.w3.org/Graphics/SVG/1.1/DTD/svg11.dtd"><svg width="100%" height="100%" viewBox="0 0 834 834" version="1.1" xmlns="http://www.w3.org/2000/svg" xmlns:xlink="http://www.w3.org/1999/xlink" xml:space="preserve" xmlns:serif="http://www.serif.com/" style="fill-rule:evenodd;clip-rule:evenodd;stroke-linejoin:round;stroke-miterlimit:2;"><path d="M416.667,0c-0,0 91.666,193.1 91.666,605.6c0,156.092 -22.934,218.627 -22.934,218.627c-0,-0 -18.656,9.106 -68.732,9.106c-50.077,0 -68.733,-9.106 -68.733,-9.106c0,-0 -22.934,-62.535 -22.934,-218.627c0,-412.5 91.667,-605.6 91.667,-605.6Zm-33.426,542.539c0.445,0.094 1.17,0.135 2.495,0.104c1.597,-0.03 1.969,-0.062 2.591,-0.27c1.875,-0.6 3.171,-1.574 4.227,-3.159l0.28,-0.415l-0,3.471l12.846,-0l-0,-2.072l-6.216,0l0,-39.657l-2.04,-0.062c-1.119,-0.042 -2.611,-0.072 -3.315,-0.072l-1.274,-0l0,20.569l-0.332,-0.57c-0.394,-0.705 -1.409,-1.699 -2.176,-2.155c-1.16,-0.684 -1.917,-0.872 -3.77,-0.933c-1.99,-0.052 -2.839,0.113 -4.341,0.86c-1.181,0.591 -2.062,1.254 -3.118,2.352c-1.928,2.01 -3.264,4.673 -3.72,7.43c-0.269,1.585 -0.175,4.082 0.197,5.762c0.58,2.518 1.565,4.466 2.964,5.854c1.595,1.586 3.262,2.631 4.702,2.963Zm4.486,-1.937c-1.211,0.404 -2.031,0.363 -2.983,-0.155c-0.861,-0.477 -1.41,-1.255 -1.824,-2.581c-0.176,-0.58 -0.186,-1.119 -0.186,-7.668c-0,-7.431 0.01,-7.544 0.487,-8.839c0.301,-0.788 0.901,-1.503 1.553,-1.824c0.809,-0.394 1.533,-0.519 2.239,-0.394c2.01,0.352 3.523,1.637 4.631,3.907c1.056,2.144 1.232,3.379 1.17,8.165c-0.041,3.129 -0.062,3.379 -0.28,4.062c-0.828,2.529 -2.734,4.643 -4.807,5.327Zm31.484,1.916c0.829,0.198 3.243,0.208 4.154,0.011c4.383,-0.933 7.738,-4.757 8.578,-9.782c0.228,-1.327 0.166,-4.497 -0.104,-5.678c-1.036,-4.622 -3.916,-8.124 -7.718,-9.379c-0.891,-0.29 -1.129,-0.32 -2.641,-0.372c-1.958,-0.052 -2.528,0.052 -3.886,0.726c-0.714,0.352 -1.066,0.62 -1.885,1.439l-1.015,1.006l0,-19.98l-6.444,0.021l-6.454,0.031l-0,2.072l3.087,0.032l3.076,0.02l0,39.585l6.734,-0l0,-2.684l0.488,0.518c1.025,1.099 2.673,2.083 4.03,2.414Zm3.22,-2.009c-1.211,0.559 -2.403,0.466 -3.884,-0.3c-1.772,-0.924 -3.087,-2.591 -3.647,-4.581c-0.196,-0.714 -0.207,-1.057 -0.207,-5.43c0,-4.393 0.011,-4.725 0.218,-5.503c0.373,-1.449 1.358,-3.118 2.341,-3.978c3.128,-2.756 6.548,-1.814 7.459,2.052c0.166,0.724 0.187,1.388 0.187,7.273c0,5.887 -0.021,6.55 -0.187,7.275c-0.384,1.606 -1.129,2.663 -2.28,3.192Zm15.467,2.02c0.415,0.114 1.058,0.145 2.332,0.114c1.545,-0.03 1.875,-0.062 2.673,-0.311c1.627,-0.487 3.056,-1.317 4.31,-2.507l0.704,-0.664l0.125,0.446c0.373,1.244 1.202,2.248 2.269,2.746c0.518,0.249 0.745,0.28 1.906,0.311c1.502,0.052 2.134,-0.062 3.045,-0.508c0.767,-0.383 1.481,-0.964 2.269,-1.875c0.695,-0.799 0.747,-1.161 0.249,-1.773c-0.446,-0.538 -0.839,-0.529 -1.389,0.042c-0.227,0.228 -0.611,0.539 -0.849,0.674c-0.405,0.249 -0.446,0.249 -0.746,0.104c-0.674,-0.354 -0.632,0.216 -0.632,-8.975c-0,-8.61 -0.02,-9.18 -0.425,-9.968c-0.59,-1.151 -2.568,-2.207 -5.242,-2.788c-1.43,-0.3 -4.952,-0.393 -6.309,-0.155c-2.859,0.498 -5.046,1.71 -6.102,3.377c-0.487,0.778 -0.673,1.555 -0.673,2.82c-0,1.015 0.03,1.243 0.248,1.689c0.29,0.631 0.58,0.901 1.253,1.212c0.436,0.196 0.695,0.238 1.606,0.238c1.015,-0 1.129,-0.02 1.647,-0.311c1.108,-0.61 1.544,-1.523 1.419,-3.005c-0.072,-0.984 -0.27,-1.762 -0.611,-2.455l-0.248,-0.509l0.414,-0.352c0.818,-0.704 2.652,-1.181 3.781,-0.984c1.336,0.228 2.372,0.798 2.715,1.493c0.197,0.414 0.207,0.631 0.207,3.864l0,3.42l-1.679,0.072c-5.169,0.218 -8.867,1.565 -10.836,3.928c-0.549,0.663 -1.201,1.989 -1.377,2.818c-0.197,0.913 -0.166,3.161 0.051,3.98c0.54,1.999 1.844,3.274 3.895,3.792Zm6.993,-3.721c-0.59,0.281 -1.563,0.415 -2.019,0.259c-1.42,-0.466 -2.207,-1.512 -2.476,-3.336c-0.394,-2.57 1.067,-4.622 3.823,-5.367c0.869,-0.239 2.248,-0.425 3.097,-0.425l0.559,-0l-0.061,2.259c-0.063,2.498 -0.156,3.025 -0.757,4.248c-0.467,0.954 -1.419,1.989 -2.166,2.362Z" style="fill:#f2d490;"/></svg>