<?xml version="1.0" encoding="UTF-8" standalone="no"?><!DOCTYPE svg PUBLIC "-//W3C//DTD SVG 1.1//EN" "http://www.w3.org/Graphics/SVG/1.1/DTD/svg11.dtd"><svg width="100%" height="100%" viewBox="0 0 3546 3546" version="1.1" xmlns="http://www.w3.org/2000/svg" xmlns:xlink="http://www.w3.org/1999/xlink" xml:space="preserve" xmlns:serif="http://www.serif.com/" style="fill-rule:evenodd;clip-rule:evenodd;stroke-linejoin:round;stroke-miterlimit:2;"><g id="Email"><path d="M1771.67,3543.46c-978.446,0 -1771.65,-793.171 -1771.65,-1771.63c0,-978.471 793.205,-1771.67 1771.65,-1771.67c978.447,0 1771.65,793.197 1771.65,1771.67c0,978.463 -793.204,1771.63 -1771.65,1771.63Zm318.41,-2058.09l-0,-640.393l-641.38,0l0,640.393l-332.174,0l651.662,840.336l651.579,-840.336l-329.687,0Zm-1174.38,1215.49l1704.9,-0l-0,-406.885l-178.857,0l0,239.371l-1347.19,0l0,-239.371l-178.856,0l-0,406.885Z" style="fill:#fff;"/></g></svg>