<?xml version="1.0" encoding="UTF-8" standalone="no"?><!DOCTYPE svg PUBLIC "-//W3C//DTD SVG 1.1//EN" "http://www.w3.org/Graphics/SVG/1.1/DTD/svg11.dtd"><svg width="100%" height="100%" viewBox="0 0 834 834" version="1.1" xmlns="http://www.w3.org/2000/svg" xmlns:xlink="http://www.w3.org/1999/xlink" xml:space="preserve" xmlns:serif="http://www.serif.com/" style="fill-rule:evenodd;clip-rule:evenodd;stroke-linejoin:round;stroke-miterlimit:2;"><path d="M424.017,496.4l-24.617,-140.498l276.33,-48.416l78.846,450.008l-148.275,25.979l-37.314,-54.379c-14.337,55.414 -69.533,88.062 -131.747,98.962c-161.754,28.341 -294.187,-59.602 -344.964,-349.411c-53.23,-303.807 53.547,-429.387 270.774,-467.448c88.136,-15.442 182.069,-9.991 241.608,21.791l31.066,177.307l-151.385,26.525l-36.736,-78.527c-18.316,-6.943 -34.687,-8.884 -53.87,-5.523c-68.952,12.081 -96.096,67.601 -58.489,282.236c36.879,210.488 64.078,234.578 124.217,224.041c25.404,-4.451 41.15,-15.226 46.89,-22.109l-24.435,-139.462l-57.899,-1.076Z" style="fill:#f2d490;"/></svg>