<?xml version="1.0" encoding="UTF-8" standalone="no"?><!DOCTYPE svg PUBLIC "-//W3C//DTD SVG 1.1//EN" "http://www.w3.org/Graphics/SVG/1.1/DTD/svg11.dtd"><svg width="100%" height="100%" viewBox="0 0 834 834" version="1.1" xmlns="http://www.w3.org/2000/svg" xmlns:xlink="http://www.w3.org/1999/xlink" xml:space="preserve" xmlns:serif="http://www.serif.com/" style="fill-rule:evenodd;clip-rule:evenodd;stroke-linejoin:round;stroke-miterlimit:2;"><path d="M350.839,258.066c16.533,-5.469 34.319,-6.131 51.513,-4.097c21.956,2.543 43.143,10.023 62.431,20.6c-0.013,9.822 -0,19.633 -0.007,29.455c-13.797,-8.009 -28.17,-15.196 -43.368,-20.227c-11.453,-3.75 -23.451,-6.39 -35.572,-6.082c-15.038,-0.029 -30.265,3.996 -42.733,12.462c-10.714,7.23 -19.72,17.288 -24.551,29.296c-4.519,11.375 -5.557,24.109 -2.974,36.062c2.834,12.494 9.886,24.187 20.211,31.988c10.311,7.879 22.181,13.451 34.129,18.427c14.167,5.562 28.507,10.736 42.478,16.792c9.166,3.996 18.385,7.995 26.988,13.12c11.301,6.883 20.696,16.594 27.873,27.596c7.703,11.953 10.927,26.221 11.637,40.243c0.834,13.98 -0.88,28.248 -6.205,41.285c-5.635,14.112 -15.338,26.389 -26.975,36.146c-9.072,7.674 -19.537,13.749 -30.802,17.677c-15.783,5.553 -32.866,6.909 -49.461,5.229c-27.355,-2.796 -53.028,-14.356 -75.753,-29.273c0,-10.48 -0.039,-20.951 0.023,-31.43c20.545,14.702 42.684,28.248 67.542,34.268c15.378,3.691 31.872,3.227 46.798,-2.118c13.129,-4.72 24.639,-13.484 33.062,-24.473c15.79,-20.483 16.995,-50.477 3.701,-72.491c-4.414,-7.693 -10.825,-14.064 -18.103,-19.117c-11.948,-8.369 -25.389,-14.337 -38.973,-19.585c-14.749,-5.614 -29.44,-11.411 -43.813,-17.924c-9.526,-4.356 -19.105,-8.968 -27.08,-15.848c-12.082,-10.253 -21.943,-23.772 -25.349,-39.384c-3.793,-17.223 -3.469,-35.656 2.631,-52.328c5.19,-14.307 14.746,-26.737 26.236,-36.672c10.03,-8.702 21.759,-15.543 34.466,-19.597Zm307.56,-3.134c4.971,-0.25 9.958,-0.042 14.946,-0.11c53.303,115.169 106.665,230.319 159.988,345.486c-9.422,0.026 -18.843,-0.016 -28.258,0.013c-18.316,-39.468 -36.469,-79.01 -54.743,-118.497c-56.331,0.026 -112.662,-0.01 -168.991,0.013c-18.16,39.494 -36.342,78.981 -54.488,118.478c-9.428,-0.007 -18.853,0.013 -28.275,-0.007c43.594,-94.342 87.334,-188.62 130.991,-282.93c9.578,-20.824 19.366,-41.566 28.831,-62.445l-0.001,-0.001Zm7.279,43.572c-24.711,53.629 -49.353,107.284 -74.051,160.93c49.451,0.068 98.899,-0.007 148.345,0.036c-24.711,-53.682 -49.481,-107.337 -74.294,-160.966l0,-0Zm-665.5,301.81c0,-114.356 -0.006,-228.702 0.007,-343.046l83.715,0c18.974,-0.036 38.191,1.187 56.438,6.724c17.957,5.277 34.84,15.293 46.434,30.065c11.651,14.492 16.949,33.275 16.707,51.637c0.291,16.701 -4.097,33.727 -13.843,47.486c-12.308,17.635 -31.731,28.917 -51.661,36.244c5.901,3.11 10.868,7.638 15.486,12.364c12.534,13.26 22.761,28.417 32.762,43.578c25.26,38.329 50.593,76.6 75.821,114.949c-10.599,0.026 -21.199,-0.065 -31.806,0.048c-16.094,-24.852 -31.986,-49.84 -47.995,-74.748c-15.387,-23.73 -29.943,-48.287 -49.284,-69.153c-4.484,-4.677 -9.429,-9.059 -15.26,-11.994c-8.901,-4.671 -18.909,-6.796 -28.848,-7.83c-9.598,-1.042 -19.259,-0.727 -28.893,-0.769l-32.977,-0l-0,164.439c-8.938,0.013 -17.866,0.007 -26.803,0.007l0,-0.001Zm26.803,-186.647c19.9,0.016 39.804,-0.007 59.707,0.006c7.321,-0.172 14.641,-0.545 21.89,-1.579c16.399,-2.3 33.007,-7.499 45.688,-18.434c10.214,-8.576 16.926,-20.891 19.027,-33.95c2.533,-15.443 0.952,-32.115 -7.187,-45.773c-7.628,-12.77 -20.437,-21.843 -34.339,-26.912c-14.134,-5.235 -29.308,-7.032 -44.32,-7.396c-20.149,0.013 -40.304,0.007 -60.453,0.007c-0.037,44.677 -0,89.357 -0.013,134.031Zm-26.973,212.852c277.695,0.016 555.396,-0 833.089,0.006c0,68.855 0.006,137.71 -0.007,206.564c-277.692,-0 -555.391,0.006 -833.088,-0c-0,-68.861 -0.007,-137.716 0.006,-206.57Z" style="fill:#f2d490;"/></svg>