<?xml version="1.0" encoding="UTF-8" standalone="no"?><!DOCTYPE svg PUBLIC "-//W3C//DTD SVG 1.1//EN" "http://www.w3.org/Graphics/SVG/1.1/DTD/svg11.dtd"><svg width="100%" height="100%" viewBox="0 0 16463 3322" version="1.1" xmlns="http://www.w3.org/2000/svg" xmlns:xlink="http://www.w3.org/1999/xlink" xml:space="preserve" xmlns:serif="http://www.serif.com/" style="fill-rule:evenodd;clip-rule:evenodd;stroke-linejoin:round;stroke-miterlimit:2;"><g><g><path d="M1686.13,1235.16c-0,-31.39 6.049,-61.085 18.007,-89.112c11.966,-28.045 28.49,-52.302 49.43,-72.868c20.513,-20.147 44.46,-36.333 71.934,-48.422c28.216,-12.415 58.113,-18.684 89.716,-18.684l647.037,-0c31.603,-0 61.499,6.269 89.716,18.684c27.473,12.089 51.42,28.275 71.934,48.422c20.94,20.566 37.464,44.823 49.429,72.868c11.959,28.027 18.008,57.722 18.008,89.112l-0,212.454l-287.682,-0l0,-153.859l-529.848,0l0,734.438c0,0 529.848,0 529.848,0.001l0,-153.028l287.682,0l-0,211.622c-0,31.39 -6.049,61.085 -18.008,89.112c-11.879,27.843 -28.266,52.124 -49.055,72.913c-20.789,20.789 -45.069,37.175 -72.912,49.054c-28.027,11.959 -57.722,18.008 -89.112,18.008l-647.037,-0c-31.391,-0 -61.086,-6.049 -89.113,-18.008c-27.842,-11.879 -52.123,-28.265 -72.912,-49.054c-20.789,-20.789 -37.175,-45.07 -49.055,-72.913c-11.958,-28.027 -18.007,-57.722 -18.007,-89.112l-0,-851.628Zm2606.17,1080.71l-287.682,-0c0,-0 0,-510.644 0.001,-510.644l-565.61,-0l-0,510.644l-287.681,-0l-0,-1309.8l287.681,-0c-0,-0 -0,511.476 -0,511.475c-0,0 565.61,0 565.609,0.001l0,-511.476l287.682,-0l-0,1309.8Zm1379.54,-1309.8l-0,287.681l-698.601,0l-0,223.794l596.305,0l0,287.682l-596.305,-0l-0,222.962l698.601,0l-0,287.682l-986.283,-0l0,-1309.8l986.283,-0Zm2571.95,-0l-0,287.681l-391.715,0l-0,1022.12l-287.682,-0l0,-1022.12l-391.715,0l-0,-287.681l1071.11,-0Zm520.876,799.157c-31.602,-0 -61.498,-6.27 -89.714,-18.685c-27.473,-12.088 -51.42,-28.275 -71.934,-48.422c-20.94,-20.566 -37.464,-44.823 -49.43,-72.867c-11.958,-28.028 -18.007,-57.722 -18.007,-89.113l0,-340.984c0,-31.39 6.049,-61.085 18.007,-89.112c11.966,-28.045 28.49,-52.302 49.43,-72.868c20.514,-20.147 44.461,-36.333 71.934,-48.422c28.216,-12.415 58.113,-18.684 89.716,-18.684l578.84,-0c31.603,-0 61.5,6.269 89.716,18.684c27.474,12.089 51.421,28.275 71.934,48.422c20.94,20.566 37.464,44.823 49.43,72.868c11.958,28.027 18.007,57.722 18.007,89.112l-0,111.202l-287.681,-0l-0,-52.607l-461.651,0l-0.001,223.794l520.246,0c31.391,0 61.086,6.049 89.113,18.008c27.842,11.879 52.123,28.265 72.912,49.054c20.789,20.789 37.175,45.07 49.055,72.913c11.958,28.027 18.007,57.722 18.007,89.112l-0,340.152c-0,31.39 -6.049,61.085 -18.007,89.112c-11.88,27.843 -28.266,52.124 -49.055,72.913c-20.789,20.789 -45.07,37.175 -72.912,49.054c-28.027,11.959 -57.722,18.008 -89.113,18.008l-595.474,-0c-31.39,-0 -61.085,-6.049 -89.112,-18.008c-27.842,-11.879 -52.123,-28.265 -72.912,-49.054c-20.789,-20.789 -37.175,-45.07 -49.055,-72.913c-11.958,-28.027 -18.007,-57.722 -18.007,-89.112l-0,-110.37l287.681,0l-0,51.775l478.285,0l-0,-222.962l-520.248,-0Zm2342.99,510.644l-287.682,-0c0,-0 0,-510.644 0.001,-510.644l-565.61,-0l-0,510.644l-287.682,-0l0,-1309.8l287.682,-0c-0,-0 -0,511.476 -0.001,511.475c0,0 565.61,0 565.61,0.001l0,-511.476l287.682,-0l-0,1309.8Zm1379.54,-1309.8l0,287.681l-698.6,0l-0.001,223.794l495.054,0l0,287.682l-495.053,-0l-0.001,222.962l698.601,0l0,287.682l-986.282,-0l0,-1309.8l986.282,-0Zm1328.81,-0l0,287.681l-698.6,0l-0.001,223.794l495.055,0l-0,287.682l-495.054,-0l-0.001,222.962l698.601,0l0,287.682l-986.282,-0l0,-1309.8l986.282,-0Zm1311.34,-0l0,287.681l-391.715,0l0,1022.12l-287.681,-0l-0,-1022.12l-391.716,0l0,-287.681l1071.11,-0Z" style="fill:#fff;"/><path d="M7146.37,2315.87l-296.123,-0l-105.621,-274.451l-457.621,0.001l-105.622,274.45l-296.123,-0l505.105,-1309.8l250.901,-0l505.104,1309.8Zm-749.044,-562.132c-0,-0 236.4,-0 236.4,-0l-117.718,-304.908l-118.682,304.908Z" style="fill:#fff;"/></g><g><path d="M15764.2,2356.56l-512.796,-216.005l-0,-479.587l1211.06,518.871l-0,362.763l-1982.79,779.312l0,-478.675l1284.53,-486.679Z" style="fill:#c0f600;"/><path d="M698.263,965.381l512.796,216.004l0,479.587l-1211.06,-518.87l0,-362.763l1982.79,-779.312l-0,478.675l-1284.53,486.679Z" style="fill:#c0f600;"/></g></g></svg>