<?xml version="1.0" encoding="UTF-8" standalone="no"?><!DOCTYPE svg PUBLIC "-//W3C//DTD SVG 1.1//EN" "http://www.w3.org/Graphics/SVG/1.1/DTD/svg11.dtd"><svg width="100%" height="100%" viewBox="0 0 880 623" version="1.1" xmlns="http://www.w3.org/2000/svg" xmlns:xlink="http://www.w3.org/1999/xlink" xml:space="preserve" xmlns:serif="http://www.serif.com/" style="fill-rule:evenodd;clip-rule:evenodd;stroke-linejoin:round;stroke-miterlimit:2;"><g><path d="M129.785,310.615c-0,169.691 138.039,307.736 307.701,307.736c169.702,0 307.73,-138.045 307.73,-307.736c-0,-169.668 -138.028,-307.701 -307.73,-307.701c-169.662,0 -307.701,138.033 -307.701,307.701Zm9.893,0c0,-164.209 133.604,-297.808 297.808,-297.808c164.244,0 297.842,133.599 297.842,297.808c0,164.221 -133.598,297.837 -297.842,297.837c-164.204,-0 -297.808,-133.616 -297.808,-297.837Zm6.014,0c-0,161.168 130.626,291.823 291.794,291.823c161.168,0 291.835,-130.655 291.835,-291.823c-0,-161.145 -130.667,-291.794 -291.835,-291.794c-161.168,-0 -291.794,130.649 -291.794,291.794Zm639.884,-266.419c-26.483,31.027 -25.933,142.017 -25.043,161.445c0.966,21.053 19.625,25.951 19.625,25.951c0.098,1.335 0.139,2.7 0.22,4.047l-1.186,113.633l-3.799,119.339c-1.382,39.059 -5.603,63.917 -16.809,72.798c11.206,3.562 25.222,15.982 25.222,30.178c-8.413,-0 -14.016,5.36 -14.016,11.581c0,7.101 5.603,11.536 14.016,11.536l8.408,-0c8.419,-0 13.952,-4.435 13.952,-11.536c0,-6.221 -5.533,-11.581 -13.952,-11.581c-0,-14.196 13.952,-26.616 25.181,-30.178c-11.229,-8.881 -15.403,-33.739 -16.762,-72.798l-1.301,-39.452l-2.406,-75.568l-4.672,-120.091c0.59,-2.33 1.029,-3.973 1.029,-3.973c11.05,-1.908 14.427,-20.567 14.427,-20.567l-0.873,-163.018c-0.954,-6.476 -3.926,-8.558 -7.355,-8.558c-6.204,0 -13.906,6.812 -13.906,6.812Zm-721.703,144.972c0,-0 16.67,3.243 16.67,10.535c0,-0 2.955,21.388 3.076,37.538c0.076,16.213 -0.532,56.66 -1.497,67.502l-3.117,98.344l-2.105,65.489c-1.382,39.077 -5.603,63.975 -16.791,72.833c11.188,3.574 25.205,15.982 25.205,30.218c-8.414,0 -14.017,5.331 -14.017,11.541c0,7.101 5.603,11.536 14.017,11.536l8.43,-0c8.396,-0 13.953,-4.435 13.953,-11.536c-0,-6.21 -5.557,-11.541 -13.953,-11.541c0,-14.236 13.953,-26.644 25.187,-30.218c-11.234,-8.858 -15.427,-33.756 -16.791,-72.833l-2.088,-64.807l-3.706,-116.477c-0.179,-3.666 -0.85,-40.013 -0.491,-57.134c0.294,-17.145 2.954,-30.64 2.954,-30.64c0,-0 1.475,-6.546 13.797,-10.142c5.238,-1.527 -1.324,-141.121 -1.324,-141.121l-4.823,4.302c0,-0 0.96,112.799 -8.633,112.799c-7.274,0 -6.21,-113.06 -6.21,-113.06l-2.694,-3.613l-2.134,3.347c0,0 -1.914,114.043 -9.217,114.043c-8.985,0 -6.372,-114.043 -6.372,-114.043l-4.961,-4.018c-0,-0 -7.176,139.536 -2.365,141.156Z" style="fill:url(#_Linear1);fill-rule:nonzero;"/><path d="M669.533,367.867c0,-3.013 2.464,-5.476 5.476,-5.476l3.099,0c3.013,0 5.476,-2.463 5.476,-5.47l0,-17.162c0,-3.012 2.463,-5.475 5.476,-5.475l3.099,-0c3.013,-0 5.47,2.463 5.47,5.475l0,31.219c0,3.012 -2.457,5.475 -5.47,5.475l-17.15,0c-3.012,0 -5.476,-2.463 -5.476,-5.475l0,-3.111Z" style="fill:#1e1c1a;fill-rule:nonzero;"/><path d="M374.235,562.386c-0,-3.012 -2.464,-5.476 -5.476,-5.476l-3.099,0c-3.013,0 -5.476,2.464 -5.476,5.476l-0,3.122c-0,3.007 2.463,5.47 5.476,5.47l3.099,0c3.012,0 5.476,-2.463 5.476,-5.47l-0,-3.122Z" style="fill:#1e1c1a;fill-rule:nonzero;"/><path d="M635.921,458.495c3.012,-0 5.476,-2.464 5.476,-5.476l-0,-3.111c-0,-3.013 2.463,-5.476 5.47,-5.476l3.105,0c3.012,0 5.475,2.463 5.475,5.476l0,17.173c0,3.007 -2.463,5.47 -5.475,5.47l-3.105,0c-3.007,0 -5.47,2.463 -5.47,5.476l-0,3.111c-0,3.012 -2.464,5.475 -5.476,5.475l-3.099,0c-3.013,0 -5.476,-2.463 -5.476,-5.475l-0,-17.168c-0,-3.012 2.463,-5.475 5.476,-5.475l3.099,-0Z" style="fill:#1e1c1a;fill-rule:nonzero;"/><path d="M290.025,509.269c-0,3.012 2.463,5.476 5.475,5.476l3.088,-0c3.013,-0 5.476,2.463 5.476,5.47l-0,17.15c-0,3.012 2.463,5.475 5.476,5.475l3.122,0c3.007,0 5.47,-2.463 5.47,-5.475l-0,-31.23c-0,-3.007 -2.463,-5.47 -5.47,-5.47l-17.162,-0c-3.012,-0 -5.475,2.463 -5.475,5.47l-0,3.134Z" style="fill:#1e1c1a;fill-rule:nonzero;"/><path d="M317.996,551.438c-0,3.013 2.463,5.476 5.475,5.476l3.1,-0c3.012,-0 5.475,-2.463 5.475,-5.476l0,-3.122c0,-3.013 -2.463,-5.476 -5.475,-5.476l-3.1,-0c-3.012,-0 -5.475,2.463 -5.475,5.476l-0,3.122Z" style="fill:#1e1c1a;fill-rule:nonzero;"/><path d="M337.519,500.664c-3.013,-0 -5.476,2.463 -5.476,5.475l-0,3.129c-0,3.012 2.463,5.475 5.476,5.475l17.19,0c3.013,0 5.476,-2.463 5.476,-5.475l-0,-3.129c-0,-3.012 -2.463,-5.475 -5.476,-5.475l-17.19,-0Z" style="fill:#1e1c1a;fill-rule:nonzero;"/><path d="M360.184,523.318c-0,3.012 -2.463,5.476 -5.476,5.476l-3.122,-0c-3.007,-0 -5.47,2.463 -5.47,5.47l-0,3.105c-0,3.012 2.463,5.47 5.47,5.47l17.173,-0c3.012,-0 5.476,-2.458 5.476,-5.47l-0,-17.15c-0,-3.013 -2.464,-5.476 -5.476,-5.476l-3.099,-0c-3.013,-0 -5.476,2.463 -5.476,5.476l-0,3.099Z" style="fill:#1e1c1a;fill-rule:nonzero;"/><path d="M281.419,514.743c-3.013,-0 -5.476,-2.463 -5.476,-5.476l0,-3.128c0,-3.013 -2.463,-5.476 -5.47,-5.476l-3.105,0c-3.012,0 -5.476,2.463 -5.476,5.476l0,17.167c0,3.013 2.464,5.476 5.476,5.476l17.185,0c3.007,0 5.47,-2.463 5.47,-5.476l-0,-3.087c-0,-3.013 -2.463,-5.476 -5.47,-5.476l-3.134,-0Z" style="fill:#1e1c1a;fill-rule:nonzero;"/><path d="M444.541,551.438c0,3.013 2.463,5.476 5.476,5.476l3.117,-0c3.012,-0 5.475,-2.463 5.475,-5.476l0,-3.122c0,-3.013 -2.463,-5.476 -5.475,-5.476l-3.117,-0c-3.013,-0 -5.476,2.463 -5.476,5.476l0,3.122Z" style="fill:#1e1c1a;fill-rule:nonzero;"/><path d="M444.541,509.249c0,3.012 2.463,5.475 5.476,5.475l3.117,0c3.012,0 5.475,2.464 5.475,5.47l0,17.174c0,3.012 2.464,5.475 5.476,5.475l3.099,0c3.013,0 5.476,2.464 5.476,5.47l0,31.242c0,3.012 2.463,5.475 5.476,5.475l3.117,0c3.012,0 5.475,-2.463 5.475,-5.475l0,-3.111c0,-3.013 2.464,-5.476 5.476,-5.476l3.099,0c3.013,0 5.476,-2.457 5.476,-5.47l0,-3.111c0,-3.012 2.463,-5.476 5.476,-5.476l3.099,0c3.013,0 5.476,-2.463 5.476,-5.475l0,-3.123c0,-3.006 2.463,-5.47 5.476,-5.47l3.116,0c3.013,0 5.476,-2.463 5.476,-5.475l0,-3.111c0,-3.013 -2.463,-5.476 -5.476,-5.476l-17.167,-0c-3.013,-0 -5.476,2.463 -5.476,5.476l0,3.111c0,3.012 -2.463,5.475 -5.476,5.475l-3.099,0c-3.012,0 -5.476,-2.463 -5.476,-5.475l0,-3.111c0,-3.013 2.464,-5.476 5.476,-5.476l3.099,-0c3.013,-0 5.476,-2.463 5.476,-5.47l0,-3.117c0,-3.006 -2.463,-5.47 -5.476,-5.47l-17.167,0c-3.013,0 -5.476,-2.463 -5.476,-5.475l0,-3.111c0,-3.013 -2.463,-5.476 -5.476,-5.476l-17.167,-0c-3.013,-0 -5.476,2.463 -5.476,5.476l0,3.111Z" style="fill:#1e1c1a;fill-rule:nonzero;"/><path d="M435.946,514.723c-3.013,-0 -5.476,-2.464 -5.476,-5.476l0,-3.111c0,-3.007 -2.463,-5.47 -5.47,-5.47l-3.105,0c-3.012,0 -5.476,2.463 -5.476,5.47l0,17.173c0,3.013 2.464,5.476 5.476,5.476l3.105,-0c3.007,-0 5.47,2.463 5.47,5.47l0,3.111c0,3.012 2.463,5.476 5.476,5.476l3.122,-0c3.013,-0 5.476,-2.464 5.476,-5.476l0,-17.168c0,-3.012 -2.463,-5.475 -5.476,-5.475l-3.122,-0Z" style="fill:#1e1c1a;fill-rule:nonzero;"/><path d="M416.422,534.257c-0,-3.013 -2.464,-5.476 -5.476,-5.476l-3.117,-0c-3.012,-0 -5.475,-2.463 -5.475,-5.47l-0,-17.173c-0,-3.013 -2.464,-5.476 -5.476,-5.476l-3.123,-0c-3.006,-0 -5.47,2.463 -5.47,5.476l0,31.23c0,3.012 2.464,5.475 5.47,5.475l17.191,0c3.012,0 5.476,-2.463 5.476,-5.475l-0,-3.111Z" style="fill:#1e1c1a;fill-rule:nonzero;"/><path d="M402.353,576.445c-0,-3.013 2.463,-5.476 5.476,-5.476l3.116,0c3.013,0 5.476,-2.463 5.476,-5.47l0,-3.111c0,-3.012 -2.463,-5.475 -5.476,-5.475l-17.19,-0c-3.007,-0 -5.47,2.463 -5.47,5.475l-0,17.168c-0,3.012 2.463,5.476 5.47,5.476l3.122,-0c3.013,-0 5.476,-2.464 5.476,-5.476l-0,-3.111Z" style="fill:#1e1c1a;fill-rule:nonzero;"/><path d="M585.157,534.257c-0,-3.013 -2.463,-5.476 -5.476,-5.476l-3.099,-0c-3.013,-0 -5.476,-2.463 -5.476,-5.47l0,-17.196c0,-3.007 -2.463,-5.47 -5.476,-5.47l-3.116,-0c-3.013,-0 -5.476,2.463 -5.476,5.47l-0,3.134c-0,3.012 -2.463,5.475 -5.476,5.475l-17.167,0c-3.013,0 -5.476,2.464 -5.476,5.47l-0,3.117c-0,3.007 2.463,5.47 5.476,5.47l17.167,-0c3.013,-0 5.476,2.463 5.476,5.476l-0,3.111c-0,3.012 2.463,5.475 5.476,5.475l17.167,0c3.013,0 5.476,-2.463 5.476,-5.475l-0,-3.111Z" style="fill:#1e1c1a;fill-rule:nonzero;"/><path d="M590.612,500.693c-3.013,-0 -5.476,2.463 -5.476,5.475l0,3.111c0,3.007 2.463,5.476 5.476,5.476l31.259,-0c3.012,-0 5.475,-2.469 5.475,-5.476l0,-3.111c0,-3.012 -2.463,-5.475 -5.475,-5.475l-31.259,-0Z" style="fill:#1e1c1a;fill-rule:nonzero;"/><path d="M500.779,509.249c0,3.012 2.463,5.475 5.476,5.475l17.167,0c3.013,0 5.476,-2.463 5.476,-5.475l0,-3.134c0,-3.007 -2.463,-5.47 -5.476,-5.47l-17.167,-0c-3.013,-0 -5.476,2.463 -5.476,5.47l0,3.134Z" style="fill:#1e1c1a;fill-rule:nonzero;"/><path d="M430.472,579.576c-0,3.013 2.463,5.476 5.476,5.476l17.19,-0c3.007,-0 5.47,-2.463 5.47,-5.476l0,-3.122c0,-3.007 -2.463,-5.47 -5.47,-5.47l-17.19,-0c-3.013,-0 -5.476,2.463 -5.476,5.47l-0,3.122Z" style="fill:#1e1c1a;fill-rule:nonzero;"/><path d="M345.996,340.582c-0,3.013 2.463,5.476 5.476,5.476l17.167,-0c3.013,-0 5.476,-2.463 5.476,-5.476l-0,-3.134c-0,-3.007 -2.463,-5.47 -5.476,-5.47l-17.167,0c-3.013,0 -5.476,2.463 -5.476,5.47l-0,3.134Z" style="fill:#1e1c1a;fill-rule:nonzero;"/><path d="M635.921,404.434c3.012,-0 5.476,-2.464 5.476,-5.476l-0,-3.123c-0,-3.006 2.463,-5.47 5.47,-5.47l17.19,0c3.013,0 5.476,-2.463 5.476,-5.475l-0,-3.123c-0,-3.006 -2.463,-5.47 -5.476,-5.47l-31.235,0c-3.013,0 -5.476,2.464 -5.476,5.47l-0,17.191c-0,3.012 2.463,5.476 5.476,5.476l3.099,-0Z" style="fill:#1e1c1a;fill-rule:nonzero;"/><path d="M627.345,356.908c0,3.013 2.463,5.476 5.476,5.476l3.099,0c3.013,0 5.476,-2.463 5.476,-5.476l-0,-17.173c-0,-3.007 -2.463,-5.47 -5.476,-5.47l-3.099,0c-3.013,0 -5.476,2.463 -5.476,5.47l0,17.173Z" style="fill:#1e1c1a;fill-rule:nonzero;"/><path d="M649.991,334.263c3.013,0 5.476,2.464 5.476,5.476l0,3.111c0,3.013 2.463,5.476 5.47,5.476l3.122,-0c3.013,-0 5.476,-2.463 5.476,-5.476l0,-17.162c0,-3.012 -2.463,-5.475 -5.476,-5.475l-17.19,-0c-3.013,-0 -5.476,2.463 -5.476,5.475l0,3.1c0,3.012 2.463,5.475 5.476,5.475l3.122,0Z" style="fill:#1e1c1a;fill-rule:nonzero;"/><path d="M298.274,360.127c3.013,-0 5.476,2.463 5.476,5.475l-0,3.123c-0,3.007 2.463,5.47 5.47,5.47l3.122,-0c3.013,-0 5.476,-2.463 5.476,-5.47l0,-17.173c0,-3.013 -2.463,-5.476 -5.476,-5.476l-17.19,-0c-3.013,-0 -5.47,2.463 -5.47,5.476l-0,3.099c-0,3.012 2.457,5.476 5.47,5.476l3.122,-0Z" style="fill:#1e1c1a;fill-rule:nonzero;"/><path d="M298.274,360.127c3.013,-0 5.476,2.463 5.476,5.475l-0,3.123c-0,3.007 2.463,5.47 5.47,5.47l3.122,-0c3.013,-0 5.476,-2.463 5.476,-5.47l0,-17.173c0,-3.013 -2.463,-5.476 -5.476,-5.476l-17.19,-0c-3.013,-0 -5.47,2.463 -5.47,5.476l-0,3.099c-0,3.012 2.457,5.476 5.47,5.476l3.122,-0Z" style="fill:#1e1c1a;fill-rule:nonzero;"/><path d="M646.83,137.41c-3.013,-0 -5.476,-2.463 -5.476,-5.476l-0,-3.111c-0,-3.012 -2.463,-5.476 -5.47,-5.476l-3.082,0c-3.013,0 -5.476,2.464 -5.476,5.476l0,17.162c0,3.012 2.463,5.476 5.476,5.476l17.167,-0c3.013,-0 5.476,-2.464 5.476,-5.476l0,-3.099c0,-3.013 -2.463,-5.476 -5.476,-5.476l-3.139,-0Z" style="fill:#1e1c1a;fill-rule:nonzero;"/><path d="M641.395,413.018c-0,3.013 -2.463,5.476 -5.476,5.476l-3.099,0c-3.013,0 -5.476,2.463 -5.476,5.47l0,3.105c0,3.013 2.463,5.476 5.476,5.476l17.15,0c3.012,0 5.476,-2.463 5.476,-5.476l-0,-17.161c-0,-3.013 -2.464,-5.476 -5.476,-5.476l-3.099,-0c-3.013,-0 -5.476,2.463 -5.476,5.476l-0,3.11Z" style="fill:#1e1c1a;fill-rule:nonzero;"/><path d="M678.11,249.896c3.013,0 5.476,-2.463 5.476,-5.476l-0,-3.122c-0,-3.007 -2.463,-5.47 -5.476,-5.47l-3.099,-0c-3.013,-0 -5.476,2.463 -5.476,5.47l0,3.122c0,3.013 2.463,5.476 5.476,5.476l3.099,0Z" style="fill:#1e1c1a;fill-rule:nonzero;"/><path d="M692.159,263.965c3.012,0 5.475,-2.463 5.475,-5.475l0,-3.111c0,-3.007 -2.463,-5.47 -5.475,-5.47l-3.1,-0c-3.012,-0 -5.475,2.463 -5.475,5.47l-0,3.111c-0,3.012 2.463,5.475 5.475,5.475l3.1,0Z" style="fill:#1e1c1a;fill-rule:nonzero;"/><path d="M635.902,249.896c3.012,0 5.475,-2.463 5.475,-5.476l0,-3.122c0,-3.007 2.464,-5.47 5.47,-5.47l17.214,-0c3.013,-0 5.47,-2.463 5.47,-5.476l0,-3.093c0,-3.007 2.463,-5.47 5.476,-5.47l3.105,-0c3.007,-0 5.47,-2.464 5.47,-5.476l-0,-31.253c-0,-3.007 -2.463,-5.47 -5.47,-5.47l-3.105,-0c-3.013,-0 -5.476,-2.463 -5.476,-5.476l0,-3.099c0,-3.013 -2.457,-5.476 -5.47,-5.476l-3.14,0c-3.012,0 -5.475,2.463 -5.475,5.476l-0,17.167c-0,3.013 2.463,5.476 5.475,5.476l3.14,0c3.013,0 5.47,2.463 5.47,5.476l0,3.111c0,3.007 -2.457,5.47 -5.47,5.47l-3.14,-0c-3.012,-0 -5.475,-2.463 -5.475,-5.47l-0,-3.111c-0,-3.013 -2.464,-5.476 -5.476,-5.476l-3.123,0c-3.006,0 -5.47,2.463 -5.47,5.476l0,17.179c0,3.012 -2.463,5.476 -5.475,5.476l-3.082,-0c-3.013,-0 -5.476,2.463 -5.476,5.47l0,17.161c0,3.013 2.463,5.476 5.476,5.476l3.082,0Z" style="fill:#1e1c1a;fill-rule:nonzero;"/><path d="M641.376,258.491c-0,3.013 -2.463,5.476 -5.476,5.476l-3.082,0c-3.007,0 -5.476,2.463 -5.476,5.47l0,3.105c0,3.013 2.469,5.476 5.476,5.476l17.15,-0c3.013,-0 5.476,-2.463 5.476,-5.476l-0,-3.105c-0,-3.007 2.463,-5.47 5.476,-5.47l3.139,0c3.013,0 5.476,-2.463 5.476,-5.476l0,-3.122c0,-3.007 -2.463,-5.47 -5.476,-5.47l-17.207,-0c-3.013,-0 -5.476,2.463 -5.476,5.47l-0,3.122Z" style="fill:#1e1c1a;fill-rule:nonzero;"/><path d="M660.919,278.015c-3.012,0 -5.476,2.463 -5.476,5.476l0,3.111c0,3.012 -2.463,5.475 -5.47,5.475l-17.156,0c-3.006,0 -5.47,2.464 -5.47,5.47l0,3.123c0,3.012 2.464,5.476 5.47,5.476l31.242,-0c3.012,-0 5.476,-2.464 5.476,-5.476l-0,-17.179c-0,-3.013 -2.464,-5.476 -5.476,-5.476l-3.14,0Z" style="fill:#1e1c1a;fill-rule:nonzero;"/><path d="M703.107,306.144c-3.013,0 -5.476,-2.463 -5.476,-5.475l0,-17.179c0,-3.013 -2.463,-5.476 -5.47,-5.476l-3.105,-0c-3.007,-0 -5.47,2.463 -5.47,5.476l-0,31.241c-0,3.007 2.463,5.47 5.47,5.47l17.173,0c3.013,0 5.476,-2.463 5.476,-5.47l-0,-3.111c-0,-3.012 -2.463,-5.476 -5.476,-5.476l-3.122,0Z" style="fill:#1e1c1a;fill-rule:nonzero;"/><path d="M635.902,193.658c3.012,0 5.475,-2.463 5.475,-5.476l0,-17.167c0,-3.013 -2.463,-5.476 -5.475,-5.476l-3.1,0c-3.012,0 -5.475,2.463 -5.475,5.476l-0,17.167c-0,3.013 2.463,5.476 5.475,5.476l3.1,0Z" style="fill:#1e1c1a;fill-rule:nonzero;"/><path d="M678.11,432.553c3.013,-0 5.476,-2.464 5.476,-5.476l-0,-17.168c-0,-3.012 -2.463,-5.475 -5.476,-5.475l-3.099,-0c-3.013,-0 -5.476,2.463 -5.476,5.475l0,17.168c0,3.012 2.463,5.476 5.476,5.476l3.099,-0Z" style="fill:#1e1c1a;fill-rule:nonzero;"/><path d="M205.498,242.096c0,3.013 -2.463,5.476 -5.476,5.476l-3.116,0c-3.013,0 -5.476,2.463 -5.476,5.47l0,17.168c0,3.006 -2.463,5.47 -5.476,5.47l-3.11,-0c-3.013,-0 -5.476,-2.464 -5.476,-5.47l-0,-31.236c-0,-3.007 2.463,-5.47 5.476,-5.47l17.178,0c3.013,0 5.476,2.463 5.476,5.47l0,3.122Z" style="fill:#1e1c1a;fill-rule:nonzero;"/><path d="M289.67,340.622c-0,3.013 -2.464,5.476 -5.476,5.476l-3.128,-0c-3.013,-0 -5.476,2.463 -5.476,5.47l-0,17.161c-0,3.013 -2.463,5.476 -5.476,5.476l-3.099,0c-3.013,0 -5.476,-2.463 -5.476,-5.476l0,-31.229c0,-3.007 2.463,-5.476 5.476,-5.476l17.179,-0c3.012,-0 5.476,2.469 5.476,5.476l-0,3.122Z" style="fill:#1e1c1a;fill-rule:nonzero;"/><path d="M239.092,151.469c-3.012,-0 -5.475,2.463 -5.475,5.475l-0,3.1c-0,3.012 -2.464,5.476 -5.47,5.476l-3.123,-0c-3.012,-0 -5.476,-2.464 -5.476,-5.476l0,-17.162c0,-3.007 2.464,-5.47 5.476,-5.47l3.123,0c3.006,0 5.47,-2.463 5.47,-5.476l-0,-3.11c-0,-3.013 2.463,-5.476 5.475,-5.476l3.1,-0c3.012,-0 5.475,2.463 5.475,5.476l0,17.167c0,3.012 -2.463,5.476 -5.475,5.476l-3.1,-0Z" style="fill:#1e1c1a;fill-rule:nonzero;"/><path d="M239.092,205.54c-3.012,0 -5.475,2.463 -5.475,5.476l-0,3.099c-0,3.013 -2.464,5.476 -5.47,5.476l-17.174,-0c-3.012,-0 -5.475,2.463 -5.475,5.47l-0,3.122c-0,3.013 2.463,5.476 5.475,5.476l31.219,0c3.012,0 5.475,-2.463 5.475,-5.476l0,-17.167c0,-3.013 -2.463,-5.476 -5.475,-5.476l-3.1,0Z" style="fill:#1e1c1a;fill-rule:nonzero;"/><path d="M247.667,253.055c0,-3.013 -2.463,-5.476 -5.475,-5.476l-3.1,0c-3.012,0 -5.475,2.463 -5.475,5.476l-0,17.162c-0,3.006 2.463,5.47 5.475,5.47l3.1,-0c3.012,-0 5.475,-2.464 5.475,-5.47l0,-17.162Z" style="fill:#1e1c1a;fill-rule:nonzero;"/><path d="M225.023,275.689c-3.013,0 -5.476,-2.463 -5.476,-5.475l-0,-3.1c-0,-3.012 -2.463,-5.475 -5.47,-5.475l-3.105,-0c-3.013,-0 -5.476,2.463 -5.476,5.475l-0,17.174c-0,3.006 2.463,5.47 5.476,5.47l17.173,-0c3.012,-0 5.476,-2.464 5.476,-5.47l-0,-3.123c-0,-3.012 -2.464,-5.476 -5.476,-5.476l-3.122,0Z" style="fill:#1e1c1a;fill-rule:nonzero;"/><path d="M228.163,472.553c3.013,0 5.476,2.464 5.476,5.476l0,3.111c0,3.013 2.463,5.476 5.47,5.476l3.105,-0c3.013,-0 5.476,-2.463 5.476,-5.476l0,-17.173c0,-3.007 -2.463,-5.47 -5.476,-5.47l-17.173,-0c-3.007,-0 -5.47,2.463 -5.47,5.47l0,3.111c0,3.012 2.463,5.475 5.47,5.475l3.122,0Z" style="fill:#1e1c1a;fill-rule:nonzero;"/><path d="M233.618,196.945c0,-3.013 2.464,-5.476 5.476,-5.476l3.099,0c3.013,0 5.476,-2.463 5.476,-5.47l0,-3.105c0,-3.013 -2.463,-5.476 -5.476,-5.476l-17.173,0c-3.007,0 -5.47,2.463 -5.47,5.476l0,17.173c0,3.007 2.463,5.47 5.47,5.47l3.123,0c3.012,0 5.475,-2.463 5.475,-5.47l0,-3.122Z" style="fill:#1e1c1a;fill-rule:nonzero;"/><path d="M205.498,393.66c0,-3.012 -2.463,-5.476 -5.476,-5.476l-3.116,0c-3.013,0 -5.476,2.464 -5.476,5.476l0,31.224c0,3.007 2.463,5.47 5.476,5.47l3.116,0c3.013,0 5.476,2.463 5.476,5.476l0,3.122c0,3.007 2.463,5.47 5.476,5.47l3.099,0c3.013,0 5.476,-2.463 5.476,-5.47l0,-17.173c0,-3.012 -2.463,-5.476 -5.476,-5.476l-3.099,0c-3.013,0 -5.476,-2.463 -5.476,-5.47l0,-17.173Z" style="fill:#1e1c1a;fill-rule:nonzero;"/><path d="M233.618,382.712c0,3.013 2.464,5.476 5.476,5.476l3.099,-0c3.013,-0 5.476,-2.463 5.476,-5.476l0,-17.173c0,-3.007 -2.463,-5.47 -5.476,-5.47l-3.099,-0c-3.012,-0 -5.476,2.463 -5.476,5.47l0,17.173Z" style="fill:#1e1c1a;fill-rule:nonzero;"/><path d="M171.905,303.829c3.013,0 5.476,2.463 5.476,5.476l0,17.156c0,3.012 2.463,5.476 5.47,5.476l3.105,-0c3.013,-0 5.47,-2.464 5.47,-5.476l0,-31.218c0,-3.013 -2.457,-5.476 -5.47,-5.476l-17.173,-0c-3.007,-0 -5.47,2.463 -5.47,5.476l-0,3.11c-0,3.013 2.463,5.476 5.47,5.476l3.122,0Z" style="fill:#1e1c1a;fill-rule:nonzero;"/><path d="M239.092,416.305c-3.012,0 -5.475,2.463 -5.475,5.476l-0,17.167c-0,3.013 2.463,5.476 5.475,5.476l3.123,0c3.007,0 5.47,-2.463 5.47,-5.476l-0,-17.167c-0,-3.013 -2.463,-5.476 -5.47,-5.476l-3.123,0Z" style="fill:#1e1c1a;fill-rule:nonzero;"/><path d="M196.903,177.411c-3.013,-0 -5.476,2.463 -5.476,5.475l0,17.179c0,3.013 2.463,5.476 5.476,5.476l3.122,0c3.007,0 5.47,-2.463 5.47,-5.476l0,-17.179c0,-3.012 -2.463,-5.475 -5.47,-5.475l-3.122,-0Z" style="fill:#1e1c1a;fill-rule:nonzero;"/><path d="M500.938,59.312c-0,3.012 2.463,5.475 5.475,5.475l3.1,0c3.012,0 5.475,-2.463 5.475,-5.475l0,-3.111c0,-3.013 -2.463,-5.476 -5.475,-5.476l-3.1,-0c-3.012,-0 -5.475,2.463 -5.475,5.476l-0,3.111Z" style="fill:#1e1c1a;fill-rule:nonzero;"/><path d="M585.138,112.439c-0,-3.012 -2.463,-5.475 -5.476,-5.475l-3.099,-0c-3.013,-0 -5.476,-2.464 -5.476,-5.47l0,-17.162c0,-3.013 -2.463,-5.476 -5.476,-5.476l-3.122,0c-3.007,0 -5.47,2.463 -5.47,5.476l-0,31.23c-0,3.006 2.463,5.47 5.47,5.47l17.173,-0c3.013,-0 5.476,-2.464 5.476,-5.47l-0,-3.123Z" style="fill:#1e1c1a;fill-rule:nonzero;"/><path d="M557.176,70.26c0,-3.013 -2.463,-5.476 -5.476,-5.476l-3.122,-0c-3.007,-0 -5.47,2.463 -5.47,5.476l-0,3.122c-0,3.013 2.463,5.476 5.47,5.476l3.122,-0c3.013,-0 5.476,-2.463 5.476,-5.476l0,-3.122Z" style="fill:#1e1c1a;fill-rule:nonzero;"/><path d="M537.632,121.034c3.012,-0 5.475,-2.463 5.475,-5.476l0,-3.116c0,-3.013 -2.463,-5.476 -5.475,-5.476l-17.174,-0c-3.006,-0 -5.47,2.463 -5.47,5.476l0,3.116c0,3.013 2.464,5.476 5.47,5.476l17.174,-0Z" style="fill:#1e1c1a;fill-rule:nonzero;"/><path d="M514.987,98.389c-0,-3.012 2.463,-5.476 5.475,-5.476l3.123,0c3.007,0 5.47,-2.463 5.47,-5.47l-0,-3.111c-0,-3.012 -2.463,-5.475 -5.47,-5.475l-17.173,-0c-3.013,-0 -5.476,2.463 -5.476,5.475l-0,17.156c-0,3.013 2.463,5.476 5.476,5.476l3.099,0c3.012,0 5.476,-2.463 5.476,-5.476l-0,-3.099Z" style="fill:#1e1c1a;fill-rule:nonzero;"/><path d="M593.733,106.965c3.012,0 5.475,2.463 5.475,5.476l0,3.117c0,3.012 2.464,5.475 5.47,5.475l3.105,0c3.013,0 5.476,-2.463 5.476,-5.475l0,-17.156c0,-3.013 -2.463,-5.476 -5.476,-5.476l-17.173,-0c-3.007,-0 -5.47,2.463 -5.47,5.476l0,3.087c0,3.013 2.463,5.476 5.47,5.476l3.123,0Z" style="fill:#1e1c1a;fill-rule:nonzero;"/><path d="M430.609,70.26c-0,-3.013 -2.463,-5.476 -5.476,-5.476l-3.099,-0c-3.013,-0 -5.476,2.463 -5.476,5.476l0,3.122c0,3.013 2.463,5.476 5.476,5.476l3.099,-0c3.013,-0 5.476,-2.463 5.476,-5.476l-0,-3.122Z" style="fill:#1e1c1a;fill-rule:nonzero;"/><path d="M430.609,112.46c-0,-3.013 -2.463,-5.476 -5.476,-5.476l-3.099,-0c-3.013,-0 -5.476,-2.463 -5.476,-5.47l0,-17.185c0,-3.007 -2.463,-5.47 -5.47,-5.47l-3.105,-0c-3.007,-0 -5.47,-2.469 -5.47,-5.476l0,-31.23c0,-3.012 -2.469,-5.475 -5.476,-5.475l-3.122,-0c-3.013,-0 -5.476,2.463 -5.476,5.475l0,3.111c0,3.013 -2.463,5.476 -5.47,5.476l-3.122,0c-3.013,0 -5.476,2.457 -5.476,5.47l0,3.099c0,3.013 -2.463,5.476 -5.476,5.476l-3.099,0c-3.013,0 -5.476,2.463 -5.476,5.476l0,3.122c0,3.007 -2.463,5.476 -5.47,5.476l-3.122,-0c-3.013,-0 -5.476,2.463 -5.476,5.47l0,3.122c0,3.013 2.463,5.476 5.476,5.476l17.167,0c3.013,0 5.476,-2.463 5.476,-5.476l0,-3.122c0,-3.007 2.463,-5.47 5.476,-5.47l3.122,-0c3.007,-0 5.47,2.463 5.47,5.47l0,3.122c0,3.013 -2.463,5.476 -5.47,5.476l-3.122,0c-3.013,0 -5.476,2.463 -5.476,5.47l0,3.117c0,3.007 2.463,5.47 5.476,5.47l17.19,-0c3.007,-0 5.476,2.463 5.476,5.476l0,3.099c0,3.012 2.463,5.476 5.47,5.476l17.15,-0c3.013,-0 5.476,-2.464 5.476,-5.476l-0,-3.099Z" style="fill:#1e1c1a;fill-rule:nonzero;"/><path d="M439.205,106.985c3.013,0 5.476,2.464 5.476,5.476l0,3.1c0,3.012 2.463,5.475 5.47,5.475l3.123,0c3.012,0 5.475,-2.463 5.475,-5.475l0,-17.162c0,-3.013 -2.463,-5.476 -5.475,-5.476l-3.123,0c-3.007,0 -5.47,-2.463 -5.47,-5.47l0,-3.122c0,-3.013 -2.463,-5.476 -5.476,-5.476l-3.122,-0c-3.013,-0 -5.476,2.463 -5.476,5.476l0,17.179c0,3.012 2.463,5.475 5.476,5.475l3.122,0Z" style="fill:#1e1c1a;fill-rule:nonzero;"/><path d="M458.749,87.451c-0,3.013 2.463,5.476 5.476,5.476l3.099,0c3.012,0 5.476,2.463 5.476,5.47l-0,17.162c-0,3.012 2.463,5.476 5.475,5.476l3.117,-0c3.013,-0 5.476,-2.464 5.476,-5.476l-0,-31.23c-0,-3.007 -2.463,-5.47 -5.476,-5.47l-17.167,-0c-3.013,-0 -5.476,2.463 -5.476,5.47l-0,3.122Z" style="fill:#1e1c1a;fill-rule:nonzero;"/><path d="M472.798,45.263c0,3.013 -2.463,5.476 -5.475,5.476l-3.1,-0c-3.012,-0 -5.475,2.463 -5.475,5.47l-0,3.105c-0,3.007 2.463,5.47 5.475,5.47l17.174,-0c3.006,-0 5.47,-2.463 5.47,-5.47l-0,-17.162c-0,-3.012 -2.464,-5.475 -5.47,-5.475l-3.123,-0c-3.012,-0 -5.476,2.463 -5.476,5.475l0,3.111Z" style="fill:#1e1c1a;fill-rule:nonzero;"/><path d="M289.974,87.451c0,3.013 2.463,5.476 5.476,5.476l3.122,0c3.007,0 5.47,2.463 5.47,5.47l0,17.185c0,3.007 2.464,5.47 5.476,5.47l3.123,-0c3.012,-0 5.47,-2.463 5.47,-5.47l-0,-3.122c-0,-3.013 2.463,-5.476 5.475,-5.476l17.174,-0c3.006,-0 5.47,-2.463 5.47,-5.47l-0,-3.117c-0,-3.007 -2.464,-5.47 -5.47,-5.47l-17.174,0c-3.012,0 -5.475,-2.463 -5.475,-5.476l-0,-3.122c-0,-3.007 -2.458,-5.47 -5.47,-5.47l-17.191,-0c-3.013,-0 -5.476,2.463 -5.476,5.47l0,3.122Z" style="fill:#1e1c1a;fill-rule:nonzero;"/><path d="M284.55,121.015c3.013,-0 5.476,-2.463 5.476,-5.476l-0,-3.111c-0,-3.012 -2.463,-5.475 -5.476,-5.475l-31.247,-0c-3.013,-0 -5.476,2.463 -5.476,5.475l0,3.111c0,3.013 2.463,5.476 5.476,5.476l31.247,-0Z" style="fill:#1e1c1a;fill-rule:nonzero;"/><path d="M374.371,112.46c0,-3.013 -2.463,-5.476 -5.476,-5.476l-17.167,-0c-3.013,-0 -5.476,2.463 -5.476,5.476l0,3.122c0,3.007 2.463,5.47 5.476,5.47l17.167,-0c3.013,-0 5.476,-2.463 5.476,-5.47l0,-3.122Z" style="fill:#1e1c1a;fill-rule:nonzero;"/><path d="M444.68,42.132c0,-3.013 -2.463,-5.476 -5.476,-5.476l-17.167,0c-3.013,0 -5.476,2.463 -5.476,5.476l0,3.122c0,3.007 2.463,5.47 5.476,5.47l17.167,0c3.013,0 5.476,-2.463 5.476,-5.47l0,-3.122Z" style="fill:#1e1c1a;fill-rule:nonzero;"/><path d="M472.7,140.341c-0,-3.012 -2.464,-5.475 -5.476,-5.475l-3.117,-0c-3.012,-0 -5.476,2.463 -5.476,5.475l0,3.134c0,3.007 2.464,5.47 5.476,5.47l3.117,0c3.012,0 5.476,-2.463 5.476,-5.47l-0,-3.134Z" style="fill:#1e1c1a;fill-rule:nonzero;"/><path d="M599.424,154.418l-0,59.453c-0,3.006 -2.463,5.469 -5.476,5.469l-59.458,0c-3.007,0 -5.47,-2.463 -5.47,-5.469l-0,-59.453c-0,-3.007 2.463,-5.47 5.47,-5.47l59.458,-0c3.013,-0 5.476,2.463 5.476,5.47Zm8.592,-19.55l-87.595,-0c-3.012,-0 -5.475,2.463 -5.475,5.476l-0,87.606c-0,3.007 2.463,5.47 5.475,5.47l87.595,0c3.013,0 5.476,-2.463 5.476,-5.47l0,-87.606c0,-3.013 -2.463,-5.476 -5.476,-5.476Z" style="fill:#1e1c1a;fill-rule:nonzero;"/><path d="M435.946,148.947c-3.013,-0 -5.476,-2.464 -5.476,-5.476l0,-3.128c0,-3.013 -2.463,-5.476 -5.47,-5.476l-3.145,-0c-3.007,-0 -5.47,2.463 -5.47,5.476l-0,17.207c-0,3.013 2.463,5.476 5.47,5.476l17.213,0c3.013,0 5.476,-2.463 5.476,-5.476l0,-3.128c0,-3.012 -2.463,-5.475 -5.476,-5.475l-3.122,-0Z" style="fill:#1e1c1a;fill-rule:nonzero;"/><path d="M500.858,157.555l0,-17.214c0,-3.013 -2.463,-5.476 -5.475,-5.476l-3.117,0c-3.013,0 -5.476,2.463 -5.476,5.476l0,17.214c0,3.006 2.463,5.469 5.476,5.469l3.117,0c3.012,0 5.475,-2.463 5.475,-5.469Z" style="fill:#1e1c1a;fill-rule:nonzero;"/><path d="M467.226,177.105c3.012,-0 5.475,-2.463 5.475,-5.476l0,-3.128c0,-3.013 -2.463,-5.476 -5.475,-5.476l-17.208,0c-3.013,0 -5.476,2.463 -5.476,5.476l-0,3.128c-0,3.013 -2.463,5.476 -5.476,5.476l-17.208,-0c-3.012,-0 -5.476,2.463 -5.476,5.476l0,3.128c0,3.012 2.464,5.476 5.476,5.476l31.299,-0c3.013,-0 5.47,-2.464 5.47,-5.476l0,-3.128c0,-3.013 2.464,-5.476 5.476,-5.476l3.123,-0Z" style="fill:#1e1c1a;fill-rule:nonzero;"/><path d="M579.858,163.026l-31.276,-0c-3.013,-0 -5.476,2.463 -5.476,5.475l0,31.288c0,3.013 2.463,5.476 5.476,5.476l31.276,-0c3.013,-0 5.476,-2.463 5.476,-5.476l-0,-31.288c-0,-3.012 -2.463,-5.475 -5.476,-5.475Z" style="fill:#1e1c1a;fill-rule:nonzero;"/><path d="M402.314,185.713l0,-17.214c0,-3.012 -2.463,-5.476 -5.476,-5.476l-3.139,0c-3.013,0 -5.476,-2.463 -5.476,-5.47l-0,-3.134c-0,-3.006 2.463,-5.47 5.476,-5.47l3.139,0c3.013,0 5.476,-2.463 5.476,-5.475l0,-3.134c0,-3.007 -2.463,-5.47 -5.476,-5.47l-17.207,-0c-3.013,-0 -5.476,2.463 -5.476,5.47l-0,31.293c-0,3.007 2.463,5.47 5.476,5.47l3.122,0c3.007,0 5.47,2.463 5.47,5.476l-0,3.134c-0,3.007 2.463,5.47 5.476,5.47l3.139,-0c3.013,-0 5.476,-2.463 5.476,-5.47Z" style="fill:#1e1c1a;fill-rule:nonzero;"/><path d="M295.156,205.264l31.276,0c3.012,0 5.476,-2.463 5.476,-5.476l-0,-31.287c-0,-3.013 -2.464,-5.476 -5.476,-5.476l-31.276,0c-3.013,0 -5.476,2.463 -5.476,5.476l-0,31.287c-0,3.013 2.463,5.476 5.476,5.476Z" style="fill:#1e1c1a;fill-rule:nonzero;"/><path d="M388.224,196.659c0,-3.012 -2.463,-5.476 -5.476,-5.476l-3.122,0c-3.007,0 -5.47,2.464 -5.47,5.476l-0,3.134c-0,3.007 2.463,5.47 5.47,5.47l3.122,0c3.013,0 5.476,-2.463 5.476,-5.47l0,-3.134Z" style="fill:#1e1c1a;fill-rule:nonzero;"/><path d="M500.858,199.793l0,-17.214c0,-3.012 -2.463,-5.475 -5.475,-5.475l-3.117,-0c-3.013,-0 -5.476,2.463 -5.476,5.475l0,17.214c0,3.007 2.463,5.47 5.476,5.47l3.117,0c3.012,0 5.475,-2.463 5.475,-5.47Z" style="fill:#1e1c1a;fill-rule:nonzero;"/><path d="M275.589,213.872l0,-59.453c0,-3.006 2.463,-5.475 5.476,-5.475l59.459,-0c3.006,-0 5.47,2.469 5.47,5.475l-0,59.453c-0,3.007 -2.464,5.47 -5.47,5.47l-59.459,0c-3.013,0 -5.476,-2.463 -5.476,-5.47Zm-8.592,19.55l87.595,-0c3.012,-0 5.476,-2.463 5.476,-5.476l-0,-87.606c-0,-3.007 -2.464,-5.47 -5.476,-5.47l-87.595,-0c-3.013,-0 -5.476,2.463 -5.476,5.47l0,87.606c0,3.013 2.463,5.476 5.476,5.476Z" style="fill:#1e1c1a;fill-rule:nonzero;"/><path d="M379.628,219.343c-3.012,0 -5.476,2.464 -5.476,5.476l0,3.128c0,3.013 2.464,5.476 5.476,5.476l3.123,0c3.012,0 5.475,-2.463 5.475,-5.476l0,-3.128c0,-3.012 -2.463,-5.476 -5.475,-5.476l-3.123,0Z" style="fill:#1e1c1a;fill-rule:nonzero;"/><path d="M266.994,247.502c-3.013,0 -5.476,2.463 -5.476,5.476l0,3.128c0,3.013 2.463,5.476 5.476,5.476l3.122,-0c3.007,-0 5.47,-2.463 5.47,-5.476l0,-3.128c0,-3.013 -2.463,-5.476 -5.47,-5.476l-3.122,0Z" style="fill:#1e1c1a;fill-rule:nonzero;"/><path d="M416.383,224.817c-0,-3.012 -2.463,-5.475 -5.476,-5.475l-3.116,-0c-3.013,-0 -5.476,2.463 -5.476,5.475l-0,3.134c-0,3.007 2.463,5.47 5.476,5.47l3.116,0c3.013,0 5.476,-2.463 5.476,-5.47l-0,-3.134Z" style="fill:#1e1c1a;fill-rule:nonzero;"/><path d="M444.541,224.817c0,-3.012 -2.463,-5.475 -5.476,-5.475l-3.122,-0c-3.007,-0 -5.47,2.463 -5.47,5.475l0,3.134c0,3.007 2.463,5.47 5.47,5.47l3.122,0c3.013,0 5.476,-2.463 5.476,-5.47l0,-3.134Z" style="fill:#1e1c1a;fill-rule:nonzero;"/><path d="M458.63,227.948c0,3.013 -2.463,5.476 -5.476,5.476l-3.139,0c-3.007,0 -5.476,2.463 -5.476,5.47l-0,3.134c-0,3.013 2.469,5.476 5.476,5.476l17.213,-0c3.007,-0 5.47,-2.463 5.47,-5.476l0,-45.367c0,-3.013 -2.463,-5.476 -5.47,-5.476l-3.122,0c-3.013,0 -5.476,2.463 -5.476,5.476l0,3.128c0,3.013 -2.463,5.476 -5.476,5.476l-3.139,-0c-3.007,-0 -5.476,2.463 -5.476,5.476l-0,3.128c-0,3.012 2.469,5.476 5.476,5.476l3.139,-0c3.013,-0 5.476,2.463 5.476,5.47l0,3.133Z" style="fill:#1e1c1a;fill-rule:nonzero;"/><path d="M500.858,224.817c0,-3.012 -2.463,-5.475 -5.475,-5.475l-3.117,-0c-3.013,-0 -5.476,2.463 -5.476,5.475l0,3.134c0,3.007 2.463,5.47 5.476,5.47l3.117,0c3.012,0 5.475,-2.463 5.475,-5.47l0,-3.134Z" style="fill:#1e1c1a;fill-rule:nonzero;"/><path d="M402.314,238.897c0,-3.013 -2.463,-5.476 -5.476,-5.476l-3.139,-0c-3.013,-0 -5.476,2.463 -5.476,5.476l-0,3.134c-0,3.006 2.463,5.47 5.476,5.47l3.139,-0c3.013,-0 5.476,-2.464 5.476,-5.47l0,-3.134Z" style="fill:#1e1c1a;fill-rule:nonzero;"/><path d="M424.998,247.502c3.012,0 5.476,-2.463 5.476,-5.476l-0,-3.128c-0,-3.012 -2.464,-5.475 -5.476,-5.475l-3.14,-0c-3.012,-0 -5.476,2.463 -5.476,5.475l0,3.128c0,3.013 2.464,5.476 5.476,5.476l3.14,0Z" style="fill:#1e1c1a;fill-rule:nonzero;"/><path d="M608.017,247.502l-31.276,0c-3.013,0 -5.476,2.463 -5.476,5.476l0,3.128c0,3.013 -2.463,5.476 -5.476,5.476l-3.139,-0c-3.013,-0 -5.476,-2.463 -5.476,-5.476l-0,-3.128c-0,-3.013 -2.463,-5.476 -5.47,-5.476l-3.123,0c-3.012,0 -5.475,2.463 -5.475,5.476l-0,3.128c-0,3.013 -2.464,5.476 -5.476,5.476l-3.14,-0c-3.007,-0 -5.47,2.463 -5.47,5.476l0,3.116c0,3.013 -2.463,5.476 -5.476,5.476l-17.213,0c-3.007,0 -5.47,2.463 -5.47,5.476l-0,3.14c-0,3.012 2.463,5.475 5.47,5.475l3.145,0c3.007,0 5.47,2.464 5.47,5.47l0,17.214c0,3.013 2.463,5.47 5.476,5.47l17.208,0c3.012,0 5.476,-2.457 5.476,-5.47l-0,-3.14c-0,-3.012 2.463,-5.475 5.475,-5.475l45.368,-0c3.012,-0 5.476,2.463 5.476,5.475l-0,3.14c-0,3.013 2.463,5.47 5.475,5.47l3.117,0c3.012,0 5.476,-2.457 5.476,-5.47l-0,-31.299c-0,-3.013 -2.464,-5.476 -5.476,-5.476l-3.117,0c-3.012,0 -5.475,2.463 -5.475,5.476l-0,3.14c-0,3.012 -2.464,5.475 -5.476,5.475l-17.208,0c-3.013,0 -5.476,-2.463 -5.476,-5.475l0,-3.14c0,-3.013 2.463,-5.476 5.476,-5.476l17.208,0c3.012,0 5.476,-2.463 5.476,-5.476l-0,-3.116c-0,-3.013 2.463,-5.476 5.475,-5.476l3.117,-0c3.012,-0 5.476,-2.463 5.476,-5.476l-0,-3.128c-0,-3.013 -2.464,-5.476 -5.476,-5.476Z" style="fill:#1e1c1a;fill-rule:nonzero;"/><path d="M472.7,252.974l-0,31.293c-0,3.007 -2.464,5.47 -5.476,5.47l-3.117,0c-3.012,0 -5.476,2.464 -5.476,5.476l0,17.208c0,3.013 2.464,5.476 5.476,5.476l3.117,-0c3.012,-0 5.476,-2.463 5.476,-5.476l-0,-3.14c-0,-3.006 2.463,-5.47 5.475,-5.47l3.14,0c3.013,0 5.476,-2.463 5.476,-5.475l-0,-31.282c-0,-3.007 2.463,-5.47 5.47,-5.47l17.214,-0c3.006,-0 5.475,-2.464 5.475,-5.476l0,-3.134c0,-3.007 -2.469,-5.47 -5.475,-5.47l-31.3,-0c-3.012,-0 -5.475,2.463 -5.475,5.47Z" style="fill:#1e1c1a;fill-rule:nonzero;"/><path d="M450.015,275.65c-3.012,0 -5.475,2.463 -5.475,5.476l-0,3.14c-0,3.012 2.463,5.475 5.475,5.475l3.14,0c3.013,0 5.476,-2.463 5.476,-5.475l-0,-3.14c-0,-3.013 -2.463,-5.476 -5.476,-5.476l-3.14,0Z" style="fill:#1e1c1a;fill-rule:nonzero;"/><path d="M430.472,298.335c-0,3.012 2.463,5.476 5.476,5.476l3.116,-0c3.013,-0 5.476,-2.464 5.476,-5.476l0,-3.122c0,-3.013 -2.463,-5.476 -5.476,-5.476l-3.116,-0c-3.013,-0 -5.476,2.463 -5.476,5.476l-0,3.122Z" style="fill:#1e1c1a;fill-rule:nonzero;"/><path d="M402.314,252.978l0,59.447c0,3.013 2.463,5.47 5.476,5.47l17.208,0c3.012,0 5.476,-2.457 5.476,-5.47l-0,-3.14c-0,-3.012 -2.464,-5.475 -5.476,-5.475l-3.14,-0c-3.012,-0 -5.476,-2.464 -5.476,-5.476l0,-3.123c0,-3.006 2.464,-5.47 5.476,-5.47l3.14,0c3.012,0 5.476,-2.463 5.476,-5.475l-0,-17.208c-0,-3.013 -2.464,-5.476 -5.476,-5.476l-3.14,-0c-3.012,-0 -5.476,-2.463 -5.476,-5.476l0,-3.128c0,-3.013 -2.463,-5.476 -5.475,-5.476l-3.117,0c-3.013,0 -5.476,2.463 -5.476,5.476Z" style="fill:#1e1c1a;fill-rule:nonzero;"/><path d="M495.384,317.898c3.012,-0 5.476,-2.463 5.476,-5.476l-0,-3.14c-0,-3.012 -2.464,-5.475 -5.476,-5.475l-3.123,-0c-3.006,-0 -5.47,2.463 -5.47,5.475l0,3.14c0,3.013 2.464,5.476 5.47,5.476l3.123,-0Z" style="fill:#1e1c1a;fill-rule:nonzero;"/><path d="M509.473,331.968c3.013,0 5.476,-2.463 5.476,-5.475l0,-3.123c0,-3.007 -2.463,-5.47 -5.476,-5.47l-3.139,0c-3.013,0 -5.476,2.463 -5.476,5.47l-0,3.123c-0,3.012 2.463,5.475 5.476,5.475l3.139,0Z" style="fill:#1e1c1a;fill-rule:nonzero;"/><path d="M543.106,379.677l-0,31.293c-0,3.013 -2.464,5.47 -5.476,5.47l-31.299,0c-3.007,0 -5.47,-2.457 -5.47,-5.47l-0,-31.293c-0,-3.007 2.463,-5.47 5.47,-5.47l31.299,-0c3.012,-0 5.476,2.463 5.476,5.47Zm42.227,-53.185c0,3.013 -2.463,5.476 -5.47,5.476l-17.213,-0c-3.013,-0 -5.476,-2.463 -5.476,-5.476l-0,-3.122c-0,-3.007 -2.463,-5.47 -5.47,-5.47l-3.123,-0c-3.012,-0 -5.475,2.463 -5.475,5.47l-0,31.282c-0,3.012 -2.464,5.475 -5.476,5.475l-59.453,0c-3.012,0 -5.476,2.464 -5.476,5.476l0,17.208c0,3.012 2.464,5.476 5.476,5.476l3.14,-0c3.007,-0 5.47,2.463 5.47,5.47l-0,3.134c-0,3.012 -2.463,5.475 -5.47,5.475l-31.299,0c-3.013,0 -5.476,2.464 -5.476,5.47l-0,3.134c-0,3.013 2.463,5.47 5.476,5.47l17.208,0c3.012,0 5.475,2.469 5.475,5.476l0,17.214c0,3.007 -2.463,5.47 -5.475,5.47l-3.123,-0c-3.007,-0 -5.47,2.463 -5.47,5.476l0,3.134c0,3.006 2.463,5.47 5.47,5.47l3.123,-0c3.012,-0 5.475,2.463 5.475,5.475l0,3.128c0,3.013 2.464,5.476 5.476,5.476l3.14,0c3.007,0 5.47,-2.463 5.47,-5.476l-0,-3.128c-0,-3.012 2.463,-5.475 5.476,-5.475l3.122,-0c3.012,-0 5.476,-2.464 5.476,-5.47l-0,-3.134c-0,-3.013 2.463,-5.476 5.47,-5.476l17.213,-0c3.013,-0 5.476,2.463 5.476,5.476l0,3.134c0,3.006 -2.463,5.47 -5.476,5.47l-3.122,-0c-3.013,-0 -5.476,2.463 -5.476,5.475l0,3.128c0,3.013 -2.463,5.476 -5.47,5.476l-17.213,0c-3.013,0 -5.476,2.463 -5.476,5.476l-0,3.128c-0,3.013 2.463,5.476 5.476,5.476l31.281,-0c3.013,-0 5.476,-2.463 5.476,-5.476l0,-3.128c0,-3.013 2.463,-5.476 5.47,-5.476l17.214,0c3.007,0 5.47,-2.463 5.47,-5.476l-0,-17.207c-0,-3.013 -2.463,-5.476 -5.47,-5.476l-3.123,-0c-3.012,-0 -5.475,-2.463 -5.475,-5.47l-0,-3.134c-0,-3.007 2.463,-5.476 5.475,-5.476l3.123,0c3.007,0 5.47,2.469 5.47,5.476l-0,3.134c-0,3.007 2.463,5.47 5.476,5.47l3.139,-0c3.013,-0 5.476,-2.463 5.476,-5.47l0,-17.214c0,-3.007 -2.463,-5.476 -5.476,-5.476l-3.139,0c-3.013,0 -5.476,-2.457 -5.476,-5.47l-0,-3.134c-0,-3.006 2.463,-5.47 5.476,-5.47l3.139,0c3.013,0 5.476,-2.463 5.476,-5.475l0,-3.134c0,-3.007 -2.463,-5.47 -5.476,-5.47l-3.139,-0c-3.013,-0 -5.476,-2.464 -5.476,-5.476l-0,-31.282c-0,-3.007 2.463,-5.476 5.476,-5.476l3.139,0c3.013,0 5.476,2.469 5.476,5.476l0,17.202c0,3.013 2.463,5.476 5.476,5.476l3.122,-0c3.007,-0 5.47,2.463 5.47,5.47l0,3.134c0,3.012 2.463,5.476 5.476,5.476l3.14,-0c3.012,-0 5.476,-2.464 5.476,-5.476l-0,-17.208c-0,-3.012 -2.464,-5.476 -5.476,-5.476l-3.14,0c-3.013,0 -5.476,-2.463 -5.476,-5.475l0,-3.123c0,-3.007 2.463,-5.476 5.476,-5.476l3.14,0c3.012,0 5.476,2.469 5.476,5.476l-0,3.123c-0,3.012 2.463,5.475 5.475,5.475l3.117,0c3.012,0 5.476,-2.463 5.476,-5.475l-0,-17.208c-0,-3.013 -2.464,-5.476 -5.476,-5.476l-3.117,-0c-3.012,-0 -5.475,-2.463 -5.475,-5.476l-0,-3.122c-0,-3.007 -2.464,-5.47 -5.476,-5.47l-3.14,-0c-3.013,-0 -5.476,2.463 -5.476,5.47l0,3.122Z" style="fill:#1e1c1a;fill-rule:nonzero;"/><path d="M416.383,337.442c-0,-3.012 -2.463,-5.475 -5.476,-5.475l-3.116,-0c-3.013,-0 -5.476,2.463 -5.476,5.475l-0,3.14c-0,3.013 2.463,5.476 5.476,5.476l3.116,-0c3.013,-0 5.476,-2.463 5.476,-5.476l-0,-3.14Z" style="fill:#1e1c1a;fill-rule:nonzero;"/><path d="M450.018,346.056l45.367,0c3.012,0 5.476,-2.463 5.476,-5.476l-0,-3.139c-0,-3.007 -2.464,-5.47 -5.476,-5.47l-3.122,-0c-3.013,-0 -5.476,-2.463 -5.476,-5.476l-0,-3.122c-0,-3.013 -2.463,-5.476 -5.47,-5.476l-3.146,-0c-3.006,-0 -5.47,2.463 -5.47,5.476l0,3.122c0,3.013 -2.463,5.476 -5.475,5.476l-3.123,-0c-3.012,-0 -5.476,-2.463 -5.476,-5.476l0,-3.122c0,-3.013 -2.457,-5.476 -5.47,-5.476l-17.213,-0c-3.007,-0 -5.47,2.463 -5.47,5.476l-0,3.122c-0,3.013 2.463,5.476 5.47,5.476l3.122,-0c3.013,-0 5.476,2.463 5.476,5.47l-0,3.139c-0,3.013 2.463,5.476 5.476,5.476Z" style="fill:#1e1c1a;fill-rule:nonzero;"/><path d="M523.543,346.056c3.013,0 5.476,-2.463 5.476,-5.476l0,-3.139c0,-3.007 -2.463,-5.47 -5.476,-5.47l-3.122,-0c-3.013,-0 -5.476,2.463 -5.476,5.47l0,3.139c0,3.013 2.463,5.476 5.476,5.476l3.122,0Z" style="fill:#1e1c1a;fill-rule:nonzero;"/><path d="M402.314,351.53c0,-3.012 -2.463,-5.476 -5.476,-5.476l-3.139,0c-3.013,0 -5.476,2.464 -5.476,5.476l-0,3.123c-0,3.012 2.463,5.475 5.476,5.475l3.139,0c3.013,0 5.476,-2.463 5.476,-5.475l0,-3.123Z" style="fill:#1e1c1a;fill-rule:nonzero;"/><path d="M435.945,374.206l17.214,-0c3.006,-0 5.47,-2.463 5.47,-5.476l-0,-3.128c-0,-3.013 -2.464,-5.476 -5.47,-5.476l-3.146,0c-3.007,0 -5.47,-2.463 -5.47,-5.476l-0,-3.122c-0,-3.007 -2.463,-5.47 -5.476,-5.47l-3.122,-0c-3.007,-0 -5.47,2.463 -5.47,5.47l-0,3.122c-0,3.013 -2.463,5.476 -5.476,5.476l-3.14,0c-3.012,0 -5.475,2.463 -5.475,5.476l-0,17.208c-0,3.012 2.463,5.476 5.475,5.476l3.14,-0c3.013,-0 5.476,-2.464 5.476,-5.476l-0,-3.128c-0,-3.013 2.463,-5.476 5.47,-5.476Z" style="fill:#1e1c1a;fill-rule:nonzero;"/><path d="M345.996,407.835l-0,59.453c-0,3.007 -2.463,5.47 -5.476,5.47l-59.458,0c-3.007,0 -5.47,-2.463 -5.47,-5.47l-0,-59.453c-0,-3.006 2.463,-5.47 5.47,-5.47l59.458,0c3.013,0 5.476,2.464 5.476,5.47Zm8.598,-19.549l-87.601,-0c-3.006,-0 -5.47,2.463 -5.47,5.475l0,87.607c0,3.007 2.464,5.47 5.47,5.47l87.601,-0c3.007,-0 5.47,-2.463 5.47,-5.47l0,-87.607c0,-3.012 -2.463,-5.475 -5.47,-5.475Z" style="fill:#1e1c1a;fill-rule:nonzero;"/><path d="M444.541,393.759c0,-3.013 -2.463,-5.476 -5.476,-5.476l-3.122,0c-3.007,0 -5.47,2.463 -5.47,5.476l0,3.134c0,3.007 2.463,5.47 5.47,5.47l3.122,-0c3.013,-0 5.476,-2.463 5.476,-5.47l0,-3.134Z" style="fill:#1e1c1a;fill-rule:nonzero;"/><path d="M514.947,396.89c0,3.013 2.464,5.476 5.476,5.476l3.123,-0c3.006,-0 5.47,-2.463 5.47,-5.476l-0,-3.134c-0,-3.007 -2.464,-5.47 -5.47,-5.47l-3.123,0c-3.012,0 -5.476,2.463 -5.476,5.47l0,3.134Z" style="fill:#1e1c1a;fill-rule:nonzero;"/><path d="M599.424,410.969c-0,3.013 2.463,5.476 5.476,5.476l3.116,0c3.013,0 5.476,-2.463 5.476,-5.476l0,-17.208c0,-3.012 -2.463,-5.475 -5.476,-5.475l-3.116,-0c-3.013,-0 -5.476,2.463 -5.476,5.475l-0,17.208Z" style="fill:#1e1c1a;fill-rule:nonzero;"/><path d="M326.43,416.443l-31.276,0c-3.013,0 -5.476,2.463 -5.476,5.476l0,31.288c0,3.012 2.463,5.475 5.476,5.475l31.276,0c3.013,0 5.476,-2.463 5.476,-5.475l-0,-31.288c-0,-3.013 -2.463,-5.476 -5.476,-5.476Z" style="fill:#1e1c1a;fill-rule:nonzero;"/><path d="M450.015,430.523c-3.012,-0 -5.475,-2.463 -5.475,-5.476l-0,-3.128c-0,-3.013 -2.464,-5.476 -5.47,-5.476l-3.123,0c-3.012,0 -5.476,-2.463 -5.476,-5.476l0,-3.128c0,-3.012 -2.463,-5.475 -5.475,-5.475l-17.208,-0c-3.013,-0 -5.476,-2.464 -5.476,-5.476l-0,-3.128c-0,-3.013 -2.463,-5.476 -5.47,-5.476l-3.146,-0c-3.006,-0 -5.47,-2.463 -5.47,-5.47l0,-17.214c0,-3.012 -2.463,-5.476 -5.475,-5.476l-45.368,0c-3.012,0 -5.475,2.464 -5.475,5.476l-0,3.134c-0,3.007 2.463,5.47 5.475,5.47l31.3,0c3.006,0 5.469,2.463 5.469,5.476l0,59.447c0,3.012 2.464,5.476 5.476,5.476l3.123,-0c3.012,-0 5.475,-2.464 5.475,-5.476l0,-17.208c0,-3.013 2.464,-5.476 5.47,-5.476l3.146,0c3.007,0 5.47,2.463 5.47,5.476l-0,17.208c-0,3.012 -2.463,5.476 -5.47,5.476l-3.146,-0c-3.006,-0 -5.47,2.463 -5.47,5.475l0,17.208c0,3.013 -2.463,5.476 -5.475,5.476l-3.123,0c-3.012,0 -5.476,2.463 -5.476,5.47l0,3.134c0,3.013 2.464,5.476 5.476,5.476l17.214,-0c3.007,-0 5.47,-2.463 5.47,-5.476l-0,-17.208c-0,-3.012 2.463,-5.476 5.476,-5.476l3.122,0c3.013,0 5.47,2.464 5.47,5.476l0,17.208c0,3.013 2.463,5.476 5.476,5.476l3.14,-0c3.012,-0 5.475,-2.463 5.475,-5.476l0,-31.288c0,-3.012 -2.463,-5.475 -5.475,-5.475l-3.14,-0c-3.013,-0 -5.476,-2.464 -5.476,-5.476l0,-3.128c0,-3.013 2.463,-5.476 5.476,-5.476l3.14,-0c3.012,-0 5.475,2.463 5.475,5.476l0,3.128c0,3.012 2.464,5.476 5.476,5.476l17.208,-0c3.013,-0 5.476,-2.464 5.476,-5.476l-0,-3.128c-0,-3.013 -2.463,-5.476 -5.476,-5.476l-3.14,-0Z" style="fill:#1e1c1a;fill-rule:nonzero;"/><path d="M571.265,467.286c-0,3.013 2.463,5.476 5.475,5.476l17.208,0c3.013,0 5.476,2.463 5.476,5.47l-0,3.134c-0,3.013 2.463,5.476 5.476,5.476l3.116,-0c3.013,-0 5.476,-2.463 5.476,-5.476l0,-45.367c0,-3.013 -2.463,-5.476 -5.476,-5.476l-17.208,-0c-3.012,-0 -5.475,2.463 -5.475,5.476l-0,3.128c-0,3.012 -2.464,5.476 -5.47,5.476l-3.123,-0c-3.012,-0 -5.475,2.463 -5.475,5.475l-0,17.208Z" style="fill:#1e1c1a;fill-rule:nonzero;"/><path d="M458.63,481.366c0,3.012 2.463,5.475 5.476,5.475l3.122,0c3.007,0 5.47,-2.463 5.47,-5.475l0,-3.134c0,-3.007 -2.463,-5.47 -5.47,-5.47l-3.122,-0c-3.013,-0 -5.476,2.463 -5.476,5.47l0,3.134Z" style="fill:#1e1c1a;fill-rule:nonzero;"/><path d="M557.176,481.366c0,3.012 2.463,5.475 5.476,5.475l3.14,0c3.012,0 5.475,-2.463 5.475,-5.475l0,-3.134c0,-3.007 -2.463,-5.47 -5.475,-5.47l-3.14,-0c-3.013,-0 -5.476,2.463 -5.476,5.47l0,3.134Z" style="fill:#1e1c1a;fill-rule:nonzero;"/><path d="M223.923,383.162c-1.752,16.306 -10.992,11.628 -15.554,2.515c-4.528,-9.026 -19.539,-15.907 -23.598,-18.572c-4.082,-2.683 -7.175,-3.961 -2.307,-13.571c10.692,-21.071 41.811,-26.731 41.811,-26.731c1.498,-3.84 3.158,-7.327 4.852,-10.125c18.994,-39.631 56.353,-70.931 101.773,-69.445c21.816,1.394 44.968,6.656 62.251,24.211c0.492,49.253 -53.167,67.212 -89.561,56.827c-8.396,-2.399 -40.157,-8.737 -66.189,0.093c-4.631,6.748 -11.732,38.504 -13.478,54.798" style="fill:#1e1c1a;fill-rule:nonzero;"/></g><defs><linearGradient id="_Linear1" x1="0" y1="0" x2="1" y2="0" gradientUnits="userSpaceOnUse" gradientTransform="matrix(828.634,-511.205,511.205,828.634,14.1651,605.1)"><stop offset="0" style="stop-color:#c3a45d;stop-opacity:1"/><stop offset="0.41" style="stop-color:#ffeed4;stop-opacity:1"/><stop offset="0.94" style="stop-color:#c3a45d;stop-opacity:1"/><stop offset="1" style="stop-color:#c3a45d;stop-opacity:1"/></linearGradient></defs></svg>