<?xml version="1.0" encoding="UTF-8" standalone="no"?><!DOCTYPE svg PUBLIC "-//W3C//DTD SVG 1.1//EN" "http://www.w3.org/Graphics/SVG/1.1/DTD/svg11.dtd"><svg width="100%" height="100%" viewBox="0 0 11812 6292" version="1.1" xmlns="http://www.w3.org/2000/svg" xmlns:xlink="http://www.w3.org/1999/xlink" xml:space="preserve" xmlns:serif="http://www.serif.com/" style="fill-rule:evenodd;clip-rule:evenodd;stroke-linejoin:round;stroke-miterlimit:2;"><path d="M4157.94,3809.68c-20.049,-0 -36.349,-16.297 -36.349,-36.341c-0,-20.017 16.3,-36.313 36.349,-36.313c20.05,-0 36.35,16.296 36.35,36.313c0,20.044 -16.3,36.341 -36.35,36.341" style="fill:#d21567;fill-rule:nonzero;"/><path d="M6107.9,3809.68c-20.049,-0 -36.349,-16.297 -36.349,-36.341c-0,-20.017 16.3,-36.313 36.349,-36.313c20.05,-0 36.35,16.296 36.35,36.313c0,20.044 -16.3,36.341 -36.35,36.341" style="fill:#d21567;fill-rule:nonzero;"/><path d="M4597.07,3663.32c-20.049,-0 -36.349,16.296 -36.349,36.34c-0,20.017 16.3,36.341 36.349,36.341c20.05,-0 36.35,-16.324 36.35,-36.341c-0,-20.044 -16.3,-36.34 -36.35,-36.34" style="fill:#d21567;fill-rule:nonzero;"/><path d="M4597.07,3569.58c20.05,-0 36.35,-16.296 36.35,-36.34c-0,-20.045 -16.3,-36.341 -36.35,-36.341c-20.049,0 -36.349,16.296 -36.349,36.341c-0,20.044 16.3,36.34 36.349,36.34" style="fill:#d21567;fill-rule:nonzero;"/><path d="M1091.7,3422.63l-78.323,53.451l40.996,60.024l37.327,-25.476l0,299.062l72.673,-0l-0,-387.061l-72.673,-0Z" style="fill:#000221;fill-rule:nonzero;"/><path d="M3214.93,3494.13l-149.474,315.548l79.871,0l149.637,-315.548l0,-72.654l-252.845,0l0,72.654l172.811,0Z" style="fill:#000221;fill-rule:nonzero;"/><path d="M1532.92,3537.31c0,-63.338 -46.32,-109.456 -114.863,-114.834c-39.012,-3.069 -90.276,6.791 -124.453,30.094l36.622,55.679c-0,-0 34.855,-21.348 80.469,-16.921c33.198,3.205 49.526,22.733 49.526,45.982c-0,81.155 -146.35,123.579 -172.349,216.522c-4.51,16.079 -5.379,32.456 -5.379,55.841l240.565,0l0,-72.653l-142.709,-0c6.982,-32.946 152.571,-90.879 152.571,-199.71" style="fill:#000221;fill-rule:nonzero;"/><path d="M2073.06,3664.94l72.292,-109.972l-0,109.972l-72.292,0Zm-86.962,72.654l159.254,0l-0,72.083l72.672,0l0,-72.083l41.457,0l0,-72.654l-41.457,0l0,-242.297l-72.672,0l-159.254,242.297l-0,72.654Z" style="fill:#000221;fill-rule:nonzero;"/><path d="M2492.55,3554.38l-30.835,-0l-0,-59.671l135.646,-0l-0,-72.654l-208.345,-0l-0,205.006l103.534,-0c30.318,-0 54.986,24.661 54.986,54.972c0,30.311 -24.668,54.972 -54.986,54.972l-103.534,0l-0,72.681l103.534,0c70.526,0 127.685,-57.145 127.685,-127.653c0,-70.508 -57.159,-127.653 -127.685,-127.653" style="fill:#000221;fill-rule:nonzero;"/><path d="M2839.6,3737.6c-30.373,0 -54.987,-24.607 -54.987,-54.972c0,-30.365 24.614,-55 54.987,-55c30.373,0 54.986,24.635 54.986,55c0,30.365 -24.613,54.972 -54.986,54.972m-0,-182.626l-0,-0.027c-0.272,0 -0.544,0.055 -0.815,0.055l62.702,-132.38l-79.872,0l-98.318,207.369l0.027,0.109c-7.281,16.024 -11.41,33.76 -11.41,52.501l0,0.027c0,70.481 57.16,127.653 127.686,127.653c70.526,0 127.686,-57.172 127.686,-127.653c-0,-70.508 -57.16,-127.654 -127.686,-127.654" style="fill:#000221;fill-rule:nonzero;"/><path d="M3851.22,3495.3c30.373,-0 54.986,24.607 54.986,54.972c-0,30.393 -24.613,55 -54.986,55c-30.373,-0 -54.987,-24.607 -54.987,-55c0,-30.365 24.614,-54.972 54.987,-54.972m-0,182.653c0.271,-0 0.543,-0.055 0.815,-0.055l-62.702,132.38l79.871,-0l98.318,-207.369l0,-0.109c7.254,-16.024 11.383,-33.76 11.383,-52.501c0,-70.508 -57.159,-127.653 -127.685,-127.653c-70.526,0 -127.686,57.145 -127.686,127.653c-0,70.481 57.16,127.654 127.686,127.654" style="fill:#000221;fill-rule:nonzero;"/><path d="M747.405,3550.28c0,-30.365 24.614,-54.972 54.987,-54.972c30.373,-0 55.013,24.607 55.013,54.972l0,138.3c0,30.366 -24.64,55 -55.013,55c-30.373,-0 -54.987,-24.634 -54.987,-55l0,-138.3Zm-72.699,138.3c0,70.508 57.187,127.654 127.686,127.654c70.526,-0 127.686,-57.146 127.686,-127.654l-0,-138.3c-0,-70.508 -57.16,-127.653 -127.686,-127.653c-70.499,-0 -127.686,57.145 -127.686,127.653l0,138.3Z" style="fill:#000221;fill-rule:nonzero;"/><path d="M1828.82,3605.95c23.12,-19.338 37.79,-48.399 37.545,-80.964c-0.434,-57.662 -48.14,-103.78 -105.761,-103.943l-120.46,0l0,72.654l112.309,-0c23.337,-0 42.245,18.931 42.245,42.261c0,23.331 -18.908,42.262 -42.245,42.262l-80.849,-0.055l-0,72.464l94.84,-0c23.853,-0 43.196,19.338 43.196,43.185c0,23.847 -19.343,43.185 -43.196,43.185l-126.3,-0l0,72.681l129.18,-0c60.692,-0.191 110.951,-48.753 111.386,-109.484c0.298,-39.789 -20.539,-74.636 -51.89,-94.246" style="fill:#000221;fill-rule:nonzero;"/><path d="M3523.51,3743.37l-28.01,0c-23.852,0 -43.195,-19.338 -43.195,-43.185c-0,-23.847 19.343,-43.185 43.195,-43.185l28.01,0c23.852,0 43.195,19.338 43.195,43.185c0,23.847 -19.343,43.185 -43.195,43.185m-14.019,-259.761c23.364,0 42.273,18.931 42.273,42.262c-0,23.33 -18.909,42.261 -42.273,42.261c-23.336,-0 -42.245,-18.931 -42.245,-42.261c0,-23.331 18.909,-42.262 42.245,-42.262m-8.15,-62.577c-57.621,0.19 -105.354,46.308 -105.762,103.969c-0.244,32.566 14.426,61.6 37.545,80.965c-31.35,19.61 -52.188,54.457 -51.889,94.246c0.435,60.704 50.694,109.293 111.386,109.483l33.768,0c60.692,-0.19 110.924,-48.779 111.386,-109.483c0.299,-39.789 -20.539,-74.636 -51.889,-94.246c23.119,-19.365 37.789,-48.399 37.545,-80.965c-0.435,-57.661 -48.141,-103.779 -105.789,-103.969l-16.301,-0Z" style="fill:#000221;fill-rule:nonzero;"/><path d="M7344.48,3166.92c-28.716,0 -58.763,-5.649 -94.515,-17.763l-17.632,-5.622l22.115,-69.204l18.229,5.812c28.634,9.669 51.237,14.096 71.803,14.096c23.255,0 42.19,-18.903 42.19,-42.152c0,-26.373 -25.51,-39.41 -47.379,-42.561c-64.577,-9.288 -109.674,-56.357 -109.674,-114.453c-0,-63.338 51.509,-114.861 114.863,-114.861c28.715,0 58.762,5.65 94.541,17.763l17.088,5.867l-23.581,68.742l-16.979,-5.839c-27.901,-9.425 -50.504,-13.852 -71.069,-13.852c-23.256,0 -42.191,18.931 -42.191,42.18c-0,26.346 25.537,39.382 47.379,42.533c64.577,9.289 109.674,56.358 109.674,114.481c0,63.31 -51.509,114.833 -114.862,114.833" style="fill:#000221;fill-rule:nonzero;"/><path d="M7068.12,3035.58c47.108,-20.587 80.035,-67.602 79.953,-122.276c-0.081,-73.767 -60.936,-133.058 -134.695,-133.058l-150.153,0l0,387.523l72.673,0l-0,-314.869l78.92,0c33.416,0 60.583,27.16 60.583,60.567c-0,14.803 -5.95,47.069 -48.521,59.346c-32.22,9.261 -47.189,34.059 -47.189,59.128c0,14.449 5.08,27.73 13.584,38.16l-0.028,0.027l81.937,97.641l94.867,0l-103.86,-123.742c-2.309,-2.77 -1.358,-7.007 1.929,-8.447" style="fill:#000221;fill-rule:nonzero;"/><path d="M799.735,3000.53l54.389,-131.754l54.415,131.754l-108.804,0Zm90.738,-219.754l-72.672,0l-159.797,387.007l72.672,0l39.066,-94.599l168.79,0l39.066,94.599l72.673,0l-159.798,-387.007Z" style="fill:#000221;fill-rule:nonzero;"/><path d="M7844.21,2780.07l-304.925,0l0,72.654l116.14,0l-0,315.059l72.672,0l0,-315.059l116.113,0l-0,-72.654Z" style="fill:#000221;fill-rule:nonzero;"/><path d="M3525.06,2780.75l-0,157.204l-159.553,-0l-0,-157.204l-72.672,0l-0,387.061l72.672,0l-0,-157.204l159.553,0l-0,157.204l72.672,0l-0,-387.061l-72.672,0Z" style="fill:#000221;fill-rule:nonzero;"/><rect x="3690.04" y="2780.74" width="72.672" height="387.061" style="fill:#000221;"/><path d="M4338.36,3167.8l-198.62,-198.569l188.54,-188.465l-102.8,0l-119.346,119.315l0,-119.342l-72.699,-0l0,387.061l72.699,-0l0,-129.419l129.425,129.419l102.801,-0Z" style="fill:#000221;fill-rule:nonzero;"/><path d="M4484.48,3095.14l0,-314.38l-72.672,-0l0,387.034l227.824,-0l0,-72.654l-155.152,0Z" style="fill:#000221;fill-rule:nonzero;"/><path d="M2836.28,2853.41l0,-72.654l-227.851,0l-0,387.062l72.699,-0l0,-157.204l136.434,-0l-0,-72.681l-136.434,-0l0,-84.523l155.152,0Z" style="fill:#000221;fill-rule:nonzero;"/><path d="M2528.49,2853.41l-0,-72.654l-227.852,0l0,387.062l227.852,-0l-0,-72.681l-155.152,-0l-0,-84.523l136.433,-0l0,-72.681l-136.433,-0l-0,-84.523l155.152,0Z" style="fill:#000221;fill-rule:nonzero;"/><path d="M5758.25,3094.94c-66.804,0 -121.139,-54.32 -121.139,-121.107c0,-66.787 54.335,-121.108 121.139,-121.108c66.804,0 121.138,54.321 121.138,121.108c0,66.787 -54.334,121.107 -121.138,121.107m-0,-314.869c-107.039,0 -193.811,86.75 -193.811,193.762c0,107.011 86.772,193.761 193.811,193.761c107.038,0 193.81,-86.75 193.81,-193.761c0,-107.012 -86.772,-193.762 -193.81,-193.762" style="fill:#000221;fill-rule:nonzero;"/><path d="M7924.15,2780.07l0,235.1c0,84.197 68.244,152.423 152.463,152.423c84.191,0 152.435,-68.226 152.435,-152.423l-0,-235.1l-72.673,0l0,235.127c0,43.945 -35.806,79.742 -79.762,79.742c-43.984,0 -79.763,-35.797 -79.763,-79.742l-0,-235.127l-72.7,0Z" style="fill:#000221;fill-rule:nonzero;"/><path d="M5414.78,2780.77l0,262.885l-189.654,-262.613l0,-0.272l-72.672,0l-0,387.007l72.672,0l0,-262.585l147.11,203.675c41.322,58.72 69.576,58.91 115.216,58.91l0,-387.007l-72.672,0Z" style="fill:#000221;fill-rule:nonzero;"/><path d="M3141.01,3084.64c-15.295,6.981 -32.248,10.973 -50.124,10.973c-66.804,0 -121.138,-54.32 -121.138,-121.08c-0,-66.788 54.334,-121.108 121.138,-121.108c28.825,-0 56.807,7.822 94.379,41.881l28.417,-70.671c-33.416,-27.432 -76.177,-43.891 -122.796,-43.891c-107.038,0 -193.81,86.75 -193.81,193.789c-0,107.011 86.772,193.761 193.81,193.761c46.619,0 89.38,-16.459 122.796,-43.864l-0,-136.263l-72.672,0l-0,96.473Z" style="fill:#000221;fill-rule:nonzero;"/><path d="M1597.91,2974.53c-0,-66.787 54.334,-121.108 121.138,-121.108c28.797,0 56.807,7.849 94.379,41.881l28.417,-70.671c-33.443,-27.405 -76.177,-43.864 -122.796,-43.864c-107.039,0 -193.811,86.75 -193.811,193.762l0,-0.245c0,107.012 86.772,193.762 193.811,193.762c46.619,-0 89.353,-16.459 122.796,-43.864l-28.417,-70.698c-37.572,34.059 -65.582,41.908 -94.379,41.908c-66.804,-0 -121.138,-54.348 -121.138,-121.108l-0,0.245Z" style="fill:#000221;fill-rule:nonzero;"/><path d="M6147.89,3047.11l34.937,-0c74.031,-0 134.016,-60.296 133.446,-134.444c-0.544,-73.441 -61.29,-132.161 -134.695,-132.406l-150.153,0l-0,387.55l72.672,0l-0,-314.869l78.948,0c33.388,0 60.555,27.16 60.555,60.54c0,14.83 -6.927,51.795 -48.52,59.345c-32.981,5.976 -47.19,27.079 -47.19,52.148l0,22.136Z" style="fill:#000221;fill-rule:nonzero;"/><path d="M6589.46,3094.94c-66.804,0 -121.138,-54.32 -121.138,-121.107c-0,-66.787 54.334,-121.108 121.138,-121.108c66.804,0 121.139,54.321 121.139,121.108c-0,66.787 -54.335,121.107 -121.139,121.107m193.811,-121.107c-0,-107.012 -86.772,-193.762 -193.811,-193.762c-107.038,0 -193.81,86.75 -193.81,193.762c-0,107.011 86.772,193.761 193.81,193.761c16.545,0 32.492,-2.281 47.842,-6.192l51.101,61.681l94.868,-0l-78.024,-94.138c47.271,-35.335 78.024,-91.557 78.024,-155.112" style="fill:#000221;fill-rule:nonzero;"/><path d="M4896.55,3056.66l106.25,-151.228l0,262.586l72.673,-0l-0,-386.98l-72.673,-0l0,0.272l-106.25,149.272l-106.251,-149.272l-0,-0.272l-72.672,-0l-0,386.98l72.672,-0l-0,-262.586l106.251,151.228Z" style="fill:#000221;fill-rule:nonzero;"/><path d="M2031.49,3095.38l-48.574,0l-0,-241.971l48.574,0c66.75,0 121.057,54.266 121.139,120.999c-0.082,66.706 -54.389,120.972 -121.139,120.972m-121.274,-314.625l0,387.55l121.274,0c107.012,0 193.73,-86.94 193.811,-193.897c-0.081,-106.957 -86.799,-193.653 -193.811,-193.653l-121.274,0Z" style="fill:#000221;fill-rule:nonzero;"/><path d="M3928.07,3167.82l-0,-387.062l-72.672,0l-0,387.062c-0,45.031 -25.048,83.871 -58.817,107.744l49.987,49.975c49.255,-35.118 81.502,-92.616 81.502,-157.719" style="fill:#000221;fill-rule:nonzero;"/><path d="M8582.77,2780.07l-107.311,248.924l-107.935,-248.924l-79.138,0c0,0 110.326,251.504 129.452,298.356c21.706,53.098 31.487,88.651 77.236,88.651l166.834,-387.007l-79.138,0Z" style="fill:#000221;fill-rule:nonzero;"/><path d="M8901.69,3028.98l-107.935,-248.924l-79.138,0c-0,0 110.299,251.531 129.452,298.383c21.706,53.071 31.486,88.624 77.236,88.624l88.212,-204.598c22.358,51.441 42.571,98.293 49.797,115.974c21.707,53.071 31.487,88.624 77.236,88.624l166.834,-387.007l-79.138,0l-107.31,248.924l-107.935,-248.924l-107.311,248.924Z" style="fill:#000221;fill-rule:nonzero;"/><path d="M9679.89,2780.42l-92.341,-0l-69.575,116.327l-69.576,-116.327l-92.341,-0l115.76,193.517l-115.76,193.489l92.341,0l69.576,-116.327l69.575,116.327l92.341,0l-115.732,-193.489l115.732,-193.517Z" style="fill:#000221;fill-rule:nonzero;"/><path d="M10056.4,2780.42l-92.341,-0l-69.576,116.327l-69.575,-116.327l-92.341,-0l125.594,209.921l-0,177.466l72.672,-0l0,-177.466l125.567,-209.921Z" style="fill:#000221;fill-rule:nonzero;"/><path d="M10419.5,2779.57l-306.853,-0l-0,72.654l209.268,-0l-145.453,162.31c-68.298,78.737 -72.291,92.942 -72.291,153.021l315.329,-0l-0,-72.654l-217.473,-0l217.473,-242.677l-0,-72.654Z" style="fill:#000221;fill-rule:nonzero;"/><path d="M1331.02,3096.73l-128.121,-0l0,-86.37l128.121,0c23.852,0 43.195,19.338 43.195,43.185c0,23.847 -19.343,43.185 -43.195,43.185m-128.121,-243.302l114.102,0c23.364,0 42.272,18.904 42.272,42.234c0,23.358 -18.908,42.262 -42.272,42.262l-114.102,-0.027l0,-84.469Zm131,314.38c60.692,-0.19 110.924,-47.177 111.386,-107.88c0.299,-39.79 -20.539,-74.637 -51.89,-94.246c23.12,-19.366 37.79,-48.4 37.545,-80.965c-0.434,-57.661 -48.14,-103.78 -105.789,-103.97l-194.951,0l-0,387.061l203.699,0Z" style="fill:#000221;fill-rule:nonzero;"/><path d="M4413.85,3773.35c0,-20.044 -16.3,-36.34 -36.349,-36.34c-20.023,-0 -36.35,16.296 -36.35,36.34c0,14.178 8.259,26.373 20.158,32.348c-2.554,7.958 -8.014,17.817 -19.615,25.83c51.102,-7.116 67.429,-40.333 67.429,-40.333l-0.163,-0c3.016,-5.297 4.89,-11.326 4.89,-17.845" style="fill:#d21567;fill-rule:nonzero;"/><path d="M4816.63,3569.58c20.049,-0 36.349,-16.296 36.349,-36.34c0,-20.045 -16.3,-36.341 -36.349,-36.341c-20.05,0 -36.35,16.296 -36.35,36.341c-0,20.044 16.3,36.34 36.35,36.34" style="fill:#d21567;fill-rule:nonzero;"/><path d="M4816.63,3663.32c-20.05,-0 -36.35,16.296 -36.35,36.34c-0,14.178 8.259,26.373 20.158,32.348c-2.581,7.958 -8.014,17.817 -19.615,25.83c51.102,-7.116 67.429,-40.333 67.429,-40.333l-0.163,-0c3.016,-5.297 4.89,-11.326 4.89,-17.845c0,-20.044 -16.3,-36.34 -36.349,-36.34" style="fill:#d21567;fill-rule:nonzero;"/><path d="M6144.24,3422.05l-72.672,0l6.357,260.576l59.958,0l6.357,-260.576Z" style="fill:#d21567;fill-rule:nonzero;"/><path d="M5072.22,3457.37c-0,-20.044 -16.301,-36.341 -36.35,-36.341c-20.049,0 -36.35,16.297 -36.35,36.341c0,2.689 0.354,5.269 0.897,7.795l-0.082,-0.054c0,-0 5.841,36.557 52.569,58.394c-8.694,-11.054 -11.03,-22.027 -11.139,-30.392c17.251,-2.852 30.455,-17.736 30.455,-35.743" style="fill:#d21567;fill-rule:nonzero;"/><path d="M5508.16,3457.37c-0,-20.044 -16.301,-36.341 -36.35,-36.341c-20.022,0 -36.35,16.297 -36.35,36.341c0,2.689 0.353,5.269 0.897,7.795l-0.055,-0.054c0,-0 5.814,36.557 52.542,58.394c-8.694,-11.054 -11.003,-22.027 -11.139,-30.392c17.251,-2.852 30.455,-17.736 30.455,-35.743" style="fill:#d21567;fill-rule:nonzero;"/><path d="M5607.61,3457.37c0,-20.044 -16.3,-36.341 -36.349,-36.341c-20.05,0 -36.35,16.297 -36.35,36.341c0,2.689 0.353,5.269 0.897,7.795l-0.055,-0.054c0,-0 5.814,36.557 52.542,58.394c-8.694,-11.054 -11.003,-22.027 -11.139,-30.392c17.251,-2.852 30.454,-17.736 30.454,-35.743" style="fill:#d21567;fill-rule:nonzero;"/><path d="M5853,3457.37c0,-20.044 16.301,-36.341 36.35,-36.341c20.049,0 36.35,16.297 36.35,36.341c-0,2.689 -0.353,5.269 -0.897,7.795l0.055,-0.054c-0,-0 -5.814,36.557 -52.542,58.394c8.694,-11.054 11.03,-22.027 11.139,-30.392c-17.251,-2.852 -30.455,-17.736 -30.455,-35.743" style="fill:#d21567;fill-rule:nonzero;"/><path d="M5753.56,3457.37c0,-20.044 16.3,-36.341 36.35,-36.341c20.049,0 36.35,16.297 36.35,36.341c-0,2.689 -0.354,5.269 -0.897,7.795l0.054,-0.054c0,-0 -5.813,36.557 -52.541,58.394c8.694,-11.054 11.003,-22.027 11.111,-30.392c-17.224,-2.852 -30.427,-17.736 -30.427,-35.743" style="fill:#d21567;fill-rule:nonzero;"/><path d="M5216.23,3457.37c-0,-20.044 16.3,-36.341 36.35,-36.341c20.022,0 36.349,16.297 36.349,36.341c0,2.689 -0.353,5.269 -0.896,7.795l0.054,-0.054c0,-0 -5.814,36.557 -52.541,58.394c8.693,-11.054 11.002,-22.027 11.111,-30.392c-17.224,-2.852 -30.427,-17.736 -30.427,-35.743" style="fill:#d21567;fill-rule:nonzero;"/><path d="M6398.68,3737.02c-20.049,0 -36.35,16.296 -36.35,36.341c0,20.017 16.301,36.313 36.35,36.313c20.049,-0 36.35,-16.296 36.35,-36.313c-0,-20.045 -16.301,-36.341 -36.35,-36.341" style="fill:#d21567;fill-rule:nonzero;"/><path d="M6393.39,3410.96c-25.918,1.087 -53.275,6.763 -85.197,17.546l-17.088,5.866l23.608,68.743l16.953,-5.812c26.705,-9.045 48.575,-13.472 68.434,-13.852c23.5,-0.408 44.663,18.36 44.826,41.854c0.19,26.563 -23.581,41.8 -44.5,49.106c-45.967,16.079 -44.12,57.933 -31.731,108.206l59.958,0c-5.787,-35.308 -0.924,-48.019 20.538,-58.965c41.43,-21.103 68.271,-53.641 68.407,-97.695c0.217,-66.353 -57.866,-117.794 -124.208,-114.997" style="fill:#d21567;fill-rule:nonzero;"/><path d="M6888.12,3726.24c-49.77,0 -92.613,-30.202 -111.222,-73.197l70.118,0l19.995,-36.34l-99.432,-0c-0.353,-3.776 -0.597,-7.578 -0.597,-11.435l-0,0.109l-0,-0.245l-0,0.136c-0,-3.857 0.244,-7.686 0.597,-11.434l112.011,-0l19.968,-36.341l-122.66,0c18.609,-43.022 61.452,-73.197 111.222,-73.197c18.773,0 37.219,3.368 58.192,15.129l35.073,-63.8c-27.683,-15.237 -59.442,-24.01 -93.265,-24.01c-90.467,0 -166.236,62.062 -187.589,145.878l-36.051,0l-0,36.341l30.427,-0c-0.244,3.802 -0.597,7.577 -0.597,11.434c-0,3.857 0.353,7.632 0.597,11.435l-30.427,-0l-0,36.34l36.051,0c21.353,83.79 97.122,145.851 187.589,145.851c33.823,-0 65.582,-8.746 93.265,-24.01l-35.073,-63.772c-20.973,11.733 -39.419,15.128 -58.192,15.128" style="fill:#d21567;fill-rule:nonzero;"/><path d="M7358,3683.77c0,-58.096 -45.097,-105.192 -109.701,-114.48c-21.842,-3.151 -47.352,-16.161 -47.352,-42.533c-0,-23.25 18.935,-42.18 42.191,-42.18c20.538,-0 43.168,4.427 71.069,13.879l16.952,5.812l23.581,-68.743l-17.088,-5.866c-25.754,-8.719 -48.52,-14.042 -69.983,-16.351l0,-26.318l-49.091,-0l0,27.622c-51.563,11.271 -90.33,57.254 -90.33,112.145c-0,58.095 45.124,105.164 109.701,114.48c21.842,3.151 47.352,16.161 47.352,42.533c-0,23.249 -18.908,42.153 -42.163,42.18l-0.082,0c-20.538,-0.027 -43.141,-4.454 -71.748,-14.123l-18.23,-5.813l-22.087,69.205l17.605,5.622c25.754,8.746 48.52,14.069 69.982,16.378l0,26.318l49.091,0l0,-27.622c51.591,-11.271 90.331,-57.254 90.331,-112.145" style="fill:#d21567;fill-rule:nonzero;"/><path d="M7607.26,3726.24c15.621,-39.817 12.551,-61.898 5.162,-84.93l65.5,-0l0,-49.215l-80.931,0c-3.179,-14.123 -5.433,-30.799 -5.433,-51.686c-0,-24.715 20.103,-44.787 44.798,-44.787c49.417,0 96.525,29.632 96.525,29.632l21.435,-65.348c0,0 -43.304,-36.557 -120.024,-36.557c-63.354,-0 -114.89,51.523 -114.89,114.86c-0,20.642 3.613,37.971 8.15,53.886l-22.685,0l0,49.215l37.409,-0c6.385,27.839 6.167,57.797 -17.468,101.742c-7.933,14.721 -5.406,32.457 -5.406,55.842l227.851,-0l-0,-72.654l-139.993,0Z" style="fill:#d21567;fill-rule:nonzero;"/><path d="M8035.13,3743.37l-28.009,0c-23.853,0 -43.196,-19.338 -43.196,-43.185c-0,-20.642 14.48,-37.834 33.85,-42.125l70.662,69.313c-7.933,9.696 -19.832,15.997 -33.307,15.997m-14.018,-259.761c23.363,0 42.272,18.931 42.272,42.262c-0,23.33 -18.909,42.261 -42.272,42.261c-23.337,-0 -42.245,-18.931 -42.245,-42.261c-0,-23.331 18.908,-42.262 42.245,-42.262m45.477,140.174c39.936,-14.748 68.462,-53.044 68.462,-98.103l-0,-0.679c-0.435,-57.661 -48.14,-103.779 -105.762,-103.969l-16.328,-0c-57.621,0.19 -105.354,46.308 -105.761,103.969c-0.245,32.566 14.425,61.6 37.545,80.965c-31.351,19.61 -52.188,54.457 -51.89,94.246c0.435,60.704 50.694,109.293 111.386,109.483l33.769,0c31.188,-0.108 59.604,-12.982 79.953,-33.733l34.366,33.733l103.779,0l-189.519,-185.912Z" style="fill:#d21567;fill-rule:nonzero;"/><path d="M8499.66,3692.83c-42.734,-0 -77.508,-34.765 -77.508,-77.461c0,-42.723 34.774,-77.488 77.508,-77.488c42.734,-0 77.481,34.765 77.481,77.488c-0,42.696 -34.747,77.461 -77.481,77.461m0,-271.25c-107.039,0 -193.81,86.75 -193.81,193.789c-0,107.011 86.771,193.761 193.81,193.761c13.258,0 26.189,-1.358 38.713,-3.884l0,-39.98c-12.388,3.205 -25.319,5.079 -38.713,5.079c-85.495,0 -155.043,-69.53 -155.043,-154.976c0,-85.474 69.548,-155.004 155.043,-155.004c85.495,0 155.043,69.53 155.043,155.004c0,39.165 -14.67,74.935 -38.767,102.231l-0,-102.231c-0,-64.207 -52.053,-116.273 -116.276,-116.273c-64.223,-0 -116.275,52.066 -116.275,116.273c-0,64.18 52.052,116.246 116.275,116.246c29.803,-0 56.915,-11.326 77.481,-29.768l-0,91.069c68.461,-29.904 116.33,-98.103 116.33,-177.547c-0,-107.039 -86.772,-193.789 -193.811,-193.789" style="fill:#d21567;fill-rule:nonzero;"/><path d="M3929.04,1689.1c-13.04,-0 -23.635,-10.593 -23.635,-23.63c-0,-13.009 10.595,-23.602 23.635,-23.602c13.041,0 23.636,10.593 23.636,23.602c-0,13.037 -10.595,23.63 -23.636,23.63" style="fill:#d21567;fill-rule:nonzero;"/><path d="M5878.99,1689.1c-13.04,-0 -23.635,-10.593 -23.635,-23.63c-0,-13.009 10.595,-23.602 23.635,-23.602c13.04,0 23.636,10.593 23.636,23.602c-0,13.037 -10.596,23.63 -23.636,23.63" style="fill:#d21567;fill-rule:nonzero;"/><path d="M4368.17,1615.4c-13.04,0 -23.636,-10.592 -23.636,-23.629c0,-13.01 10.596,-23.602 23.636,-23.602c13.013,-0 23.635,10.592 23.635,23.602c0,13.037 -10.622,23.629 -23.635,23.629" style="fill:#d21567;fill-rule:nonzero;"/><path d="M4368.17,1449c-13.04,-0 -23.636,-10.593 -23.636,-23.63c0,-13.01 10.596,-23.602 23.636,-23.602c13.013,-0 23.635,10.592 23.635,23.602c0,13.037 -10.622,23.63 -23.635,23.63" style="fill:#d21567;fill-rule:nonzero;"/><path d="M1078.98,1701.81l-0,-335.864l-46.728,31.913l-26.624,-39.029l64.577,-44.082l56.019,0l-0,387.062l-47.244,-0Z" style="fill:#000221;fill-rule:nonzero;"/><path d="M2901.62,1701.81l155.369,-341.432l-180.2,-0l0,-47.232l227.416,-0l0,57.091l-150.832,331.573l-51.753,-0Z" style="fill:#000221;fill-rule:nonzero;"/><path d="M1244.46,1701.1c0.326,-16.731 1.521,-29.849 4.809,-42.343c11.491,-43.891 49.118,-78.819 86.744,-111.384c43.604,-37.726 86.066,-72.084 86.066,-123.145c0,-34.14 -23.961,-58.693 -61.017,-62.523c-4.537,-0.462 -9.156,-0.706 -13.774,-0.706c-27.874,-0 -50.748,8.583 -63.544,14.694l-23.147,-37.536c25.266,-14.612 59.388,-23.385 92.287,-23.385c4.564,0 9.02,0.163 13.285,0.516c61.724,5.188 103.181,48.97 103.181,108.94c-0,70.562 -60.529,124.313 -104.702,160.762c-26.679,22.027 -50.83,49.459 -50.83,65.755l145.643,-0l0,50.355l-215.001,-0Z" style="fill:#000221;fill-rule:nonzero;"/><path d="M1943.94,1565.98l112.364,-0l-0,-170.295l-112.364,170.295Zm112.364,135.828l-0,-88.597l-159.227,0l-0,-56.14l153.386,-242.324l53.112,0l-0,251.233l41.457,-0l-0,47.231l-41.457,0l-0,88.597l-47.271,0Z" style="fill:#000221;fill-rule:nonzero;"/><path d="M2274.57,1701.81l0,-47.232l90.82,-0c37.328,-0 67.701,-36.748 67.701,-74.066c-0,-37.318 -25.184,-76.592 -67.701,-76.592l-90.82,-0l0,-189.742l182.89,0l-0,47.232l-135.646,-0l0,95.278l43.576,0c70.2,0 114.972,60.459 114.972,123.824c-0,63.365 -51.591,121.298 -114.972,121.298l-90.82,-0Z" style="fill:#000221;fill-rule:nonzero;"/><path d="M2686.99,1518.23c-37.328,-0 -67.701,30.365 -67.701,67.683c0,37.345 30.373,67.711 67.701,67.711c37.328,-0 67.701,-30.366 67.701,-67.711c-0,-37.318 -30.373,-67.683 -67.701,-67.683m0,182.625c-63.381,0 -114.971,-51.55 -114.971,-114.942c-0,-16.323 3.45,-32.239 10.269,-47.286l1.494,-3.286l104.757,-220.596l51.726,-0l-74.33,156.579l20.811,-0.299l0.787,-0.054c62.838,-0 114.429,51.577 114.429,114.942c-0,63.392 -51.591,114.942 -114.972,114.942" style="fill:#000221;fill-rule:nonzero;"/><path d="M3625.16,1497.39c37.328,-0 67.728,-30.365 67.728,-67.684c-0,-37.345 -30.4,-67.71 -67.728,-67.71c-37.328,-0 -67.7,30.365 -67.7,67.71c-0,37.319 30.372,67.684 67.7,67.684m0,-182.626c63.381,0 114.972,51.55 114.972,114.942c-0,16.324 -3.451,32.24 -10.27,47.286l-1.494,3.287l-104.756,220.596l-51.727,-0l74.357,-156.579l-20.837,0.298l-0.788,0.055c-62.838,-0 -114.428,-51.578 -114.428,-114.943c-0,-63.392 51.59,-114.942 114.971,-114.942" style="fill:#000221;fill-rule:nonzero;"/><path d="M878.501,1585.75c-0,41.962 -34.15,76.075 -76.096,76.075c-41.973,0 -76.095,-34.113 -76.095,-76.075l0,-148.377c0,-41.963 34.122,-76.076 76.095,-76.076c41.946,0 76.096,34.113 76.096,76.076l-0,148.377Zm-76.096,-271.685c-68.026,0 -123.366,55.299 -123.366,123.308l0,148.377c0,68.009 55.34,123.334 123.366,123.334c68,0 123.339,-55.325 123.339,-123.334l0,-148.377c0,-68.009 -55.339,-123.308 -123.339,-123.308" style="fill:#000221;fill-rule:nonzero;"/><path d="M1576.57,1701.81l0,-50.546l113.586,0c30.835,0 55.91,-26.834 55.91,-59.807c0,-32.999 -25.075,-59.834 -55.91,-59.834l-82.153,0l-0,-50.301l68.135,0.028c30.319,-0 54.986,-26.4 54.986,-58.83c0,-32.429 -24.667,-58.802 -54.986,-58.802l-99.568,0l0,-50.572l107.718,-0c50.939,0.19 92.695,44.027 93.075,97.75c0.19,29.387 -11.818,57.118 -33.008,76.103l-13.421,12.032l14.834,9.913c29.014,19.42 46.184,52.773 45.939,89.222c-0.407,56.955 -44.69,103.453 -98.725,103.644l-116.412,-0Z" style="fill:#000221;fill-rule:nonzero;"/><path d="M6675.88,1059.05l-97.204,-114.888l-1.548,-1.902c-7.037,-8.609 -10.731,-19.039 -10.731,-30.12c-0,-22.516 14.208,-40.062 38.006,-46.933c53.52,-15.4 57.704,-58.667 57.704,-71.541c-0,-40.414 -32.873,-73.278 -73.297,-73.278l-91.635,0l-0,338.662l-47.244,-0l-0,-385.894l137.412,0c67.211,0 121.926,53.995 122.007,120.348c0.055,47.992 -28.335,91.394 -72.319,110.623c-5.27,2.309 -9.046,6.845 -10.35,12.44c-1.304,5.54 0.108,11.461 3.749,15.807l107.12,126.676l-61.67,-0Z" style="fill:#000221;fill-rule:nonzero;"/><path d="M767.3,905.373l146.811,-0l-73.405,-177.791l-73.406,177.791Zm210.709,154.786l-44.392,-107.555l-185.823,0l-44.636,107.555l-45.152,0l160.124,-387.251l45.152,-0l159.906,387.251l-45.179,0Z" style="fill:#000221;fill-rule:nonzero;"/><path d="M7191.24,1059.05l0,-339.613l-116.112,0l-0,-47.231l279.495,-0l0,47.231l-116.139,0l-0,339.613l-47.244,-0Z" style="fill:#000221;fill-rule:nonzero;"/><path d="M3343.54,1060.42l0,-170.403l-159.552,-0l-0,170.403l-47.244,0l-0,-387.55l47.244,0l-0,169.915l159.552,-0l0,-169.915l47.244,0l0,387.55l-47.244,0Z" style="fill:#000221;fill-rule:nonzero;"/><rect x="3492.91" y="672.894" width="47.244" height="387.034" style="fill:#000221;"/><path d="M3992.82,1059.93l-160.096,-160.11l-0,160.11l-47.271,0l-0,-387.034l47.271,0l-0,150.007l149.99,-150.034l66.831,0l-188.486,188.492l198.565,198.569l-66.804,0Z" style="fill:#000221;fill-rule:nonzero;"/><path d="M4151.1,1059.91l0,-386.763l47.244,0l-0,339.531l155.151,-0l0,47.232l-202.395,-0Z" style="fill:#000221;fill-rule:nonzero;"/><path d="M2493.98,1059.72l0,-386.844l202.423,-0l0,47.231l-155.152,0l0,122.683l136.434,0l-0,47.232l-136.434,0l0,169.698l-47.271,-0Z" style="fill:#000221;fill-rule:nonzero;"/><path d="M2198.91,1060.41l0,-387.523l202.423,0l-0,47.232l-155.152,-0l0,122.656l136.434,-0l-0,47.231l-136.434,0l0,123.172l155.152,0l-0,47.232l-202.423,0Z" style="fill:#000221;fill-rule:nonzero;"/><path d="M7574.29,1059.05c-77.046,-0 -139.748,-62.659 -139.748,-139.686l0,-247.158l47.271,-0l0,247.158c0,50.98 41.485,92.454 92.477,92.454c50.993,-0 92.477,-41.474 92.477,-92.454l0,-247.158l47.271,-0l0,247.158c0,77.027 -62.701,139.686 -139.748,139.686" style="fill:#000221;fill-rule:nonzero;"/><path d="M4827.85,1059.72l-0,-386.573l57.078,0l205.248,310.741l-0,-310.741l47.271,0l-0,386.573c-36.649,-0.462 -58.219,-5.27 -92.124,-53.452l-170.23,-260.739l0,314.191l-47.243,-0Z" style="fill:#000221;fill-rule:nonzero;"/><path d="M5668.99,1059.72l0,-386.573l137.439,0c66.75,0.218 121.492,53.941 121.981,119.777c0.244,32.43 -12.199,62.958 -35.046,85.962c-22.848,23.005 -53.275,35.662 -85.685,35.662l-43.631,-0l0,-9.398c0,-21.592 12.307,-39.654 36.73,-39.654c60.447,0 80.388,-38.296 80.388,-71.866c-0,-40.387 -32.872,-73.251 -73.27,-73.251l-91.662,0l-0,339.341l-47.244,-0Z" style="fill:#000221;fill-rule:nonzero;"/><path d="M5408.54,1011.54c-80.279,-0 -145.616,-65.294 -145.616,-145.579c0,-80.259 65.337,-145.579 145.616,-145.579c80.279,-0 145.617,65.32 145.617,145.579c-0,80.285 -65.338,145.579 -145.617,145.579m0,-339.341c-107.038,0 -193.81,86.75 -193.81,193.762c-0,107.011 86.772,193.761 193.81,193.761c107.039,0 193.811,-86.75 193.811,-193.761c0,-107.012 -86.772,-193.762 -193.811,-193.762" style="fill:#000221;fill-rule:nonzero;"/><path d="M4716.67,1059.9l0,-315.277l-118.965,169.317l-118.965,-169.317l0,315.277l-47.244,-0l0,-386.763l53.194,0l113.015,158.779l113.016,-158.779l53.193,0l0,386.763l-47.244,-0Z" style="fill:#000221;fill-rule:nonzero;"/><path d="M3593.18,1168.86c33.035,-28.247 52.378,-68.037 52.378,-108.913l-0,-387.061l47.244,-0l-0,387.061c-0,54.701 -25.103,106.604 -67.647,140.88l-31.975,-31.967Z" style="fill:#000221;fill-rule:nonzero;"/><path d="M7959.17,1059.05c-25.374,-3.26 -34.393,-23.168 -51.726,-66.462c-1.793,-4.454 -3.641,-9.044 -5.569,-13.77c-16.002,-39.165 -107.447,-248.326 -132.984,-306.612l51.346,-0l127.496,294.01l126.68,-294.01l51.455,-0l-166.698,386.844Z" style="fill:#000221;fill-rule:nonzero;"/><path d="M8359.97,1059.05c-25.374,-3.26 -34.394,-23.168 -51.726,-66.434c-1.794,-4.455 -3.641,-9.072 -5.57,-13.798c-16.001,-39.165 -107.364,-248.326 -132.902,-306.612l51.346,-0l127.414,294.01l107.311,-255.823l107.935,255.823l126.844,-294.01l51.454,-0l-166.861,386.844c-25.374,-3.26 -34.393,-23.168 -51.726,-66.434c-1.793,-4.455 -3.64,-9.072 -5.569,-13.798c-6.276,-15.373 -61.615,-150.088 -61.615,-150.088l-96.335,230.32Z" style="fill:#000221;fill-rule:nonzero;"/><path d="M9023.69,1059.55l-84.327,-141.098l-84.3,141.098l-62.702,-0l115.651,-193.517l-115.651,-193.49l62.702,-0l84.3,141.098l84.327,-141.098l62.702,-0l-115.678,193.49l115.678,193.517l-62.702,-0Z" style="fill:#000221;fill-rule:nonzero;"/><path d="M9266.81,1059.2l-0,-180.236l-123.393,-206.418l62.701,-0l84.327,141.098l84.382,-141.098l62.701,-0l-123.474,206.418l-0,180.236l-47.244,-0Z" style="fill:#000221;fill-rule:nonzero;"/><path d="M9487.47,1059.69c0.679,-45.249 -4.51,-56.928 57.323,-128.224l175.01,-211.687l-223.911,0l-0,-47.232l281.424,0l0,55.081l-229.698,284.83l229.698,0l0,47.232l-289.846,-0Z" style="fill:#000221;fill-rule:nonzero;"/><path d="M1124.77,842.741l126.843,0.027c30.319,0 54.987,-28.464 54.987,-58.775c-0,-30.31 -24.668,-63.881 -54.987,-63.881l-126.843,0l-0,122.629Zm-0,171.544l140.834,0c30.835,0 55.91,-31.424 55.91,-62.251c0,-30.827 -25.075,-62.278 -55.91,-62.278l-140.834,-0l-0,124.529Zm-47.244,45.657l0,-387.061l182.237,-0c50.939,0.163 92.695,50.029 93.075,100.248c0.19,27.459 -11.845,57.2 -33.008,74.908l-13.42,11.245l14.833,9.289c29.014,18.143 46.184,55.678 45.912,89.737c-0.38,53.234 -43.739,101.444 -98.698,101.634l-190.931,-0Z" style="fill:#000221;fill-rule:nonzero;"/><path d="M4172.23,1665.48c0,-13.037 -10.595,-23.63 -23.635,-23.63c-13.013,0 -23.636,10.593 -23.636,23.63c0,8.881 5.054,16.92 13.149,20.994c-0.652,8.42 -4.645,17.356 -12.524,24.934c41.729,-13.852 46.103,-41.203 46.103,-41.203l-0.109,0.055c0.354,-1.603 0.652,-3.178 0.652,-4.78" style="fill:#d21567;fill-rule:nonzero;"/><path d="M5047.3,1349.5c-0,-13.037 -10.595,-23.63 -23.635,-23.63c-13.014,0 -23.636,10.593 -23.636,23.63c0,8.881 5.053,16.921 13.149,20.995c-0.652,8.419 -4.646,17.355 -12.551,24.96c41.756,-13.879 46.13,-41.229 46.13,-41.229l-0.109,0.054c0.353,-1.575 0.652,-3.178 0.652,-4.78" style="fill:#d21567;fill-rule:nonzero;"/><path d="M4783.34,1349.5c-0,-13.037 10.595,-23.63 23.635,-23.63c13.013,0 23.635,10.593 23.635,23.63c0,8.881 -5.053,16.921 -13.148,20.995c0.652,8.419 4.645,17.355 12.551,24.96c-41.756,-13.879 -46.13,-41.229 -46.13,-41.229l0.109,0.054c-0.354,-1.575 -0.652,-3.178 -0.652,-4.78" style="fill:#d21567;fill-rule:nonzero;"/><path d="M5288.9,1354.27l-0.136,-0.054c0,0 4.401,27.35 46.13,41.229c-7.878,-7.605 -11.872,-16.54 -12.551,-24.96c8.123,-4.074 13.149,-12.113 13.149,-20.995c-0,-13.037 -10.595,-23.629 -23.636,-23.629c-13.013,-0 -23.608,10.592 -23.608,23.629c0,1.603 0.299,3.205 0.652,4.78m-82.344,-4.78c0,-13.037 10.596,-23.629 23.636,-23.629c13.04,-0 23.635,10.592 23.635,23.629c0,8.882 -5.053,16.921 -13.149,20.995c0.652,8.42 4.646,17.355 12.552,24.96c-41.756,-13.879 -46.13,-41.229 -46.13,-41.229l0.136,0.054c-0.381,-1.575 -0.68,-3.177 -0.68,-4.78" style="fill:#d21567;fill-rule:nonzero;"/><path d="M5571.91,1349.5c-0,-13.037 -10.595,-23.63 -23.635,-23.63c-13.014,0 -23.636,10.593 -23.636,23.63c0,8.881 5.053,16.921 13.176,20.995c-0.679,8.419 -4.673,17.355 -12.551,24.96c41.729,-13.879 46.103,-41.229 46.103,-41.229l-0.109,0.054c0.353,-1.575 0.652,-3.178 0.652,-4.78m81.013,4.78l0.135,-0.054c0,-0 -4.374,27.35 -46.13,41.229c7.879,-7.605 11.873,-16.541 12.552,-24.96c-8.123,-4.074 -13.149,-12.114 -13.149,-20.995c-0,-13.037 10.595,-23.63 23.635,-23.63c13.013,0 23.609,10.593 23.609,23.63c-0,1.602 -0.299,3.205 -0.652,4.78" style="fill:#d21567;fill-rule:nonzero;"/><path d="M4587.73,1449c-13.013,-0 -23.636,-10.593 -23.636,-23.63c0,-13.01 10.623,-23.602 23.636,-23.602c13.013,-0 23.635,10.592 23.635,23.602c0,13.037 -10.622,23.63 -23.635,23.63" style="fill:#d21567;fill-rule:nonzero;"/><path d="M4611.35,1591.78c0,-13.037 -10.595,-23.629 -23.635,-23.629c-13.013,-0 -23.636,10.592 -23.636,23.629c0,8.882 5.053,16.921 13.176,20.995c-0.679,8.42 -4.673,17.355 -12.551,24.96c41.729,-13.879 46.103,-41.229 46.103,-41.229l-0.109,0.054c0.353,-1.575 0.652,-3.177 0.652,-4.78" style="fill:#d21567;fill-rule:nonzero;"/><path d="M5861.42,1587.46l-5.732,-273.287l46.619,0l-5.733,273.287l-35.154,-0Z" style="fill:#d21567;fill-rule:nonzero;"/><path d="M6169.78,1689.1c-13.04,-0 -23.635,-10.593 -23.635,-23.63c-0,-13.009 10.595,-23.602 23.635,-23.602c13.013,0 23.635,10.593 23.635,23.602c0,13.037 -10.622,23.63 -23.635,23.63" style="fill:#d21567;fill-rule:nonzero;"/><path d="M6149.88,1587.46c-11.166,-51.903 -16.436,-98.32 25.863,-117.414c32.764,-14.802 53.194,-34.874 52.976,-62.496c-0.217,-30.148 -26.189,-55.624 -56.752,-55.624l-1.005,-0c-21.218,0.407 -44.174,5.106 -72.292,14.83l-4.972,1.738l-15.322,-45.63l5.053,-1.792c30.889,-10.674 56.834,-16.16 81.583,-17.22c1.549,-0.081 3.097,-0.108 4.646,-0.108c28.743,-0 56.752,11.842 76.91,32.456c19.044,19.528 29.504,45.113 29.422,72.084c-0.163,46.552 -33.769,73.197 -61.479,88.216c-49.553,26.835 -31.623,63.827 -29.259,90.96l-35.372,-0Z" style="fill:#d21567;fill-rule:nonzero;"/><path d="M1611.97,1011.54c-80.307,-0 -145.616,-65.294 -145.616,-145.579c-0,-80.259 65.309,-145.579 145.616,-145.579c40.615,-0 77.345,16.758 103.778,43.646l19.235,-47.775c-33.47,-27.513 -76.313,-44.054 -123.013,-44.054c-107.039,0 -193.811,86.75 -193.811,193.762c-0,107.011 86.772,193.761 193.811,193.761c46.537,0 89.244,-16.432 122.659,-43.782l-19.18,-47.694c-26.406,26.699 -63.027,43.294 -103.479,43.294" style="fill:#000221;fill-rule:nonzero;"/><path d="M1929.76,1013.18l-48.575,0l0,-293.059l48.575,-0c80.768,-0 146.512,65.701 146.567,146.448c-0.055,80.802 -65.799,146.611 -146.567,146.611m-0,-340.291l-95.846,0l0,387.523l95.846,0c107.011,0 193.729,-86.913 193.811,-193.87c-0.082,-106.957 -86.8,-193.653 -193.811,-193.653" style="fill:#000221;fill-rule:nonzero;"/><path d="M8270.76,1584.96c-42.734,0 -77.508,-34.765 -77.508,-77.461c0,-42.723 34.774,-77.488 77.508,-77.488c42.734,-0 77.481,34.765 77.481,77.488c-0,42.696 -34.747,77.461 -77.481,77.461m-0,-271.25c-107.039,0 -193.811,86.75 -193.811,193.789c0,107.012 86.772,193.761 193.811,193.761c13.258,0 26.189,-1.358 38.713,-3.883l0,-39.98c-12.388,3.205 -25.32,5.079 -38.713,5.079c-85.495,-0 -155.043,-69.531 -155.043,-154.977c-0,-85.473 69.548,-155.004 155.043,-155.004c85.495,0 155.043,69.531 155.043,155.004c0,39.165 -14.67,74.935 -38.768,102.231l0,-102.231c0,-64.207 -52.052,-116.273 -116.275,-116.273c-64.223,-0 -116.276,52.066 -116.276,116.273c0,64.18 52.053,116.246 116.276,116.246c29.802,0 56.915,-11.326 77.481,-29.768l-0,91.069c68.461,-29.904 116.33,-98.103 116.33,-177.547c-0,-107.039 -86.772,-193.789 -193.811,-193.789" style="fill:#d21567;fill-rule:nonzero;"/><path d="M6188.88,1011.54c-80.307,-0 -145.617,-65.294 -145.617,-145.579c0,-80.259 65.31,-145.579 145.617,-145.579c80.279,-0 145.616,65.32 145.616,145.579c-0,80.285 -65.337,145.579 -145.616,145.579m193.81,-145.579c0,-107.012 -86.772,-193.762 -193.81,-193.762c-107.039,0 -193.811,86.75 -193.811,193.762c-0,107.011 86.772,193.761 193.811,193.761c21.38,0 41.918,-3.585 61.153,-9.995l54.063,65.484l61.832,-0l-71.694,-86.75c53.193,-34.548 88.456,-94.355 88.456,-162.5" style="fill:#000221;fill-rule:nonzero;"/><path d="M6893.03,1059.01c-22.956,-0 -46.592,-4.237 -74.438,-13.336l-12.089,-3.721l13.882,-45.14l12.497,3.83c23.336,7.632 42.326,11.135 60.148,11.135c30.291,0 57.893,-29.251 57.893,-61.355c0,-28.029 -24.532,-53.424 -59.659,-61.762c-57.431,-13.608 -96.036,-56.385 -96.036,-106.414c0,-58.531 49.146,-109.864 105.164,-109.864c22.957,0 46.592,4.237 74.411,13.336l12.09,3.694l-13.883,45.167l-12.497,-3.829c-23.336,-7.632 -42.299,-11.136 -60.121,-11.136c-32.6,0 -57.893,33.679 -57.893,62.632c0,27.703 23.962,51.985 59.659,60.459c57.432,13.634 96.009,56.9 96.009,107.717c-0,57.852 -49.118,108.587 -105.137,108.587" style="fill:#000221;fill-rule:nonzero;"/><path d="M3013.93,990.012c-22.087,13.553 -47.978,21.511 -75.743,21.511c-80.306,0 -145.616,-65.293 -145.616,-145.579c0,-80.258 65.31,-145.552 145.616,-145.552c40.588,0 77.345,16.731 103.779,43.647l19.234,-47.802c-33.47,-27.514 -76.312,-44.054 -123.013,-44.054c-107.038,-0 -193.81,86.75 -193.81,193.761c-0,107.039 86.772,193.789 193.81,193.789c46.157,-0 88.538,-16.215 121.845,-43.185l1.168,-0l0,-136.263l-47.27,-0l-0,109.727Z" style="fill:#000221;fill-rule:nonzero;"/><path d="M6659.41,1642.85c-63.49,-0 -117.471,-40.903 -137.357,-97.668l96.063,-0l19.968,-36.341l-123.72,0c-0.299,-3.83 -0.57,-7.659 -0.57,-11.57c-0,-3.83 0.271,-7.578 0.57,-11.326l136.298,-0l19.995,-36.313l-148.686,-0c19.805,-56.928 73.868,-97.94 137.439,-97.94c25.374,-0 49.227,6.545 70.01,18.007l23.2,-42.207c-27.656,-15.237 -59.387,-23.983 -93.21,-23.983c-90.576,0 -166.399,62.17 -187.671,146.123l-36.16,-0l0,36.313l30.591,-0c-0.218,3.775 -0.571,7.496 -0.571,11.326c0,3.911 0.353,7.713 0.571,11.57l-30.591,0l0,36.341l36.214,-0c21.381,83.789 97.15,145.85 187.617,145.85c33.823,0 65.554,-8.773 93.21,-23.982l-23.2,-42.207c-20.783,11.461 -44.636,18.007 -70.01,18.007" style="fill:#d21567;fill-rule:nonzero;"/><path d="M7115.7,1581.99c0,-50.79 -38.577,-94.083 -96.008,-107.718c-35.698,-8.447 -59.66,-32.755 -59.66,-60.459c0,-28.952 25.266,-62.631 57.866,-62.631c17.822,-0 36.812,3.503 60.149,11.136l12.497,3.829l13.882,-45.14l-12.089,-3.721c-19.778,-6.464 -37.41,-10.375 -54.226,-12.141l-0,-26.128l-48.439,-0l-0,29.415c-43.278,13.607 -76.91,56.982 -76.91,105.381c-0,50.057 38.577,92.834 96.008,106.442c35.127,8.338 59.659,33.705 59.659,61.735c0,32.103 -27.574,61.355 -57.866,61.355c-17.821,-0 -36.811,-3.504 -60.148,-11.136l-12.497,-3.829l-13.882,45.167l12.089,3.721c19.533,6.356 36.948,10.24 53.547,12.032l-0,26.237l48.439,-0l-0,-29.197c43.603,-13.2 77.589,-56.276 77.589,-104.35" style="fill:#d21567;fill-rule:nonzero;"/><path d="M7372.26,1540.49l66.206,-0l0,-37.237l-75.959,-0c-6.33,-22.652 -12.551,-48.182 -12.551,-83.436c-0,-31.724 25.781,-57.499 57.513,-57.499c36.213,0 70.661,14.422 89.217,23.82l13.746,-41.963c-14.263,-9.289 -50.585,-28.681 -105.055,-28.681c-56.318,-0 -102.149,45.819 -102.149,102.123c0,28.626 10.378,56.167 18.718,85.636l-35.426,-0l0,37.237l43.767,-0c4.89,33.162 1.983,69.802 -23.201,113.421c-4.945,8.61 -4.428,20.153 -4.048,35.906c0,0.407 0,0.815 0.027,1.222l202.586,0l-0,-47.232l-145.942,0c18.473,-45.928 18.283,-75.478 12.551,-103.317" style="fill:#d21567;fill-rule:nonzero;"/><path d="M3328.95,1654.57l-43.494,-0c-28.689,-0 -51.944,-23.249 -51.944,-51.93c0,-28.682 23.255,-51.931 51.944,-51.931l43.494,0c28.689,0 51.944,23.249 51.944,51.931c0,28.681 -23.255,51.93 -51.944,51.93m-80.143,-240.64c0,-28.681 23.255,-51.931 51.944,-51.931l12.904,0c28.689,0 51.944,23.25 51.944,51.931c-0,28.681 -23.255,51.93 -51.944,51.93l-12.904,0c-28.689,0 -51.944,-23.249 -51.944,-51.93m130.403,95.821l-15.839,-9.886l14.317,-11.978c22.576,-18.903 35.372,-46.525 35.155,-75.777c-0.381,-53.506 -44.881,-97.179 -99.161,-97.342l-12.958,-0c-54.28,0.163 -98.78,43.836 -99.188,97.342c-0.217,29.252 12.606,56.874 35.182,75.777l14.29,11.978l-15.812,9.886c-30.916,19.338 -49.199,52.556 -48.928,88.842c0.408,56.737 47.597,103.046 105.192,103.209l31.486,-0c57.595,-0.163 104.757,-46.472 105.192,-103.209c0.271,-36.286 -18.012,-69.504 -48.928,-88.842" style="fill:#000221;fill-rule:nonzero;"/><path d="M7813.97,1654.57l-43.494,-0c-28.689,-0 -51.944,-23.249 -51.944,-51.93c0,-28.682 23.255,-51.931 51.944,-51.931l17.088,0l74.03,72.627c-8.014,18.387 -26.297,31.234 -47.624,31.234m-80.143,-240.64c0,-28.681 23.255,-51.931 51.944,-51.931l12.904,0c28.689,0 51.944,23.25 51.944,51.931c-0,28.681 -23.255,51.93 -51.944,51.93l-12.904,0c-28.689,0 -51.944,-23.249 -51.944,-51.93m90.739,106.93l38.142,-32.973c22.576,-18.903 35.372,-46.525 35.182,-75.777c-0.408,-53.506 -44.908,-97.179 -99.188,-97.342l-12.958,-0c-54.28,0.163 -98.78,43.836 -99.188,97.342c-0.217,29.252 12.606,56.874 35.182,75.777l14.29,11.978l-15.812,9.886c-30.916,19.338 -49.199,52.556 -48.928,88.842c0.408,56.737 47.597,103.046 105.192,103.209l31.486,-0c36.024,-0.109 67.973,-18.279 86.963,-45.738l33.687,33.027l67.456,-0l-171.506,-168.231Z" style="fill:#d21567;fill-rule:nonzero;"/><path d="M7878.59,5274.8c-30.4,0 -61.941,-5.486 -99.269,-17.246l-31.405,-9.289l31.052,-90.444l32.302,9.588c27.113,8.528 48.439,12.466 67.32,12.466c15.132,0 27.439,-11.434 27.439,-25.476c0,-20.723 -31.161,-25.504 -34.719,-25.965c-72.048,-9.642 -122.334,-58.965 -122.334,-119.94c-0,-66.38 58.138,-120.402 129.614,-120.402c30.373,0 61.942,5.487 99.269,17.22l31.107,9.941l-33.171,89.764l-30.917,-9.859c-26.325,-8.284 -47.406,-12.14 -66.288,-12.14c-15.132,-0 -27.438,11.434 -27.438,25.476c-0,20.723 31.16,25.503 34.719,25.965c72.048,9.642 122.334,58.965 122.334,119.94c-0,66.38 -58.138,120.401 -129.615,120.401" style="fill:#000221;fill-rule:nonzero;"/><path d="M8399.16,5840.54l-20.973,0c-17.876,0 -32.356,-14.476 -32.356,-32.348c-0,-15.454 10.839,-28.328 25.347,-31.533l52.921,51.903c-5.922,7.252 -14.833,11.978 -24.939,11.978m-9.237,-238.956c17.767,0 32.166,14.395 32.166,32.158c0,17.763 -14.399,32.158 -32.166,32.158c-17.794,-0 -32.193,-14.395 -32.193,-32.158c-0,-17.763 14.399,-32.158 32.193,-32.158m45.451,130.071c39.935,-14.748 68.461,-53.044 68.461,-98.076l0,-0.706c-0.435,-57.662 -48.14,-103.78 -105.762,-103.97l-16.327,0c-57.622,0.19 -105.327,46.308 -105.762,103.97c-0.245,32.565 14.426,61.599 37.545,80.964c-31.351,19.61 -52.188,54.457 -51.889,94.247c0.434,60.703 50.694,109.293 111.385,109.483l33.769,-0c28.553,-0.109 56.969,-12.901 76.801,-30.637l31.216,30.637l110.081,-0l-189.518,-185.912Z" style="fill:#d21567;fill-rule:nonzero;"/><path d="M6476.69,5917.56c-20.049,0 -36.35,-16.296 -36.35,-36.34c0,-20.017 16.301,-36.341 36.35,-36.341c20.049,0 36.35,16.324 36.35,36.341c-0,20.044 -16.301,36.34 -36.35,36.34" style="fill:#d21567;fill-rule:nonzero;"/><path d="M3455.28,5616.77l-158.82,300.8l92.586,0l160.259,-300.8l0,-87.429l-252.845,0l0,87.429l158.82,0Z" style="fill:#000221;fill-rule:nonzero;"/><path d="M1572,5645.19c-0,-63.338 -46.32,-109.456 -114.863,-114.834c-39.012,-3.069 -90.277,6.79 -124.453,30.094l46.809,68.389c0,0 24.668,-22.597 70.282,-18.197c23.744,2.309 36.811,17.355 36.811,39.681c0,81.155 -133.635,103.698 -159.634,196.613c-4.51,16.106 -5.379,47.232 -5.379,70.617l240.538,0l-0,-87.402l-129.968,0c6.982,-32.972 139.857,-76.13 139.857,-184.961" style="fill:#000221;fill-rule:nonzero;"/><path d="M2168.44,5758.05l51.155,-82.513l0,82.513l-51.155,0Zm-93.32,87.429l144.475,0l0,72.083l87.452,0l-0,-72.083l41.457,0l-0,-87.429l-41.457,0l-0,-227.549l-87.452,0l-144.475,227.549l0,87.429Z" style="fill:#000221;fill-rule:nonzero;"/><path d="M2734.67,5790.19l0,-0.299c0,-70.481 -57.159,-127.653 -127.658,-127.653l-16.083,-0l-0,-44.896l120.867,-0l-0,-87.429l-208.318,-0l-0,220.351l103.507,0c22.195,0 40.261,18.035 40.261,40.225c0,22.19 -18.066,40.224 -40.261,40.224l-103.507,0l-0,87.429l103.534,-0c70.499,-0 127.658,-57.145 127.658,-127.653l0,-0.299" style="fill:#000221;fill-rule:nonzero;"/><path d="M842.645,5796.45c0,22.19 -18.066,40.225 -40.234,40.225c-22.196,-0 -40.262,-18.035 -40.262,-40.225l0,-138.3c0,-22.163 18.066,-40.224 40.262,-40.224c22.168,-0 40.234,18.061 40.234,40.224l0,138.3Zm-40.234,-265.953c-70.526,-0 -127.686,57.172 -127.686,127.653l0,138.3c0,70.508 57.16,127.654 127.686,127.654c70.526,-0 127.686,-57.146 127.686,-127.654l-0,-138.3c-0,-70.481 -57.187,-127.653 -127.686,-127.653" style="fill:#000221;fill-rule:nonzero;"/><path d="M3739.14,4888.62l0,157.204l-129.913,-0l-0,-157.204l-87.505,0l-0,387.061l87.505,0l-0,-157.204l129.913,0l0,157.204l87.506,0l-0,-387.061l-87.506,0Z" style="fill:#000221;fill-rule:nonzero;"/><path d="M8416.47,4888.62l-304.897,0l-0,87.429l108.723,-0l-0,299.632l87.451,0l0,-299.632l108.723,-0l0,-87.429Z" style="fill:#000221;fill-rule:nonzero;"/><path d="M4791.73,5188.25l-0,-299.632l-87.451,0l-0,387.061l227.851,0l-0,-87.429l-140.4,0Z" style="fill:#000221;fill-rule:nonzero;"/><path d="M2642.95,4976.1l0,-87.483l-227.851,-0l0,387.061l227.851,-0l0,-87.484l-140.345,0l-0,-69.72l121.627,0l-0,-72.654l-121.627,0l-0,-69.72l140.345,-0Z" style="fill:#000221;fill-rule:nonzero;"/><path d="M2848.55,5275.67l0,-157.204l121.628,0l-0,-72.653l-121.628,-0l0,-69.721l140.346,0l-0,-87.483l-227.851,-0l-0,387.061l87.505,-0Z" style="fill:#000221;fill-rule:nonzero;"/><path d="M8752.04,4887.94l0,235.127c0,35.824 -29.177,64.994 -65.011,64.994c-35.861,0 -65.011,-29.17 -65.011,-64.994l-0,-235.127l-87.451,0l-0,235.127c-0,84.17 68.271,152.396 152.462,152.396c84.191,0 152.462,-68.226 152.462,-152.396l0,-235.127l-87.451,0Z" style="fill:#000221;fill-rule:nonzero;"/><path d="M5756.24,4888.65l-0,230.89l-160.26,-230.618l0,-0.272l-87.451,0l0,387.007l87.451,-0l0,-230.998l127.143,184.907c30.78,47.232 74.764,46.091 120.405,46.091l-0,-387.007l-87.288,0Z" style="fill:#000221;fill-rule:nonzero;"/><path d="M5122.99,4888.9l-87.451,0l0,387.007l87.451,-0l0,-232.682l91.472,140.391l91.635,-140.609l0,232.9l87.288,-0l0,-387.007l-87.288,0l-91.635,139.387l-91.472,-139.387Z" style="fill:#000221;fill-rule:nonzero;"/><path d="M4207.84,5275.69l-0,-387.062l-87.451,0l-0,387.062c-0,14.313 -3.912,65.103 -54.661,97.152l60.61,60.567c49.255,-35.118 81.502,-92.589 81.502,-157.719" style="fill:#000221;fill-rule:nonzero;"/><rect x="3929.79" y="4888.64" width="87.451" height="387.061" style="fill:#000221;"/><path d="M9215.26,4887.94l-90.955,211.008c-26.108,-60.567 -60.067,-138.598 -91.635,-211.008l-95.71,0c-0,0 110.326,251.504 129.451,298.356c21.707,53.098 31.487,88.651 77.237,88.651l166.833,-387.007l-95.221,0Z" style="fill:#000221;fill-rule:nonzero;"/><path d="M9695.71,4888.29c-0,0 90.656,169.942 108.206,210.655l90.956,-211.008l95.221,0l-166.833,387.007c-45.75,0 -60.502,-27.16 -82.181,-80.259c-7.227,-17.681 -22.495,-55.053 -44.853,-106.522l-88.212,186.781c-45.75,0 -55.53,-35.553 -77.209,-88.651c-19.153,-46.852 -129.479,-298.356 -129.479,-298.356l95.71,0c31.596,72.41 65.527,150.441 91.635,211.008l107.039,-210.655Z" style="fill:#000221;fill-rule:nonzero;"/><path d="M10276.3,5081.44l115.733,-193.517l-102.258,-0c-14.1,23.738 -59.632,100.384 -59.632,100.384l-59.632,-100.384l-102.284,-0l115.732,193.517l-115.732,193.517l102.284,-0c14.1,-23.766 59.632,-100.358 59.632,-100.358l59.632,100.358l102.258,-0l-115.733,-193.517Z" style="fill:#000221;fill-rule:nonzero;"/><path d="M10794,4888.29l-102.284,0l-59.17,99.244l-60.094,-99.244l-102.285,0l118.205,197.591l-0,189.796l87.451,0l-0,-189.796l118.177,-197.591Z" style="fill:#000221;fill-rule:nonzero;"/><path d="M11164.4,4887.44l-306.853,-0l-0,87.429l191.61,-0l-130.321,147.535c-68.298,78.764 -69.766,92.942 -69.766,153.021l315.33,-0l-0,-87.402l-197.886,-0l197.886,-227.929l-0,-72.654Z" style="fill:#000221;fill-rule:nonzero;"/><path d="M6520.41,5529.92l-87.451,0l7.661,260.576l72.129,-0l7.661,-260.576Z" style="fill:#d21567;fill-rule:nonzero;"/><path d="M6730.56,5790.5c-11.764,-48.915 -15.757,-95.36 34.366,-113.312c14.996,-5.351 40.126,-18.198 39.936,-43.973c-0.054,-9.343 -3.912,-18.279 -10.813,-25.178c-7.416,-7.387 -17.522,-11.325 -27.601,-11.325c-42.599,-0 -81.937,19.392 -81.937,19.392l-26.216,-78.982c0,-0 56.671,-23.684 101.279,-23.684c33.66,-1.412 66.913,11.353 91.119,35.173c23.119,22.76 35.806,53.044 35.698,85.256c-0.109,43.321 -24.233,78.738 -69.684,102.448c-17.577,9.153 -22.821,19.474 -17.279,54.185l-68.868,0Z" style="fill:#d21567;fill-rule:nonzero;"/><path d="M818.882,5100.99l35.236,-85.365l35.263,85.365l-70.499,-0Zm142.628,174.667l88.755,0l-159.797,-387.006l-72.672,-0l-159.798,387.006l88.755,0l35.481,-85.908l143.796,0l35.48,85.908Z" style="fill:#000221;fill-rule:nonzero;"/><path d="M1353.95,5189.78l-110.788,-0l0,-61.736l110.788,0c17.007,0 30.889,13.852 30.889,30.854c0,17.03 -13.882,30.882 -30.889,30.882m-110.788,-213.67l96.579,-0c16.627,-0 30.156,13.526 30.156,30.148c0,16.622 -13.529,30.148 -30.156,30.148l-96.579,-0.028l0,-60.268Zm175.663,97.424c23.119,-19.338 37.79,-48.4 37.545,-80.938c-0.407,-57.661 -48.14,-103.779 -105.762,-103.97l-194.951,0l-0,387.034l203.672,0c60.691,-0.19 110.951,-47.15 111.385,-107.853c0.299,-39.79 -20.511,-74.636 -51.889,-94.273" style="fill:#000221;fill-rule:nonzero;"/><path d="M6152.48,5187.98c-58.627,0 -106.305,-47.693 -106.305,-106.278c-0,-58.612 47.678,-106.278 106.305,-106.278c58.599,-0 106.305,47.666 106.305,106.278c-0,58.585 -47.706,106.278 -106.305,106.278m-0,-300.039c-107.039,-0 -193.811,86.75 -193.811,193.761c0,107.012 86.772,193.762 193.811,193.762c107.038,-0 193.81,-86.75 193.81,-193.762c0,-107.011 -86.772,-193.761 -193.81,-193.761" style="fill:#000221;fill-rule:nonzero;"/><path d="M1769.92,5187.98c-58.627,0 -106.306,-47.693 -106.306,-106.278c0,-58.612 47.679,-106.278 106.306,-106.278c36.078,-0 67.945,18.089 87.179,45.629l35.834,-89.085c-33.47,-27.514 -76.313,-44.027 -123.013,-44.027c-107.039,-0 -193.811,86.75 -193.811,193.761c-0,107.012 86.772,193.762 193.811,193.762c46.537,-0 89.244,-16.432 122.659,-43.783l-35.779,-88.95c-19.261,27.324 -50.993,45.249 -86.88,45.249" style="fill:#000221;fill-rule:nonzero;"/><path d="M3316.99,5181.74c-11.111,3.965 -23.011,6.247 -35.453,6.247c-58.627,-0 -106.305,-47.694 -106.305,-106.278c-0,-58.612 47.678,-106.279 106.305,-106.279c36.051,0 67.945,18.089 87.179,45.63l35.834,-89.086c-33.47,-27.513 -76.313,-44.027 -123.013,-44.027c-107.039,0 -193.811,86.75 -193.811,193.762c0,107.011 86.772,193.761 193.811,193.761c46.184,0 89.597,-16.215 122.904,-43.185l0,-149.897l-87.451,-0l-0,99.352Z" style="fill:#000221;fill-rule:nonzero;"/><path d="M2120.5,5188.43l-33.768,0l-0,-212.311l33.768,-0c58.546,-0 106.251,47.639 106.306,106.169c-0.055,58.503 -47.76,106.142 -106.306,106.142m0,-299.795l-121.274,0l0,387.523l121.274,0c107.012,0 193.73,-86.94 193.811,-193.897c-0.081,-106.93 -86.799,-193.626 -193.811,-193.626" style="fill:#000221;fill-rule:nonzero;"/><path d="M4419.51,5077.11l188.513,-188.465l0,-0.027l-123.638,-0l-83.729,83.708l-0,-83.708l-87.424,-0l0,387.061l87.424,-0l-0,-93.785l94.026,94.002l123.203,-0l0.244,-0.217l-198.619,-198.569Z" style="fill:#000221;fill-rule:nonzero;"/><path d="M6613.95,4888.14l-150.153,-0l0,387.523l87.452,-0l-0,-300.23l64.196,0c25.292,0.054 45.776,20.56 45.776,45.847c0,23.195 -17.957,43.456 -39.609,49.051c-21.68,5.595 -41.349,26.617 -41.349,50.057l0,34.602l34.937,-0c74.031,-0 134.016,-60.296 133.445,-134.444c-0.543,-73.441 -61.289,-132.189 -134.695,-132.406" style="fill:#000221;fill-rule:nonzero;"/><path d="M7060.27,5187.7c-58.627,-0 -106.305,-47.667 -106.305,-106.279c-0,-58.611 47.678,-106.278 106.305,-106.278c58.6,0 106.305,47.667 106.305,106.278c0,58.612 -47.705,106.279 -106.305,106.279m194.082,-106.088c0,-107.012 -86.772,-193.762 -193.81,-193.762c-107.039,0 -193.811,86.75 -193.811,193.762c0,107.011 86.772,193.788 193.811,193.788c11.084,0 21.869,-1.168 32.437,-2.933l48.005,57.906l113.368,-0l-77.752,-93.812c47.135,-35.363 77.752,-91.503 77.752,-154.949" style="fill:#000221;fill-rule:nonzero;"/><path d="M7571.72,5143.46c47.108,-20.588 72.4,-67.602 72.319,-122.276c-0.082,-73.767 -60.936,-133.058 -134.695,-133.058l-150.153,-0l-0,387.523l87.451,-0l-0,-309.79l50.151,-0c33.415,-0 60.582,25.911 60.582,59.291c0,14.829 -0.869,43.266 -43.413,55.542c-32.22,9.262 -44.663,34.059 -44.663,59.128c0,14.45 5.081,27.731 13.584,38.16l-0.027,0.028l74.302,97.641l108.859,-0l-96.226,-123.742c-2.309,-2.771 -1.359,-7.008 1.929,-8.447" style="fill:#000221;fill-rule:nonzero;"/><path d="M1089.66,5640.63l0,276.926l87.452,-0l-0,-387.034l-87.452,-0l-78.322,53.451l49.254,76.484l29.068,-19.827Z" style="fill:#000221;fill-rule:nonzero;"/><path d="M1905.12,5713.83c23.119,-19.338 37.79,-48.4 37.545,-80.965c-0.407,-57.661 -48.14,-103.779 -105.762,-103.969l-120.459,-0l-0,87.429l111.603,-0c15.023,-0 27.194,15.562 27.194,34.738c0,19.202 -12.171,34.765 -27.194,34.765l-79.79,-0l-0,72.219l93.373,-0c15.567,-0 28.173,16.133 28.173,36.042c-0,19.908 -12.606,36.069 -28.173,36.069l-125.186,-0l-0,87.401l129.18,0c60.691,-0.19 110.951,-48.752 111.385,-109.483c0.299,-39.79 -20.538,-74.636 -51.889,-94.246" style="fill:#000221;fill-rule:nonzero;"/><path d="M2992.04,5830.73c-22.087,0 -40.071,-17.98 -40.071,-40.088c-0,-22.082 17.984,-40.062 40.071,-40.062c22.087,0 40.072,17.98 40.072,40.062c-0,22.108 -17.985,40.088 -40.072,40.088m15.703,-166.845l63.245,-133.384l-96.769,-0l-98.318,207.368l0.027,0.082c-7.281,16.052 -11.41,33.787 -11.41,52.528c-0,70.508 57.159,127.653 127.685,127.653c70.526,0 127.686,-57.145 127.686,-127.653c-0,-65.212 -48.955,-118.935 -112.146,-126.594" style="fill:#000221;fill-rule:nonzero;"/><path d="M4169.31,5617.91c22.087,0 40.072,17.98 40.072,40.089c-0,22.081 -17.985,40.061 -40.072,40.061c-22.087,0 -40.099,-17.98 -40.099,-40.061c0,-22.109 18.012,-40.089 40.099,-40.089m-15.702,166.846l-63.246,133.384l96.77,-0l98.318,-207.369l-0.027,-0.081c7.281,-16.052 11.41,-33.788 11.41,-52.528c-0,-70.508 -57.16,-127.654 -127.686,-127.654c-70.526,0 -127.686,57.146 -127.686,127.654c0,65.212 48.956,118.935 112.147,126.594" style="fill:#000221;fill-rule:nonzero;"/><path d="M3808.04,5825.66l-37.517,-0c-12.199,-0 -22.087,-10.375 -22.087,-23.168c-0,-12.792 9.888,-23.168 22.087,-23.168l37.517,0c12.198,0 22.06,10.376 22.06,23.168c0,12.793 -9.862,23.168 -22.06,23.168m-27.792,-213.833l17.469,-0c9.644,-0 17.468,7.822 17.468,17.464c0,9.642 -7.824,17.464 -17.468,17.464l-17.469,0c-9.644,0 -17.468,-7.822 -17.468,-17.464c-0,-9.642 7.824,-17.464 17.468,-17.464m85.414,100.33c23.092,-19.365 37.789,-48.4 37.545,-80.965c-0.435,-57.661 -48.14,-103.779 -105.789,-103.969l-16.3,-0c-57.622,0.19 -105.355,46.308 -105.789,103.969c-0.218,32.565 14.453,61.6 37.572,80.965c-31.378,19.61 -52.188,54.456 -51.889,94.246c0.434,60.703 50.694,109.293 111.385,109.483l33.769,0c60.691,-0.19 110.923,-48.78 111.385,-109.483c0.299,-39.79 -20.538,-74.636 -51.889,-94.246" style="fill:#000221;fill-rule:nonzero;"/><path d="M6476.69,5829.56c-24.124,0 -43.712,19.61 -43.712,43.701c0,24.118 19.588,43.728 43.712,43.728c24.097,0 43.712,-19.61 43.712,-43.728c0,-24.091 -19.615,-43.701 -43.712,-43.701" style="fill:#d21567;fill-rule:nonzero;"/><path d="M6767.47,5829.56c-24.097,0 -43.712,19.61 -43.712,43.701c0,24.118 19.615,43.728 43.712,43.728c24.098,0 43.712,-19.61 43.712,-43.728c0,-24.091 -19.614,-43.701 -43.712,-43.701" style="fill:#d21567;fill-rule:nonzero;"/><path d="M4526.74,5829.56c-24.124,0 -43.712,19.61 -43.712,43.701c0,24.118 19.588,43.728 43.712,43.728c24.097,0 43.712,-19.61 43.712,-43.728c0,-24.091 -19.615,-43.701 -43.712,-43.701" style="fill:#d21567;fill-rule:nonzero;"/><path d="M4965.86,5763.81c-24.125,-0 -43.712,19.61 -43.712,43.701c-0,24.118 19.587,43.728 43.712,43.728c24.097,-0 43.712,-19.61 43.712,-43.728c-0,-24.091 -19.615,-43.701 -43.712,-43.701" style="fill:#d21567;fill-rule:nonzero;"/><path d="M4965.86,5597.41c-24.125,-0 -43.712,19.61 -43.712,43.701c-0,24.118 19.587,43.728 43.712,43.728c24.097,-0 43.712,-19.61 43.712,-43.728c-0,-24.091 -19.615,-43.701 -43.712,-43.701" style="fill:#d21567;fill-rule:nonzero;"/><path d="M5185.42,5597.41c-24.124,-0 -43.712,19.61 -43.712,43.701c0,24.118 19.588,43.728 43.712,43.728c24.098,-0 43.712,-19.61 43.712,-43.728c0,-24.091 -19.614,-43.701 -43.712,-43.701" style="fill:#d21567;fill-rule:nonzero;"/><path d="M4790.02,5873.27c-0,-24.118 -19.615,-43.701 -43.712,-43.701c-24.125,0 -43.739,19.583 -43.739,43.701c-0,17.681 10.622,32.891 25.781,39.763c-3.178,8.935 -9.508,19.582 -22.195,28.355c59.414,-8.284 78.35,-46.879 78.35,-46.879c3.586,-6.355 5.515,-13.471 5.515,-21.239" style="fill:#d21567;fill-rule:nonzero;"/><path d="M5229.14,5806.25c0,-24.091 -19.614,-43.701 -43.712,-43.701c-24.124,0 -43.739,19.61 -43.739,43.701c0,17.709 10.623,32.891 25.782,39.763c-3.179,8.936 -9.509,19.583 -22.196,28.355c59.415,-8.284 78.351,-46.878 78.351,-46.878c3.586,-6.356 5.514,-13.472 5.514,-21.24" style="fill:#d21567;fill-rule:nonzero;"/><path d="M5663.38,5567.64c-2.798,-23.955 -24.532,-41.148 -48.494,-38.377c-23.934,2.797 -41.158,24.553 -38.36,48.481c2.038,17.573 14.345,31.451 30.21,36.53c-2.119,9.235 -7.172,20.534 -18.772,30.719c58.056,-15.101 72.4,-55.625 72.4,-55.625c2.826,-6.708 3.912,-14.014 3.016,-21.728" style="fill:#d21567;fill-rule:nonzero;"/><path d="M5359.26,5567.64c2.798,-23.955 24.532,-41.148 48.493,-38.377c23.934,2.797 41.158,24.553 38.36,48.481c-2.037,17.573 -14.344,31.451 -30.21,36.53c2.146,9.235 7.172,20.534 18.773,30.719c-58.057,-15.101 -72.401,-55.625 -72.401,-55.625c-2.825,-6.708 -3.912,-14.014 -3.015,-21.728" style="fill:#d21567;fill-rule:nonzero;"/><path d="M5799.37,5567.64c2.798,-23.955 24.532,-41.148 48.493,-38.377c23.934,2.797 41.158,24.553 38.36,48.481c-2.037,17.573 -14.344,31.451 -30.21,36.53c2.146,9.235 7.172,20.534 18.773,30.719c-58.029,-15.101 -72.401,-55.625 -72.401,-55.625c-2.825,-6.708 -3.912,-14.014 -3.015,-21.728" style="fill:#d21567;fill-rule:nonzero;"/><path d="M5903.28,5567.64c2.798,-23.955 24.532,-41.148 48.493,-38.377c23.935,2.797 41.159,24.553 38.36,48.481c-2.037,17.573 -14.344,31.451 -30.21,36.53c2.147,9.235 7.173,20.534 18.773,30.719c-58.056,-15.101 -72.401,-55.625 -72.401,-55.625c-2.825,-6.708 -3.912,-14.014 -3.015,-21.728" style="fill:#d21567;fill-rule:nonzero;"/><path d="M6307.07,5567.64c-2.798,-23.955 -24.531,-41.148 -48.493,-38.377c-23.934,2.797 -41.158,24.553 -38.36,48.481c2.038,17.573 14.344,31.451 30.21,36.53c-2.146,9.235 -7.172,20.534 -18.773,30.719c58.057,-15.101 72.401,-55.625 72.401,-55.625c2.825,-6.708 3.912,-14.014 3.015,-21.728" style="fill:#d21567;fill-rule:nonzero;"/><path d="M6203.17,5567.64c-2.798,-23.955 -24.532,-41.148 -48.493,-38.377c-23.935,2.797 -41.159,24.553 -38.361,48.481c2.038,17.573 14.345,31.451 30.21,36.53c-2.146,9.235 -7.172,20.534 -18.772,30.719c58.029,-15.101 72.4,-55.625 72.4,-55.625c2.826,-6.708 3.912,-14.014 3.016,-21.728" style="fill:#d21567;fill-rule:nonzero;"/><path d="M7150.93,5719.7c-0.135,-2.146 -0.326,-4.264 -0.326,-6.437c0,-2.146 0.191,-4.237 0.326,-6.356l94.732,0l25.456,-46.335l-106.414,-0c18.365,-31.968 52.786,-53.587 92.206,-53.587c18.582,-0 36.023,4.807 51.237,13.2l42.163,-76.674c-27.71,-15.291 -59.523,-24.01 -93.4,-24.01c-88.756,0 -163.384,59.699 -186.367,141.071l-37.274,-0l0,46.335l30.156,0c-0.082,2.119 -0.326,4.21 -0.326,6.356c-0,2.173 0.244,4.291 0.326,6.437l-30.156,-0l0,46.335l37.301,0c23.011,81.318 97.612,140.989 186.34,140.989c33.823,0 65.608,-8.718 93.292,-23.955l-42.164,-76.674c-15.186,8.366 -32.6,13.146 -51.128,13.146c-39.393,-0 -73.786,-21.592 -92.151,-53.506l48.384,0l25.456,-46.335l-87.669,-0Z" style="fill:#d21567;fill-rule:nonzero;"/><path d="M7619.44,5666.28c-3.559,-0.489 -34.72,-5.242 -34.72,-25.965c0,-14.042 12.307,-25.477 27.439,-25.477c18.881,0 39.963,3.857 66.288,12.141l30.916,9.859l33.171,-89.792l-31.106,-9.913c-24.912,-7.822 -47.19,-12.82 -68.298,-15.319l-0,-26.943l-62.403,0l-0,28.763c-56.318,13.091 -98.21,60.377 -98.21,116.681c0,60.975 50.314,110.298 122.361,119.912c3.559,0.489 34.693,5.242 34.693,25.966c-0,14.069 -12.28,25.476 -27.412,25.476c-18.881,-0 -40.207,-3.911 -67.32,-12.439l-32.302,-9.588l-31.052,90.417l31.405,9.315c24.722,7.795 46.864,12.766 67.837,15.265l-0,26.752l62.403,0l-0,-28.382c56.534,-12.955 98.644,-60.35 98.644,-116.816c-0,-60.975 -50.314,-110.271 -122.334,-119.913" style="fill:#d21567;fill-rule:nonzero;"/><path d="M7989.73,5754.41l56.969,-0l0,-62.36l-76.72,-0c-2.499,-13.092 -3.803,-26.78 -3.803,-41.637c-0,-20.832 17.496,-37.78 38.985,-37.78c47.081,-0 92.939,27.622 93.401,27.894l6.329,3.856l24.994,-73.903l-3.015,-2.444c-1.82,-1.521 -45.831,-36.802 -123.801,-36.802c-66.532,-0 -120.704,52.5 -120.704,117.033c0,17.301 2.69,31.886 5.678,43.783l-14.371,-0l-0,62.36l33.252,-0c4.075,22.054 3.288,50.599 -18.473,89.873c-7.01,12.657 -6.684,27.079 -6.276,43.728c0.081,4.156 0.19,8.528 0.19,13.091l0,5.677l239.533,-0l0,-81.78l-137.439,0c10.378,-28.708 10.242,-50.844 5.271,-70.589" style="fill:#d21567;fill-rule:nonzero;"/><path d="M8868.45,5786.87c-35.154,0 -63.653,-28.491 -63.653,-63.636c0,-35.145 28.499,-63.637 63.653,-63.637c35.154,0 63.653,28.492 63.653,63.637c-0,35.145 -28.499,63.636 -63.653,63.636m193.811,-63.636c-0,-107.012 -86.772,-193.762 -193.811,-193.762c-107.039,0 -193.811,86.75 -193.811,193.762c0,107.011 86.772,193.761 193.811,193.761c12.66,0 25.048,-1.303 37.029,-3.612l-0,-52.528c-11.818,3.205 -24.206,4.998 -37.029,4.998c-78.785,-0 -142.655,-63.854 -142.655,-142.619c0,-78.765 63.87,-142.619 142.655,-142.619c78.785,0 142.655,63.854 142.655,142.619c-0,31.098 -10.079,59.753 -26.95,83.192l0,-83.192c0,-63.881 -51.808,-115.676 -115.705,-115.676c-63.897,0 -115.705,51.795 -115.705,115.676c0,63.881 51.808,115.676 115.705,115.676c23.663,-0 45.641,-7.144 63.979,-19.311l-0,86.369c75.552,-26.454 129.832,-98.157 129.832,-182.734" style="fill:#d21567;fill-rule:nonzero;"/><g transform="matrix(250,0,0,250,2795.28,525.65)"></g><text x="652.578px" y="525.65px" style="font-family:'NunitoSans10pt-Regular', 'Nunito Sans 10pt';font-size:250px;fill:#d21567;">O<tspan x="852.391px 1048.2px 1120.55px 1286.86px 1486.68px 1558.99px 1754.8px 1913.37px 1985.71px 2129.78px 2202.09px 2392.65px 2590.97px 2734.53px " y="525.65px 525.65px 525.65px 525.65px 525.65px 525.65px 525.65px 525.65px 525.65px 525.65px 525.65px 525.65px 525.65px 525.65px ">N POINT LIGHT.</tspan></text><g transform="matrix(250,0,0,250,3229.28,2633.5)"></g><text x="652.578px" y="2633.5px" style="font-family:'NunitoSans10pt-Regular', 'Nunito Sans 10pt';font-size:250px;fill:#d21567;">O<tspan x="849.871px 1043.16px 1115.34px 1279.13px 1476.42px 1546.22px 1739.51px 1895.55px 1967.72px 2141.77px 2294.31px 2482.35px 2668.65px 2805.19px 2992.74px 3168.53px " y="2633.5px 2633.5px 2633.5px 2633.5px 2633.5px 2633.5px 2633.5px 2633.5px 2633.5px 2633.5px 2633.5px 2633.5px 2633.5px 2633.5px 2633.5px 2633.5px ">N POINT REGULAR.</tspan></text><g transform="matrix(250,0,0,250,2746.95,4741.34)"></g><text x="652.578px" y="4741.35px" style="font-family:'NunitoSans10pt-Regular', 'Nunito Sans 10pt';font-size:250px;fill:#d21567;">O<tspan x="851.845px 1047.11px 1119.45px 1285.22px 1484.49px 1556.26px 1751.52px 1909.54px 1981.88px 2159.4px 2358.66px 2502.18px 2686.2px " y="4741.35px 4741.35px 4741.35px 4741.35px 4741.35px 4741.35px 4741.35px 4741.35px 4741.35px 4741.35px 4741.35px 4741.35px 4741.35px ">N POINT BOLD.</tspan></text></svg>