<?xml version="1.0" encoding="UTF-8" standalone="no"?><!DOCTYPE svg PUBLIC "-//W3C//DTD SVG 1.1//EN" "http://www.w3.org/Graphics/SVG/1.1/DTD/svg11.dtd"><svg width="100%" height="100%" viewBox="0 0 237 237" version="1.1" xmlns="http://www.w3.org/2000/svg" xmlns:xlink="http://www.w3.org/1999/xlink" xml:space="preserve" xmlns:serif="http://www.serif.com/" style="fill-rule:evenodd;clip-rule:evenodd;stroke-linejoin:round;stroke-miterlimit:2;"><path d="M236.22,118.112c0,65.229 -52.879,118.108 -118.112,118.108c-65.228,0 -118.108,-52.879 -118.108,-118.108c0,-65.228 52.88,-118.112 118.108,-118.112c65.233,-0 118.112,52.884 118.112,118.112" style="fill:#f391bb;fill-rule:nonzero;"/><path d="M199.289,118.112c-0,44.832 -36.345,81.177 -81.177,81.177c-44.836,0 -81.181,-36.345 -81.181,-81.177c0,-44.832 36.345,-81.177 81.181,-81.177c44.832,0 81.177,36.345 81.177,81.177" style="fill:#1a3966;fill-rule:nonzero;"/><path d="M166.482,118.112c0,26.715 -21.658,48.373 -48.373,48.373c-26.714,-0 -48.372,-21.658 -48.372,-48.373c-0,-26.715 21.658,-48.373 48.372,-48.373c26.715,0 48.373,21.658 48.373,48.373" style="fill:#ee347d;fill-rule:nonzero;"/></svg>