<?xml version="1.0" encoding="UTF-8" standalone="no"?>
<!DOCTYPE svg PUBLIC "-//W3C//DTD SVG 1.1//EN" "http://www.w3.org/Graphics/SVG/1.1/DTD/svg11.dtd">
<svg width="100%" height="100%" viewBox="0 0 200 200" version="1.1" xmlns="http://www.w3.org/2000/svg" xmlns:xlink="http://www.w3.org/1999/xlink" xml:space="preserve" xmlns:serif="http://www.serif.com/" style="fill-rule:evenodd;clip-rule:evenodd;stroke-linejoin:round;stroke-miterlimit:2;">
    <g transform="matrix(0.180468,0,0,0.180422,-847.505,-165.326)">
        <path d="M5666.99,1835.68C5637.25,1869.61 5603.44,1899.85 5566.3,1925.69L5565.75,1926.06L5562.64,1928.17L5558.79,1930.8C5465.77,1993.48 5357.89,2024.84 5250.06,2024.84C5108.48,2024.84 4966.87,1970.84 4858.82,1862.79C4853.37,1857.35 4848.1,1851.83 4842.95,1846.21L4838.46,1841.32L4837.55,1840.28L4834.55,1836.92L4833.31,1835.5L4890.55,1778.27L4891.43,1777.39L5250.09,1418.73L5608.92,1777.55L5609.63,1778.27L5609.67,1778.21L5666.91,1835.46L5666.87,1835.5L5667.04,1835.68L5666.99,1835.68ZM5721,1434.47C5702.59,1190.54 5498.84,998.328 5250.22,998.328C5002.38,998.328 4799.16,1189.3 4779.65,1432.1L4939.95,1271.76L5054.23,1386.02L5250.06,1190.21L5445.91,1386.02L5560.19,1271.76L5611,1322.6L5610.08,1323.52L5721,1434.43L5721,1434.47ZM5250.22,916.33C5556.25,916.33 5804.38,1164.46 5804.38,1470.49C5804.38,1519.38 5798.02,1566.77 5786.13,1611.94L5785.51,1611.3L5785.47,1611.47L5717.17,1543.18L5717.23,1543.01L5716.93,1542.71L5560.23,1386.02L5503.07,1443.19L5745.72,1685.83L5745.67,1685.91L5755.94,1696.17C5744.63,1721.63 5731.3,1746.43 5715.97,1770.32L5657.27,1711.62L5250.14,1304.48L4842.99,1711.62L4784.29,1770.32C4768.98,1746.43 4755.63,1721.63 4744.34,1696.17L4750.4,1690.11L4750.36,1690.06L4997.19,1443.22L4940.03,1386.07L4783.05,1543.06L4783.09,1543.26L4714.79,1611.55L4714.75,1611.38L4714.34,1611.8C4702.51,1566.73 4696.15,1519.37 4696.15,1470.57C4696.15,1164.54 4944.27,916.408 5250.3,916.408L5250.22,916.33ZM5551.31,1834.17L5250.06,1532.92L4948.97,1834.01C5030.71,1901.85 5135.69,1942.59 5250.22,1942.59C5364.67,1942.59 5469.6,1901.89 5551.31,1834.14L5551.31,1834.17Z" style="fill:rgb(140,149,62);fill-rule:nonzero;"/>
    </g>
</svg>
